<svg width="189" height="62" viewBox="0 0 189 62" fill="none" xmlns="http://www.w3.org/2000/svg">
<g clip-path="url(#clip0_2795_22315)">
<path d="M32.4333 10.3831C36.6941 8.05406 41.1162 6.05909 45.6747 4.45043C40.1279 1.41205 33.7971 0.21425 27.5004 0.959342C25.7618 6.00394 24.1664 11.0849 22.6755 16.2159C25.8001 14.1141 29.0701 12.1781 32.4333 10.3831ZM26.5365 9.55342C25.7458 7.31283 29.2226 6.08588 30.0133 8.32648C30.804 10.5671 27.3272 11.794 26.5365 9.55342Z" fill="#365DDC"/>
<path d="M14.4621 22.5311C16.6823 20.5747 18.9957 18.7592 21.4408 17.0709C22.9794 11.7059 24.6226 6.39086 26.4475 1.09857C9.89541 3.68161 -1.44207 19.1946 1.14097 35.7467C1.24546 36.5352 1.42723 37.2965 1.62262 38.0964C5.05867 32.3224 9.42411 27.0893 14.4621 22.5311ZM18.0848 8.9152C17.635 7.64038 19.6051 6.94511 20.055 8.21993C20.5049 9.49475 18.5347 10.19 18.0848 8.9152ZM15.7486 16.0822C14.7943 13.378 18.9664 11.9057 19.9207 14.6098C20.8613 17.2754 16.6892 18.7477 15.7486 16.0822ZM4.58167 27.2777C4.13179 26.0029 6.10197 25.3076 6.55185 26.5825C7.00173 27.8573 5.07018 28.5389 4.58167 27.2777Z" fill="#365DDC"/>
<path d="M21.6919 19.6114C19.7647 26.4603 17.942 33.3591 16.626 40.3398C15.9146 44.1096 15.4372 47.9272 15.2712 51.7652C15.2507 53.5536 15.321 55.3533 15.4823 57.1644C29.8729 65.8136 48.527 61.1855 57.1762 46.7949C65.4982 32.9542 61.5563 15.0137 48.1565 5.97139C42.68 7.68681 37.5285 10.1999 32.445 12.9061C28.7228 14.9147 25.121 17.1415 21.6919 19.6114Z" fill="#365DDC"/>
<path d="M14.3025 51.8663C14.4844 48.1964 14.8867 44.5356 15.5618 40.9089C16.7891 34.0464 18.5755 27.2907 20.4277 20.5986C18.8166 21.8188 17.2327 23.1163 15.7397 24.4251C10.254 29.3151 5.98624 34.9481 2.41383 41.0743C2.44109 41.1515 2.45472 41.1902 2.48199 41.2674C4.69049 47.5256 8.8919 52.9068 14.475 56.5405C14.3182 54.9885 14.2774 53.3956 14.3025 51.8663ZM17.0395 24.6615C16.6714 23.6185 18.2552 23.0595 18.6233 24.1026C18.9914 25.1456 17.4076 25.7045 17.0395 24.6615ZM10.2463 51.0821C9.59193 49.2278 12.4506 48.219 13.105 50.0733C13.7594 51.9276 10.9007 52.9364 10.2463 51.0821Z" fill="#365DDC"/>
<path d="M34.656 27.5614C34.6539 28.3718 35.3126 29.0339 36.1231 29.0359C36.8735 29.0378 37.2049 28.5584 37.4743 28.8592C37.594 29.0096 37.6235 29.1898 37.6221 29.7601L37.6147 32.6717L40.076 32.678C40.4362 32.6789 40.4963 32.649 40.5266 32.559C40.587 32.4091 40.4675 32.1687 40.4689 31.6284C40.4718 30.4877 41.6747 29.5903 42.7253 29.593C43.7759 29.5956 44.9743 30.4691 44.9714 31.6398C44.97 32.1801 44.8493 32.4199 44.909 32.5701C44.9388 32.6303 44.9987 32.6904 45.3589 32.6914L47.8203 32.6976L47.8431 23.6927C47.8431 23.6927 47.8747 23.0624 47.5753 22.7615C47.2759 22.4606 46.5554 22.4887 46.5554 22.4887L37.6406 22.4661L37.6332 25.3777C37.6317 25.948 37.6013 26.1281 37.4808 26.2778C37.2399 26.5774 36.8809 26.0962 36.1305 26.0943C35.3202 26.0622 34.6581 26.7209 34.656 27.5614Z" fill="white"/>
<path d="M26.6961 32.6237L29.6077 32.6311C30.1781 32.6325 30.3581 32.663 30.5079 32.7834C30.8074 33.0243 30.3262 33.3833 30.3243 34.1337C30.3223 34.9442 30.981 35.6062 31.7914 35.6082C32.6018 35.6103 33.2639 34.9516 33.2659 34.1412C33.2678 33.3908 32.7884 33.0594 33.0893 32.79C33.2397 32.6703 33.4198 32.6407 33.9901 32.6422L36.9017 32.6496L36.908 30.1882C36.9089 29.828 36.879 29.7679 36.7891 29.7377C36.6391 29.6772 36.3987 29.7967 35.8584 29.7953C34.7178 29.7924 33.8203 28.5895 33.823 27.5389C33.8256 26.4884 34.6992 25.2899 35.8698 25.2929C36.4101 25.2942 36.6499 25.4149 36.8002 25.3553C36.8603 25.3254 36.9205 25.2655 36.9214 24.9053L36.9276 22.444L28.1628 22.4218C28.1628 22.4218 27.3225 22.3596 26.9915 22.6889C26.6605 23.0183 26.7187 23.7388 26.7187 23.7388L26.6961 32.6237Z" fill="white"/>
<path d="M39.8408 38.5687C39.8428 37.7583 39.1841 37.0962 38.3737 37.0942C37.6233 37.0923 37.2919 37.5717 37.0225 37.2708C36.9028 37.1205 36.8732 36.9403 36.8747 36.37L36.8821 33.4584L34.4207 33.4521C34.0605 33.4512 34.0004 33.4811 33.9702 33.5711C33.9098 33.721 34.0292 33.9614 34.0278 34.5017C34.025 35.6423 32.822 36.5398 31.7714 36.5371C30.7209 36.5345 29.5224 35.6609 29.5254 34.4903C29.5268 33.95 29.6474 33.7102 29.5878 33.5599C29.5579 33.4998 29.498 33.4397 29.1378 33.4387L26.6765 33.4325L26.6542 42.2273C26.6542 42.2273 26.6223 42.9776 26.9517 43.2786C27.281 43.6097 28.0014 43.6115 28.0014 43.6115L36.8563 43.6339L36.8636 40.7224C36.8651 40.152 36.8956 39.972 37.016 39.8222C37.2569 39.5227 37.6159 40.0039 38.3663 40.0058C39.1767 40.0378 39.8387 39.3791 39.8408 38.5687Z" fill="white"/>
<path d="M48.7534 48.3241L55.0127 42.0966L52.9767 40.0503C52.5875 39.6591 52.4678 39.5087 52.4383 39.2985C52.4093 38.9082 52.9794 38.9997 53.521 38.4908C54.0927 37.9219 54.0952 36.9614 53.5263 36.3896C52.9574 35.8179 52.0269 35.8155 51.4252 36.3843C50.9136 36.8933 50.9721 37.4938 50.612 37.4628C50.4319 37.4324 50.2822 37.3119 49.8629 36.9206L47.827 34.8743L46.0816 36.6109C45.8108 36.8803 45.8106 36.9404 45.8405 37.0005C45.9002 37.1507 46.1401 37.2114 46.5294 37.6026C47.3377 38.4151 47.1239 39.8853 46.3716 40.6338C45.6193 41.3823 44.1779 41.6188 43.3395 40.7762C42.9503 40.385 42.8909 40.1448 42.741 40.0843C42.681 40.0542 42.621 40.054 42.3501 40.3235L40.6048 42.06L46.8623 48.3494C46.8623 48.3494 47.3411 48.9209 47.7914 48.922C48.2416 48.9232 48.7534 48.3241 48.7534 48.3241Z" fill="white"/>
<path d="M73.696 36.9515H69.4639V35.8934L77.2598 19.4105H81.9374L89.7334 35.8934V36.9515H85.5013L83.9978 33.5546H75.1995L73.696 36.9515ZM76.9257 29.6567H82.2715L79.5986 23.6983L76.9257 29.6567Z" fill="#365DDC"/>
<path d="M100.258 36.9513H95.5807V23.6425H88.7871V19.4661H107.108V23.6425H100.314V36.9513H100.258Z" fill="#365DDC"/>
<path d="M120.75 36.9513H116.072V23.6425H109.278V19.4661H127.599V23.6425H120.805V36.9513H120.75Z" fill="#365DDC"/>
<path d="M147.035 19.4661V23.6425H135.007V26.2597H144.418V30.4361H135.007V32.7749H147.035V36.9513H130.273V19.4661H147.035Z" fill="#365DDC"/>
<path d="M149.874 28.877V27.5405C149.874 26.3711 150.041 25.2574 150.32 24.1994C150.598 23.1414 151.099 22.2504 151.823 21.4708C152.547 20.6912 153.494 20.0787 154.719 19.6332C155.944 19.1877 157.447 18.965 159.341 18.965H160.287C161.457 18.965 162.626 19.0207 163.74 19.1877C164.853 19.3548 165.967 19.5218 167.025 19.8002V24.0323C166.413 23.8653 165.8 23.6982 165.188 23.5869C164.575 23.4755 163.962 23.3641 163.35 23.3084C162.737 23.2528 162.181 23.1971 161.624 23.1414C161.067 23.0857 160.566 23.0857 160.12 23.0857C158.784 23.0857 157.726 23.1971 157.002 23.4755C156.278 23.7539 155.721 24.088 155.387 24.5335C155.053 24.979 154.83 25.5359 154.774 26.1484C154.719 26.7609 154.663 27.4849 154.663 28.2088C154.663 28.9327 154.719 29.6566 154.774 30.2691C154.83 30.8817 155.053 31.4385 155.387 31.884C155.721 32.3295 156.278 32.7193 157.002 32.942C157.726 33.2205 158.784 33.3318 160.12 33.3318C160.566 33.3318 161.067 33.3318 161.624 33.2761C162.181 33.2205 162.737 33.1648 163.35 33.1091C163.962 33.0534 164.575 32.942 165.188 32.775C165.8 32.6636 166.413 32.4965 167.025 32.3295V36.6173C165.967 36.8957 164.853 37.0628 163.74 37.2298C162.626 37.3969 161.457 37.4525 160.287 37.4525H159.341C157.503 37.4525 155.944 37.2298 154.719 36.7843C153.494 36.3388 152.547 35.7263 151.823 34.9467C151.099 34.1671 150.598 33.2761 150.32 32.2181C150.041 31.2158 149.874 30.1021 149.874 28.877Z" fill="#365DDC"/>
<path d="M169.92 19.4661H174.653V26.2597H183.73V19.4661H188.408V36.9513H183.73V30.4361H174.598V36.9513H169.864V19.4661H169.92Z" fill="#365DDC"/>
</g>
<defs>
<clipPath id="clip0_2795_22315">
<rect width="187.716" height="60.7529" fill="white" transform="translate(0.744141 0.744873)"/>
</clipPath>
</defs>
</svg>
