<svg width="93" height="84" viewBox="0 0 93 84" fill="none" xmlns="http://www.w3.org/2000/svg">
<path fill-rule="evenodd" clip-rule="evenodd" d="M0.90057 39.865C0.90057 33.991 3.50257 32.511 8.46157 32.562C10.7226 32.584 13.8246 32.612 17.4566 32.641L17.4556 0.453003L59.8816 0.25L76.0406 16.205L76.4856 33.073C81.2696 33.11 85.1376 33.141 87.4826 33.165C90.4216 33.194 92.6906 35.792 92.6906 40.598C92.6906 45.404 92.6906 83.816 92.6906 83.816L0.30957 83.237C0.31057 83.238 0.90057 45.74 0.90057 39.865ZM70.6956 20.52L56.0806 20.881L57.0136 5.979L23.1176 6.009L22.5426 45.66L71.1706 44.931L70.6956 20.52ZM17.8226 76.813L76.9216 77.62L76.3826 65.244L17.3956 64.658L17.8226 76.813ZM11.6196 53.681C16.5556 53.681 16.5866 45.96 11.5326 45.96C6.45957 45.96 6.21557 53.681 11.6196 53.681Z" fill="#E3E3E3"/>
</svg>
