<svg width="139" height="59" viewBox="0 0 139 59" fill="none" xmlns="http://www.w3.org/2000/svg">
<path d="M22.2497 6.96523H37.995V13.2626H22.2497C17.0326 13.2626 12.8035 17.4918 12.8035 22.7088C12.8035 27.9269 17.0327 32.155 22.2497 32.155H31.6969V25.8577H22.2497V19.5605H31.6969H37.995V25.8577V32.155V38.4531H31.6969H22.2497C13.5555 38.4531 6.50611 31.4047 6.50611 22.7088C6.50611 14.0138 13.5555 6.96523 22.2497 6.96523ZM0.208984 44.7505H44.2921V0.667236H0.208984V44.7505Z" fill="#1E4151"/>
<path d="M53.7385 22.7086V6.96525H75.7812C80.9983 6.96525 85.2274 11.1935 85.2274 16.4115C85.2274 18.8299 84.3163 21.0371 82.8212 22.7086C84.3162 24.3803 85.2274 26.5872 85.2274 29.006C85.2274 34.2241 80.9982 38.4522 75.7812 38.4522H53.7385V22.7086ZM47.4414 44.7503H91.5247V0.666992H47.4414V44.7503Z" fill="#1E4151"/>
<path d="M78.9286 29.0062C78.9286 27.2679 77.519 25.8573 75.7797 25.8573H63.1834V19.5599H75.7797C77.519 19.5599 78.9286 18.1494 78.9286 16.411C78.9286 14.6715 77.519 13.2628 75.7797 13.2628H60.0352V22.709V32.1552H75.7797C77.519 32.1552 78.9286 30.7456 78.9286 29.0061V29.0062Z" fill="#1E4151"/>
<path d="M132.458 13.2625H116.714C111.497 13.2625 107.269 17.4917 107.269 22.7088C107.269 27.9259 111.497 32.155 116.714 32.155H126.16V25.8578H116.714V19.5598H126.16H132.458V25.8578V32.155V38.4524H126.16H116.714C108.019 38.4524 100.97 31.4047 100.97 22.7088C100.97 14.0131 108.019 6.96542 116.714 6.96542H132.458V13.2625ZM94.6719 44.7504H138.755V0.667162H94.6719V44.7504Z" fill="#1E4151"/>
<path d="M3.96841 58.4286C3.43428 58.4286 2.9384 58.3328 2.47796 58.1432C2.01751 57.9527 1.61918 57.6906 1.28357 57.354C0.94693 57.0171 0.683738 56.6179 0.49434 56.153C0.303441 55.6894 0.208984 55.1875 0.208984 54.6458C0.208984 54.105 0.303441 53.6032 0.49434 53.1383C0.683622 52.6746 0.94693 52.2742 1.28357 51.9385C1.61918 51.6018 2.01751 51.3386 2.47796 51.1492C2.9384 50.9583 3.43428 50.8635 3.96841 50.8635C4.76584 50.8635 5.44468 51.0597 6.00756 51.4501C6.57079 51.8414 6.99554 52.3666 7.27999 53.0234H5.74553C5.54735 52.7569 5.29639 52.5426 4.99428 52.3789C4.68997 52.2171 4.34859 52.1347 3.96841 52.1347C3.63281 52.1347 3.32401 52.1995 3.04303 52.3274C2.76113 52.457 2.51548 52.633 2.30818 52.8572C2.09996 53.0803 1.93713 53.3445 1.81991 53.6499C1.70396 53.9533 1.64483 54.2855 1.64483 54.6457C1.64483 55.0057 1.70396 55.3378 1.81991 55.6426C1.93713 55.9469 2.09996 56.2122 2.30818 56.4353C2.51548 56.6593 2.76113 56.8354 3.04303 56.9647C3.32401 57.093 3.63281 57.1565 3.96841 57.1565C4.49595 57.1565 4.92382 57.0149 5.25723 56.7339C5.58972 56.453 5.81828 56.0784 5.94312 55.6113H3.57368V54.3392H7.48834C7.48834 54.9678 7.40043 55.5332 7.22536 56.0384C7.05028 56.5434 6.805 56.9716 6.49053 57.3272C6.17606 57.6806 5.80466 57.9527 5.37771 58.1432C4.95075 58.3328 4.48013 58.4286 3.96841 58.4286Z" fill="#1E4151"/>
<path d="M10.3099 54.2185H12.3715C12.7451 54.2185 13.034 54.1303 13.2436 53.9533C13.4509 53.7761 13.5559 53.5397 13.5559 53.2429C13.5559 52.9464 13.4509 52.7122 13.2436 52.5384C13.0341 52.3655 12.7451 52.2786 12.3715 52.2786H10.3099V54.2185ZM14.9919 53.2429C14.9919 53.4982 14.955 53.7457 14.8826 53.9834C14.8089 54.2207 14.6995 54.436 14.5535 54.63C14.4076 54.824 14.2214 54.989 13.9951 55.1284C13.7676 55.2665 13.4998 55.3657 13.1932 55.4249L15.3752 58.2858H13.588L11.4618 55.4907H10.3099V58.2858H8.87402V51.0065H12.4698C12.9013 51.0065 13.2758 51.0665 13.5937 51.187C13.9113 51.3087 14.1756 51.4701 14.383 51.6753C14.5915 51.8794 14.7455 52.1168 14.8434 52.3879C14.9417 52.6587 14.9919 52.9429 14.9919 53.2429Z" fill="#1E4151"/>
<path d="M18.792 55.4031H20.974L19.8877 52.9144L18.792 55.4031ZM23.7812 58.2864H22.256L21.5448 56.6755H18.2221L17.5097 58.2864H16.04L19.2087 51.0067H20.6126L23.781 58.2864H23.7812Z" fill="#1E4151"/>
<path d="M31.3589 51.0065V58.286H29.8023L26.1831 53.1774V58.286H24.7471V51.0065H26.3049L29.9227 56.1151V51.0065H31.3589Z" fill="#1E4151"/>
<path d="M35.6552 57.0145C36.05 57.0145 36.4068 56.9554 36.7244 56.8385C37.0423 56.7203 37.3122 56.5575 37.5364 56.348C37.7582 56.1395 37.9298 55.8885 38.0503 55.5986C38.1717 55.3098 38.2321 54.9921 38.2321 54.6463C38.2321 54.3009 38.1717 53.983 38.0503 53.6931C37.9298 53.4032 37.7582 53.1533 37.5364 52.945C37.3123 52.7355 37.0425 52.5723 36.7244 52.4545C36.4068 52.3373 36.05 52.2782 35.6552 52.2782H34.6129V57.0145H35.6552ZM35.6989 51.006C36.3345 51.006 36.8974 51.103 37.3879 51.2971C37.8765 51.4911 38.2912 51.7519 38.6321 52.0809C38.9722 52.4096 39.2288 52.7956 39.4039 53.2371C39.5812 53.6798 39.6681 54.1492 39.6681 54.6463C39.6681 55.1426 39.5812 55.6132 39.4039 56.0556C39.2288 56.4971 38.9722 56.8831 38.6321 57.2121C38.2911 57.5408 37.8765 57.8019 37.3879 57.9959C36.8974 58.1897 36.3345 58.2867 35.6989 58.2867H33.1768V51.0061H35.6989V51.006Z" fill="#1E4151"/>
<path d="M45.5337 57.0139H47.2986C47.6431 57.0139 47.9174 56.9425 48.1216 56.7977C48.3254 56.6527 48.4291 56.4396 48.4291 56.1586C48.4291 55.8634 48.3277 55.6425 48.127 55.4987C47.9263 55.3537 47.6498 55.2813 47.2986 55.2813H45.5337V57.0139ZM45.5337 54.0101H47.2986C47.6431 54.0101 47.9174 53.9355 48.1216 53.7882C48.3254 53.6423 48.4291 53.4283 48.4291 53.1482C48.4291 52.8552 48.3277 52.6356 48.127 52.4927C47.9263 52.3489 47.6498 52.2775 47.2986 52.2775H45.5337V54.0101ZM47.4415 51.0054C47.8584 51.0054 48.2187 51.06 48.5217 51.1704C48.8251 51.2785 49.0757 51.4267 49.2733 51.6132C49.4695 51.7993 49.6178 52.0199 49.717 52.2753C49.8149 52.5306 49.8653 52.8015 49.8653 53.086C49.8653 53.4137 49.7929 53.7146 49.65 53.989C49.5075 54.2623 49.2977 54.4798 49.0202 54.6403C49.2977 54.8018 49.5075 55.0192 49.65 55.2936C49.7929 55.5679 49.8653 55.8701 49.8653 56.2001C49.8653 56.4842 49.815 56.7564 49.717 57.0117C49.6178 57.2683 49.4695 57.4902 49.2733 57.6763C49.0758 57.8634 48.8251 58.0119 48.5217 58.1211C48.2186 58.2304 47.8584 58.2861 47.4415 58.2861H44.0977V51.0055H47.4415V51.0054Z" fill="#1E4151"/>
<path d="M51.3359 51.0055H52.7718V55.2333C52.7718 55.8636 52.9292 56.3418 53.2437 56.6672C53.5578 56.9928 53.9896 57.1568 54.537 57.1568C55.0857 57.1568 55.5148 56.9928 55.8246 56.6672C56.1359 56.3417 56.2908 55.8636 56.2908 55.2333V51.0055H57.727V55.2377C57.727 55.7497 57.6511 56.2023 57.4971 56.5971C57.3445 56.9919 57.128 57.324 56.8505 57.594C56.5717 57.8648 56.2374 58.0712 55.8471 58.2138C55.4558 58.3567 55.0196 58.4278 54.537 58.4278C54.054 58.4278 53.616 58.3567 53.2213 58.2138C52.8265 58.0713 52.4908 57.8649 52.2121 57.594C51.9346 57.3241 51.7193 56.992 51.5655 56.5971C51.4119 56.2024 51.3361 55.7498 51.3361 55.2377V51.0055H51.3359Z" fill="#1E4151"/>
<path d="M60.94 58.2852H59.5039V51.0055H60.94V58.2852Z" fill="#1E4151"/>
<path d="M64.1911 57.0139H67.8635V58.286H62.7549V51.0055H64.1911V57.0139Z" fill="#1E4151"/>
<path d="M71.4687 57.0139C71.8634 57.0139 72.2203 56.9548 72.5379 56.8379C72.8558 56.7196 73.1257 56.5569 73.3499 56.3474C73.5717 56.1389 73.7433 55.8879 73.8638 55.598C73.9851 55.3092 74.0455 54.9915 74.0455 54.6457C74.0455 54.3003 73.9851 53.9824 73.8638 53.6925C73.7433 53.4026 73.5717 53.1527 73.3499 52.9444C73.1258 52.7349 72.8559 52.5721 72.5379 52.4539C72.2203 52.3367 71.8634 52.2776 71.4687 52.2776H70.4263V57.0139H71.4687ZM71.5123 51.0054C72.148 51.0054 72.7108 51.1024 73.2013 51.2965C73.6899 51.4905 74.1047 51.7513 74.4456 52.0803C74.7857 52.409 75.0423 52.7949 75.2174 53.2365C75.3946 53.6792 75.4816 54.1486 75.4816 54.6457C75.4816 55.142 75.3946 55.6126 75.2174 56.055C75.0423 56.4965 74.7857 56.8825 74.4456 57.2115C74.1045 57.5402 73.6899 57.8013 73.2013 57.9953C72.7108 58.1891 72.148 58.2861 71.5123 58.2861H68.9902V51.0055H71.5123V51.0054Z" fill="#1E4151"/>
<path d="M78.314 58.2852H76.8779V51.0055H78.314V58.2852Z" fill="#1E4151"/>
<path d="M86.7407 51.0055V58.2852H85.1842L81.5651 53.1765V58.2852H80.1289V51.0055H81.6865L85.3047 56.1143V51.0055H86.7407Z" fill="#1E4151"/>
<path d="M91.9215 58.4285C91.3878 58.4285 90.8915 58.3324 90.4311 58.1428C89.9706 57.9522 89.5723 57.6902 89.2367 57.3535C88.9001 57.0166 88.6369 56.6174 88.4475 56.1526C88.2569 55.6889 88.1621 55.187 88.1621 54.6454C88.1621 54.1045 88.2569 53.6027 88.4475 53.1378C88.6367 52.6741 88.9001 52.2737 89.2367 51.938C89.5723 51.6014 89.9706 51.3382 90.4311 51.1488C90.8915 50.9579 91.3878 50.8634 91.9215 50.8634C92.719 50.8634 93.3978 51.0594 93.961 51.4497C94.5239 51.841 94.9487 52.3662 95.2331 53.023H93.699C93.5005 52.7566 93.2495 52.5422 92.9474 52.3786C92.6431 52.2168 92.3017 52.1343 91.9215 52.1343C91.5859 52.1343 91.2771 52.1991 90.9961 52.3274C90.7142 52.4567 90.4689 52.6328 90.2613 52.8568C90.0531 53.0799 89.8902 53.3442 89.773 53.6495C89.6571 53.9529 89.5979 54.2852 89.5979 54.6454C89.5979 55.0053 89.6571 55.3378 89.773 55.6422C89.8902 55.9465 90.0531 56.2118 90.2613 56.4349C90.4689 56.659 90.7142 56.8351 90.9961 56.9647C91.2771 57.0926 91.5859 57.1561 91.9215 57.1561C92.4491 57.1561 92.8773 57.0146 93.2104 56.7336C93.5428 56.4526 93.7714 56.0781 93.8962 55.6109H91.5268V54.3389H95.4418C95.4418 54.9674 95.3536 55.5329 95.1785 56.038C95.0034 56.543 94.7581 56.9713 94.4437 57.3268C94.1292 57.6802 93.7581 57.9523 93.3308 58.1429C92.9039 58.3325 92.4335 58.4286 91.9215 58.4286V58.4285Z" fill="#1E4151"/>
<path d="M103.631 58.4283C103.097 58.4283 102.601 58.3335 102.141 58.1429C101.681 57.9533 101.282 57.6903 100.947 57.3535C100.61 57.0179 100.347 56.6177 100.157 56.1537C99.9665 55.69 99.8721 55.1872 99.8721 54.6452C99.8721 54.1056 99.9665 53.6028 100.157 53.1389C100.347 52.6752 100.61 52.2739 100.947 51.9382C101.282 51.6026 101.681 51.3393 102.141 51.1487C102.601 50.9591 103.097 50.8646 103.631 50.8646C104.429 50.8646 105.108 51.0597 105.671 51.4499C106.234 51.8412 106.659 52.3664 106.943 53.023H105.409C105.21 52.7565 104.959 52.5425 104.657 52.3798C104.353 52.2171 104.012 52.1356 103.631 52.1356C103.296 52.1356 102.987 52.2003 102.706 52.3286C102.424 52.4579 102.179 52.633 101.971 52.8571C101.763 53.0812 101.6 53.3441 101.483 53.6498C101.367 53.9541 101.308 54.2864 101.308 54.6454C101.308 55.0067 101.367 55.3392 101.483 55.6436C101.6 55.9467 101.763 56.2121 101.971 56.4363C102.179 56.659 102.424 56.8354 102.706 56.9647C102.987 57.093 103.296 57.1566 103.631 57.1566C104.159 57.1566 104.587 57.0159 104.92 56.734C105.253 56.453 105.481 56.0785 105.606 55.611H103.237V54.3389H107.151C107.151 54.9679 107.064 55.5342 106.888 56.0383C106.713 56.5433 106.468 56.9726 106.154 57.3271C105.839 57.6814 105.468 57.9535 105.041 58.1432C104.614 58.3337 104.143 58.4285 103.631 58.4285V58.4283Z" fill="#1E4151"/>
<path d="M109.973 54.2188H112.035C112.408 54.2188 112.697 54.1296 112.907 53.9524C113.114 53.7751 113.219 53.5387 113.219 53.2432C113.219 52.9467 113.114 52.7116 112.907 52.5387C112.697 52.3649 112.408 52.2776 112.035 52.2776H109.973V54.2188ZM114.655 53.2432C114.655 53.4985 114.618 53.7451 114.546 53.9824C114.472 54.2201 114.363 54.4353 114.217 54.6293C114.071 54.8231 113.884 54.9893 113.658 55.1274C113.431 55.2668 113.163 55.366 112.856 55.4242L115.038 58.2852H113.251L111.125 55.491H109.973V58.2852H108.537V51.0055H112.133C112.564 51.0055 112.939 51.0668 113.257 51.1873C113.574 51.3077 113.839 51.4704 114.046 51.6755C114.255 51.8797 114.409 52.1171 114.506 52.3869C114.605 52.659 114.655 52.9422 114.655 53.2432Z" fill="#1E4151"/>
<path d="M119.487 57.1565C119.823 57.1565 120.135 57.0908 120.425 56.958C120.714 56.8266 120.961 56.647 121.17 56.4195C121.378 56.1922 121.541 55.9258 121.657 55.6202C121.775 55.3168 121.833 54.9913 121.833 54.6458C121.833 54.2944 121.775 53.9657 121.657 53.66C121.541 53.3569 121.378 53.0915 121.17 52.8673C120.961 52.6442 120.714 52.4659 120.425 52.3345C120.135 52.2018 119.823 52.136 119.487 52.136C119.143 52.136 118.828 52.2017 118.544 52.3345C118.259 52.4659 118.012 52.6442 117.804 52.8673C117.596 53.0914 117.432 53.3569 117.316 53.66C117.199 53.9656 117.141 54.2944 117.141 54.6458C117.141 54.9913 117.2 55.3168 117.316 55.6202C117.432 55.9258 117.596 56.1922 117.804 56.4195C118.012 56.647 118.259 56.8266 118.544 56.958C118.828 57.0907 119.143 57.1565 119.487 57.1565ZM119.487 58.4286C118.924 58.4286 118.412 58.3307 117.952 58.1321C117.491 57.9349 117.094 57.665 116.757 57.3205C116.421 56.9782 116.161 56.5756 115.979 56.1151C115.795 55.6546 115.704 55.1653 115.704 54.6457C115.704 54.1194 115.795 53.6286 115.979 53.1717C116.161 52.7156 116.421 52.3142 116.757 51.9719C117.094 51.6274 117.491 51.3575 117.952 51.159C118.412 50.9617 118.924 50.8638 119.487 50.8638C120.042 50.8638 120.552 50.9617 121.016 51.159C121.48 51.3575 121.88 51.6274 122.217 51.9719C122.552 52.3142 122.812 52.7155 122.995 53.1717C123.178 53.6286 123.269 54.1194 123.269 54.6457C123.269 55.1653 123.178 55.6546 122.995 56.1151C122.812 56.5755 122.552 56.9782 122.217 57.3205C121.88 57.665 121.48 57.9349 121.016 58.1321C120.552 58.3307 120.042 58.4286 119.487 58.4286Z" fill="#1E4151"/>
<path d="M124.601 51.0056H126.037V55.2347C126.037 55.8633 126.194 56.3419 126.508 56.6673C126.823 56.9942 127.254 57.1569 127.802 57.1569C128.35 57.1569 128.779 56.9942 129.09 56.6673C129.401 56.3418 129.555 55.8633 129.555 55.2347V51.0056H130.992V55.2378C130.992 55.7498 130.916 56.2024 130.762 56.5982C130.609 56.992 130.393 57.325 130.115 57.595C129.836 57.8649 129.502 58.0722 129.112 58.2151C128.72 58.3576 128.285 58.4278 127.802 58.4278C127.319 58.4278 126.881 58.3576 126.486 58.2151C126.092 58.0722 125.756 57.8649 125.477 57.595C125.199 57.3252 124.984 56.992 124.831 56.5982C124.677 56.2025 124.601 55.7499 124.601 55.2378V51.0056H124.601Z" fill="#1E4151"/>
<path d="M134.198 54.2188H136.26C136.633 54.2188 136.922 54.1296 137.132 53.9524C137.339 53.7751 137.444 53.5387 137.444 53.2432C137.444 52.9467 137.339 52.7116 137.132 52.5387C136.922 52.3649 136.633 52.2776 136.26 52.2776H134.198V54.2188ZM138.88 53.2432C138.88 53.5487 138.829 53.8386 138.731 54.1085C138.633 54.3793 138.479 54.617 138.271 54.8209C138.064 55.026 137.799 55.1889 137.481 55.3105C137.164 55.4297 136.789 55.491 136.358 55.491H134.198V58.2852H132.762V51.0055H136.358C136.789 51.0055 137.164 51.0668 137.481 51.1873C137.799 51.3077 138.064 51.4704 138.271 51.6755C138.479 51.8797 138.633 52.1171 138.731 52.3869C138.829 52.659 138.88 52.9422 138.88 53.2432Z" fill="#1E4151"/>
</svg>
