<svg width="130" height="43" viewBox="0 0 130 43" fill="none" xmlns="http://www.w3.org/2000/svg">
<g clip-path="url(#clip0_2795_22106)">
<path fill-rule="evenodd" clip-rule="evenodd" d="M32.96 16.2878V30.1618H33.1135L38.9301 27.2288C40.3315 26.5148 41.2338 25.0869 41.2338 23.5046V17.6193H49.1045V12.062H41.2338V7.12212H42.8271H50.0259C50.5826 7.10285 51.1201 6.94846 51.5809 6.67834C51.8112 6.54323 52.0224 6.3889 52.2143 6.21524C52.5215 5.94507 52.771 5.59776 52.963 5.21182L55.4393 0.252686H52.2143H39.1605H32.96V1.7192V16.2878Z" fill="#11406E"/>
<path d="M57.7237 29.0813C55.8426 28.1165 54.3835 26.7658 53.3278 25.0484C52.2719 23.3311 51.7344 21.3822 51.7344 19.2017C51.7344 17.0598 52.2527 15.1109 53.3278 13.3935C54.3835 11.6762 55.8426 10.3447 57.7047 9.37992C59.5667 8.43439 61.6781 7.95197 64.0204 7.95197C66.3817 7.95197 68.4931 8.43439 70.3551 9.37992C72.2367 10.3254 73.6763 11.6569 74.732 13.3742C75.7686 15.0723 76.287 17.0212 76.287 19.2017C76.287 21.3822 75.7686 23.3311 74.732 25.0484C73.6953 26.7658 72.2367 28.1165 70.3551 29.0813C68.474 30.0461 66.3626 30.5286 64.0204 30.5286C61.6781 30.5286 59.5858 30.0461 57.7237 29.0813ZM67.3029 23.0609C68.1669 22.1347 68.5894 20.8419 68.5894 19.2017C68.5894 17.5808 68.1669 16.3265 67.3029 15.4196C66.4394 14.5127 65.345 14.0496 64.0204 14.0496C62.6766 14.0496 61.5823 14.5127 60.7378 15.4196C59.8738 16.3265 59.4513 17.6001 59.4513 19.2017C59.4513 20.8419 59.8738 22.1154 60.7378 23.0609C61.6013 23.9872 62.6957 24.4503 64.0204 24.4503C65.345 24.4503 66.4394 23.9872 67.3029 23.0609Z" fill="#11406E"/>
<path d="M84.4271 29.0813C82.546 28.1165 81.0868 26.7658 80.0311 25.0484C78.9749 23.3311 78.4375 21.3822 78.4375 19.2017C78.4375 17.0598 78.9749 15.1109 80.0311 13.3935C81.0868 11.6762 82.546 10.3447 84.408 9.37992C86.27 8.43439 88.3814 7.95197 90.7237 7.95197C93.085 7.95197 95.1964 8.43439 97.0585 9.37992C98.9205 10.3254 100.38 11.6569 101.435 13.3742C102.472 15.0723 103.009 17.0212 103.009 19.2017C103.009 21.3822 102.491 23.3311 101.435 25.0484C100.399 26.7658 98.9401 28.1165 97.0585 29.0813C95.1773 30.0461 93.0654 30.5286 90.7237 30.5286C88.4005 30.5286 86.3082 30.0461 84.4271 29.0813ZM94.0253 23.0609C94.8893 22.1347 95.3118 20.8419 95.3118 19.2017C95.3118 17.5808 94.8893 16.3265 94.0253 15.4196C93.1618 14.5127 92.0674 14.0496 90.7428 14.0496C89.399 14.0496 88.3047 14.5127 87.4602 15.4196C86.5962 16.3265 86.1737 17.6001 86.1737 19.2017C86.1737 20.8419 86.5962 22.1154 87.4602 23.0609C88.3237 23.9872 89.4181 24.4503 90.7428 24.4503C92.0674 24.4503 93.1618 23.9872 94.0253 23.0609Z" fill="#11406E"/>
<path d="M129.635 0.252686V30.1618H122.379V27.9814C120.959 29.6795 118.828 30.5285 116.006 30.5285C114.029 30.5285 112.224 30.0654 110.593 29.1392C108.961 28.2129 107.674 26.8815 106.714 25.1641C105.774 23.4468 105.294 21.4593 105.294 19.2016C105.294 16.9439 105.774 14.9564 106.714 13.2583C107.655 11.5603 108.961 10.2481 110.593 9.32189C112.224 8.41501 114.029 7.95186 116.006 7.95186C118.597 7.95186 120.613 8.70446 122.014 10.2096V0.252686H129.635ZM120.863 23.0608C121.727 22.1346 122.149 20.8418 122.149 19.2016C122.149 17.5807 121.727 16.3264 120.882 15.4195C120.037 14.5126 118.943 14.0495 117.618 14.0495C116.275 14.0495 115.18 14.5126 114.336 15.4195C113.472 16.3264 113.05 17.6 113.05 19.2016C113.05 20.8418 113.472 22.1153 114.336 23.0608C115.2 23.9871 116.294 24.4502 117.618 24.4502C118.905 24.4502 119.999 23.9871 120.863 23.0608Z" fill="#11406E"/>
<path d="M6.21918 41.0257C3.74279 39.9838 1.70793 38.4787 0.133789 36.4911L6.50714 28.9077C8.71475 31.8022 11.0952 33.2301 13.6483 33.2301C15.3377 33.2301 16.6238 32.7091 17.5069 31.6864C18.39 30.6636 18.8315 29.1586 18.8315 27.171V11.8884C18.8315 5.46279 24.0146 0.252808 30.4072 0.252808V26.4764C30.4072 31.86 29.0634 35.8929 26.3567 38.5751C23.6691 41.2573 19.6953 42.608 14.4738 42.608C11.4407 42.608 8.69558 42.087 6.21918 41.0257Z" fill="#E9521D"/>
<path d="M57.6475 37.8612H59.375L58.5115 35.8351L57.6475 37.8612Z" fill="#E9521D"/>
<path d="M103.374 37.8612H105.102L104.238 35.8351L103.374 37.8612Z" fill="#E9521D"/>
<path d="M70.8164 37.8612H72.544L71.6799 35.8351L70.8164 37.8612Z" fill="#E9521D"/>
<path d="M122.129 33.5582H32.4221C31.6159 36.414 30.2913 38.7874 28.41 40.6592C28.314 40.7556 28.2181 40.8328 28.1221 40.9294H127.101C128.598 40.9294 129.827 39.6944 129.827 38.1893V36.3176V33.5775H122.129V33.5582ZM53.3466 39.5979L51.7342 37.6683L51.0046 38.4208V39.5979H50.16V34.9861H51.0046V37.3402L53.2699 34.9861H54.2297L52.31 37.0508L54.3451 39.5979H53.3466ZM60.1229 39.5979L59.6623 38.5366H57.3778L56.9172 39.5979H56.0341L58.1074 34.9861H58.9523L61.0256 39.5979H60.1229ZM67.111 39.5979H63.1947V39.019L65.8822 35.7193H63.2329V34.9861H67.0147V35.565L64.3272 38.8646H67.111V39.5979ZM73.2732 39.5979L72.812 38.5366H70.528L70.0669 39.5979H69.1843L71.238 34.9861H72.083L74.1563 39.5979H73.2732ZM79.915 39.5979L78.3023 37.6683L77.5733 38.4208V39.5979H76.7283V34.9861H77.5733V37.3402L79.8382 34.9861H80.7981L78.8784 37.0508L80.9135 39.5979H79.915ZM87.5172 39.5979H86.6722V37.6297H84.3109V39.5979H83.4474V34.9861H84.2919V36.8964H86.6532V34.9861H87.4976V39.5979H87.5172ZM93.7752 38.9804C93.6407 39.1927 93.4295 39.3471 93.1415 39.4821C92.8535 39.5979 92.5273 39.6751 92.1244 39.6751C91.7787 39.6751 91.433 39.6172 91.1068 39.5207C90.7807 39.4242 90.5118 39.2891 90.3196 39.1155L90.6076 38.4594C90.7998 38.6138 91.0301 38.7296 91.299 38.826C91.5674 38.9225 91.8364 38.9611 92.1244 38.9611C92.4696 38.9611 92.7195 38.9032 92.8921 38.7874C93.0647 38.6717 93.1415 38.5366 93.1415 38.3436C93.1415 38.2086 93.1034 38.1121 93.0075 38.0156C92.9112 37.9384 92.7963 37.8612 92.6427 37.8227C92.4892 37.7647 92.297 37.7261 92.0477 37.649C91.7019 37.5718 91.4139 37.4753 91.2027 37.3981C90.9914 37.321 90.7998 37.1858 90.6462 37.0122C90.4927 36.8385 90.4159 36.5877 90.4159 36.2982C90.4159 36.0474 90.4927 35.8158 90.6266 35.6036C90.7611 35.3913 90.9724 35.237 91.2413 35.1019C91.5097 34.9861 91.8555 34.9089 92.2584 34.9089C92.5464 34.9089 92.8153 34.9475 93.0843 35.0054C93.3527 35.0826 93.583 35.179 93.7752 35.3141L93.5063 35.9702C93.3146 35.8544 93.1034 35.7579 92.8731 35.7001C92.6618 35.6422 92.4506 35.6036 92.2393 35.6036C91.8941 35.6036 91.6442 35.6615 91.4907 35.7773C91.3181 35.893 91.2413 36.0474 91.2413 36.2404C91.2413 36.3754 91.2794 36.4719 91.3758 36.5684C91.4716 36.6455 91.5865 36.7227 91.7401 36.7613C91.8745 36.8193 92.0858 36.8578 92.3357 36.935C92.6809 37.0122 92.9498 37.0894 93.1801 37.1858C93.3914 37.263 93.583 37.3981 93.7366 37.5718C93.8901 37.7455 93.9669 37.977 93.9669 38.2857C93.9865 38.5366 93.9288 38.7682 93.7752 38.9804ZM100.033 35.7193H98.5169V39.5979H97.6528V35.7193H96.1365V34.9861H100.033V35.7193ZM105.831 39.5979L105.37 38.5366H103.085L102.625 39.5979H101.742L103.796 34.9861H104.64L106.714 39.5979H105.831ZM113.337 39.5979H112.646L110.112 36.4719V39.5979H109.267V34.9861H109.958L112.492 38.1121V34.9861H113.337V39.5979Z" fill="#E9521D"/>
</g>
<defs>
<clipPath id="clip0_2795_22106">
<rect width="129.713" height="42.3552" fill="white" transform="translate(0.133789 0.252808)"/>
</clipPath>
</defs>
</svg>
