<svg width="18" height="18" viewBox="0 0 18 18" fill="none" xmlns="http://www.w3.org/2000/svg">
<path d="M9 18C4.03739 18 0 13.9626 0 9C0 4.03739 4.03739 0 9 0C13.9626 0 18 4.03739 18 9C18 13.9626 13.9626 18 9 18ZM9 1.42212C4.82154 1.42212 1.42212 4.82154 1.42212 9C1.42212 13.1782 4.82154 16.5779 9 16.5779C13.1782 16.5779 16.5779 13.1785 16.5779 9C16.5779 4.82154 13.1785 1.42212 9 1.42212Z" fill="#F15F31"/>
<path d="M7.49256 12.4569C7.31053 12.4569 7.1285 12.3875 6.9897 12.2487L4.51294 9.77192C4.23506 9.49433 4.23506 9.04409 4.51294 8.76649C4.79054 8.48861 5.24106 8.48861 5.51838 8.76649L7.49256 10.7404L12.4819 5.75132C12.7598 5.47344 13.2097 5.47344 13.4873 5.75132C13.7652 6.02892 13.7652 6.47916 13.4873 6.75675L7.99513 12.2487C7.85633 12.3875 7.6743 12.4569 7.49256 12.4569Z" fill="#F15F31"/>
</svg>
