<svg width="181" height="86" viewBox="0 0 181 86" fill="none" xmlns="http://www.w3.org/2000/svg">
<path d="M171.41 66.6787C172.196 66.6827 172.974 66.8337 173.705 67.1236L173.845 67.1938C173.955 67.2406 174.06 67.2913 174.162 67.3459C174.263 67.4006 174.368 67.4512 174.478 67.4981C175.289 67.8883 175.933 68.0837 176.409 68.0837C176.78 68.1089 177.149 68.0274 177.475 67.8493C177.617 67.7588 177.739 67.639 177.832 67.4977C177.925 67.3565 177.987 67.1969 178.013 67.0299H178.154V73.8438H178.013C177.873 72.7748 177.573 71.7329 177.123 70.753C176.746 69.9444 176.231 69.2074 175.602 68.5753C175.04 68.0287 174.381 67.5919 173.658 67.2875C173.064 67.0337 172.43 66.8832 171.785 66.8426V66.8661C170.942 66.866 170.118 67.1187 169.42 67.5918C168.649 68.1145 167.994 68.7924 167.5 69.5821C166.923 70.4943 166.489 71.4893 166.212 72.5325C165.893 73.7076 165.736 74.9208 165.744 76.1384C165.726 77.6905 165.988 79.2332 166.517 80.6926C166.942 81.9328 167.647 83.0585 168.577 83.9825C168.916 84.3043 169.294 84.5833 169.701 84.8137C170.002 84.982 170.315 85.1269 170.638 85.2469C171.009 85.3603 171.396 85.4155 171.785 85.4107C172.421 85.3927 173.048 85.2579 173.635 85.0128C174.167 84.775 174.67 84.4763 175.133 84.1229C175.196 84.0605 175.289 83.9631 175.414 83.8304C175.557 83.6728 175.683 83.5 175.789 83.3153C175.927 83.0749 176.037 82.8196 176.117 82.5543C176.215 82.2279 176.262 81.8881 176.257 81.5473V79.3699C176.274 79.0799 176.187 78.7932 176.011 78.5619C175.837 78.3598 175.61 78.2099 175.356 78.1287C175.041 78.0279 174.714 77.9728 174.384 77.9649C174.009 77.9492 173.611 77.9414 173.19 77.9414V77.754H180.683V77.9414C180.324 77.9414 180.023 77.9492 179.781 77.9649C179.576 77.9722 179.374 78.0157 179.184 78.0935C179.032 78.1596 178.911 78.281 178.844 78.433C178.766 78.6342 178.73 78.8496 178.739 79.0653V84.2636H178.575C178.435 84.1272 178.268 84.0219 178.084 83.9553C177.9 83.8888 177.705 83.8621 177.51 83.8771C177.053 83.9098 176.604 84.0085 176.175 84.1699C175.707 84.3416 175.207 84.5485 174.677 84.7905C174.175 85.0248 173.654 85.2166 173.12 85.3641C172.561 85.506 171.987 85.5767 171.41 85.5746C170.307 85.5829 169.217 85.3346 168.226 84.8489C167.732 84.6029 167.262 84.313 166.821 83.9825C166.37 83.6417 165.961 83.2488 165.603 82.8119C164.84 81.9244 164.237 80.9097 163.824 79.8145C163.608 79.2328 163.444 78.6334 163.332 78.0233C163.221 77.4012 163.166 76.7703 163.168 76.1384C163.165 74.8837 163.387 73.6386 163.824 72.4623C164.237 71.3671 164.84 70.3527 165.603 69.4652C166.326 68.6113 167.22 67.9173 168.226 67.4279C169.216 66.9377 170.305 66.6815 171.41 66.6787Z" fill="#000706"/>
<path d="M49.7891 71.7317H49.6206V71.7082C49.4957 71.193 49.3513 70.6545 49.1874 70.0926C49.0281 69.5397 48.77 69.0202 48.4262 68.5589C48.0524 68.0735 47.5718 67.6807 47.0215 67.4115C46.2874 67.0782 45.4854 66.922 44.6799 66.9551H40.2778V76.1103H43.6261C44.1878 76.1278 44.7409 75.9682 45.2068 75.6539C45.8639 75.1742 46.3056 74.4548 46.4361 73.6518C46.4719 73.4348 46.4953 73.2157 46.5063 72.996V72.9258H46.6702V79.4586H46.5063V79.3884C46.495 79.161 46.4716 78.9343 46.4361 78.7094C46.3783 78.3342 46.2511 77.9728 46.0614 77.6439C45.8388 77.2556 45.5303 76.9235 45.1598 76.6724C44.6661 76.3653 44.0897 76.2182 43.5092 76.2509H40.2778V82.6666C40.2974 82.8061 40.3053 82.9471 40.3013 83.088C40.2934 83.45 40.3289 83.8117 40.4067 84.1653C40.4624 84.4184 40.5835 84.6526 40.758 84.8443C40.9367 85.025 41.1581 85.1578 41.4017 85.2305C41.7212 85.3251 42.0521 85.3765 42.3853 85.3829H44.9891C45.5749 85.3904 46.1587 85.3112 46.7215 85.1485C47.2032 85.0074 47.6641 84.8026 48.0916 84.5397C48.475 84.302 48.8252 84.0146 49.1333 83.6851C49.4204 83.3774 49.679 83.0444 49.906 82.6901C50.4202 81.8566 50.7774 80.9359 50.9598 79.9737H51.1236L50.4446 85.5468H34.9672V85.3829C35.4174 85.3881 35.8673 85.3604 36.3135 85.3007C36.6307 85.2656 36.9334 85.1486 37.1916 84.9612C37.416 84.7806 37.5797 84.5355 37.6601 84.259C37.7654 83.87 37.8127 83.4673 37.8004 83.0645V69.5539C37.8043 69.5072 37.8043 69.4603 37.8004 69.4136C37.7927 69.3672 37.7887 69.3202 37.7887 69.2732C37.7887 68.4147 37.6327 67.8252 37.3206 67.5052C37.0084 67.1852 36.4659 67.0019 35.6932 66.9551H34.9437V66.8144H49.7891V71.7317Z" fill="#000706"/>
<path fill-rule="evenodd" clip-rule="evenodd" d="M70.6442 66.8144C71.7978 66.8301 72.9374 67.0768 73.9956 67.5404C75.0559 68.0078 76.0056 68.6939 76.7821 69.5539C77.5704 70.4255 78.1791 71.4443 78.5733 72.5513C79.4034 74.8997 79.4034 77.4615 78.5733 79.8099C78.1758 80.9084 77.5673 81.9187 76.7821 82.7838C76.0108 83.6554 75.0602 84.3502 73.9956 84.8208C72.8631 85.3032 71.6442 85.5504 70.4132 85.5468H60.3682V85.3829C60.8144 85.3884 61.2604 85.3607 61.7027 85.3007C62.016 85.2643 62.3145 85.1473 62.5691 84.9612C62.7934 84.7806 62.9571 84.5355 63.0375 84.259C63.1429 83.87 63.1901 83.4673 63.1779 83.0645V69.2732C63.1779 68.4147 63.0219 67.8252 62.7097 67.5052C62.3976 67.1852 61.8511 67.0019 61.0707 66.9551H60.3447V66.8144H70.6442ZM67.5333 66.9551C67.2371 66.9758 66.9452 67.0387 66.6669 67.1422C66.4462 67.2264 66.2492 67.3632 66.093 67.5404C65.9329 67.737 65.8244 67.9704 65.777 68.2194C65.7091 68.5585 65.6776 68.9039 65.6833 69.2497V82.6666C65.6836 82.7331 65.6875 82.7996 65.6951 82.8657C65.6992 82.9397 65.6992 83.014 65.6951 83.088C65.6873 83.45 65.7227 83.8117 65.8005 84.1653C65.8556 84.4163 65.9723 84.6497 66.14 84.8443C66.313 85.0264 66.531 85.1596 66.772 85.2305C67.0993 85.3261 67.4382 85.3775 67.7791 85.3829H69.9098C70.8625 85.3786 71.798 85.1285 72.6258 84.6569H72.6376C73.037 84.4159 73.4098 84.1334 73.7498 83.814C74.1116 83.4739 74.4374 83.0972 74.7216 82.6901C75.3361 81.7864 75.8025 80.7903 76.1031 79.7397C76.4377 78.5832 76.6032 77.3843 76.5948 76.1805C76.6021 74.969 76.4366 73.7627 76.1031 72.598C75.8088 71.545 75.342 70.548 74.7216 69.6476C74.4374 69.2405 74.1116 68.8638 73.7498 68.5237C73.4098 68.2044 73.037 67.9218 72.6376 67.6808C71.8736 67.2394 71.0137 66.9905 70.1321 66.9551H67.5333Z" fill="#000706"/>
<path fill-rule="evenodd" clip-rule="evenodd" d="M98.5317 66.8144C99.6854 66.8301 100.825 67.0768 101.883 67.5404C102.944 68.0078 103.893 68.694 104.67 69.5539C105.458 70.4255 106.067 71.4443 106.461 72.5513C107.291 74.8997 107.291 77.4615 106.461 79.8099C106.065 80.9125 105.456 81.927 104.67 82.7955L104.651 82.7838C103.88 83.6554 102.929 84.3502 101.865 84.8208C100.732 85.3033 99.5132 85.5504 98.2822 85.5468H88.2557V85.3829C88.702 85.3884 89.148 85.3607 89.5902 85.3007C89.9035 85.2643 90.202 85.1473 90.4566 84.9612C90.681 84.7806 90.8446 84.5355 90.925 84.259C91.0304 83.87 91.0776 83.4673 91.0654 83.0645V69.2732C91.0654 68.4147 90.9095 67.8252 90.5973 67.5052C90.2851 67.1852 89.7386 67.0019 88.9582 66.9551H88.2322V66.8144H98.5317ZM95.402 66.9551C95.1057 66.9758 94.8139 67.0387 94.5356 67.1422C94.3149 67.2264 94.1181 67.3632 93.962 67.5404C93.8019 67.737 93.693 67.9703 93.6457 68.2194C93.5777 68.5585 93.5463 68.9039 93.552 69.2497V82.6666C93.5522 82.7331 93.5562 82.7996 93.5638 82.8657C93.5678 82.9398 93.5678 83.014 93.5638 83.088C93.5559 83.45 93.5914 83.8117 93.6692 84.1653C93.7243 84.4163 93.8409 84.6497 94.0087 84.8443C94.1817 85.0265 94.3999 85.1596 94.641 85.2305C94.9683 85.3261 95.3069 85.3775 95.6478 85.3829H97.7785C98.7313 85.3786 99.667 85.1285 100.495 84.6569H100.507C100.906 84.4159 101.279 84.1334 101.619 83.814C101.981 83.474 102.306 83.0972 102.59 82.6901C103.205 81.7864 103.671 80.7903 103.972 79.7397C104.306 78.5832 104.472 77.3843 104.464 76.1805C104.471 74.969 104.305 73.7627 103.972 72.598C103.677 71.545 103.211 70.548 102.59 69.6476C102.306 69.2405 101.981 68.8637 101.619 68.5237C101.279 68.2044 100.906 67.9218 100.507 67.6808C99.7426 67.2394 98.8827 66.9905 98.0011 66.9551H95.402Z" fill="#000706"/>
<path d="M124.348 66.9551H123.411C122.709 67.0332 122.221 67.2282 121.948 67.5404C121.675 67.8526 121.538 68.4224 121.538 69.2497V83.088C121.53 83.45 121.566 83.8117 121.643 84.1653C121.699 84.4184 121.82 84.6526 121.995 84.8443C122.177 85.0268 122.402 85.1597 122.65 85.2305C122.974 85.3243 123.308 85.3757 123.645 85.3829H124.371V85.5468H116.2V85.3829H116.223C116.673 85.3881 117.123 85.3604 117.569 85.3007C117.886 85.2657 118.189 85.1487 118.447 84.9612C118.672 84.7806 118.835 84.5355 118.916 84.259C119.021 83.87 119.068 83.4673 119.056 83.0645V69.2732C119.056 68.4146 118.9 67.8252 118.588 67.5052C118.276 67.1852 117.729 67.0019 116.949 66.9551H116.2V66.8144H124.348V66.9551Z" fill="#000706"/>
<path d="M151.29 81.4372V69.8233C151.317 69.2894 151.164 68.7619 150.856 68.3249C150.586 67.9677 150.237 67.677 149.838 67.4749C149.458 67.2831 149.051 67.1488 148.632 67.0766C148.303 67.015 147.971 66.98 147.637 66.9715H147.285V66.8073H155.481L155.472 66.8144V66.9783H155.12C154.786 66.9868 154.453 67.0221 154.125 67.0837C153.706 67.1559 153.299 67.29 152.919 67.4817C152.519 67.6851 152.17 67.9778 151.901 68.3366C151.593 68.7736 151.44 69.3012 151.467 69.835V85.5468H151.28L137.512 68.3131V82.5027C137.483 83.0441 137.635 83.5797 137.945 84.0246C138.215 84.3834 138.563 84.6758 138.964 84.8792C139.344 85.0709 139.75 85.2053 140.169 85.2775C140.498 85.3391 140.831 85.3744 141.165 85.3829H141.516V85.5468H133.321V85.3829H133.681C134.015 85.3744 134.348 85.3391 134.676 85.2775C135.096 85.2052 135.502 85.0709 135.882 84.8792C136.283 84.6758 136.631 84.3834 136.901 84.0246C137.211 83.5797 137.363 83.0441 137.334 82.5027V69.1795C137.334 68.8049 137.326 68.4809 137.311 68.2077C137.306 67.9587 137.233 67.7157 137.1 67.5052C136.948 67.2995 136.728 67.1543 136.479 67.0955C136.07 66.996 135.648 66.9525 135.227 66.9665H134.501V66.8027H139.511L151.29 81.4372Z" fill="#000706"/>
<path d="M25.9945 66.9551H25.8773C25.6608 66.9642 25.4455 66.9916 25.2336 67.037C24.9047 67.1094 24.5888 67.2316 24.297 67.3997C23.9187 67.6158 23.5816 67.8975 23.3017 68.2312C22.9428 68.6743 22.6833 69.1892 22.5407 69.7413L17.8928 85.5044H17.7289L13.0927 69.9287L8.55026 85.5044H8.36288L3.67971 69.7228L3.58602 69.4182C3.45252 68.9247 3.25161 68.4518 2.98895 68.0132C2.82029 67.7295 2.58775 67.4892 2.30995 67.311C2.07668 67.1777 1.81684 67.0975 1.549 67.0766C1.28366 67.0532 1.00267 67.0183 0.706117 66.9715H0.682617V66.8073H8.36288V66.9715H8.29269C7.88684 66.9715 7.50427 66.983 7.14525 67.0064C6.83521 67.0135 6.53401 67.1112 6.27886 67.2875C6.1616 67.3859 6.06564 67.5074 5.99718 67.6443C5.92874 67.7812 5.88929 67.9309 5.88092 68.0837C5.85884 68.6225 5.94647 69.1601 6.13848 69.664L9.58052 81.3716L13.0226 69.664C12.9945 69.6267 12.978 69.582 12.9756 69.5354C12.9761 69.4989 12.968 69.4628 12.9521 69.43C12.8186 68.9364 12.6176 68.4636 12.355 68.0249C12.1863 67.7413 11.9538 67.5009 11.676 67.3227C11.439 67.1882 11.175 67.108 10.9033 67.0884C10.6301 67.0649 10.3531 67.0298 10.0722 66.9829H10.0487V66.8191H17.7289V66.9829H17.6587C17.2529 66.9829 16.8743 66.9908 16.523 67.0064C16.214 67.0086 15.9125 67.1024 15.6566 67.2757C15.5363 67.3722 15.4375 67.4929 15.3669 67.6301C15.2963 67.7673 15.2555 67.9179 15.247 68.0719C15.2258 68.6183 15.3133 69.1635 15.5045 69.6758L18.9466 81.3834L22.5058 69.2076C22.6463 68.6925 22.6186 68.2905 22.4235 68.0017C22.2275 67.7122 21.9566 67.4812 21.6394 67.3342C21.3209 67.168 20.9762 67.0572 20.6206 67.0064C20.2694 66.9674 20.0157 66.948 19.8596 66.948H19.7192V66.7841H25.9945V66.9551Z" fill="#000706"/>
<path d="M45.8929 11.7116C46.3721 10.8015 46.9561 10.3965 47.6445 10.4964C48.3328 10.5963 48.8839 11.0451 49.2975 11.8427C49.7112 12.6403 49.8671 13.7089 49.7656 15.0482C49.6642 16.3875 49.0899 17.844 48.0424 19.4175C46.8904 21.0831 45.6299 23.0259 44.2609 25.2456C42.8919 27.4654 41.5182 29.7953 40.1399 32.2351C38.7615 34.675 37.4072 37.1274 36.0773 39.5923C34.7473 42.0571 33.5593 44.3688 32.5134 46.5277C31.4675 48.6865 30.6035 50.5957 29.9214 52.255C29.2392 53.9144 28.8333 55.157 28.7037 55.9828C31.8021 54.7083 35.0176 53.739 38.3041 53.0886C41.166 52.5248 44.0671 52.1828 46.9816 52.0655C49.4811 51.9668 51.9846 52.0379 54.4745 52.2785C56.7645 52.5127 58.794 52.7857 60.5626 53.0979C61.099 53.2149 61.616 53.4074 62.0985 53.6693C62.4702 53.8438 62.8021 54.0935 63.0728 54.4024C63.2365 54.6287 63.192 54.8224 62.9392 54.9831C62.6863 55.1439 62.1165 55.1827 61.2299 55.1C59.2583 54.9267 57.0268 54.7808 54.5354 54.6622C51.8562 54.5506 49.1724 54.6691 46.5134 55.0159C43.4493 55.4185 40.4306 56.1131 37.4987 57.0903C34.3454 58.1175 31.0969 59.6911 27.7532 61.8109C27.2783 62.1551 26.7 62.3269 26.1142 62.2979C25.6083 62.2667 25.1238 62.0822 24.7255 61.7689C24.346 61.466 24.0435 61.0774 23.8428 60.6353C23.7398 60.417 23.6815 60.1802 23.6715 59.939C23.6614 59.6977 23.6999 59.4568 23.7843 59.2306C24.3926 56.8253 25.175 54.4673 26.1256 52.1756C27.2183 49.4563 28.4673 46.5597 29.8722 43.4861C31.2771 40.4124 32.7688 37.281 34.347 34.0919C35.9267 30.9028 37.4633 27.883 38.9572 25.0326C40.451 22.1822 41.8108 19.5956 43.0362 17.2729C44.2615 14.9501 45.2223 13.0931 45.9185 11.7023L45.8929 11.7116Z" fill="#000706"/>
<path d="M148.697 31.2377C149.142 31.233 149.401 31.389 149.475 31.7058C149.548 32.0227 149.461 32.2305 149.215 32.3288C148.158 32.9323 147.267 33.7873 146.62 34.8179C145.932 35.8848 145.431 37.0616 145.138 38.2973C144.842 39.5432 144.741 40.8277 144.841 42.1045C144.904 43.2648 145.207 44.3994 145.731 45.4365C147.847 43.6945 150.103 42.1283 152.474 40.7536C155.215 39.1596 158.091 37.8116 161.07 36.726C161.317 36.6293 161.465 36.7027 161.515 36.9461C161.545 37.0312 161.555 37.1226 161.541 37.2121C161.528 37.3015 161.493 37.3864 161.44 37.4591C160.959 37.8669 160.438 38.2232 159.883 38.5221C159.091 38.9811 158.165 39.5275 157.104 40.1612C156.042 40.795 154.918 41.4903 153.732 42.2474C152.601 42.9643 151.512 43.7462 150.472 44.589C149.561 45.3181 148.73 46.1405 147.99 47.0428C147.324 47.8717 146.965 48.6523 146.915 49.3844V49.3869C146.857 50.2059 146.68 51.0121 146.388 51.7798C146.093 52.5827 145.721 53.355 145.276 54.0861C144.866 54.773 144.396 55.4227 143.872 56.0273C143.461 56.5138 142.989 56.9443 142.467 57.308C141.627 57.8949 140.861 58.2129 140.169 58.2613C139.478 58.3097 138.947 58.1261 138.577 57.7109C138.182 57.2258 137.972 56.6157 137.985 55.9899C137.96 55.2578 138.219 54.4031 138.762 53.426C139.702 51.6121 141.336 49.6077 143.663 47.4129C142.23 45.9456 141.365 44.5406 141.069 43.1982C140.85 42.2869 140.74 41.3537 140.741 40.4185C140.765 39.7633 140.806 39.2562 140.909 38.515C141.081 37.6527 141.397 36.8228 141.846 36.0612C142.427 35.0802 143.166 34.2019 144.033 33.4621C144.806 32.8006 145.666 32.249 146.59 31.823C147.452 31.4328 148.154 31.2377 148.697 31.2377Z" fill="#000706"/>
<path d="M87.1787 22.9183C87.3978 22.843 87.6312 22.8182 87.8612 22.8462C88.091 22.8742 88.3115 22.9541 88.5061 23.0797C88.9651 23.3419 89.3179 23.8197 89.5645 24.5128C89.8112 25.2059 89.7654 26.1355 89.4266 27.3015C88.8758 28.9676 88.1308 30.5631 87.2069 32.0549C86.1152 33.8613 84.9188 35.6023 83.6242 37.2693C82.2723 39.0254 80.848 40.7176 79.351 42.3457C77.9639 43.8645 76.4852 45.2973 74.9232 46.6356C73.6529 47.7408 72.2869 48.7312 70.8418 49.5953C69.5775 50.3289 68.5519 50.6559 67.7652 50.5764C67.2719 50.5576 66.9449 50.3865 66.7841 50.0634C66.6207 49.7194 66.5706 49.3325 66.6413 48.9583C66.715 48.5128 66.8308 48.0751 66.9876 47.6516C67.153 47.1943 67.2929 46.772 67.4068 46.3848C67.4662 46.1428 67.7153 45.4559 68.1539 44.3243C68.5925 43.1926 69.0115 41.9259 69.4111 40.5242C69.8012 39.1662 70.0894 37.7807 70.2728 36.3797C70.287 36.2706 70.2984 36.1635 70.3087 36.0587C70.3388 35.9004 70.4978 35.1086 70.2499 34.1902C70.1766 33.8451 70.0634 33.5443 69.9104 33.2877C70.5003 32.5875 71.229 32.0171 72.0501 31.6121C72.7541 31.2999 73.3636 31.201 73.8787 31.315C74.1334 31.3739 74.372 31.4882 74.5772 31.6501C74.7825 31.8121 74.9495 32.0175 75.0661 32.2515C75.3597 32.845 75.4634 33.5146 75.3632 34.1692C75.2492 35.1989 75.0489 36.2173 74.764 37.2133C74.4518 38.3747 74.0865 39.533 73.6682 40.6881C73.2498 41.8432 72.8375 42.9266 72.4317 43.9381C72.0227 44.948 71.7333 45.7433 71.5631 46.3239C71.7934 46.1109 72.0366 45.9124 72.2913 45.7293C72.546 45.5462 72.7892 45.3474 73.0195 45.1344C74.7848 43.595 76.4114 41.9035 77.8804 40.0793C79.4441 38.1734 80.9065 36.1866 82.2615 34.1271C83.4687 32.3167 84.5215 30.4078 85.4086 28.4208C86.1891 26.6179 86.5792 25.1544 86.5792 24.0305C86.5527 23.4435 86.7526 23.0728 87.1787 22.9183Z" fill="#000706"/>
<path fill-rule="evenodd" clip-rule="evenodd" d="M99.2772 29.3596C100.212 29.2736 101.147 29.5174 101.921 30.0482C102.644 30.5649 102.927 31.5529 102.771 33.0125C102.624 33.72 102.373 34.4019 102.026 35.0356C101.548 35.9736 100.941 36.8405 100.223 37.6112C99.3852 38.5106 98.4041 39.2653 97.3199 39.8449C96.0735 40.5004 94.6867 40.8445 93.2784 40.8473C93.0908 41.897 93.0372 42.9662 93.1191 44.0293C93.1641 44.8632 93.4274 45.6707 93.8826 46.3709C94.09 46.6679 94.3594 46.9164 94.6722 47.0991C94.9852 47.2818 95.3341 47.3946 95.6948 47.4293C96.4831 47.5323 97.4815 47.2896 98.6897 46.7011L98.6848 46.7197C100.111 46.0147 101.47 45.1832 102.747 44.2353C104.127 43.2293 105.456 42.1549 106.728 41.0159C107.983 39.8888 109.137 38.796 110.191 37.7377C111.065 36.8802 111.881 35.9656 112.633 35.0003C112.779 34.7602 113.011 34.5852 113.282 34.5112C113.384 34.4894 113.489 34.49 113.59 34.513C113.692 34.5361 113.787 34.5809 113.87 34.6444C114.034 34.768 114.156 34.9388 114.221 35.1339C114.254 35.2295 114.265 35.3311 114.255 35.4317C114.245 35.5323 114.214 35.6298 114.162 35.7171C113.285 36.7098 112.289 37.8688 111.175 39.194C110.06 40.5193 108.86 41.829 107.576 43.1231C106.295 44.4155 104.946 45.6395 103.536 46.7899C102.243 47.8634 100.829 48.7813 99.3217 49.5248C98.0972 50.1247 96.756 50.4484 95.3927 50.4731C94.2211 50.4968 93.0655 50.1989 92.0515 49.6117C91.0598 49.01 90.2579 48.1406 89.738 47.1037C89.1394 45.9093 88.8464 44.585 88.8855 43.2495C88.853 41.6348 89.0647 40.0245 89.5132 38.473C89.9498 36.8988 90.6326 35.4036 91.5363 34.0427C92.4037 32.7339 93.5315 31.6179 94.8494 30.7646C96.1736 29.9097 97.7024 29.4245 99.2772 29.3596ZM99.207 31.1814C98.6295 31.3047 98.1016 31.5964 97.6898 32.0196C97.1219 32.5539 96.6147 33.1491 96.1771 33.7944C95.652 34.5576 95.1877 35.361 94.7885 36.1969C94.3666 37.0648 94.0339 37.9732 93.7957 38.9083C94.7939 38.8042 95.7455 38.4322 96.5494 37.8314C97.4512 37.2168 98.2429 36.4544 98.891 35.5764C99.4655 34.8386 99.855 33.9737 100.027 33.0545C100.156 32.2226 99.8829 31.5982 99.207 31.1814Z" fill="#000706"/>
<path d="M131.429 33.3473C132.467 33.3473 133.035 33.6401 133.133 34.2255C133.232 34.8108 132.96 35.4213 132.318 36.0566C131.667 36.7386 131.107 37.502 130.651 38.3276C130.096 39.2788 129.613 40.2706 129.206 41.2944C128.848 42.166 128.587 43.0747 128.429 44.0037C128.306 44.8091 128.393 45.3094 128.689 45.5045C129.659 45.1246 130.598 44.6713 131.499 44.1487C132.591 43.5383 133.69 42.8545 134.796 42.0974C135.901 41.3404 137 40.5834 138.093 39.8264C139.185 39.0693 140.161 38.3855 141.019 37.7751C140.976 38.0496 140.94 38.2929 140.909 38.515C140.84 38.8634 140.793 39.2169 140.771 39.5734C140.751 39.855 140.741 40.1368 140.741 40.4185C140.741 40.4231 140.741 40.4278 140.741 40.4324C139.827 41.2378 139.054 41.837 137.868 42.7158C136.681 43.5947 135.511 44.4369 134.356 45.2423C133.194 46.0478 132.095 46.7798 131.059 47.4386C130.022 48.0973 129.179 48.6006 128.53 48.9487C128.075 49.2096 127.57 49.3694 127.048 49.4172C126.482 49.4939 125.906 49.4179 125.38 49.197C124.832 48.948 124.397 48.5038 124.158 47.9512C123.862 47.3409 123.8 46.4495 123.973 45.2773C124.146 44.105 124.603 42.6157 125.343 40.8096C126.084 39.0035 127.245 36.8065 128.825 34.2184L128.834 34.2255C129.593 33.6828 130.496 33.3772 131.429 33.3473Z" fill="#000706"/>
<path fill-rule="evenodd" clip-rule="evenodd" d="M54.9336 29.2192C55.5589 29.0975 56.2029 29.1095 56.8232 29.2544C57.0436 29.3152 57.237 29.4491 57.3714 29.6341C57.5058 29.8192 57.5734 30.0445 57.5631 30.2729C57.6068 30.4196 57.798 30.5975 58.1367 30.8066C58.5184 31.0472 58.8803 31.3184 59.2185 31.617C59.6192 31.9718 59.9544 32.3942 60.2089 32.865C60.493 33.3598 60.571 33.9975 60.443 34.778C60.3669 34.9393 60.3104 35.1092 60.2745 35.2839C60.216 35.5225 60.1815 35.7665 60.1715 36.012C60.1607 36.2333 60.1772 36.455 60.2207 36.6722C60.2628 36.8751 60.3581 36.9767 60.5064 36.9767C61.443 37.1094 62.8479 36.8579 64.7211 36.2226C66.5942 35.5873 67.2844 35.3967 70.2499 34.1902C70.3608 34.712 70.3799 35.3347 70.3087 36.0587C69.2396 36.8965 69.3175 36.6761 68.0905 37.26C66.9268 37.8192 65.7323 38.3117 64.5127 38.7352C63.4764 39.101 62.4111 39.3789 61.3282 39.5663C60.556 39.7086 59.7719 39.7769 58.9866 39.7701L58.9795 39.763C58.2297 41.7084 57.1175 43.4939 55.7017 45.0243C54.2828 46.5572 52.8317 47.65 51.3487 48.3025C49.8658 48.9534 48.5139 49.0729 47.2933 48.6609C46.0726 48.2488 45.3014 47.0835 44.9798 45.165C44.7347 43.7882 44.8315 42.2162 45.2701 40.4491C45.7086 38.6818 46.3842 36.982 47.279 35.3961C48.154 33.836 49.287 32.4356 50.6298 31.254C51.9598 30.0833 53.3945 29.4049 54.9336 29.2192ZM55.3269 32.8087C54.4862 33.2815 53.7349 33.8982 53.1072 34.6305C52.3075 35.518 51.6012 36.4854 50.9997 37.5175C50.377 38.5672 49.8626 39.6775 49.4638 40.8309C49.1027 41.8248 48.888 42.866 48.8269 43.9217C48.7723 45.3359 49.0532 46.0671 49.6698 46.1155C50.2864 46.1639 50.989 45.8611 51.7773 45.2071C52.6509 44.4596 53.4092 43.5869 54.0274 42.6175C54.7361 41.5451 55.1568 40.5716 55.2895 39.6974L55.2824 39.7021C55.0642 39.5682 54.8788 39.3874 54.7395 39.1727C54.6001 38.958 54.5103 38.715 54.4769 38.4612C54.3752 37.841 54.3752 37.2083 54.4769 36.5881C54.5783 35.9023 54.716 35.2221 54.8891 34.5508C55.0639 33.8733 55.2099 33.2926 55.3269 32.8087Z" fill="#000706"/>
<path d="M69.9104 33.2877L69.9098 33.2889V33.2864L69.9104 33.2877Z" fill="#000706"/>
<path d="M115.797 3.446C117.904 -0.902067 120.012 0.666639 121.365 3.47878C123.032 6.91141 122.885 9.25299 122.955 12.8448C122.976 13.8516 123.086 14.4114 123.582 14.1632C124.566 13.6715 131.204 7.66549 134.716 6.7523C138.228 5.83916 138.259 8.47101 137.526 9.77289C133.803 16.3947 123.945 23.0001 118.56 29.7226C117.323 31.2633 117.365 31.5304 117.312 32.1814C117.258 32.8322 116.785 32.8836 116.312 32.6214C115.839 32.3591 115.328 30.3385 117.63 28.1961C118.646 27.2595 121.866 23.5529 125.591 19.9586C126.374 19.2069 139.406 8.2884 136.128 7.63043C135.601 7.52507 133.88 7.49003 129.631 10.7212C125.381 13.9525 123.87 16.3759 122.641 16.7271C121.412 17.0784 120.744 16.5516 120.744 13.9876C120.744 11.4237 120.463 4.55834 118.953 3.78551C117.443 3.01282 116.249 8.21083 115.933 10.1427C115.616 12.0745 115.211 19.0641 115.528 23.033C115.844 27.0018 116.494 25.1754 116.74 26.3696C116.986 27.5638 116.148 27.9032 116.148 27.9032C116.135 27.9096 114.773 28.5541 113.689 25.1637C112.565 21.6514 113.139 8.95093 115.797 3.446Z" fill="#E8BFC3"/>
<path d="M138.683 18.5162C139.324 18.5411 139.967 18.968 140.61 19.7969L140.617 19.7993C140.419 20.1896 140.073 20.7874 139.58 21.5927C139.087 22.3982 138.556 23.2039 137.987 24.0094C137.419 24.8149 136.873 25.5351 136.348 26.1704C135.824 26.8058 135.441 27.1234 135.199 27.1234C134.557 26.7815 134.162 26.0613 134.014 24.9624C133.866 23.8634 134.137 22.7528 134.829 21.6304C135.062 21.1995 135.322 20.7834 135.606 20.3847C135.967 19.8571 136.419 19.3979 136.941 19.0288C137.447 18.6662 138.061 18.4856 138.683 18.5162Z" fill="#000706"/>
</svg>
