<svg width="181" height="37" viewBox="0 0 181 37" fill="none" xmlns="http://www.w3.org/2000/svg">
<g clip-path="url(#clip0_2795_22232)">
<path fill-rule="evenodd" clip-rule="evenodd" d="M166.354 35.3269H163.764V36.0864H151.175V3.69325H158.764V2.93414H171.355V3.67826H180.147V36.1018H166.354V35.3269ZM168.647 33.8091H177.854V5.97099H169.062V5.2273H161.057V5.9864H153.468V33.7941H161.471V33.0341H168.646V33.8095L168.647 33.8091Z" fill="#16A2C9"/>
<path fill-rule="evenodd" clip-rule="evenodd" d="M76.1711 28.9274C76.0071 30.1121 75.5135 31.2103 74.6041 32.0499C73.5735 33.0025 72.0964 33.5368 70.6951 33.4658C69.254 33.393 67.8942 32.8826 66.9257 31.7836C65.9791 30.7085 65.625 29.3384 65.625 27.9316V10.1215C65.625 7.07095 68.0209 4.85187 71.0286 4.85187H77.1678C80.9869 4.85187 84.5388 6.35466 86.3961 9.84534C87.2644 11.4774 87.6754 13.3095 87.6133 15.1552C87.5543 16.9042 87.1385 18.4579 86.1337 19.9098C85.5137 20.8055 84.7696 21.5984 83.8885 22.2239L86.2557 25.2132C86.9668 26.1115 87.3462 27.2221 87.3462 28.367C87.3462 31.1859 85.0594 33.4722 82.2409 33.4722C80.7386 33.4722 79.2786 32.8403 78.3371 31.6547L76.172 28.9278L76.1711 28.9274ZM73.9396 11.9908V17.9001H77.1494C78.7751 17.9001 80.1049 16.5707 80.1049 14.9454C80.1049 13.3206 78.7751 11.9908 77.1494 11.9908H73.9396ZM84.4579 26.6364L80.3203 21.4122C80.8636 21.2576 81.4245 21.02 82.0016 20.7044C82.8605 20.2335 83.6102 19.5275 84.2472 18.6052C85.0034 17.5143 85.2328 16.3767 85.3206 15.0777C85.3206 13.6306 85.0547 12.2083 84.3706 10.9217C82.9213 8.19655 80.1233 7.14459 77.167 7.14459H71.0278C69.2762 7.13689 67.9117 8.34769 67.9173 10.1215V27.9316C67.916 28.897 68.1399 29.6947 68.6456 30.2679C69.1508 30.8421 69.9043 31.1337 70.8103 31.1756C71.5968 31.2184 72.4724 30.8999 73.0478 30.366C73.6587 29.8034 73.9447 28.9784 73.9409 27.9949V22.432L80.1319 30.2281C80.6474 30.8117 81.4005 31.179 82.2401 31.179C83.793 31.179 85.053 29.9203 85.053 28.3661C85.053 27.7132 84.8304 27.1129 84.4583 26.636L84.4579 26.6364Z" fill="#16A2C9"/>
<path fill-rule="evenodd" clip-rule="evenodd" d="M97.2847 5.45897L98.2484 6.69074L100.267 6.67447L101.038 12.2793L101.398 13.3052L108.279 9.37094L115.57 15.6467L124.369 3.6402L131.524 10.506L126.654 22.7732L118.522 32.7328L112.7 34.9202L110.11 28.0745L109.138 26.3868L106.842 29.788L107.982 33.2906L101.188 35.5243C93.9734 23.7014 90.9781 23.9326 89.793 8.08779L97.2855 5.45854L97.2847 5.45897ZM102.162 32.7906L105.093 31.8268L104.315 29.4335L109.291 22.0616L112.188 27.0911L114.034 31.9698L116.762 30.9448L117.083 30.1326L124.772 21.3008L124.342 21.1082L128.254 12.2387L126.367 11.8923L127.327 9.24507L124.776 7.03112L119.101 15.0452L115.775 19.3797L113.947 17.2762L109.978 13.8601L108.813 13.4306L107.216 12.523L105.074 13.792L105.784 14.4393L101.486 20.4779L98.7982 12.8209L98.2703 8.98304L97.1387 8.99203L96.6729 8.39691L95.287 9.14659L95.132 8.70175L94.515 8.92867L93.9978 8.49453L93.332 9.13033L93.2794 9.47541L92.459 9.69634L92.4111 10.5693C92.5297 12.0379 92.7125 13.205 92.9398 14.4064C93.2575 16.0804 93.8317 17.4813 94.3442 18.9764C94.7274 20.0913 95.3756 21.0923 95.8988 22.1357C96.4421 23.2164 97.1143 24.2683 97.6602 25.304C98.2793 26.4754 98.9365 27.6194 99.5877 28.7583L102.162 32.7906Z" fill="#16A2C9"/>
<path fill-rule="evenodd" clip-rule="evenodd" d="M49.9457 26.0019L47.6744 26.5388V33.0612L39.6968 34.8851L35.2988 31.1563V18.624L37.857 18.0679V12.0978L40.5496 11.2865V8.45128L43.1879 7.72771V4.72854L50.8692 3.26599L55.0754 5.89182V6.88298L57.5107 8.44057V9.48226L59.9995 11.0698L60.0012 14.915L62.3187 16.6165L62.3196 29.582L54.3432 31.4034L49.9457 27.6751V26.0019ZM60.026 17.7776L57.7089 16.0766L57.7072 12.3269L55.2175 10.7393V9.6959L52.7822 8.1383V7.16298L50.4163 5.68631L45.4802 6.62609V9.47669L42.8419 10.2003V12.9901L40.1497 13.8014V19.9153L37.5911 20.4719V30.0941L40.3039 32.3941L45.3813 31.2334V24.7251L52.2376 23.1042V26.6133L54.9503 28.9133L60.0265 27.7543L60.0256 17.778L60.026 17.7776Z" fill="#16A2C9"/>
<path fill-rule="evenodd" clip-rule="evenodd" d="M16.1491 8.53947L16.4569 7.45198C17.2708 4.57869 20.1775 3.6205 22.8933 3.74594C25.9258 3.88638 28.1098 4.7097 28.8685 7.94221L32.3485 22.7719L33.1071 25.6131C34.1737 29.6082 31.8741 33.1686 27.6059 33.1939C25.2095 33.2084 23.4516 32.4849 22.317 30.9962C21.4431 32.7045 19.951 33.965 17.8557 33.9705C15.6028 33.9765 14.1548 33.1031 13.111 31.4522C11.9396 33.6661 9.64127 34.7648 6.76583 34.8226C5.25833 37.8089 1.65119 36.2264 2.2309 33.0868C0.86083 31.5498 0.605226 29.2853 0.774773 27.1853L2.21078 9.36794C2.51005 5.65505 4.63366 3.59481 8.39793 3.43768C11.5581 3.30538 13.9317 3.82215 15.3823 6.90738L16.1504 8.5399L16.1491 8.53947ZM26.6357 8.46626C26.1438 6.49122 25.0408 6.14014 22.7867 6.03653C20.753 5.94191 19.1954 6.59783 18.6627 8.07708L16.6839 15.0644L13.3066 7.88313C12.3617 5.94062 11.0995 5.73083 8.49212 5.72826C5.66978 5.96717 4.64308 7.23191 4.49494 9.55247L3.05894 27.3694C2.92707 29.8 3.35864 31.4633 4.73213 32.1616L4.44913 33.6952L4.71287 33.7989L5.41417 32.4099C5.74128 32.4892 6.10734 32.5307 6.51408 32.532C9.16088 32.532 11.2023 31.5545 11.6381 28.3006L12.026 23.5259L14.5495 29.2712C15.351 30.9765 16.1024 31.683 17.8488 31.6778C19.3426 31.674 20.2559 30.4383 20.6438 29.0379L22.4677 23.1384L23.2448 27.3304C23.7975 29.8822 24.939 30.9179 27.5922 30.9012C30.2976 30.8862 31.6018 28.8007 30.8919 26.2044L30.1242 23.3294L26.6366 8.46583L26.6357 8.46626Z" fill="#16A2C9"/>
<path fill-rule="evenodd" clip-rule="evenodd" d="M145.891 7.66734L146.23 9.73443C146.411 10.8416 146.438 12.1539 146.438 13.2692C146.438 15.6416 146.224 18.0328 145.872 20.3782C145.676 21.6823 145.603 23.0108 145.603 24.3287C145.603 26.5927 145.815 28.9531 146.208 31.1859C146.286 31.6324 146.382 31.9934 146.384 32.4639C146.389 33.6105 145.893 34.6915 145.04 35.4571C142.981 37.3028 138.044 37.3028 135.986 35.4571C135.132 34.6924 134.637 33.6139 134.64 32.4673C134.642 31.4869 134.935 30.5385 135.063 29.5735C135.293 27.8408 135.423 26.0772 135.423 24.33C135.423 23.0117 135.348 21.6823 135.152 20.3777C134.801 18.0336 134.587 15.6416 134.587 13.2701C134.587 12.1492 134.616 10.8557 134.795 9.74299L135.035 8.24234C134.76 7.57015 134.608 6.83502 134.608 6.06435C134.608 2.88708 137.186 0.309204 140.363 0.309204C143.54 0.309204 146.118 2.88665 146.118 6.06435C146.118 6.62094 146.039 7.15912 145.891 7.66819L145.891 7.66734ZM137.087 9.93009L137.059 10.1048C137.057 10.1142 136.88 11.2218 136.88 13.2692C136.88 14.933 136.997 17.218 137.42 20.0374C137.634 21.4674 137.716 22.9333 137.716 24.3295C137.716 26.4647 137.526 28.4372 137.336 29.8749C137.247 30.5445 136.933 31.8748 136.933 32.4724C136.931 32.7739 137.022 33.3069 137.516 33.75C138.694 34.8063 142.331 34.8054 143.509 33.75C144.003 33.3069 144.093 32.7743 144.091 32.4733C144.09 32.204 143.994 31.8384 143.949 31.5836C143.736 30.3694 143.31 27.5325 143.31 24.3287C143.31 22.9333 143.389 21.4674 143.604 20.0374C144.028 17.218 144.144 14.933 144.144 13.2692C144.144 11.2218 143.968 10.1142 143.966 10.1048L143.938 9.93009H137.086H137.087ZM136.901 6.06307C136.901 7.97475 138.452 9.52549 140.363 9.52549C142.276 9.52549 143.825 7.97475 143.825 6.06307C143.825 4.15097 142.276 2.60107 140.363 2.60107C138.452 2.60107 136.901 4.15097 136.901 6.06307Z" fill="#16A2C9"/>
<path fill-rule="evenodd" clip-rule="evenodd" d="M28.7616 20.7661L27.6951 16.2187L19.666 8.35709L18.8885 11.0994L28.7616 20.7661ZM22.2002 21.3475L17.3348 16.5844L18.1119 13.8421L29.9009 25.3854L30.2271 26.609C30.4806 27.5565 30.4279 28.4128 30.0632 29.0469L23.4855 22.6071L22.8587 19.2188L22.1998 21.3475H22.2002ZM24.2785 26.8864L24.359 27.3244C24.7473 29.4172 25.5689 30.1245 27.6154 30.1532L24.2785 26.886V26.8864ZM26.6277 11.6697L21.7759 6.92023C22.1767 6.87014 22.5723 6.86629 22.9024 6.8817C23.5669 6.91295 24.7447 6.9639 25.2897 7.40147C25.6425 7.68405 25.8065 8.17556 25.9071 8.59985L26.6277 11.6697ZM8.4974 6.57044C8.03029 6.59013 7.62527 6.64279 7.2759 6.73613L15.6136 14.9L12.5609 8.40762L10.8115 6.69546C10.0661 6.50878 9.14904 6.54261 8.49783 6.57087L8.4974 6.57044ZM5.53077 8.53178L21.3679 24.0384L20.5369 26.7263L5.19553 11.7052L5.36808 9.55762C5.3989 9.17271 5.45328 8.83191 5.53077 8.53135V8.53178ZM4.93394 14.9531L4.67148 18.1993L11.0081 24.4028L11.2714 21.1587L4.93394 14.9531ZM12.5528 22.4123L15.2514 28.5571L17.6803 30.9354C17.7625 30.9401 17.8486 30.9423 17.9376 30.941C18.8389 30.9388 19.3753 30.1742 19.6896 29.4005L12.5528 22.4123ZM4.40989 21.4464L4.14872 24.6935L10.0259 30.4486C10.3855 29.9438 10.6116 29.2759 10.6827 28.4064L10.7443 27.6485L4.40989 21.4468V21.4464ZM3.89054 27.9444L7.7413 31.7142C7.34398 31.7789 6.91326 31.808 6.45343 31.8076C5.8232 31.8063 5.12703 31.6979 4.65222 31.2471C3.88198 30.5171 3.82932 29.0143 3.89054 27.9444Z" fill="#16A2C9"/>
<path fill-rule="evenodd" clip-rule="evenodd" d="M50.1599 17.7814L52.2989 19.5394L47.8458 20.5987V18.2939L50.1599 17.7819V17.7814ZM50.0028 14.3212L47.8458 14.7767V17.8581L50.0028 17.3811V14.3212ZM43.2145 10.6682L45.1309 12.0062V14.5738L43.2145 12.9644V10.6682ZM40.5647 19.9676L40.593 14.2116L42.2653 15.5448V21.2443L40.5647 19.9676ZM40.0912 31.9497L37.7959 29.9764L37.816 20.7348L40.0912 22.5677V31.9497ZM45.8147 6.89624L47.4926 8.20937V10.8061L45.8147 9.49295V6.89624Z" fill="#16A2C9"/>
<path fill-rule="evenodd" clip-rule="evenodd" d="M81.5045 9.23348C80.2423 8.38618 78.6701 8.03552 77.0487 8.03552H71.336C69.9411 8.03552 68.8506 8.96374 68.8506 10.3959V26.9686C68.8506 27.6344 68.9722 28.3567 69.4264 28.8717C69.6255 29.0978 69.8683 29.2575 70.135 29.3679C70.0691 29.3127 70.007 29.2519 69.9479 29.1855C69.4937 28.6696 69.3721 27.9478 69.3721 27.282V10.7089C69.3721 9.27715 70.463 8.34764 71.8575 8.34764H77.5702C78.975 8.34764 80.3425 8.61266 81.5045 9.23391V9.23348Z" fill="#16A2C9"/>
<path fill-rule="evenodd" clip-rule="evenodd" d="M74.1582 21.3334L80.127 28.8516C80.3295 29.1055 80.5958 29.2918 80.89 29.4121C80.8026 29.3389 80.7217 29.2558 80.6493 29.1646L74.1582 20.99V21.3334Z" fill="#16A2C9"/>
<path fill-rule="evenodd" clip-rule="evenodd" d="M79.3968 12.5889C80.1765 13.1656 80.6847 14.0912 80.6847 15.1308C80.6847 16.8691 79.2645 18.2896 77.5258 18.2896H74.6504V18.603H78.0482C79.7856 18.603 81.2062 17.1816 81.2062 15.4438C81.2062 14.1876 80.4646 13.0971 79.3968 12.5889Z" fill="#16A2C9"/>
<path fill-rule="evenodd" clip-rule="evenodd" d="M123.255 20.8538L123.646 19.992C123.867 19.5047 124.192 19.0586 124.492 18.6052L124.275 18.5855L124.417 18.0936C124.44 18.0148 124.47 17.9437 124.505 17.8739C124.481 17.8011 124.477 17.7215 124.493 17.6307L124.503 17.5721L124.53 17.519C124.709 17.1589 124.934 16.7432 125.064 16.345L124.822 15.9802C124.704 16.2465 124.564 16.5094 124.446 16.7483L124.419 16.8023L124.409 16.8609C124.393 16.9508 124.397 17.0305 124.421 17.1041C124.386 17.1722 124.356 17.2441 124.334 17.3229L124.191 17.8144L124.406 17.835C124.108 18.2875 123.783 18.7345 123.562 19.2213L122.883 20.7185L123.061 20.5858L122.906 20.9604L123.254 20.8538H123.255ZM123.277 15.4797L122.08 16.1005L123.328 14.5408C123.356 14.5048 123.383 14.4684 123.407 14.4303L123.589 14.6102C123.635 14.6555 123.686 14.6889 123.739 14.7116C123.639 14.9163 123.556 15.1295 123.411 15.3102L123.276 15.4793L123.277 15.4797ZM123.826 13.5865L123.815 13.4863L123.902 13.3591C124.129 13.0247 124.275 12.6257 124.453 12.2622L124.49 12.1869C124.505 12.1393 124.527 12.0995 124.551 12.0631L124.61 11.9415L124.286 11.6658C124.142 11.9783 124.009 12.3063 123.818 12.588L123.731 12.7152L123.741 12.8154C123.605 12.9841 123.524 13.1356 123.42 13.3574L123.291 13.6289L123.506 13.8399C123.657 13.9911 123.68 13.7641 123.826 13.5869V13.5865ZM121.93 13.038L122.133 12.3684L121.713 12.7058L121.327 13.9774L121.93 13.038ZM111.209 15.2567L111.282 15.0644C111.292 15.0396 111.301 15.0143 111.311 14.9886C111.274 14.9869 111.238 14.9852 111.2 14.9852H111.193L110.924 15.0203L110.686 15.6454L111.209 15.2567H111.209ZM124.712 11.7339L124.744 11.6688L124.755 11.5785L124.648 11.4791C124.638 11.4783 124.628 11.4774 124.618 11.4774L124.712 11.7339ZM103.071 30.7975L103.236 30.8639C103.162 30.8635 103.162 30.8583 103.068 30.8202L102.699 30.6708L102.603 30.8725L102.364 30.3578L102.199 30.6002L100.173 27.428C99.4973 26.3684 98.9219 25.2453 98.3353 24.1334C97.7946 23.1072 97.1661 22.1297 96.6446 21.0923C96.1492 20.105 95.5301 19.1532 95.1705 18.1047C94.6734 16.658 94.1215 15.2772 93.8346 13.7641C93.6822 12.9631 93.5542 12.1706 93.457 11.3708C93.5585 12.4356 93.7182 13.4777 93.9181 14.5348C94.205 16.0479 94.7577 17.4282 95.254 18.8741C95.6145 19.923 96.2323 20.8752 96.7289 21.8625C97.2496 22.8995 97.8785 23.8778 98.4197 24.9041C99.0062 26.0151 99.5808 27.1386 100.258 28.1987L102.283 31.3695L102.448 31.1281L102.688 31.6423L102.784 31.4415L103.152 31.5909C103.259 31.6346 103.245 31.6346 103.357 31.6346H103.384L103.468 31.6243C103.589 31.6097 103.757 31.5665 103.849 31.4834L104.021 31.3284C104.023 31.3237 104.025 31.3199 104.027 31.316L104.26 30.8434C104.219 30.6914 104.2 30.5317 104.241 30.3814L104.331 30.0461C104.278 29.8852 104.223 29.725 104.169 29.5645L104.156 29.6111C104.116 29.761 104.136 29.9198 104.177 30.0723L103.943 30.5449C103.941 30.5484 103.939 30.5535 103.938 30.5574L103.766 30.7123C103.696 30.7757 103.581 30.816 103.477 30.8378L103.517 30.7577C103.496 30.5835 103.506 30.4015 103.56 30.1986L103.595 30.068C103.525 29.8595 103.455 29.6514 103.383 29.4425L103.193 28.8889L103.35 28.6722L103.304 28.5725L103.485 28.1195C103.563 27.9208 103.679 27.7487 103.821 27.6117C103.94 27.3582 104.096 27.1069 104.274 26.8864V26.8201L104.519 26.5152C104.545 26.4831 104.571 26.4493 104.596 26.4137L104.269 26.481L106.264 24.0277C106.309 23.9712 106.357 23.9176 106.406 23.8646C106.512 23.6004 106.688 23.3713 106.885 23.141C106.929 23.0896 106.99 23.0254 107.027 22.9689L107.366 22.3511L107.487 22.3583C107.55 22.2796 107.617 22.2012 107.686 22.1207L108.102 21.4798C108.242 21.2661 108.4 21.0713 108.571 20.8817L109.437 19.9063L110.195 20.8067L110.233 20.7716L110.097 20.6089L110.473 19.9235L109.933 20.4146L109.176 19.515L108.309 20.4895C108.139 20.6787 107.98 20.874 107.841 21.0876L107.424 21.7285C107.356 21.809 107.289 21.8878 107.226 21.9666L107.105 21.9589L106.765 22.5767C106.727 22.6332 106.667 22.6974 106.623 22.7488C106.425 22.9792 106.25 23.2082 106.143 23.4724C106.095 23.5255 106.047 23.5794 106.001 23.6355L104.007 26.0892L104.334 26.0224C104.309 26.0567 104.283 26.0905 104.256 26.123L104.011 26.4287V26.4951C103.834 26.7139 103.677 26.9665 103.558 27.2208C103.417 27.357 103.302 27.5291 103.222 27.7277L103.042 28.1807L103.088 28.2805L102.931 28.4971L103.122 29.0507C103.192 29.2588 103.263 29.4677 103.334 29.6758L103.299 29.8077C103.244 30.0098 103.234 30.1921 103.255 30.3668L103.187 30.5038L103.163 30.5248C103.15 30.5278 103.134 30.5295 103.123 30.5312L102.908 30.4452L103.072 30.798L103.071 30.7975ZM110.384 20.9519L110.689 21.3145L110.653 21.3518L110.357 21.0003L110.384 20.9514V20.9519ZM112.386 25.4872L112.419 25.5527L112.549 25.8148L112.82 25.9924C112.775 25.9132 112.731 25.8426 112.691 25.7844L112.566 25.6054L112.386 25.4877L112.386 25.4872ZM115.014 29.9044L115.093 29.8573H115.094L115.073 29.8697L115.014 29.9044ZM114.36 29.7422C114.431 29.7023 114.491 29.6672 114.535 29.6407L114.833 29.4647L115.132 29.4823C115.168 29.4532 115.205 29.4253 115.242 29.3996C115.269 29.3769 115.296 29.3551 115.324 29.3346C115.342 29.2883 115.352 29.2395 115.361 29.1851L115.427 28.757L115.763 28.4826C116.18 28.1426 116.547 27.7119 116.921 27.3236L117.454 26.7725L117.659 26.8569L117.907 26.5897L118 26.6505C118.324 26.329 118.705 25.9817 118.872 25.6718L118.952 25.5206L119.032 25.4286C119.212 25.2175 119.401 24.9974 119.604 24.7919L119.519 24.5864L120.275 24.0718C120.509 23.9108 120.753 23.5918 120.972 23.2716L120.933 23.2994L122.743 19.3091C122.876 19.0167 123.03 18.7521 123.193 18.4956L123.479 17.5061C123.491 17.4646 123.504 17.4244 123.518 17.3854C123.516 17.2989 123.521 17.2103 123.536 17.1204L123.483 16.9825L123.572 16.9359L123.799 17.5126C123.783 17.6025 123.776 17.6903 123.78 17.7776C123.766 17.8166 123.752 17.8559 123.74 17.8983L123.455 18.8878C123.291 19.1442 123.137 19.4084 123.005 19.7013L121.195 23.6916L121.233 23.6633C121.014 23.984 120.772 24.303 120.536 24.4631L119.78 24.9786L119.865 25.1841C119.663 25.3888 119.473 25.6101 119.292 25.8208L119.214 25.9132L119.133 26.0644C118.966 26.3752 118.585 26.7216 118.261 27.0431L118.168 26.9823L117.919 27.2495L117.716 27.1651L117.183 27.717C116.809 28.1045 116.441 28.5344 116.024 28.8752L115.689 29.1496L115.623 29.5778C115.615 29.6321 115.602 29.6801 115.586 29.7263C115.558 29.7473 115.531 29.7696 115.504 29.7923C115.551 29.7751 115.597 29.7657 115.642 29.7627C115.737 29.6754 115.793 29.5996 115.9 29.5533C115.944 29.5161 115.992 29.4823 116.042 29.4502C116.143 29.284 116.205 29.1119 116.236 28.9141L116.262 28.754L116.386 28.6517C116.829 28.289 117.21 27.8468 117.606 27.437L117.806 27.2302L118.018 27.3167L118.122 27.1994L118.132 27.1964L118.195 27.1275L118.245 27.1596C118.296 27.1429 118.358 27.1142 118.391 27.0748C118.784 26.5966 119.381 26.1654 119.671 25.6268L119.715 25.5425L119.745 25.5082C119.998 25.2119 120.287 24.8724 120.599 24.6168C120.604 24.6061 120.609 24.5954 120.615 24.5851L120.566 24.4678L120.849 24.2756C121.382 23.9129 121.787 23.1804 122.155 22.6559C122.444 22.2474 122.73 21.8339 123.003 21.4108L122.969 21.4883L123.146 21.3556L122.991 21.7307L123.457 21.5885C123.08 22.2188 122.661 22.8284 122.24 23.4266C121.872 23.9502 121.466 24.6832 120.934 25.0458L120.651 25.2389L120.699 25.3554C120.693 25.3665 120.688 25.3763 120.684 25.3875C120.372 25.6422 120.083 25.9822 119.83 26.2785L119.8 26.3136L119.756 26.3979C119.466 26.9365 118.868 27.3672 118.474 27.8455C118.442 27.8849 118.379 27.9127 118.33 27.9307L118.28 27.8973L118.216 27.9666L118.205 27.9696L118.102 28.0869L117.891 27.9996L117.691 28.2068C117.295 28.617 116.914 29.0597 116.472 29.421L116.346 29.5238L116.321 29.6848C116.291 29.8822 116.229 30.0539 116.127 30.2204C116.076 30.2525 116.028 30.2863 115.986 30.3236C115.877 30.369 115.821 30.4447 115.727 30.5321C115.668 30.5368 115.61 30.5509 115.552 30.5758C115.536 30.583 115.522 30.5899 115.508 30.5967C115.473 30.5886 115.437 30.5826 115.399 30.5805L115.269 30.5732L115.158 30.6396C114.941 30.768 114.22 31.1692 113.941 31.1152C113.934 31.0968 113.927 31.078 113.92 31.0587L113.863 30.6914C113.731 29.8578 112.837 27.2426 112.374 26.5794L112.328 26.5126L111.818 26.1791L111.878 26.0494L111.787 25.8674C111.732 25.757 111.677 25.6465 111.624 25.5343C111.49 25.2522 111.495 24.9247 111.323 24.6091C110.841 23.731 110.328 22.8695 109.833 21.9987C109.814 21.9644 109.79 21.9306 109.767 21.8981L109.996 21.6673L109.422 20.9844L109.096 21.3496C108.951 21.5123 108.812 21.6802 108.693 21.8634L108.416 22.2915L108.452 22.3061C108.24 22.5647 107.997 22.7976 107.844 23.087L107.768 23.0823L107.639 23.317C107.465 23.6346 107.115 23.8453 107.023 24.2289C106.952 24.3094 106.877 24.3878 106.809 24.4721L106.061 25.3926L106.23 25.3584L106.212 25.3759C105.687 25.8512 105.486 26.4356 105.068 26.9571L104.976 27.0718V27.1566C104.74 27.3938 104.525 27.7329 104.399 28.0488C104.285 28.1208 104.196 28.2377 104.138 28.3824L104.071 28.5519L104.163 28.751C104.145 28.7763 104.126 28.8028 104.107 28.8289L104.1 28.8388L103.965 28.444L103.895 28.2359L104.024 28.0583C104.042 28.0317 104.061 28.006 104.08 27.9795L103.987 27.7808L104.055 27.6108C104.113 27.467 104.202 27.3497 104.315 27.2786C104.442 26.9618 104.658 26.6235 104.892 26.3859L104.892 26.3007L104.984 26.186C105.403 25.6649 105.604 25.0809 106.128 24.6044L106.148 24.5873L105.979 24.6224L106.726 23.7019C106.795 23.6179 106.87 23.5392 106.941 23.4587C107.033 23.0755 107.382 22.864 107.556 22.5476L107.686 22.3117L107.761 22.3168C107.914 22.027 108.155 21.794 108.368 21.5359L108.332 21.5213L108.61 21.0932C108.73 20.9095 108.868 20.7429 109.013 20.5794L109.34 20.2138L109.913 20.8966L109.683 21.1278C109.707 21.1608 109.732 21.1946 109.751 21.228C110.246 22.0993 110.758 22.9612 111.239 23.8389C111.413 24.1544 111.408 24.4819 111.541 24.765C111.594 24.8763 111.649 24.9867 111.704 25.0972L111.795 25.28L111.735 25.4089L112.244 25.742L112.29 25.8092C112.753 26.4724 113.648 29.0875 113.779 29.9211L113.837 30.2885C113.843 30.3086 113.85 30.3274 113.857 30.3458C113.994 30.372 114.238 30.2885 114.476 30.1814C114.444 30.0479 114.405 29.8997 114.36 29.7422H114.36ZM120.254 18.127L122.855 14.8773L122.534 14.5601L121.706 15.5962L119.994 18.2618L120.254 18.127ZM122.567 14.4577L122.867 13.8254C122.895 13.7659 122.921 13.7111 122.949 13.6588L122.487 14.379L122.567 14.4577ZM119.535 18.4995L119.63 18.1878L119.271 18.6365L119.535 18.4995ZM119.721 17.8885L120.601 14.9899L120.025 15.6322L118.999 19.0132L119.721 17.8885ZM115.069 20.8247L114.539 20.0241C114.512 19.9826 114.484 19.9414 114.455 19.8999L115.068 20.826L115.07 20.8247H115.069ZM109.456 17.8988L109.37 17.9463L109.504 17.6492L108.998 18.0259L109.812 15.8753L110.243 15.8197L109.456 17.8983L109.456 17.8988ZM109.165 15.5341L109.005 15.5551L109.096 15.2913L108.801 15.2905L108.95 15.0747C109.036 15.0918 109.129 15.1021 109.229 15.106L109.278 15.1077L109.306 15.3295L109.165 15.5341H109.165ZM105.052 17.9715L104.947 18.1873L104.841 17.7746C104.882 17.7271 104.923 17.68 104.966 17.6355L105.052 17.9715ZM101.201 22.116L101.137 22.1922L100.426 20.5028C100.3 20.2018 100.184 19.8978 100.095 19.5844C99.4507 17.3131 98.2887 15.2883 97.7766 12.9361C97.6392 12.3025 97.6079 11.6354 97.5617 10.9902C97.551 10.848 97.5411 10.6939 97.5257 10.5346L97.5886 10.5329C97.6417 10.5308 97.6935 10.5261 97.7423 10.5214C97.783 10.8176 97.8036 11.1216 97.8228 11.3828C97.8704 12.0284 97.9003 12.6951 98.0378 13.3287C98.5494 15.6805 99.7118 17.7057 100.357 19.977C100.445 20.2912 100.561 20.5944 100.687 20.8945L101.201 22.116ZM102.047 29.6891L102.302 29.3136L102.516 29.7747L102.302 30.089L102.047 29.6891ZM120.704 14.6508L120.599 14.665C120.658 14.5755 120.718 14.4869 120.78 14.4034L120.704 14.6508ZM121.737 11.6063C121.827 11.4509 121.916 11.2933 122.003 11.1353C121.869 11.2663 121.751 11.4179 121.634 11.5707L121.738 11.6063H121.737Z" fill="#16A2C9"/>
<path fill-rule="evenodd" clip-rule="evenodd" d="M154.397 6.73996H154.856V32.9815H154.397V6.73996ZM156.227 6.73996H156.685V32.9815H156.227V6.73996ZM162.379 17.227C162.271 17.0801 162.162 16.9337 162.054 16.7886C162.042 17.8255 162.024 18.8599 162.024 19.8978C162.024 21.2374 162.07 22.5981 162.161 23.9408C162.208 24.6421 162.281 25.3528 162.379 26.0669V17.2274V17.227ZM158.056 26.2896C157.95 25.5896 157.874 24.8942 157.828 24.2075C157.546 19.998 157.734 15.3508 157.734 11.1306C157.734 10.7761 157.858 10.4927 158.056 10.2709V6.73996H158.513V9.92023C158.925 9.69802 159.436 9.60041 159.885 9.59484V6.73996H160.342V9.62053C160.916 9.6946 161.488 9.9335 161.804 10.434L162.379 11.1965V6.0014H162.837V11.8049L162.885 11.8683C163.338 12.3358 163.779 12.8244 164.208 13.3274V6.0014H164.665V13.875C165.135 14.4492 165.592 15.04 166.037 15.6403V6.00183H166.494V16.2662C166.963 16.9153 167.419 17.5721 167.865 18.228V6.0014H168.323V18.9049C168.535 19.2204 168.746 19.5351 168.954 19.8477C168.654 17.1585 168.628 14.8225 168.647 12.1539C168.377 11.164 169.153 10.622 169.994 10.4353V6.75409H170.524V10.3638C170.576 10.3612 170.627 10.3599 170.677 10.3599C171.106 10.3599 171.674 10.4678 172.114 10.7162V6.75409H172.644V11.194C172.737 11.3425 172.793 11.5125 172.798 11.7065C172.86 14.167 172.976 16.6263 173.143 19.0162C173.306 21.3291 173.673 23.7138 174.234 26.108V6.75409H174.764V32.9661H174.234V27.3039C174.014 27.9542 173.401 28.3374 172.644 28.4564V32.9657H172.114V28.4967H172.111C171.35 28.4967 170.85 28.2308 170.524 27.9208V32.9657H169.994V27.2606C169.44 26.5499 168.882 25.8764 168.323 25.2059V32.2421H167.865V24.6558C167.407 24.106 166.95 23.5516 166.494 22.9727V32.2421H166.037V22.3819C165.77 22.0308 165.504 21.6699 165.239 21.294C165.047 21.0217 164.856 20.7476 164.665 20.4728V32.2421H164.208V19.813C163.754 19.1588 163.299 18.5037 162.837 17.8576V32.2417H162.379V29.5717C162.108 29.9823 161.732 30.3283 161.359 30.5188C161.084 30.6592 160.723 30.7402 160.341 30.7564V32.9798H159.884V30.7449C159.369 30.6973 158.861 30.5304 158.512 30.2315V32.9798H158.056V26.2879L158.056 26.2896ZM176.353 6.75451H176.884V32.9665H176.353V6.75451ZM158.801 29.9066C159.43 30.172 160.333 30.1369 160.788 29.9044C161.419 29.5812 162.2 28.566 161.902 27.8236L161.886 27.7851L161.878 27.744C161.621 26.424 161.441 25.0869 161.351 23.7455C161.26 22.3909 161.213 21.0306 161.213 19.6721C161.213 18.6347 161.231 17.5969 161.243 16.5591L161.257 15.2656L161.626 15.758L161.616 16.7839C161.603 17.8208 161.586 18.8591 161.586 19.8969C161.586 21.2558 161.633 22.6148 161.724 23.9703C161.813 25.3117 161.994 26.6488 162.251 27.9688L162.259 28.0099L162.275 28.0484C162.573 28.7899 161.792 29.8059 161.16 30.1292C160.604 30.4131 159.374 30.4023 158.802 29.9066H158.801ZM170.932 27.6832C171.254 27.9439 171.645 28.0578 172.11 28.0578C173.224 28.0578 174.115 27.5308 173.829 26.3024C173.274 23.9198 172.876 21.4879 172.705 19.047C172.534 16.6075 172.42 14.1627 172.359 11.7176C172.351 11.3918 172.079 11.167 171.742 11.021C171.886 11.1464 171.981 11.3031 171.986 11.4932C172.048 13.9384 172.161 16.3835 172.332 18.8227C172.504 21.2648 172.901 23.6954 173.457 26.0781C173.742 27.306 172.852 27.8343 171.738 27.8343C171.439 27.8343 171.171 27.7864 170.932 27.6836L170.932 27.6832ZM169.173 20.9694L169.218 21.3706L168.215 19.8661C166.368 17.0925 164.164 14.5673 162.161 11.9077L161.081 10.4738C161.008 10.3766 160.924 10.2919 160.831 10.2174C161.074 10.3253 161.291 10.4832 161.453 10.6986L162.534 12.1333C164.537 14.7925 166.74 17.3182 168.587 20.0913L169.173 20.9698L169.173 20.9694Z" fill="#16A2C9"/>
<path fill-rule="evenodd" clip-rule="evenodd" d="M140.777 3.37219C139.63 3.37219 138.7 4.30256 138.7 5.45042C138.7 6.59742 139.63 7.52693 140.777 7.52693C141.925 7.52693 142.854 6.59742 142.854 5.45042C142.854 4.30256 141.925 3.37219 140.777 3.37219ZM140.719 13.4508H140.727C141.299 13.4508 141.764 13.9174 141.764 14.4886V16.2029C141.764 16.7736 141.298 17.2412 140.727 17.2412H140.719C140.149 17.2412 139.682 16.7736 139.682 16.2029V14.4886C139.682 13.9174 140.149 13.4508 140.719 13.4508ZM137.661 10.3634C137.533 11.2899 137.517 12.3658 137.517 13.2752C137.517 15.52 137.722 17.7875 138.053 20.0066C138.271 21.452 138.357 22.9218 138.357 24.3818C138.357 26.2584 138.217 28.1491 137.971 30.0093C137.916 30.4302 137.826 30.8567 137.749 31.2754C137.677 31.6633 137.572 32.1698 137.57 32.5611C137.569 32.9306 137.735 33.2688 138.01 33.5137C138.07 33.5681 138.139 33.6191 138.215 33.6666C137.987 33.4298 137.85 33.1203 137.852 32.7859C137.853 32.3941 137.958 31.8881 138.03 31.5002C138.107 31.0814 138.197 30.655 138.252 30.2333C138.499 28.3734 138.637 26.4823 138.637 24.6066C138.637 23.1462 138.552 21.6759 138.336 20.2313C138.003 18.0118 137.798 15.7448 137.798 13.4991C137.798 12.5902 137.815 11.5147 137.943 10.5873C139.891 10.6828 141.839 10.6104 143.787 10.363C141.745 10.5514 139.703 10.5389 137.662 10.363L137.661 10.3634ZM141.783 13.4551C142.046 13.7218 142.207 14.0874 142.207 14.4882V16.2029C142.207 17.0177 141.542 17.6817 140.727 17.6817H140.719C140.435 17.6817 140.171 17.6012 139.945 17.4612C140.213 17.7357 140.588 17.9061 141 17.9061H141.008C141.823 17.9061 142.488 17.2416 142.488 16.4272V14.7129C142.488 14.1829 142.206 13.7154 141.783 13.4546L141.783 13.4551Z" fill="#16A2C9"/>
</g>
<defs>
<clipPath id="clip0_2795_22232">
<rect width="179.419" height="36.5329" fill="white" transform="translate(0.727539 0.30835)"/>
</clipPath>
</defs>
</svg>
