<svg width="205" height="57" viewBox="0 0 205 57" fill="none" xmlns="http://www.w3.org/2000/svg">
<g clip-path="url(#clip0_2795_22170)">
<path fill-rule="evenodd" clip-rule="evenodd" d="M88.4925 47.627C89.6371 47.627 90.6005 48.0071 91.3816 48.7625C92.2304 49.5811 92.6535 50.672 92.6535 52.032C92.6535 53.4165 92.2154 54.5173 91.3371 55.3343C90.5525 56.0672 89.6048 56.4309 88.4925 56.4319C87.3018 56.4319 86.3161 56.0267 85.5292 55.2167C84.7324 54.391 84.3334 53.3294 84.3334 52.032C84.3334 50.672 84.7583 49.5783 85.6104 48.756C86.3922 48.0039 87.352 47.6283 88.4925 47.627ZM121.444 47.627V47.8686C120.904 47.8931 120.54 47.9713 120.353 48.1027C120.17 48.2344 120.08 48.5136 120.08 48.9465V55.1834C120.08 55.3282 120.107 55.4423 120.159 55.5263C120.216 55.6068 120.339 55.6571 120.525 55.6784C120.637 55.6908 120.751 55.6993 120.871 55.7032C120.995 55.7084 121.223 55.7104 121.56 55.7104C122.866 55.7104 123.748 55.6149 124.209 55.4237C124.668 55.2337 125.113 54.7489 125.543 53.9669H125.919L125.198 56.2171H117.286V55.9827C117.828 55.9314 118.176 55.848 118.335 55.729C118.499 55.6068 118.579 55.2994 118.579 54.8094V49.0348C118.579 48.5735 118.5 48.2743 118.343 48.1347C118.185 47.9909 117.834 47.9023 117.286 47.8686V47.627H121.444ZM76.199 47.627V47.8686C75.7325 47.9023 75.4293 47.9889 75.2904 48.1275C75.15 48.2671 75.0799 48.5702 75.0799 49.0348V51.5633H78.9136V49.0348C78.9136 48.5702 78.8464 48.2671 78.7114 48.1275C78.5751 47.9889 78.2719 47.9023 77.8044 47.8686V47.627H81.3165V47.8686C80.8531 47.9023 80.5486 47.9889 80.4098 48.1275C80.2725 48.2671 80.2057 48.5702 80.2057 49.0348V54.8094C80.2057 55.2828 80.2725 55.5881 80.4098 55.7228C80.5486 55.8533 80.8531 55.9406 81.3165 55.9827V56.2171H77.8044V55.9827C78.3019 55.9314 78.6101 55.8389 78.728 55.7032C78.8522 55.5685 78.9136 55.2203 78.9136 54.656V52.1344H75.0799V54.8094C75.0799 55.2828 75.15 55.5881 75.2904 55.7228C75.4293 55.8582 75.7325 55.9448 76.199 55.9827V56.2171H72.6837V55.9827C73.1783 55.9271 73.4866 55.8346 73.6105 55.7032C73.7337 55.5685 73.7958 55.2203 73.7958 54.656V49.0348C73.7958 48.5702 73.7248 48.2671 73.5856 48.1275C73.4493 47.9889 73.1493 47.9023 72.6837 47.8686V47.627H76.199ZM104.258 47.627L104.337 49.8332H103.981C103.805 49.1408 103.579 48.6896 103.307 48.4829C103.039 48.2724 102.471 48.1652 101.603 48.1652H100.767V54.8096C100.767 55.3131 100.859 55.6254 101.039 55.7477C101.219 55.867 101.614 55.9448 102.224 55.983V56.2171H97.8581V55.983C98.4909 55.9399 98.886 55.8493 99.0399 55.7097C99.1976 55.5698 99.2761 55.2196 99.2761 54.6576V48.1652H98.4423C97.6122 48.1652 97.0465 48.2704 96.7454 48.4771C96.4466 48.6843 96.2228 49.1352 96.0719 49.8332H95.7044L95.7919 47.627H104.258ZM133.982 47.627L134.261 50.2823H133.956C133.749 49.4821 133.413 48.9245 132.951 48.6078C132.491 48.2904 132.037 48.1334 131.585 48.1334C131.236 48.1334 130.929 48.2351 130.666 48.437C130.406 48.6363 130.278 48.9139 130.278 49.2721C130.278 49.5917 130.378 49.867 130.578 50.094C130.778 50.3247 131.09 50.5665 131.51 50.8173L132.637 51.4942C133.342 51.9155 133.837 52.3019 134.127 52.6564C134.409 53.0137 134.549 53.4356 134.552 53.9231C134.552 54.5765 134.296 55.1218 133.788 55.5601C133.282 55.998 132.637 56.2171 131.85 56.2171C131.452 56.2171 131.037 56.144 130.603 55.998C130.174 55.8523 129.928 55.7792 129.865 55.7792C129.715 55.7792 129.614 55.8235 129.56 55.9132C129.509 56.003 129.476 56.0978 129.458 56.1983H129.178L128.797 53.5452H129.09C129.305 54.1056 129.561 54.5517 129.853 54.8844C130.362 55.4652 130.994 55.7544 131.747 55.7544C132.157 55.7544 132.509 55.6294 132.806 55.3777C133.105 55.1259 133.256 54.7746 133.256 54.3247C133.256 53.9181 133.105 53.5659 132.806 53.2639C132.609 53.0736 132.196 52.7886 131.567 52.4065L130.474 51.7437C130.142 51.5403 129.879 51.335 129.682 51.1281C129.322 50.7341 129.139 50.3012 129.139 49.8255C129.139 49.1967 129.354 48.6727 129.785 48.2546C130.214 47.8373 130.782 47.6279 131.491 47.627C131.784 47.627 132.135 47.6983 132.543 47.8414C132.955 47.9792 133.191 48.0483 133.251 48.0483C133.408 48.0483 133.516 48.0119 133.574 47.9391C133.638 47.8659 133.685 47.7623 133.719 47.627H133.982ZM113.603 47.627L113.652 49.4912H113.278C113.153 48.9167 112.965 48.5447 112.717 48.375C112.468 48.2066 111.911 48.1213 111.048 48.1213H109.047C108.832 48.1213 108.699 48.153 108.645 48.2168C108.597 48.2766 108.573 48.3894 108.573 48.5591V51.4564H110.841C111.467 51.4564 111.868 51.3733 112.041 51.2089C112.213 51.0447 112.353 50.7106 112.458 50.2072H112.803V53.2123H112.458C112.348 52.7101 112.207 52.3773 112.035 52.2168C111.862 52.0527 111.463 51.9693 110.841 51.9693H108.573V55.1834C108.573 55.4423 108.666 55.5943 108.847 55.6404C109.034 55.6869 109.588 55.7104 110.51 55.7104C111.506 55.7104 112.242 55.6149 112.717 55.4237C113.191 55.2295 113.619 54.7633 113.997 54.0244H114.409L113.738 56.2171H105.776V55.9827C106.317 55.9314 106.665 55.848 106.827 55.729C106.989 55.6068 107.071 55.2994 107.071 54.8094V49.0348C107.071 48.5735 106.991 48.2743 106.832 48.1347C106.675 47.9909 106.323 47.9023 105.776 47.8686V47.627H113.603ZM88.4925 48.0897C87.7328 48.0897 87.0876 48.4119 86.5581 49.0552C86.0334 49.6955 85.7725 50.6871 85.7725 52.032C85.7725 53.3751 86.0334 54.3679 86.5581 55.0111C87.0847 55.6511 87.7286 55.9702 88.4925 55.9702C89.2419 55.9702 89.8795 55.6592 90.4089 55.0362C90.9426 54.4093 91.2076 53.4081 91.2076 52.032C91.2076 50.6414 90.9404 49.6367 90.4016 49.0176C89.8654 48.3988 89.2301 48.091 88.4925 48.0897ZM93.8773 7.67256L102.838 20.5809L111.797 7.67256H116.183L105.583 23.8127L115.343 38.5961L204.929 38.7252L187.271 41.4817L112.896 41.739L102.838 26.6778L92.7792 41.739L18.4044 41.4817L0.744141 38.7252L90.332 38.5961L100.092 23.8127L89.4925 7.67256H93.8773ZM172.118 13.2664L172.752 19.9023H172.061C171.592 17.9038 170.837 16.5082 169.797 15.7162C168.764 14.9252 167.742 14.5299 166.728 14.5299C165.94 14.5299 165.249 14.7836 164.659 15.2914C164.078 15.7873 163.786 16.4824 163.786 17.3757C163.786 18.1775 164.012 18.8631 164.461 19.4305C164.912 20.0097 165.61 20.6123 166.559 21.2414L169.092 22.9307C170.678 23.9858 171.794 24.9546 172.443 25.8374C173.08 26.7306 173.398 27.7865 173.399 29.0036C173.399 30.6366 172.827 32.0014 171.683 33.0979C170.546 34.1934 169.092 34.7418 167.318 34.7418C166.428 34.7418 165.494 34.5585 164.518 34.1934C163.55 33.8282 162.996 33.645 162.857 33.645C162.519 33.645 162.288 33.7567 162.167 33.9813C162.054 34.2042 161.979 34.4413 161.941 34.6947H161.31L160.45 28.0602H161.112C161.599 29.4602 162.172 30.577 162.828 31.4083C163.974 32.8594 165.396 33.5857 167.094 33.5857C168.012 33.5857 168.805 33.2703 169.472 32.6413C170.149 32.0122 170.486 31.1335 170.486 30.0083C170.486 28.9937 170.149 28.1113 169.472 27.3597C169.031 26.8827 168.102 26.1673 166.684 25.2144L164.224 23.5546C163.481 23.0492 162.891 22.536 162.45 22.0184C161.632 21.0337 161.225 19.9491 161.225 18.7608C161.225 17.1873 161.707 15.8791 162.673 14.8345C163.64 13.7891 164.921 13.2664 166.516 13.2664C167.173 13.2664 167.962 13.4453 168.88 13.7986C169.811 14.1444 170.339 14.3162 170.472 14.3162C170.827 14.3162 171.072 14.2257 171.203 14.0435C171.344 13.8606 171.453 13.6018 171.526 13.2664H172.118ZM134.552 13.2664C137.325 13.2664 139.654 14.1879 141.546 16.0325C143.599 18.028 144.623 20.6892 144.623 24.0124C144.623 27.386 143.563 30.0726 141.44 32.066C139.54 33.8498 137.243 34.7418 134.552 34.7418C131.671 34.7418 129.279 33.7554 127.379 31.7788C125.447 29.762 124.48 27.1743 124.48 24.0124C124.48 20.6892 125.511 18.0239 127.573 16.0176C129.464 14.1838 131.791 13.2675 134.552 13.2664ZM134.552 14.3912C132.71 14.3912 131.149 15.1767 129.871 16.7469C128.599 18.3077 127.964 20.7294 127.964 24.0124C127.964 27.2849 128.599 29.7069 129.871 31.2772C131.14 32.838 132.701 33.617 134.552 33.617C136.362 33.617 137.909 32.8569 139.19 31.3377C140.482 29.8077 141.126 27.3657 141.126 24.0124C141.126 20.6182 140.476 18.1663 139.175 16.6556C137.874 15.1459 136.332 14.3922 134.552 14.3912ZM75.5613 13.2664V13.8294C74.3736 13.8883 73.6045 14.0809 73.2535 14.4059C72.9019 14.7213 72.7266 15.4374 72.7266 16.5508V30.0267C72.7266 31.2001 72.9019 31.9296 73.2535 32.2151C73.6045 32.4916 74.3736 32.6737 75.5613 32.7626V33.3101H66.9285V32.7626C68.1152 32.6737 68.8853 32.4916 69.236 32.2151C69.5879 31.9296 69.7633 31.2001 69.7633 30.0267V16.5508C69.7633 15.4374 69.5879 14.7213 69.236 14.4059C68.8853 14.0809 68.1152 13.8883 66.9285 13.8294V13.2664H75.5613ZM40.4558 13.2664C42.1335 13.2664 43.5301 13.4887 44.6497 13.9318C46.7706 14.7707 47.8336 16.3135 47.8336 18.5621C47.8336 20.0717 47.3603 21.2306 46.4119 22.0388C45.4742 22.8481 44.1946 23.3798 42.5729 23.6353L48.5732 31.313C48.9421 31.7871 49.3109 32.1324 49.6811 32.3487C50.05 32.566 50.5232 32.7037 51.1019 32.7626V33.3101H46.4119L39.4748 23.9912L37.8551 24.0639V30.027C37.8551 31.1517 38.0164 31.8654 38.3394 32.1719C38.6703 32.4679 39.3853 32.6645 40.484 32.7626V33.3101H32.3976V32.7626C33.5153 32.6539 34.2109 32.4274 34.4865 32.0821C34.7601 31.7374 34.8981 30.9334 34.8981 29.6711V16.5505C34.8981 15.4848 34.743 14.7905 34.4289 14.4655C34.1258 14.1303 33.4495 13.9183 32.3976 13.8294V13.2664H40.4558ZM39.6469 14.4211C38.8206 14.4211 38.3144 14.4843 38.1255 14.6123C37.9446 14.7315 37.8551 15.017 37.8551 15.4713V22.9422C39.95 22.8613 41.4463 22.6347 42.3473 22.2601C43.8914 21.6 44.6627 20.3574 44.6627 18.5322C44.6627 16.777 43.9718 15.579 42.589 14.9383C41.85 14.5929 40.8677 14.422 39.6469 14.4211ZM102.899 0.381226L105.236 3.51718L103.913 11.1458L106.646 3.51718H110.092L102.899 14.6981L95.7044 3.51718H99.1505L101.886 11.1458L100.562 3.51718L102.899 0.381226Z" fill="#4D4D4D"/>
</g>
<defs>
<clipPath id="clip0_2795_22170">
<rect width="204.185" height="56.0507" fill="white" transform="translate(0.744141 0.381226)"/>
</clipPath>
</defs>
</svg>
