<svg width="183" height="40" viewBox="0 0 183 40" fill="none" xmlns="http://www.w3.org/2000/svg">
<g clip-path="url(#clip0_2795_22139)">
<path d="M0.886719 7.58212C0.964651 7.14564 1.02032 6.70249 1.1272 6.2727C1.68831 4.02128 3.17571 2.5916 5.24204 1.6897C6.57581 1.10625 7.9875 0.821204 9.43036 0.696497C13.0531 0.382501 16.5378 0.923642 19.8645 2.41345C20.076 2.50698 20.1673 2.60942 20.165 2.85438C20.1539 4.95436 20.1583 7.05434 20.1583 9.15432C20.1583 9.24118 20.1494 9.32802 20.145 9.41932C19.998 9.42378 19.9067 9.33025 19.7998 9.27902C16.8117 7.82485 13.6722 7.01649 10.3344 7.04321C9.90687 7.04766 9.48603 7.11001 9.0986 7.30821C8.56198 7.58212 8.50185 8.06536 8.95164 8.46398C9.28564 8.75793 9.69534 8.91381 10.105 9.06079C11.5857 9.59525 13.111 9.99164 14.6118 10.4704C16.0858 10.9404 17.5064 11.526 18.7868 12.4167C20.3855 13.5302 21.452 14.9977 21.6702 16.9663C21.9887 19.8502 21.0089 22.1863 18.6019 23.8698C17.1702 24.8719 15.5603 25.4308 13.8481 25.6557C10.3366 26.119 6.88976 25.8495 3.54756 24.6091C2.61237 24.2618 1.72394 23.8208 0.888945 23.2729V16.0333C2.26502 17.1044 3.81921 17.8192 5.46693 18.356C7.57334 19.0396 9.71093 19.5295 11.9465 19.3892C12.5054 19.3536 13.0643 19.2912 13.5564 18.9861C14.113 18.6432 14.1375 18.0687 13.6254 17.6701C13.3849 17.483 13.1133 17.3516 12.8349 17.2358C11.6659 16.7547 10.4569 16.394 9.25 16.0311C7.51322 15.5099 5.80093 14.9309 4.25564 13.9556C2.74152 12.998 1.58811 11.7553 1.1361 9.96937C1.027 9.53958 0.971331 9.09642 0.891172 8.65995V7.58657" fill="black"/>
<path d="M101.368 13.2435C101.368 9.32186 101.371 5.40027 101.361 1.47867C101.361 1.18695 101.42 1.08228 101.742 1.08451C105.109 1.09787 108.476 1.07783 111.842 1.1001C114.37 1.11791 116.805 1.58779 119.032 2.83932C122.061 4.54291 124.183 6.98806 124.882 10.4554C125.607 14.0563 125.162 17.479 122.836 20.4587C120.872 22.9751 118.24 24.4448 115.124 25.0773C113.971 25.3111 112.802 25.4114 111.625 25.4114C108.325 25.4114 105.024 25.4069 101.724 25.4203C101.415 25.4203 101.361 25.3267 101.364 25.0439C101.373 21.1111 101.371 17.1784 101.371 13.2457M108.826 13.2501V18.1427C108.826 18.9934 108.826 18.9978 109.674 18.9911C110.87 18.9845 112.068 19.0558 113.248 18.7818C115.022 18.3721 116.383 17.4524 117.064 15.6997C117.414 14.8023 117.52 13.858 117.471 12.9028C117.318 9.8786 115.712 8.1082 112.725 7.62941C111.545 7.44012 110.357 7.54257 109.175 7.50471C108.899 7.49579 108.817 7.56929 108.819 7.8521C108.833 9.65145 108.826 11.4486 108.826 13.2479" fill="black"/>
<path d="M61.3092 25.8633C57.8534 25.8499 54.9254 24.9992 52.4582 22.8636C49.2185 20.0599 47.8068 16.5057 48.0539 12.2389C48.379 6.62269 52.8546 1.75242 58.4012 0.841619C62.1597 0.224765 65.7247 0.721366 68.8664 3.03736C71.5629 5.026 73.3286 7.64484 73.883 10.9896C75.1901 18.8841 69.7437 24.732 63.6048 25.665C62.7632 25.792 61.917 25.8521 61.3092 25.8633ZM55.6579 13.25C55.6535 13.8334 55.7092 14.4125 55.865 14.9758C56.4061 16.9311 57.5595 18.3608 59.5657 18.8953C61.5742 19.4296 63.4134 19.0333 64.8963 17.4944C66.6777 15.6461 66.9826 12.2746 65.6289 9.9987C63.636 6.64719 59.0847 6.68059 57.0073 9.27718C56.0677 10.4485 55.6691 11.778 55.6579 13.2522" fill="black"/>
<path d="M22.0818 1.09347H22.5449C25.0276 1.09347 27.5125 1.09793 29.9953 1.08679C30.2491 1.08679 30.3559 1.16251 30.4406 1.40524C32.0371 5.98824 33.6447 10.5668 35.2524 15.1454C35.2969 15.27 35.3459 15.3925 35.4194 15.584C35.7378 14.6888 36.034 13.8626 36.3257 13.0364C37.6928 9.16604 39.0599 5.29566 40.4183 1.42083C40.5073 1.16473 40.6208 1.08679 40.8903 1.08679C43.3173 1.09793 45.7443 1.09347 48.1736 1.09347H48.5054C48.5366 1.23154 48.4653 1.3273 48.4252 1.42751C45.2634 9.47559 42.0993 17.5214 38.942 25.5717C38.8551 25.7921 38.7504 25.8745 38.5078 25.8724C36.359 25.8613 34.2126 25.8634 32.0639 25.8724C31.8345 25.8724 31.712 25.8189 31.6208 25.5851C28.47 17.5214 25.3104 9.46 22.153 1.40079C22.1174 1.30948 22.0595 1.22263 22.084 1.0957" fill="black"/>
<path d="M73.1855 1.09325H73.5196C76.1025 1.09325 78.6876 1.09547 81.2706 1.08879C81.4999 1.08879 81.6313 1.16005 81.7515 1.35602C83.0273 3.42928 84.3122 5.49586 85.5969 7.56466C85.6659 7.67824 85.7394 7.78959 85.8129 7.90538C85.9532 7.8319 85.9955 7.69828 86.0623 7.59139C87.3694 5.5248 88.6741 3.456 89.9701 1.38052C90.1059 1.16228 90.2484 1.08657 90.5045 1.08879C92.9983 1.09993 95.4922 1.09547 97.9882 1.09547H98.3222C98.3022 1.28253 98.1908 1.38497 98.1151 1.503C95.314 5.75641 92.5129 10.0098 89.7051 14.2588C89.5515 14.4926 89.4779 14.7198 89.4779 15.0026C89.4868 18.4877 89.4779 21.9728 89.4913 25.4602C89.4913 25.7564 89.4178 25.8298 89.124 25.8276C86.8861 25.8143 84.6506 25.812 82.4128 25.8276C82.0743 25.8298 82.0143 25.7207 82.0164 25.4134C82.0276 21.9951 82.0209 18.5768 82.0276 15.1585C82.0276 14.9002 81.963 14.6885 81.8227 14.4726C79.0194 10.1412 76.2227 5.8054 73.4238 1.4696C73.3571 1.36716 73.2947 1.26472 73.1855 1.09547" fill="black"/>
<path d="M153.233 13.2768C153.233 17.1761 153.229 21.0732 153.243 24.9726C153.243 25.3199 153.142 25.3957 152.809 25.3957C145.013 25.3867 137.217 25.389 129.422 25.389C129.121 25.389 128.97 25.2353 128.97 24.928C128.97 17.165 128.97 9.39973 128.97 1.63671C128.97 1.30713 129.136 1.14233 129.469 1.14233C137.231 1.14233 144.993 1.14233 152.755 1.14233C153.074 1.14233 153.233 1.30045 153.233 1.61667C153.233 5.50486 153.233 9.39083 153.233 13.279M141.109 17.8687C142.53 17.8687 143.951 17.862 145.372 17.8754C145.641 17.8776 145.707 17.793 145.707 17.5346C145.699 14.6753 145.699 11.8159 145.707 8.95658C145.707 8.70939 145.639 8.62922 145.387 8.62922C142.524 8.6359 139.661 8.6359 136.796 8.62922C136.532 8.62922 136.45 8.71162 136.452 8.97439C136.458 11.8226 136.46 14.6708 136.452 17.5191C136.452 17.8019 136.545 17.8776 136.817 17.8754C138.248 17.8642 139.68 17.8709 141.112 17.8709" fill="#0E6131"/>
<path d="M175.22 11.8714C174.901 12.4058 174.582 12.9425 174.264 13.477C173.518 14.7352 172.763 15.9889 172.031 17.2538C171.893 17.4921 171.737 17.5611 171.474 17.5588C170.368 17.5455 169.259 17.5455 168.152 17.5588C167.909 17.5611 167.771 17.4854 167.647 17.2783C166.597 15.5636 165.54 13.8555 164.48 12.1474C164.42 12.0495 164.389 11.9225 164.215 11.8446V24.9211C164.215 25.2136 164.073 25.3598 163.788 25.3598C161.653 25.3598 159.515 25.3553 157.38 25.3664C157.09 25.3664 157.003 25.2997 157.003 24.9967C157.012 17.1425 157.012 9.29034 157.003 1.43601C157.003 1.11533 157.105 1.05298 157.399 1.05521C159.626 1.06634 161.851 1.06411 164.077 1.05521C164.32 1.05521 164.456 1.13092 164.582 1.33802C166.215 4.00587 167.854 6.66703 169.495 9.3282C169.563 9.43955 169.61 9.57093 169.731 9.65332C169.853 9.57984 169.898 9.44622 169.964 9.33711C171.606 6.6893 173.249 4.0415 174.879 1.38702C175.034 1.13092 175.204 1.05298 175.493 1.05298C177.687 1.06411 179.877 1.06411 182.071 1.05298C182.36 1.05298 182.467 1.1042 182.467 1.42933C182.456 9.28366 182.458 17.1357 182.467 24.9901C182.467 25.2818 182.4 25.3664 182.1 25.3642C179.964 25.3508 177.827 25.3508 175.691 25.3642C175.39 25.3642 175.298 25.2952 175.298 24.9767C175.308 20.7433 175.304 16.5077 175.304 12.2745V11.8802C175.277 11.8758 175.251 11.8691 175.224 11.8646" fill="black"/>
<path d="M0.886719 32.976C0.886719 32.3837 0.992736 31.8535 1.20309 31.3856C1.41344 30.9177 1.69447 30.5474 2.04449 30.2731C2.39451 29.9988 2.78156 29.7918 3.20395 29.6538C3.62634 29.5141 4.07059 29.4451 4.53842 29.4451C5.28391 29.4451 5.94862 29.6017 6.53255 29.9163V31.5607C6.02939 31.2375 5.45387 31.076 4.80767 31.076C4.24225 31.076 3.76601 31.2241 3.37897 31.5203C2.99192 31.8165 2.80007 32.2709 2.80007 32.8818C2.80007 33.4928 2.99359 33.9119 3.37897 34.2232C3.76433 34.5328 4.23215 34.6877 4.78074 34.6877C5.47238 34.6877 6.0782 34.5312 6.59986 34.2164V35.8742C5.92674 36.162 5.19808 36.305 4.41726 36.305C3.44628 36.305 2.61665 36.0206 1.92501 35.4501C1.23338 34.8795 0.886719 34.0549 0.886719 32.9778V32.976Z" fill="black"/>
<path d="M10.8974 34.0143L12.5011 29.6486H14.4414L11.5722 36.899C10.9344 38.471 10.0038 39.2569 8.78376 39.2569C8.52293 39.2569 8.18636 39.2081 7.77239 39.1088V37.5588C8.06856 37.621 8.32435 37.653 8.53975 37.653C9.22297 37.653 9.73455 37.1817 10.0762 36.2376L10.0896 36.2107L7.03027 29.6486H9.01094L10.8974 34.0143Z" fill="black"/>
<path d="M17.2441 36.1165H15.3711V29.6486H21.7304V36.1165H19.8575V31.2256H17.2441V36.1165Z" fill="black"/>
<path d="M22.957 32.8817C22.957 32.2977 23.0597 31.7793 23.2667 31.3248C23.4737 30.8704 23.7446 30.5136 24.0812 30.2527C24.4178 29.9919 24.7728 29.795 25.1464 29.6604C25.5183 29.5257 25.8986 29.4584 26.2856 29.4584C26.9319 29.4584 27.4923 29.5795 27.9634 29.8219C28.4346 30.0642 28.7829 30.3773 29.0085 30.7593C29.2322 31.1414 29.387 31.5722 29.4729 32.0536C29.5588 32.5349 29.5335 33.0129 29.3989 33.4892H24.8452C24.9445 33.9385 25.2036 34.2735 25.626 34.4939C26.0484 34.7145 26.5465 34.8238 27.122 34.8238C27.8322 34.8238 28.4834 34.6943 29.0757 34.4334V35.9026C28.4379 36.1719 27.6471 36.3066 26.7046 36.3066C25.626 36.3066 24.7324 36.0053 24.024 35.4045C23.3138 34.8019 22.9587 33.9622 22.9587 32.885L22.957 32.8817ZM27.7127 32.2757C27.7581 31.9795 27.6723 31.6733 27.4569 31.3602C27.2415 31.0454 26.8729 30.889 26.3513 30.889C25.9373 30.889 25.5839 31.0118 25.286 31.2592C24.9899 31.5066 24.8368 31.8449 24.8284 32.2775H27.711L27.7127 32.2757Z" fill="black"/>
<path d="M32.3216 30.591C32.8516 29.8371 33.6325 29.4584 34.6658 29.4584C35.6451 29.4584 36.4159 29.7933 36.9762 30.4631C37.5383 31.133 37.8177 31.9391 37.8177 32.8817C37.8177 33.8241 37.5366 34.632 36.9762 35.3001C36.4142 35.97 35.6451 36.3032 34.6658 36.3032C33.7772 36.3032 33.0671 36.0121 32.537 35.428V39.0802H30.6641V29.6469H32.3216V30.5894V30.591ZM35.4482 34.1961C35.7528 33.8409 35.906 33.4034 35.906 32.8817C35.906 32.3599 35.7528 31.9223 35.4482 31.5673C35.142 31.2121 34.7297 31.0354 34.208 31.0354C33.8209 31.0354 33.4777 31.138 33.1764 31.3451C32.8752 31.552 32.6581 31.8079 32.5235 32.1125V33.6491C32.6581 33.9554 32.8752 34.2112 33.1764 34.4165C33.4777 34.6236 33.8209 34.7262 34.208 34.7262C34.728 34.7262 35.142 34.5495 35.4482 34.1944V34.1961Z" fill="black"/>
<path d="M40.864 36.1165H39.0449V29.6486H40.8371L42.8447 32.8564L44.8658 29.6486H46.6446V36.1165H44.8388V32.3027L43.3159 34.7145H42.387L40.864 32.3027V36.1165Z" fill="black"/>
<path d="M54.015 34.4452C54.015 34.733 54.1682 34.8761 54.4728 34.8761C54.599 34.8761 54.7151 34.8575 54.8228 34.8222V36.0491C54.4812 36.1754 54.1362 36.2376 53.7845 36.2376C53.1013 36.2376 52.6251 35.9952 52.3558 35.5105C51.6827 36.0407 50.9052 36.3049 50.0251 36.3049C49.3874 36.3049 48.8505 36.1282 48.4146 35.773C47.9788 35.418 47.7617 34.9349 47.7617 34.324C47.7617 33.8124 47.9149 33.3849 48.2195 33.0433C48.5241 32.7016 48.8791 32.471 49.2847 32.3499C49.6885 32.2287 50.1295 32.1681 50.6057 32.1681C51.1358 32.1681 51.6474 32.2269 52.1421 32.3431V32.1142C52.1421 31.7827 52.0126 31.5167 51.7517 31.3198C51.4909 31.1229 51.1139 31.0236 50.6192 31.0236C49.9006 31.0236 49.1366 31.1852 48.3288 31.5083V29.891C49.1905 29.6032 50.0268 29.4601 50.8345 29.4601C52.9549 29.4601 54.015 30.4346 54.015 32.3852V34.4469V34.4452ZM51.0382 33.2856C50.6511 33.2856 50.3281 33.3579 50.0672 33.501C49.8064 33.6441 49.6768 33.8696 49.6768 34.1743C49.6768 34.4082 49.7727 34.5983 49.9663 34.7464C50.1598 34.8945 50.3987 34.9686 50.6864 34.9686C51.2519 34.9686 51.7382 34.7936 52.1421 34.4435V33.4337C51.7281 33.3344 51.3613 33.2856 51.0365 33.2856H51.0382Z" fill="black"/>
<path d="M57.4779 30.591C58.008 29.8371 58.7888 29.4584 59.822 29.4584C60.8015 29.4584 61.5721 29.7933 62.1326 30.4631C62.6946 31.133 62.9739 31.9391 62.9739 32.8817C62.9739 33.8241 62.693 34.632 62.1326 35.3001C61.5705 35.97 60.8015 36.3032 59.822 36.3032C58.9335 36.3032 58.2233 36.0121 57.6933 35.428V39.0802H55.8203V29.6469H57.4779V30.5894V30.591ZM60.6046 34.1961C60.9092 33.8409 61.0622 33.4034 61.0622 32.8817C61.0622 32.3599 60.9092 31.9223 60.6046 31.5673C60.2982 31.2121 59.886 31.0354 59.3644 31.0354C58.9773 31.0354 58.6339 31.138 58.3328 31.3451C58.0315 31.552 57.8145 31.8079 57.6799 32.1125V33.6491C57.8145 33.9554 58.0315 34.2112 58.3328 34.4165C58.6339 34.6236 58.9773 34.7262 59.3644 34.7262C59.8843 34.7262 60.2982 34.5495 60.6046 34.1944V34.1961Z" fill="black"/>
<path d="M66.0741 36.1165H64.2012V29.6486H66.0741V32.0604H66.855L68.4991 29.6486H70.6009L68.3779 32.8429L70.7893 36.1181H68.6875L66.828 33.5582H66.0741V36.1181V36.1165Z" fill="black"/>
<path d="M70.8838 32.8817C70.8838 32.2977 70.9864 31.7793 71.1935 31.3248C71.4004 30.8704 71.6713 30.5136 72.0079 30.2527C72.3444 29.9919 72.6995 29.795 73.0731 29.6604C73.4451 29.5257 73.8253 29.4584 74.2124 29.4584C74.8586 29.4584 75.4189 29.5795 75.8901 29.8219C76.3614 30.0642 76.7097 30.3773 76.9352 30.7593C77.159 31.1414 77.3138 31.5722 77.3996 32.0536C77.4854 32.5349 77.4602 33.0129 77.3256 33.4892H72.7719C72.8712 33.9385 73.1303 34.2735 73.5527 34.4939C73.9752 34.7145 74.4732 34.8238 75.0487 34.8238C75.7588 34.8238 76.4101 34.6943 77.0025 34.4334V35.9026C76.3647 36.1719 75.5737 36.3066 74.6314 36.3066C73.5527 36.3066 72.6592 36.0053 71.9507 35.4045C71.2405 34.8019 70.8854 33.9622 70.8854 32.885L70.8838 32.8817ZM75.6395 32.2757C75.6848 31.9795 75.599 31.6733 75.3836 31.3602C75.1682 31.0454 74.7997 30.889 74.278 30.889C73.8641 30.889 73.5107 31.0118 73.2128 31.2592C72.9166 31.5066 72.7634 31.8449 72.755 32.2775H75.6377L75.6395 32.2757Z" fill="black"/>
<path d="M81.8516 36.1165H79.9922V31.2256H77.9307V29.6486H83.9131V31.2256H81.8516V36.1165Z" fill="black"/>
<path d="M89.788 36.1165H87.915V29.6486H89.788V32.1008H92.4014V29.6486H94.2744V36.1165H92.4014V33.6642H89.788V36.1165Z" fill="black"/>
<path d="M95.501 32.8817C95.501 32.2977 95.6036 31.7793 95.8106 31.3248C96.0176 30.8704 96.2885 30.5136 96.6251 30.2527C96.9616 29.9919 97.3167 29.795 97.6903 29.6604C98.0622 29.5257 98.4425 29.4584 98.83 29.4584C99.4762 29.4584 100.037 29.5795 100.507 29.8219C100.979 30.0642 101.327 30.3773 101.553 30.7593C101.776 31.1414 101.931 31.5722 102.016 32.0536C102.102 32.5349 102.077 33.0129 101.943 33.4892H97.3891C97.4884 33.9385 97.7475 34.2735 98.1699 34.4939C98.5927 34.7145 99.0906 34.8238 99.6656 34.8238C100.376 34.8238 101.027 34.6943 101.62 34.4334V35.9026C100.982 36.1719 100.191 36.3066 99.2488 36.3066C98.1699 36.3066 97.2764 36.0053 96.5679 35.4045C95.8577 34.8019 95.5026 33.9622 95.5026 32.885L95.501 32.8817ZM100.256 32.2757C100.302 31.9795 100.216 31.6733 100 31.3602C99.7857 31.0454 99.4167 30.889 98.8954 30.889C98.4812 30.889 98.1278 31.0118 97.83 31.2592C97.5338 31.5066 97.3806 31.8449 97.3722 32.2775H100.255L100.256 32.2757Z" fill="black"/>
<path d="M104.339 37.8283H102.614V34.6878H103.516C104.19 33.5198 104.504 31.8401 104.458 29.6472H109.782V34.6878H110.752V37.8283H109.027V36.1167H104.339V37.8283ZM106.185 31.076C106.132 32.5504 105.89 33.7538 105.458 34.6878H107.924V31.076H106.185Z" fill="black"/>
<path d="M115.874 36.1165H111.912V29.6486H115.765C116.485 29.6486 117.02 29.8135 117.369 30.14C117.72 30.4682 117.895 30.8738 117.895 31.3602C117.895 32.0974 117.562 32.5905 116.897 32.8429C117.66 33.0954 118.043 33.6019 118.043 34.3661C118.043 34.8777 117.873 35.2985 117.531 35.6267C117.19 35.9549 116.637 36.1181 115.874 36.1181V36.1165ZM113.772 30.9277V32.3027H115.2C115.739 32.3027 116.008 32.0789 116.008 31.6295C116.008 31.1802 115.734 30.9294 115.186 30.9294H113.772V30.9277ZM113.786 33.4336V34.8356H115.321C115.897 34.8356 116.183 34.6068 116.183 34.1489C116.183 33.6912 115.895 33.4354 115.321 33.4354H113.786V33.4336Z" fill="black"/>
<path d="M120.941 36.1165H119.31V29.6486H121.183V33.2873L124.066 29.6486H125.682V36.1165H123.823V32.4777L120.939 36.1165H120.941Z" fill="black"/>
<path d="M137.055 36.1167H135.047L133.444 33.705H132.717V36.1167H130.843V33.705H130.117L128.513 36.1167H126.506L128.741 32.8685L126.694 29.6472H128.688L130.238 32.2205H130.843V29.6472H132.717V32.2205H133.323L134.872 29.6472H136.867L134.819 32.8685L137.055 36.1167Z" fill="black"/>
<path d="M139.507 36.1165H137.876V29.6486H139.749V33.2873L142.632 29.6486H144.249V36.1165H142.389V32.4777L139.505 36.1165H139.507Z" fill="black"/>
<path d="M147.659 36.1165H145.839V29.6486H147.631L149.638 32.8564L151.66 29.6486H153.439V36.1165H151.633V32.3027L150.11 34.7145H149.182L147.659 32.3027V36.1165Z" fill="black"/>
<path d="M155.702 35.4028C155.01 34.8002 154.663 33.9604 154.663 32.8833C154.663 31.8061 155.008 30.9646 155.702 30.3638C156.393 29.7613 157.237 29.4617 158.234 29.4617C159.23 29.4617 160.087 29.7629 160.773 30.3638C161.46 30.9664 161.805 31.8061 161.805 32.8833C161.805 33.9604 161.462 34.8019 160.773 35.4028C160.087 36.0052 159.239 36.3048 158.234 36.3048C157.23 36.3048 156.393 36.0036 155.702 35.4028ZM159.46 34.1422C159.757 33.8139 159.906 33.3949 159.906 32.8815C159.906 32.3682 159.757 31.9492 159.46 31.621C159.165 31.2928 158.755 31.1296 158.234 31.1296C157.713 31.1296 157.307 31.2928 157.014 31.621C156.721 31.9492 156.577 32.3682 156.577 32.8815C156.577 33.3949 156.723 33.8139 157.014 34.1422C157.305 34.4704 157.713 34.6336 158.234 34.6336C158.755 34.6336 159.163 34.4704 159.46 34.1422Z" fill="black"/>
<path d="M162.669 32.976C162.669 32.3837 162.775 31.8535 162.985 31.3856C163.196 30.9177 163.477 30.5474 163.827 30.2731C164.177 29.9988 164.564 29.7918 164.987 29.6538C165.409 29.5141 165.853 29.4451 166.321 29.4451C167.066 29.4451 167.731 29.6017 168.315 29.9163V31.5607C167.812 31.2375 167.237 31.076 166.591 31.076C166.024 31.076 165.549 31.2241 165.161 31.5203C164.775 31.8165 164.582 32.2709 164.582 32.8818C164.582 33.4928 164.776 33.9119 165.161 34.2232C165.547 34.5328 166.015 34.6877 166.563 34.6877C167.255 34.6877 167.861 34.5312 168.382 34.2164V35.8742C167.709 36.162 166.981 36.305 166.2 36.305C165.229 36.305 164.399 36.0206 163.708 35.4501C163.016 34.8795 162.669 34.0549 162.669 32.9778V32.976Z" fill="black"/>
<path d="M173.016 36.1165H171.157V31.2256H169.095V29.6486H175.077V31.2256H173.016V36.1165Z" fill="black"/>
<path d="M177.719 36.1165H176.089V29.6486H177.962V33.2873L180.844 29.6486H182.462V36.1165H180.602V32.4777L177.718 36.1165H177.719Z" fill="black"/>
</g>
<defs>
<clipPath id="clip0_2795_22139">
<rect width="181.581" height="39.0497" fill="white" transform="translate(0.886719 0.598633)"/>
</clipPath>
</defs>
</svg>
