<svg width="127" height="69" viewBox="0 0 127 69" fill="none" xmlns="http://www.w3.org/2000/svg">
<g clip-path="url(#clip0_2795_22126)">
<path d="M115.112 2.89764H99.0907L96.2461 18.9193H117.336L126.589 2.89764H115.112Z" fill="#B2D234"/>
<path d="M16.0726 18.9193L13.2607 34.9736L10.416 50.9952H26.4703L29.2823 34.9736L32.1269 18.9193H16.0726Z" fill="#50B748"/>
<path d="M48.1488 18.9193L45.3368 34.9736L42.4922 50.9952H58.5465L61.3585 34.9736L64.1704 18.9193H48.1488Z" fill="#7FC241"/>
<path d="M93.4332 34.9736L96.2452 18.9193H80.2236L77.3789 34.9736L76.4961 40.0089C75.4171 46.0906 79.5042 50.9952 85.5532 50.9952H111.678L120.932 34.9736H93.4332Z" fill="#99CA3C"/>
<path d="M16.0724 18.9193H0.0507812L9.30408 2.89764H18.9171L16.0724 18.9193Z" fill="#50B748"/>
<path d="M32.1266 18.9193H16.0723L18.9169 2.89764H34.9385L32.1266 18.9193Z" fill="#2CA449"/>
<path d="M48.1486 18.9193H32.127L34.9389 2.89764H50.9932L48.1486 18.9193Z" fill="#7FC241"/>
<path d="M64.1691 18.9193H48.1475L50.9921 2.89764H67.0137L64.1691 18.9193Z" fill="#50B748"/>
<path d="M80.2252 18.9193H64.1709L67.0156 2.89764H83.0372L80.2252 18.9193Z" fill="#99CA3C"/>
<path d="M96.2462 18.9193H80.2246L81.1074 13.8839C82.1864 7.83492 87.9738 2.89764 94.0555 2.89764H99.0909L96.2462 18.9193Z" fill="#7FC241"/>
<path d="M46.5467 59.6272H44.3232L44.3886 59.1695H49.3586L49.2932 59.6272H47.0371L46.0889 65.9378H45.5984L46.5467 59.6272ZM50.2414 61.0005H50.6992L50.4703 62.4065C50.9608 61.5237 51.8436 60.8697 52.7918 60.9351L52.6937 61.4583H52.661C51.582 61.4583 50.503 62.3084 50.2414 63.9105L49.9472 65.9378H49.4894L50.2414 61.0005ZM57.1732 64.074L57.2713 63.5182C56.879 63.4201 56.3885 63.2893 55.7019 63.2893C54.7209 63.2893 54.0997 63.7798 53.9689 64.4664C53.8708 65.1857 54.4594 65.6108 55.1787 65.6108C56.1269 65.6108 57.0424 64.9896 57.1732 64.074ZM53.5111 64.4664C53.6419 63.4528 54.5902 62.8642 55.8 62.8642C56.4539 62.8642 56.879 62.9623 57.3367 63.0931L57.3694 62.8642C57.5002 61.8833 57.0097 61.3602 56.0288 61.3602C55.473 61.3602 54.9825 61.5237 54.4921 61.7525L54.394 61.3602C54.9498 61.0986 55.473 60.9351 56.1269 60.9351C56.7809 60.9351 57.2386 61.0986 57.5329 61.4583C57.7945 61.7852 57.8926 62.243 57.7945 62.8642L57.3367 65.9378H56.9117L57.0097 65.1203C56.6174 65.5781 55.9634 66.0359 55.0806 66.0359C54.1978 66.0359 53.3477 65.5127 53.5111 64.4664ZM60.4103 61.0005H60.868L60.7372 61.916C61.1296 61.3275 61.7508 60.8697 62.601 60.8697C63.7781 60.8697 64.3339 61.7198 64.1704 62.9296L63.7127 65.9378H63.2549L63.7127 62.995C63.8435 61.9814 63.4184 61.3275 62.4702 61.3275C61.5547 61.3275 60.7045 62.0468 60.5737 63.0931L60.1487 65.9378H59.6909L60.4103 61.0005ZM65.7399 65.3165L66.0669 64.9242C66.5246 65.3492 67.0478 65.5781 67.669 65.5781C68.2903 65.5781 68.8461 65.2184 68.9442 64.6299C69.0096 64.0413 68.4538 63.8452 67.8325 63.649C67.1132 63.4201 66.2957 63.1585 66.4265 62.2757C66.5573 61.4583 67.2767 60.9024 68.1922 60.9024C68.748 60.9024 69.3693 61.0986 69.7616 61.4583L69.4674 61.8506C69.075 61.5237 68.6172 61.3602 68.0941 61.3602C67.4728 61.3602 66.9824 61.7198 66.8843 62.2103C66.8189 62.7661 67.4075 62.995 68.0614 63.1912C68.7807 63.4201 69.5328 63.7144 69.402 64.5972C69.2712 65.48 68.4538 66.0359 67.5709 66.0359C66.8843 66.0359 66.165 65.7416 65.7399 65.3165ZM71.6908 64.6626L72.1812 61.4256H71.4946L71.56 61.0005H72.2466L72.5082 59.431H72.966L72.7044 61.0005H74.3719L74.3066 61.4256H72.639L72.1812 64.6299C72.0504 65.3165 72.4101 65.5781 72.966 65.5781C73.1949 65.5781 73.391 65.5127 73.6853 65.4146L73.6199 65.8397C73.3583 65.9705 73.1295 66.0359 72.8352 66.0359C72.0831 66.0359 71.56 65.6108 71.6908 64.6626ZM79.5381 63.2239C79.6035 62.243 79.2111 61.3275 78.1321 61.3275C77.1839 61.3275 76.3338 62.1449 76.1049 63.2239H79.5381ZM75.5817 63.4528C75.8106 62.0141 76.9223 60.8697 78.1975 60.8697C79.5381 60.8697 80.192 62.0141 79.9632 63.4528C79.9632 63.5509 79.9632 63.5836 79.9305 63.649H76.0395C75.9414 64.8915 76.6608 65.6108 77.5763 65.6108C78.3283 65.6108 78.8842 65.2511 79.3092 64.8261L79.6035 65.1203C79.0149 65.6762 78.3937 66.0359 77.5109 66.0359C76.2684 66.0359 75.3529 65.0223 75.5817 63.4528ZM82.7751 58.8752H83.2329L82.1539 65.9378H81.6961L82.7751 58.8752ZM88.6606 63.2239C88.726 62.243 88.3336 61.3275 87.2546 61.3275C86.3064 61.3275 85.4563 62.1449 85.2274 63.2239H88.6606ZM84.7043 63.4528C84.9331 62.0141 86.0448 60.8697 87.32 60.8697C88.6606 60.8697 89.3146 62.0141 89.0857 63.4528C89.0857 63.5509 89.0857 63.5836 89.053 63.649H85.162C85.0639 64.8915 85.7833 65.6108 86.6988 65.6108C87.4508 65.6108 88.0067 65.2511 88.4317 64.8261L88.726 65.1203C88.1375 65.6762 87.5162 66.0359 86.6334 66.0359C85.3909 66.0359 84.4754 65.0223 84.7043 63.4528ZM90.8186 63.4528C91.0148 62.0468 92.2573 60.8697 93.5979 60.8697C94.4807 60.8697 95.0039 61.2948 95.3308 61.7852L94.9712 62.1449C94.6442 61.6871 94.2191 61.3275 93.5325 61.3275C92.4862 61.3275 91.4726 62.2757 91.3091 63.4528C91.1129 64.6626 91.8322 65.6108 92.9112 65.6108C93.5979 65.6108 94.1537 65.2184 94.6115 64.7607L94.9058 65.0876C94.3172 65.6435 93.696 66.0359 92.8132 66.0359C91.4726 66.0359 90.5897 64.8915 90.8186 63.4528ZM101.02 63.4528C101.184 62.2757 100.464 61.3275 99.3853 61.3275C98.339 61.3275 97.3254 62.2757 97.1619 63.4528C96.9657 64.6626 97.685 65.6108 98.764 65.6108C99.8104 65.6108 100.824 64.6299 101.02 63.4528ZM96.6714 63.4528C96.8676 62.0795 98.0774 60.8697 99.4834 60.8697C100.857 60.8697 101.707 62.0468 101.511 63.4528C101.282 64.8588 100.072 66.0359 98.666 66.0359C97.2927 66.0359 96.4425 64.8588 96.6714 63.4528ZM103.963 61.0005H104.421L104.29 61.8833C104.682 61.3602 105.173 60.8697 106.023 60.8697C106.84 60.8697 107.265 61.3602 107.461 61.9487C107.821 61.3929 108.41 60.8697 109.293 60.8697C110.437 60.8697 110.993 61.6871 110.797 62.9296L110.339 65.9378H109.914L110.339 62.995C110.502 61.9487 110.077 61.3275 109.194 61.3275C108.41 61.3275 107.625 61.9487 107.461 63.0604L107.036 65.9378H106.579L107.004 62.9623C107.167 61.9487 106.742 61.3275 105.892 61.3275C105.042 61.3275 104.257 62.0795 104.126 63.0931L103.701 65.9378H103.244L103.963 61.0005Z" fill="#8D8D8D" stroke="#8D8D8D" stroke-width="0.395436"/>
</g>
<defs>
<clipPath id="clip0_2795_22126">
<rect width="126.538" height="67.487" fill="white" transform="translate(0.0507812 0.821411)"/>
</clipPath>
</defs>
</svg>
