<svg width="236" height="49" viewBox="0 0 236 49" fill="none" xmlns="http://www.w3.org/2000/svg">
<g clip-path="url(#clip0_2795_22082)">
<path d="M0.744215 24.9156H39.0866V29.3056C39.0822 39.867 30.5016 48.4278 19.9156 48.4278C9.32954 48.4278 0.748525 39.8671 0.744141 29.3056V24.9156H0.744215ZM39.0866 3.4693V19.4754H0.744215V3.4693C4.59905 5.92249 6.23768 7.683 8.51899 12.2234L8.66509 12.387C11.0198 7.69132 16.0132 2.98744 19.9156 0.499695C23.8177 2.98306 28.811 7.69132 31.1653 12.387L31.3122 12.2234C33.5931 7.683 35.2313 5.92249 39.0866 3.4693Z" fill="#CF1B1A"/>
<path d="M68.1709 34.3541H64.3427V18.5318H58.8984V15.7006H73.641V18.5318H68.1709V34.3541Z" fill="#CF1B1A"/>
<path d="M74.7466 20.6487H78.3891V29.3397C78.3891 31.2698 79.3668 31.9601 80.9772 31.9601C82.5877 31.9601 83.5908 31.2698 83.5908 29.3397V20.6487H87.2654V29.3909C87.2654 32.9314 84.7027 34.6184 80.9772 34.6184C77.2518 34.6184 74.7402 32.9822 74.7402 29.3909V20.6487H74.7466H74.7466Z" fill="#CF1B1A"/>
<path d="M93.8818 28.9935C93.8818 31.0768 94.0672 31.7924 96.0226 31.7924C96.6807 31.7924 96.7895 31.7412 96.7895 31.7412L96.949 34.3548C96.949 34.3548 96.2333 34.5148 95.0448 34.5148C90.8974 34.5148 90.2393 32.0032 90.2393 28.4885V15.2798L93.8881 15.0432V28.9934H93.8818V28.9935Z" fill="#CF1B1A"/>
<path d="M102.723 18.2943H99.0488V15.2846H102.723V18.2943ZM102.698 34.3596H99.0488V20.6459H102.698V34.3596Z" fill="#CF1B1A"/>
<path d="M109.373 22.4692C110.191 20.7246 111.616 20.1176 113.443 20.1176C117.642 20.1176 119.68 23.7342 119.68 27.3064C119.68 31.2172 117.565 34.5977 113.578 34.6235H113.501C111.596 34.6235 110.306 34.0161 109.462 32.6681V39.269L105.813 39.6398V20.6478H109.117L109.379 22.469H109.373L109.373 22.4692ZM116.159 27.4089C116.159 23.7343 114.389 22.8078 112.779 22.8078C111.168 22.8078 109.424 23.9197 109.424 27.4089C109.424 30.8978 111.143 31.9267 112.881 31.9267C114.517 31.9267 116.159 30.8148 116.159 27.4089Z" fill="#CF1B1A"/>
<path d="M144.16 22.0976L139.379 31.6893H136.606L131.717 21.9888V34.3541H128.312V15.7006H131.928L138.006 27.4589L144.032 15.7006H147.598V34.3541H144.16V22.0976Z" fill="#CF1B1A"/>
<path d="M153.619 28.2266C153.696 30.7382 155.102 31.9779 157.479 31.9779C159.172 31.9779 160.597 31.3709 161.415 30.7636L162.418 33.0068C161.23 33.9332 159.671 34.6172 157.344 34.6172C152.59 34.6172 150.027 31.7925 150.027 27.3768C150.027 23.3318 152.488 20.1113 156.737 20.1113C160.987 20.1113 162.84 23.4148 162.84 27.0894V27.1406C162.84 27.4856 162.814 27.8305 162.814 28.1691V28.2203H153.619V28.2266H153.619ZM159.511 26.2712V26.1371C159.511 23.9197 158.533 22.8078 156.789 22.8078C155.6 22.8078 153.83 23.5235 153.644 26.2712H159.511Z" fill="#CF1B1A"/>
<path d="M174.804 32.4253C174.145 33.665 172.899 34.6172 170.893 34.6172H170.707C166.745 34.5402 164.604 31.4217 164.604 27.3002C164.604 23.4406 166.796 20.1113 170.809 20.1113C173.135 20.1113 174.299 21.1974 174.797 22.2009V15.0433H178.446V34.3548H174.881L174.804 32.4253ZM174.855 27.4089C174.855 23.9197 173.161 22.8078 171.525 22.8078C169.889 22.8078 168.119 23.7343 168.119 27.4089C168.119 31.0831 169.889 31.9267 171.525 31.9267C173.161 31.9267 174.855 30.949 174.855 27.4089Z" fill="#CF1B1A"/>
<path d="M185.32 18.2943H181.646V15.2846H185.32V18.2943ZM185.295 34.3596H181.646V20.6459H185.295V34.3596Z" fill="#CF1B1A"/>
<path d="M198.232 30.9489L198.922 33.4092C197.733 34.2016 196.647 34.6235 194.934 34.6235H194.883C190.87 34.6235 187.886 32.2207 187.886 27.1976C187.886 22.1749 191.164 20.1176 194.621 20.1176H194.73C196.602 20.143 197.689 20.5649 198.769 21.3573L198.187 23.7854C197.631 23.3892 196.283 22.8077 195.069 22.8077C193.037 22.8077 191.394 24.1304 191.394 27.3255C191.394 30.5211 192.903 31.9778 195.145 31.9778C196.41 31.9778 197.497 31.4729 198.238 30.949H198.232L198.232 30.9489Z" fill="#CF1B1A"/>
<path d="M204.815 18.2943H201.141V15.2846H204.815V18.2943ZM204.79 34.3596H201.147V20.6459H204.79V34.3596Z" fill="#CF1B1A"/>
<path d="M214.867 22.8105C213.519 22.8105 212.094 23.8906 211.512 25.0025V34.3513H207.838V20.6376H210.905L211.193 22.4588C212.279 21.1874 213.992 20.0814 216.056 20.1072C219.385 20.158 220.81 22.6187 220.81 25.9992V34.3448H217.136V26.3378C217.136 24.4336 217.033 22.7977 214.861 22.7977L214.867 22.8105L214.867 22.8105Z" fill="#CF1B1A"/>
<path d="M226.648 28.2266C226.731 30.7382 228.131 31.9779 230.508 31.9779C232.201 31.9779 233.626 31.3709 234.444 30.7636L235.447 33.0068C234.259 33.9332 232.7 34.6172 230.373 34.6172C225.619 34.6172 223.057 31.7925 223.057 27.3768C223.057 23.3318 225.511 20.1113 229.766 20.1113C234.022 20.1113 235.869 23.4148 235.869 27.0894V27.1406C235.869 27.4856 235.843 27.8305 235.843 28.1691V28.2203H226.648V28.2266H226.648ZM232.54 26.2712V26.1371C232.54 23.9197 231.562 22.8078 229.818 22.8078C228.629 22.8078 226.859 23.5235 226.674 26.2712H232.54Z" fill="#CF1B1A"/>
</g>
<defs>
<clipPath id="clip0_2795_22082">
<rect width="235.124" height="47.9281" fill="white" transform="translate(0.744141 0.499634)"/>
</clipPath>
</defs>
</svg>
