<svg xmlns="http://www.w3.org/2000/svg" version="1.1" xmlns:xlink="http://www.w3.org/1999/xlink" width="234" height="219"><svg width="234" height="219" viewBox="0 0 234 219" fill="none" xmlns="http://www.w3.org/2000/svg">
<path d="M172.749 102.59C172.644 102.354 172.471 102.285 172.324 102.186C166.309 98.17 160.293 94.1571 154.274 90.1441C153.8 89.8244 153.796 89.8314 153.315 90.173C148.083 93.8582 142.851 97.5445 137.623 101.234C137.029 101.652 136.406 102.035 135.781 102.59H172.749ZM60.7631 102.611C73.0828 102.611 85.3308 102.611 97.5798 102.611C97.5937 102.611 97.6117 102.586 97.6226 102.569C97.6715 102.492 97.5559 102.538 97.6466 102.506C97.534 102.316 97.3448 102.221 97.1764 102.101C91.5649 98.1521 85.9493 94.2059 80.3418 90.2537C79.6316 89.7547 79.8248 89.7825 79.1645 90.2218C73.2013 94.1919 67.2461 98.17 61.287 102.151C61.1216 102.264 60.9175 102.34 60.7631 102.611ZM96.1007 34.5465C96.3786 34.5435 96.6525 34.5326 96.9334 34.5326C110.149 34.5326 123.368 34.5326 136.586 34.5326C136.909 34.5326 137.236 34.4907 137.552 34.5893C137.713 34.8314 137.981 34.933 138.212 35.0774C143.241 38.1979 148.265 41.3174 153.297 44.427C153.964 44.8383 154.601 45.3055 155.321 45.6222C155.451 45.7168 155.574 45.8254 155.707 45.91C158.255 47.4947 160.806 49.0794 163.357 50.661C167.418 53.1839 171.48 55.6999 175.543 58.2188C181.744 62.0624 187.942 65.9071 194.145 69.7507C199.717 73.2079 205.286 76.673 210.859 80.1272C211.583 80.5734 212.264 81.0963 213.055 81.427C213.262 81.5744 213.462 81.7328 213.677 81.8662C219.074 85.2178 224.474 88.5664 229.879 91.9121C230.996 92.6043 232.089 93.3453 233.252 93.9608C233.333 94.161 233.308 94.3712 233.308 94.5784C233.308 103.989 233.308 113.402 233.308 122.815C233.308 122.973 233.298 123.135 233.291 123.299C231.864 123.391 230.437 123.49 229.007 123.577C226.751 123.718 224.496 123.851 222.236 123.982C218.919 124.175 215.603 124.364 212.286 124.55C210.258 124.667 208.23 124.769 206.203 124.881C205.329 124.93 204.453 124.983 203.579 125.036C200.813 125.205 198.051 125.376 195.286 125.539C193.469 125.647 191.65 125.735 189.826 125.844C186.997 126.009 184.165 126.195 181.333 126.36C179.327 126.48 177.324 126.581 175.318 126.691C175.068 126.705 174.805 126.684 174.605 126.887C174.516 126.859 174.428 126.827 174.341 126.799C174.295 126.765 174.253 126.73 174.211 126.694C174.028 126.318 173.638 126.174 173.329 125.953C167.025 121.501 160.714 117.059 154.41 112.611C154.221 112.478 154.046 112.326 153.807 112.288C153.504 112.295 153.325 112.531 153.115 112.689C149.861 115.159 146.611 117.629 143.364 120.102C140.5 122.285 137.64 124.47 134.78 126.652C134.692 126.698 134.647 126.775 134.643 126.873C134.636 127.404 134.562 127.931 134.541 128.455C134.47 130.619 134.362 132.78 134.263 134.937C134.164 137.032 134.074 139.122 133.993 141.217C133.933 142.804 133.814 144.389 133.81 145.978C133.807 146.53 133.803 147.084 133.676 147.625C133.494 147.618 133.308 147.604 133.125 147.604C129.52 147.643 125.914 147.699 122.306 147.728C117.429 147.766 112.552 147.791 107.671 147.664C105.061 147.594 102.446 147.625 99.8328 147.615C99.783 146.786 99.7442 145.957 99.7063 145.131C99.6147 143.061 99.5021 140.988 99.4314 138.918C99.3438 136.381 99.1824 133.851 99.1226 131.318C99.0947 129.98 98.9254 128.651 98.9643 127.309C98.9713 127.172 98.9613 127.032 98.8448 126.926C98.8657 126.817 98.7461 126.793 98.7113 126.715C98.6376 126.501 98.4443 126.406 98.279 126.284C97.1585 125.429 96.038 124.575 94.9165 123.722C90.7461 120.546 86.5748 117.362 82.3975 114.196C81.5151 113.529 80.6754 112.8 79.7163 112.239C79.4882 112.298 79.3189 112.464 79.1326 112.597C72.9204 116.972 66.7053 121.346 60.5001 125.732C60.032 126.061 59.5091 126.328 59.1296 126.775C59.0589 126.82 58.9892 126.863 58.9155 126.908C58.6127 126.624 58.2163 126.701 57.8677 126.684C55.538 126.56 53.2153 126.417 50.8896 126.262C48.5848 126.107 46.283 125.992 43.9782 125.854C40.777 125.668 37.5758 125.454 34.3717 125.296C31.9294 125.173 29.4912 125.019 27.0489 124.87C24.3079 124.702 21.5639 124.579 18.8238 124.403C17.9483 124.35 17.0699 124.311 16.1954 124.26C13.4543 124.101 10.7173 123.918 7.97623 123.757C5.87862 123.634 3.78101 123.532 1.6834 123.412C1.20232 123.384 0.72424 123.31 0.243164 123.258C0.246152 113.729 0.250134 104.203 0.253122 94.674C0.253122 94.421 0.218267 94.164 0.333805 93.922C0.572849 93.8901 0.752133 93.7357 0.94536 93.6122C7.19636 89.7367 13.4474 85.8612 19.6944 81.9818C19.9693 81.8134 20.278 81.6939 20.4712 81.416C20.6645 81.4021 20.8189 81.2965 20.9772 81.2019C26.294 77.8991 31.6097 74.5963 36.9264 71.2965C41.9294 68.1909 46.9334 65.0883 51.9364 61.9857C56.5718 59.1112 61.2023 56.2407 65.8338 53.3702C69.1117 51.3353 72.3936 49.3114 75.6615 47.2666C76.5191 46.7288 77.4324 46.2756 78.2053 45.6083C78.4264 45.6013 78.5918 45.4638 78.7671 45.3553C83.6904 42.3015 88.6197 39.2477 93.539 36.1879C94.4005 35.6541 95.296 35.172 96.1007 34.5465Z" fill="#F15F31"></path>
<path d="M58.9176 126.907C58.9883 126.864 59.058 126.82 59.1317 126.774C59.3359 126.924 59.5291 127.087 59.7473 127.22C62.7333 129.044 65.7234 130.863 68.7134 132.691C71.7423 134.539 74.7642 136.394 77.7901 138.246C78.1128 138.446 78.3767 138.467 78.7423 138.257C80.8329 137.037 82.9405 135.853 85.0491 134.662C87.0172 133.552 88.9953 132.462 90.9594 131.348C93.1417 130.108 95.313 128.84 97.5052 127.616C97.9405 127.37 98.328 127.013 98.8479 126.928C98.9634 127.03 98.9704 127.17 98.9674 127.311C98.9285 128.65 99.0939 129.978 99.1247 131.317C99.1845 133.85 99.3429 136.383 99.4305 138.917C99.5042 140.987 99.6138 143.06 99.7084 145.129C99.7473 145.958 99.7861 146.784 99.8349 147.613C93.2572 158.864 86.6756 170.111 80.0979 181.366C79.9823 181.56 79.803 181.732 79.8349 181.988C79.824 182.287 79.81 182.586 79.81 182.887C79.81 191.173 79.81 199.462 79.81 207.747C79.81 208.05 79.8001 208.348 79.7961 208.65C79.5989 208.636 79.4584 208.51 79.3011 208.418C61.6895 198.112 44.0789 187.804 26.4714 177.498C17.9654 172.515 9.45843 167.536 0.958427 162.551C0.730339 162.42 0.413607 162.371 0.336914 162.048C0.562014 161.928 0.786112 161.816 1.00424 161.689C6.27117 158.524 11.5351 155.357 16.802 152.195C26.8369 146.166 36.8797 140.136 46.9186 134.106C50.9166 131.707 54.9186 129.307 58.9176 126.907Z" fill="#F15F31"></path>
<path d="M133.673 147.622C133.799 147.081 133.802 146.525 133.802 145.973C133.806 144.386 133.929 142.797 133.989 141.212C134.066 139.119 134.161 137.024 134.256 134.934C134.358 132.773 134.464 130.616 134.537 128.451C134.554 127.924 134.632 127.401 134.639 126.87C134.639 126.771 134.685 126.695 134.776 126.649C134.772 126.863 134.903 126.975 135.078 127.07C135.823 127.484 136.564 127.907 137.306 128.324C138.831 129.186 140.356 130.05 141.877 130.914C143.802 132.003 145.725 133.1 147.65 134.189C149.273 135.11 150.897 136.03 152.52 136.951C153.261 137.372 154.007 137.79 154.741 138.222C155.11 138.441 155.43 138.51 155.812 138.209C156.192 137.914 156.631 137.692 157.046 137.443C159.526 135.936 162.01 134.435 164.492 132.928C167.166 131.297 169.846 129.678 172.509 128.022C173.128 127.636 173.813 127.337 174.333 126.796C174.421 126.824 174.512 126.852 174.6 126.881C174.703 126.94 174.804 126.992 174.903 127.052C183.574 132.263 192.247 137.477 200.922 142.693C210.844 148.652 220.767 154.611 230.69 160.566C231.519 161.065 232.327 161.607 233.199 162.031C233.16 162.348 232.865 162.387 232.661 162.506C228.48 164.962 224.295 167.411 220.11 169.86C198.213 182.686 176.315 195.503 154.414 208.325C154.218 208.441 154.007 208.532 153.802 208.638C153.795 208.335 153.785 208.037 153.785 207.734C153.785 199.443 153.785 191.15 153.785 182.854C153.785 182.555 153.758 182.256 153.744 181.958C153.719 181.715 153.56 181.536 153.445 181.34C147.323 170.869 141.199 160.398 135.071 149.931C134.614 149.154 134.207 148.349 133.673 147.622Z" fill="#F15F31"></path>
<path d="M233.251 93.9563C232.085 93.3418 230.995 92.5998 229.878 91.9075C224.47 88.5659 219.073 85.2143 213.676 81.8617C213.461 81.7282 213.261 81.5699 213.054 81.4225C213.121 80.5021 213.107 79.5778 213.128 78.6535C213.212 75.2143 213.18 71.7671 213.272 68.3239C213.364 64.9962 213.328 61.6685 213.408 58.3408C213.504 54.4374 213.511 50.53 213.56 46.6226C213.581 44.6585 213.606 42.6944 213.634 40.7302C213.658 39.0649 213.679 37.4025 213.736 35.7412C213.746 35.3547 213.637 35.1256 213.279 34.9991C213.173 34.9603 213.079 34.8866 212.977 34.8338C209.256 32.8736 205.538 30.9125 201.821 28.9563C199.305 27.6316 196.789 26.3139 194.284 24.9713C193.957 24.7989 193.693 24.7601 193.394 24.9852C193.307 25.0559 193.194 25.0977 193.093 25.1505C181.814 31.2472 170.535 37.3398 159.259 43.4434C157.941 44.1565 156.592 44.8169 155.32 45.6177C154.6 45.3019 153.96 44.8348 153.296 44.4234C148.264 41.3139 143.236 38.1934 138.211 35.0699C137.98 34.9294 137.713 34.8268 137.548 34.5848C137.737 34.2372 138.121 34.1346 138.426 33.9483C140.183 32.8876 141.957 31.8507 143.728 30.8109C146.152 29.3806 148.584 27.9613 151.009 26.531C153.753 24.9155 156.49 23.288 159.234 21.6714C162.256 19.8906 165.289 18.1226 168.31 16.3448C170.639 14.9742 172.962 13.6007 175.285 12.2272C177.551 10.8916 179.818 9.55691 182.084 8.21827C184.27 6.92444 186.451 5.62863 188.637 4.33879C190.506 3.2352 192.376 2.1356 194.245 1.036C194.403 0.941375 194.579 0.874639 194.733 0.77205C195.025 0.582807 195.292 0.628619 195.577 0.792962C197.27 1.78798 198.964 2.77205 200.657 3.76209C202.791 5.00612 204.923 6.25413 207.053 7.50114C210.001 9.22624 212.948 10.9553 215.896 12.6764C218.848 14.3946 221.807 16.1027 224.762 17.8209C226.996 19.1177 229.224 20.4284 231.462 21.7212C231.782 21.9035 231.908 22.1396 231.908 22.5051C231.901 23.8886 231.87 25.277 231.936 26.6645C232.056 29.2969 231.968 31.9324 232.092 34.5599C232.193 36.7531 232.085 38.9493 232.218 41.1376C232.366 43.538 232.221 45.9444 232.366 48.3378C232.495 50.5091 232.362 52.6804 232.495 54.8448C232.646 57.2691 232.499 59.6973 232.643 62.1147C232.77 64.2402 232.646 66.3667 232.77 68.4852C232.917 70.9762 232.784 73.4742 232.92 75.9623C233.044 78.1794 232.917 80.3966 233.051 82.6107C233.198 85.0559 233.075 87.5051 233.198 89.9503C233.261 91.1734 233.272 92.3926 233.297 93.6157C233.297 93.7282 233.265 93.8438 233.251 93.9563Z" fill="#E3E3E3"></path>
<path d="M96.0984 34.5434C95.2936 35.1689 94.3972 35.65 93.5366 36.1839C88.6173 39.2446 83.691 42.2974 78.7647 45.3512C78.5894 45.4598 78.427 45.5972 78.2029 45.6042C78.0267 45.411 77.7806 45.3263 77.5595 45.2068C71.3473 41.8442 65.1312 38.4887 58.9161 35.1301C52.679 31.7606 46.442 28.394 40.2159 25.0136C39.8464 24.8134 39.5794 24.8104 39.2039 25.0106C36.6213 26.395 34.0207 27.7476 31.428 29.1181C27.7527 31.0544 24.0774 32.9936 20.3982 34.9259C20.0505 35.1092 19.8225 35.2885 19.8394 35.7516C19.938 38.4956 19.8992 41.2476 19.9729 43.9946C20.0715 47.41 20.0256 50.8293 20.1173 54.2476C20.2049 57.5962 20.1701 60.9488 20.2547 64.2974C20.3493 68.2008 20.3593 72.1052 20.4051 76.0086C20.426 77.8114 20.448 79.6102 20.4689 81.413C20.2786 81.6899 19.9659 81.8094 19.696 81.9787C13.445 85.8572 7.19398 89.7327 0.942982 93.6092C0.745771 93.7317 0.570471 93.8861 0.331427 93.9179C0.331427 91.7466 0.239784 89.5683 0.359306 87.4C0.47584 85.2984 0.363298 83.1938 0.478835 81.0962C0.626246 78.5345 0.496756 75.9667 0.633211 73.408C0.756716 71.146 0.619272 68.8791 0.763694 66.6231C0.918077 64.2695 0.759705 61.908 0.908112 59.5604C1.05154 57.2944 0.901139 55.0315 1.04457 52.7755C1.19198 50.4389 1.0376 48.1062 1.18501 45.7805C1.32943 43.5385 1.17804 41.2964 1.32246 39.0614C1.46987 36.7287 1.31549 34.396 1.4629 32.0693C1.61031 29.8034 1.4878 27.5405 1.59636 25.2805C1.64218 24.2905 1.71589 23.2994 1.69796 22.3084C1.69497 21.9916 1.87425 21.8731 2.10632 21.7357C3.72186 20.8014 5.3354 19.8522 6.94795 18.907C9.89915 17.1819 12.8434 15.4528 15.7956 13.7317C18.7468 12.0136 21.7089 10.3094 24.6601 8.58726C27.2328 7.08726 29.7976 5.57232 32.3693 4.06833C34.183 3.01057 36.0097 1.97471 37.8125 0.896027C38.2976 0.607182 38.6661 0.650015 39.1402 0.937864C41.5755 2.403 44.0316 3.82631 46.4739 5.27053C48.68 6.57432 50.8832 7.88407 53.0904 9.18487C56.1123 10.9657 59.1442 12.7297 62.1691 14.5116C64.5555 15.9199 66.931 17.3432 69.3165 18.7486C72.0993 20.39 74.8932 22.0165 77.679 23.654C80.0645 25.0594 82.44 26.4827 84.8265 27.892C87.2717 29.3363 89.7209 30.7695 92.1701 32.2098C93.4798 32.9827 94.7876 33.7666 96.0984 34.5434Z" fill="#E3E3E3"></path>
<path d="M153.747 181.961C153.761 182.26 153.789 182.558 153.789 182.857C153.789 191.152 153.789 199.445 153.789 207.741C153.789 208.04 153.803 208.342 153.807 208.641C152.239 209.568 150.672 210.503 149.099 211.427C144.955 213.855 140.806 216.28 136.659 218.707C136.14 219.01 136.14 219.013 135.648 218.631C129.59 213.918 123.536 209.206 117.471 204.505C116.677 203.887 116.926 203.848 116.112 204.484C110.11 209.147 104.105 213.813 98.1037 218.479C97.9951 218.564 97.8716 218.638 97.777 218.732C97.52 219.003 97.281 218.946 96.9832 218.771C91.3507 215.461 85.7073 212.157 80.0678 208.855C79.9692 208.795 79.8846 208.718 79.7939 208.647C79.7969 208.349 79.8079 208.047 79.8079 207.748C79.8079 199.463 79.8079 191.174 79.8079 182.889C79.8079 182.587 79.8248 182.288 79.8318 181.989C80.0818 182.109 80.3348 182.217 80.5768 182.351C81.8557 183.047 83.1316 183.749 84.4075 184.448C88.6266 186.75 92.8467 189.048 97.0639 191.35C103.412 194.814 109.759 198.275 116.098 201.757C116.607 202.038 116.983 202.024 117.489 201.747C122.668 198.894 127.865 196.065 133.055 193.233C137.475 190.819 141.896 188.405 146.316 185.995C148.789 184.646 151.27 183.307 153.747 181.961Z" fill="#F15F31"></path>
<path d="M58.9151 126.902C54.9161 129.301 50.9142 131.701 46.9161 134.101C36.8773 140.131 26.8345 146.161 16.7996 152.19C11.5327 155.352 6.26874 158.518 1.0018 161.684C0.783676 161.81 0.559578 161.923 0.334478 162.042C0.123323 161.86 0.197027 161.614 0.197027 161.392C0.194039 148.884 0.194039 136.378 0.197027 123.869C0.197027 123.662 0.224912 123.458 0.24284 123.25C0.723916 123.303 1.202 123.377 1.68407 123.406C3.78168 123.528 5.87929 123.627 7.97292 123.749C10.714 123.912 13.455 124.094 16.195 124.255C17.0705 124.305 17.945 124.344 18.8235 124.4C21.5645 124.568 24.3046 124.695 27.0456 124.864C29.4879 125.014 31.9301 125.17 34.3713 125.289C37.5725 125.447 40.7777 125.661 43.9779 125.847C46.2797 125.984 48.5845 126.1 50.8863 126.255C53.212 126.41 55.5387 126.554 57.8683 126.677C58.2159 126.695 58.6134 126.617 58.9151 126.902Z" fill="#E3E3E3"></path>
<path d="M233.204 162.029C232.329 161.607 231.525 161.063 230.695 160.564C220.769 154.612 210.847 148.649 200.923 142.69C192.252 137.479 183.58 132.26 174.904 127.05C174.806 126.99 174.704 126.938 174.603 126.881C174.803 126.678 175.066 126.699 175.319 126.685C177.322 126.575 179.328 126.474 181.331 126.354C184.163 126.189 186.995 126.006 189.827 125.838C191.643 125.729 193.467 125.641 195.288 125.532C198.049 125.37 200.815 125.199 203.577 125.029C204.455 124.977 205.327 124.924 206.204 124.875C208.232 124.762 210.26 124.661 212.287 124.544C215.604 124.358 218.917 124.169 222.234 123.976C224.494 123.845 226.749 123.712 229.005 123.571C230.435 123.484 231.861 123.385 233.289 123.293C233.296 123.546 233.306 123.799 233.306 124.052C233.306 136.446 233.306 148.835 233.303 161.225C233.303 161.491 233.39 161.779 233.204 162.029Z" fill="#E3E3E3"></path>
<path d="M116.78 160.263H100.621C100.437 160.263 100.251 160.266 100.065 160.266C99.8617 160.263 99.7771 160.368 99.7731 160.561C99.7731 160.677 99.7701 160.792 99.7701 160.909C99.7701 164.261 99.7771 167.613 99.7591 170.965C99.7591 171.394 99.9175 171.622 100.269 171.833C105.638 175.09 111.003 178.354 116.358 181.636C116.695 181.84 116.907 181.812 117.215 181.619C122.574 178.344 127.936 175.072 133.308 171.822C133.709 171.58 133.814 171.316 133.811 170.881C133.786 169.12 133.8 167.363 133.8 165.606C133.8 164.036 133.8 162.466 133.8 160.895C133.8 160.27 133.793 160.27 133.147 160.263H132.799H116.78ZM153.748 181.96C151.27 183.301 148.79 184.64 146.316 185.994C141.893 188.404 137.475 190.817 133.055 193.232C127.862 196.063 122.669 198.889 117.489 201.746C116.983 202.023 116.604 202.036 116.095 201.756C109.759 198.274 103.411 194.812 97.0639 191.348C92.8448 189.043 88.6277 186.746 84.4075 184.444C83.1286 183.748 81.8567 183.045 80.5779 182.349C80.3358 182.216 80.0789 182.107 79.8328 181.984C79.801 181.728 79.9803 181.555 80.0928 181.362C86.6705 170.111 93.2522 158.86 99.8328 147.613C110.932 147.656 122.022 147.722 133.123 147.602C133.308 147.599 133.491 147.616 133.677 147.623C134.211 148.351 134.619 149.155 135.072 149.932C141.203 160.399 147.328 170.87 153.449 181.341C153.565 181.537 153.723 181.717 153.748 181.96Z" fill="#E3E3E3"></path>
<path d="M155.321 45.6163C156.593 44.8145 157.939 44.1541 159.257 43.441C170.531 37.3374 181.814 31.2488 193.093 25.1522C193.196 25.0964 193.304 25.0535 193.396 24.9868C193.691 24.7587 193.955 24.7976 194.284 24.9729C196.786 26.3115 199.305 27.6292 201.818 28.9539C205.539 30.9151 209.257 32.8723 212.974 34.8364C213.076 34.8892 213.171 34.9589 213.279 34.9978C213.635 35.1243 213.748 35.3563 213.733 35.7388C213.681 37.4012 213.659 39.0665 213.635 40.7289C213.603 42.693 213.582 44.6571 213.557 46.6243C213.512 50.5286 213.502 54.436 213.406 58.3394C213.325 61.6671 213.36 64.9978 213.272 68.3215C213.178 71.7687 213.213 75.2119 213.129 78.6522C213.104 79.5765 213.118 80.5008 213.051 81.4241C212.261 81.0904 211.579 80.5705 210.855 80.1213C205.282 76.6701 199.714 73.2059 194.141 69.7488C187.943 65.9011 181.741 62.0565 175.538 58.2129C171.477 55.693 167.415 53.1781 163.353 50.6581C160.802 49.0775 158.255 47.4928 155.704 45.9041C155.57 45.8195 155.448 45.7149 155.321 45.6163Z" fill="#F15F31"></path>
<path d="M20.4712 81.4113C20.4503 79.6085 20.4294 77.8057 20.4074 76.0069C20.3586 72.1035 20.3517 68.1961 20.2531 64.2957C20.1724 60.9471 20.2072 57.5945 20.1196 54.2469C20.028 50.8316 20.0708 47.4083 19.9752 43.9929C19.8985 41.2459 19.9373 38.4939 19.8417 35.7469C19.8248 35.2868 20.0499 35.1075 20.3975 34.9242C24.0798 32.9919 27.7511 31.0527 31.4304 29.1125C34.023 27.7499 36.6236 26.3933 39.2062 25.0049C39.5788 24.8087 39.8497 24.8116 40.2142 25.0118C46.4443 28.3923 52.6813 31.7549 58.9184 35.1244C65.1335 38.484 71.3497 41.8425 77.5618 45.2061C77.7829 45.3246 78.0289 45.4063 78.2052 45.5995C77.4323 46.2698 76.518 46.724 75.6614 47.2579C72.3895 49.3057 69.1076 51.3296 65.8327 53.3644C61.1983 56.235 56.5678 59.1055 51.9363 61.98C46.9333 65.0826 41.9294 68.1851 36.9224 71.2917C31.6057 74.5905 26.2929 77.8933 20.9732 81.1931C20.8188 81.2917 20.6644 81.3973 20.4712 81.4113Z" fill="#F15F31"></path>
<path d="M98.8421 126.922C98.3222 127.007 97.9347 127.364 97.4955 127.61C95.3073 128.837 93.1359 130.102 90.9497 131.342C88.9895 132.456 87.0114 133.549 85.0433 134.659C82.9347 135.846 80.8232 137.031 78.7365 138.25C78.374 138.465 78.107 138.44 77.7843 138.243C74.7584 136.388 71.7365 134.537 68.7077 132.684C65.7176 130.857 62.7276 129.041 59.7415 127.214C59.5264 127.083 59.3302 126.918 59.126 126.771C59.5055 126.321 60.0254 126.054 60.4925 125.727C66.7017 121.338 72.9138 116.968 79.126 112.589C79.3162 112.46 79.4816 112.295 79.7126 112.231C79.7166 115.098 79.7196 117.966 79.7306 120.829C79.7345 121.56 79.611 121.437 80.367 121.648C82.9636 122.375 85.5672 123.092 88.1668 123.808C91.6808 124.779 95.1947 125.745 98.7086 126.711C98.7435 126.785 98.8591 126.809 98.8421 126.922Z" fill="#131C26"></path>
<path d="M174.336 126.794C173.816 127.331 173.131 127.633 172.512 128.017C169.849 129.671 167.168 131.294 164.494 132.921C162.013 134.432 159.529 135.933 157.048 137.44C156.634 137.69 156.195 137.907 155.815 138.206C155.432 138.505 155.112 138.438 154.744 138.22C154.008 137.785 153.264 137.37 152.522 136.948C150.899 136.028 149.276 135.107 147.653 134.186C145.727 133.093 143.805 132.001 141.88 130.908C140.358 130.047 138.833 129.183 137.308 128.318C136.567 127.9 135.825 127.482 135.08 127.067C134.905 126.969 134.774 126.856 134.774 126.646C137.639 124.46 140.496 122.275 143.359 120.096C146.605 117.619 149.859 115.149 153.113 112.682C153.324 112.521 153.499 112.289 153.801 112.282C153.805 115.078 153.805 117.875 153.805 120.676C153.805 120.837 153.812 121 153.801 121.161C153.791 121.375 153.858 121.513 154.09 121.547C154.227 121.568 154.357 121.617 154.494 121.653C158.939 122.795 163.384 123.94 167.832 125.078C169.954 125.62 172.083 126.15 174.21 126.688C174.252 126.723 174.293 126.759 174.336 126.794Z" fill="#131C26"></path>
<path d="M60.7588 102.603C60.9132 102.329 61.1174 102.251 61.2857 102.139C67.2409 98.1614 73.197 94.1833 79.1632 90.2132C79.8205 89.774 79.6303 89.7421 80.3405 90.2411C85.948 94.1983 91.5636 98.1435 97.1751 102.093C97.3395 102.212 97.5327 102.308 97.6423 102.494C97.5506 102.525 97.6702 102.479 97.6174 102.561C97.6074 102.575 97.5895 102.599 97.5755 102.599C85.3265 102.603 73.0815 102.603 60.7588 102.603Z" fill="#E3E3E3"></path>
<path d="M172.746 102.587H135.778C136.404 102.031 137.026 101.648 137.62 101.23C142.848 97.5407 148.08 93.8544 153.312 90.1692C153.793 89.8275 153.797 89.8206 154.271 90.1403C160.29 94.1533 166.306 98.1662 172.321 102.182C172.469 102.281 172.641 102.35 172.746 102.587Z" fill="#E3E3E3"></path>
<path d="M174.212 126.688C172.086 126.15 169.96 125.623 167.834 125.078C163.389 123.94 158.941 122.795 154.497 121.653C154.359 121.617 154.229 121.568 154.095 121.547C153.86 121.513 153.793 121.375 153.807 121.161C153.814 121 153.807 120.837 153.807 120.676V112.282C154.042 112.32 154.222 112.472 154.408 112.605C160.716 117.049 167.023 121.495 173.326 125.943C173.639 126.164 174.026 126.312 174.212 126.688Z" fill="#E3E3E3"></path>
<path d="M98.7147 126.711C95.2008 125.745 91.6868 124.779 88.1739 123.811C85.5733 123.095 82.9697 122.378 80.3731 121.651C79.6171 121.437 79.7406 121.559 79.7406 120.832C79.7267 117.965 79.7267 115.098 79.7197 112.231C80.6789 112.793 81.5185 113.524 82.4 114.191C86.5783 117.357 90.7456 120.541 94.9199 123.717C96.0404 124.57 97.1619 125.421 98.2825 126.275C98.4478 126.401 98.6371 126.5 98.7147 126.711Z" fill="#E3E3E3"></path>
<path d="M116.78 160.258H132.799H133.146C133.793 160.265 133.8 160.265 133.8 160.891C133.8 162.461 133.8 164.032 133.8 165.602C133.8 167.359 133.786 169.116 133.811 170.877C133.814 171.312 133.709 171.576 133.308 171.818C127.936 175.068 122.574 178.34 117.215 181.615C116.906 181.808 116.695 181.836 116.357 181.632C111.003 178.35 105.637 175.086 100.269 171.829C99.9171 171.618 99.7588 171.39 99.7588 170.96C99.7767 167.609 99.7697 164.256 99.7697 160.905C99.7697 160.788 99.7727 160.672 99.7727 160.557C99.7767 160.364 99.8614 160.258 100.065 160.261C100.251 160.261 100.437 160.258 100.62 160.258H116.78Z" fill="#131C26"></path>
</svg><style>@media (prefers-color-scheme: light) { :root { filter: none; } }
@media (prefers-color-scheme: dark) { :root { filter: none; } }
</style></svg>