<svg width="101" height="84" viewBox="0 0 101 84" fill="none" xmlns="http://www.w3.org/2000/svg">
<g clip-path="url(#clip0_2795_22345)">
<path d="M76.8176 0.647566C78.065 0.614112 80.4692 1.13806 81.3284 2.11198C83.0908 4.10968 83.2302 7.16893 83.9994 9.58622C84.3633 10.7299 85.7441 12.4968 86.5429 13.4197C85.8338 13.4473 85.1073 13.4672 84.4014 13.5206C83.7308 12.1791 83.1608 10.2139 82.6398 8.77095C82.0554 7.15269 82.01 5.17517 80.723 3.85029C81.276 5.09117 82.1504 8.84178 81.7513 10.1403C81.3709 11.3781 80.9694 12.089 80.7804 13.5877C80.1739 13.5837 79.4339 13.6375 78.816 13.6543C76.6189 13.7106 74.4362 13.8324 72.2504 14.0581C71.0316 14.1841 69.7748 14.1022 68.5572 14.3718C66.9242 14.7334 65.1789 15.1846 63.4951 15.0061C63.8258 13.5373 62.7685 13.0568 61.4803 13.3997C61.0855 13.5048 60.7021 13.8366 60.3903 14.0923C59.9699 13.9046 59.3465 13.6839 58.8904 13.7717C57.2883 14.08 55.739 15.5028 54.4249 16.3628C53.4878 16.9729 51.8065 17.3849 51.1596 18.3086C50.1871 19.6971 50.4503 20.835 51.7397 21.8024C52.5236 23.7713 52.2747 26.8715 52.2481 28.9746C52.233 30.171 52.98 33.6847 51.7904 34.3136C51.4973 35.0699 51.0548 35.7205 50.2365 35.9912C49.4452 36.2529 49.2525 35.9036 48.5868 35.6829C48.4122 35.7253 47.9903 35.8995 47.8187 35.7492C47.1202 35.1374 47.7524 34.579 48.0602 33.9025C48.8007 32.2758 49.2486 30.3255 48.9066 28.5389C48.8069 28.018 48.2889 27.3175 48.0628 26.8164C47.4301 25.535 46.6516 24.2036 46.3427 22.7944C44.7865 23.2272 43.8493 23.6835 42.8888 24.9787C42.7355 25.208 41.9228 26.0619 41.6813 26.3204C40.5939 27.4845 39.5678 28.6722 38.8073 30.0843C38.6188 30.4372 38.7056 30.9526 38.6039 31.3327C38.2212 32.7637 37.7673 33.7634 36.1592 33.9537C35.9011 33.9843 35.6094 34.0311 35.3764 33.8542C34.9547 33.534 34.5518 33.8207 34.1497 33.6256C34.1021 33.5617 34.0201 33.4672 34.0388 33.3805C34.5477 31.0289 36.35 29.0309 37.27 26.864C37.9917 25.1642 38.0881 23.3331 39.3275 21.9507C38.6627 21.3661 37.8763 20.7042 37.0249 20.4096C36.4181 20.1997 36.2979 20.5639 36.022 21.0051C35.7754 21.3994 35.4863 21.8215 35.163 22.162C34.1152 23.058 32.6809 23.7815 31.4777 24.4359C31.2216 24.8313 31.2424 25.3551 30.8816 25.7793C30.3781 26.3712 29.9864 26.0478 29.3833 26.1359C28.9378 26.2472 27.7703 26.591 27.4076 26.1138C26.6089 25.063 26.6339 22.1829 26.5889 20.9858C25.9949 20.2133 25.8052 19.0989 26.0267 18.2073C26.2486 17.3142 26.9153 15.7019 25.7191 15.3287C25.4682 15.2504 25.1812 14.917 25.1338 14.6496C24.9148 13.4126 26.6829 12.7672 27.6221 13.389C28.3309 12.5538 28.8519 12.4725 29.8438 12.3592C30.308 11.3126 31.3071 9.39297 32.6354 10.5683C32.9413 10.3938 33.2592 10.1375 33.545 9.92269C35.4148 8.51773 37.2559 7.0637 39.0275 5.53631C40.017 4.6823 40.8024 3.71972 41.9964 3.12896C44.872 1.70609 48.1164 1.54162 51.2606 1.57423C58.0355 1.64448 64.8127 1.57428 71.5785 1.19887C71.9716 1.16112 72.4228 1.19903 72.8108 1.14612C74.1675 0.961155 75.4462 0.734903 76.8176 0.647566Z" fill="black"/>
<path d="M61.8526 14.1938C63.2669 14.1014 62.4887 15.0413 62.0642 15.6496C64.7785 16.5097 67.1733 15.4355 69.8281 15.1288C70.6067 15.0388 71.4243 15.0657 72.2032 14.9894C76.7492 14.5431 81.3459 14.4797 85.9116 14.3931L90.4341 14.3324C91.2351 14.3276 92.0087 14.3166 92.8126 14.3525C94.1304 14.4113 95.0386 15.4624 95.3292 16.6865C95.5466 17.6026 95.5316 18.5252 95.7284 19.4629C96.2551 21.9733 96.8902 24.4607 97.5531 26.9385C97.7544 27.6999 98.5908 29.3957 98.5263 30.0098L98.4516 30.0411C98.3547 30.0185 98.2654 29.9843 98.1919 29.9103C97.3911 29.1023 96.9247 28.4618 96.5013 27.4373C95.9929 26.2069 96.1839 25.8706 95.9562 24.8441C95.5284 22.9169 95.2338 21.1536 95.0032 19.1967C94.7684 19.9714 94.7556 21.1702 94.4511 21.7885C93.9559 22.794 93.5111 22.935 93.0719 24.1155C93.0746 24.1216 93.1633 24.3174 93.1942 24.3531C93.7749 25.0225 94.4966 25.8003 95.1895 26.3461C95.1876 26.3446 95.565 26.3719 95.5896 26.3918C96.4591 27.089 95.5379 29.4727 95.6465 30.3416C95.7611 31.2576 96.028 31.7693 96.306 32.4048C97.5035 31.7359 97.9227 33.9688 98.1024 34.7341C96.961 35.149 95.9547 35.1092 95.0887 34.2176C94.5594 33.7257 94.1344 33.3114 93.9205 32.6021C93.6313 31.6502 93.4313 30.6818 93.238 29.7049C93.1015 29.015 92.3222 28.7446 91.7535 28.4873C90.9477 28.1225 91.5948 29.7543 91.6383 30.0229C91.6723 30.1869 91.7531 30.3823 91.7713 30.5471C91.8699 31.4402 91.2402 32.158 91.0017 33.0142C90.6724 34.1954 90.5801 35.4088 90.1771 36.5601C90.0629 36.8863 89.6408 37.1111 89.4883 37.4222C89.2626 37.8315 89.6794 37.9553 89.4306 38.3228C88.8475 38.8072 87.5685 39.0122 86.9225 38.5339C86.7622 38.4151 86.7784 38.2126 86.7757 38.0312L86.7748 37.9533C86.6645 37.8807 86.511 37.8983 86.3598 37.8904L86.2955 37.8156C86.3355 37.5906 86.435 37.4728 86.5593 37.28C86.911 36.8549 87.1655 36.638 87.5941 36.2924C87.905 35.4153 88.7295 32.7124 88.7391 31.8187C88.7378 30.0889 86.7653 29.9848 85.4947 29.6523C84.087 29.2841 84.4286 28.9263 83.614 28.1535C82.9455 27.9373 81.5537 29.6512 80.7526 29.8411C78.9938 30.2579 77.0144 29.4674 75.5105 28.6843C76.2674 30.4511 76.4536 33.2131 76.4143 35.1502L76.623 35.4739C76.5028 35.7749 76.4294 36.0785 76.3464 36.391C76.45 36.5596 76.5389 36.7104 76.5998 36.9008C76.9764 38.0773 74.6335 39.0198 73.8568 38.506C73.7638 38.3663 73.7751 38.1554 73.7647 37.9798C73.5444 37.8892 73.409 37.9988 73.1039 37.8721C72.6858 37.3462 73.4513 36.8337 73.6437 36.4213C73.9947 35.6684 74.0063 34.1386 73.7096 33.3832C73.1044 31.8427 71.8038 30.3532 70.7008 29.1469C70.2102 29.2501 69.6841 29.3018 69.1847 29.3519C68.1195 30.5966 66.9625 33.134 66.21 34.6635C66.107 34.8727 66.0764 35.4968 65.9736 35.705C65.4242 36.8178 65.1312 36.3 65.1639 37.6157C64.6744 37.8989 63.0089 38.585 62.5278 38.1514C62.3166 37.3889 62.1056 37.8386 61.7859 37.381C61.7309 36.7967 62.5922 36.5132 62.9087 36.072C63.0783 35.8352 63.325 35.3689 63.4527 35.0921C64.3306 33.1887 65.1127 30.1644 64.44 28.1344C63.9937 26.7879 63.1922 26.7909 62.4244 26.0231C61.2109 24.8098 60.6534 23.5127 59.0049 22.7412C57.3589 23.0976 56.3283 22.8245 54.7569 22.3568C54.1675 22.1813 53.2929 22.4168 52.7513 21.9249C52.6446 21.7157 52.7211 21.6381 52.7263 21.3688C52.4272 20.9676 51.4296 20.7206 51.4617 19.9884C51.5397 18.213 53.7078 17.9259 54.9067 17.1384C55.6339 16.6396 56.2919 16.0793 57.0485 15.6185C58.3448 14.829 59.1853 14.1276 60.5026 15.343C60.8823 14.8317 61.2755 14.4619 61.8526 14.1938Z" fill="#953915"/>
<path d="M30.8506 34.9913C32.2483 34.9579 33.8323 35.0603 35.2302 35.1549C45.1848 35.8289 54.7238 38.8254 64.2858 41.4575C73.9875 44.1281 84.4403 46.854 94.4836 44.4766C95.8095 44.1627 97.8078 43.5954 99.0196 42.9917C94.6892 48.0166 84.7782 48.8641 78.6066 48.7358C77.2424 48.7076 75.7509 48.5583 74.3829 48.439C73.6143 48.3955 72.8284 48.3086 72.0605 48.2362C65.749 47.6414 59.5021 46.5361 53.2586 45.4642C42.5386 43.6238 31.4514 41.7973 20.7431 44.7374C16.8243 45.8134 13.6288 47.2714 10.1301 49.2588C11.0116 46.1405 10.7811 42.5693 10.1064 39.4372C17.4518 36.1893 22.957 35.1961 30.8506 34.9913Z" fill="#D5A450"/>
<path d="M20.7883 46.147L25.5714 46.1464L32.0546 61.4132L34.3387 66.7897C34.7227 67.6954 35.1783 68.8724 35.6055 69.7236C33.9488 69.7704 31.8012 69.7808 30.1494 69.716C30.0533 69.4289 29.9254 69.1055 29.8094 68.8256C29.2122 67.3849 28.6599 65.9132 28.038 64.4837C27.2843 64.4552 26.4048 64.4765 25.6416 64.476L18.1799 64.4684L16.0431 69.7291C14.4684 69.7956 12.3091 69.7624 10.7314 69.7176C10.9094 69.4318 11.3696 68.2918 11.5226 67.9321L13.0888 64.2479L18.2536 52.0979L19.8627 48.299C20.1299 47.6647 20.486 46.734 20.7883 46.147ZM20.0033 59.909L23.2281 59.9167L26.2074 59.9183C25.8837 59.1238 23.2633 52.6109 23.0778 52.4281C22.136 54.7556 21.0262 57.6407 20.0033 59.909Z" fill="black"/>
<path d="M7.88089 26.2038C14.0682 25.855 22.6639 27.7563 28.4416 30.0637C30.0676 30.713 31.5336 31.4835 33.0453 32.3473C32.2634 32.376 31.471 32.3677 30.6877 32.3759C27.8716 32.4048 25.0934 32.5663 22.299 32.9213C21.6004 32.9822 20.4788 33.189 19.787 33.3128C16.0935 33.9731 12.5874 35.0774 9.19734 36.6858C7.55859 32.522 4.60971 29.3229 0.916992 26.8881C3.40122 26.481 5.34263 26.2328 7.88089 26.2038Z" fill="#953915"/>
<path d="M36.6236 53.4037C37.6793 53.3664 38.9663 53.3744 40.0225 53.4006L47.6385 63.4064L47.6388 53.3948L51.2294 53.3971L51.2309 65.4031C51.2317 66.0911 51.309 69.2667 51.1976 69.6703C51.0419 69.763 50.941 69.7331 50.7402 69.738C49.8502 69.742 48.9902 69.7374 48.0997 69.7192C47.2762 68.5654 46.204 67.2153 45.3368 66.0915L42.4385 62.2778C41.833 61.4838 40.7445 60.1392 40.2239 59.3313C40.1526 62.7369 40.2348 66.2987 40.2162 69.7242C39.0647 69.7716 37.7633 69.7432 36.6084 69.7186C36.6798 69.1138 36.6501 68.0059 36.6504 67.3699L36.651 63.1697L36.6523 56.9923C36.6522 55.8668 36.688 54.5043 36.6236 53.4037Z" fill="black"/>
<path d="M61.0933 53.1228C63.7699 52.8337 66.2537 53.6277 68.3245 55.326C67.5754 56.2421 66.7856 57.1508 66.0529 58.0748C64.9698 57.3166 64.4723 56.822 63.1029 56.5337C56.4395 55.1312 54.6351 65.1965 61.0219 66.6289C62.434 66.9455 64.2123 66.5473 65.4084 65.7262C65.4183 64.964 65.4092 64.1814 65.4095 63.4174L61.78 63.412L61.7825 60.3377C62.3149 60.3565 62.9623 60.3368 63.5034 60.3345C65.2249 60.335 67.2078 60.3927 68.9056 60.3293C68.8046 61.1442 68.908 63.2041 68.8731 64.1316C68.8549 64.6126 68.8587 67.1097 68.9118 67.4363C67.2813 68.7714 65.3946 69.7376 63.2843 69.9584C60.7342 70.2251 58.1975 69.7806 56.1739 68.1118C54.513 66.7419 53.542 64.7171 53.3384 62.5964C53.0517 60.148 53.8344 57.5858 55.4957 55.7306C56.851 54.2173 59.0999 53.3086 61.0933 53.1228Z" fill="black"/>
<path d="M71.0129 53.3795C71.2832 53.408 71.9205 53.391 72.2304 53.3911L74.5863 53.3876C74.5823 53.4758 74.5759 53.5716 74.5764 53.6599C74.5899 56.8108 74.5432 59.961 74.5922 63.111C74.6485 65.9138 76.8761 67.3087 79.4798 66.5079C80.6556 66.1242 81.4358 64.9542 81.565 63.7475C81.6954 62.5301 81.6359 61.2028 81.6358 59.9658L81.6307 53.3845C82.8146 53.4085 84.0641 53.39 85.2547 53.3949C85.2162 54.3003 85.2481 55.4556 85.2497 56.3791L85.2516 60.9034C85.2515 63.7491 85.2855 66.8355 82.7405 68.6901C79.8967 70.7625 74.4054 70.5412 72.2536 67.5204C70.8923 65.6095 70.9851 63.5705 70.9898 61.3917L70.9901 57.5673L70.9863 54.8618C70.9856 54.49 70.9654 53.709 71.0129 53.3795Z" fill="black"/>
<path d="M91.9965 53.2207C94.4049 52.9534 97.2534 53.6223 99.0869 55.2464C98.553 56.0908 97.801 57.1166 97.2155 57.9428C95.9181 57.1643 94.7155 56.3957 93.1446 56.3431C92.0834 56.2701 90.8102 56.6237 90.8562 57.9319C90.8588 58.5507 91.4353 59.0097 91.9788 59.2135C94.9142 60.3213 99.4618 60.4891 99.5766 64.6082C99.6812 68.3564 96.942 69.9339 93.5025 69.9584C91.0858 69.979 88.3414 69.0279 86.5986 67.3519C87.2845 66.5191 88.0279 65.6011 88.7474 64.8027C90.3395 66.0742 92.0345 66.9432 94.1174 66.7622C95.128 66.6744 96.2012 66.1072 95.968 64.9621C95.6616 63.4579 92.446 63.2124 91.256 62.7344C90.3876 62.3855 89.6504 62.253 88.885 61.657C86.9203 60.355 86.8144 57.1016 88.1113 55.3059C89.0262 54.0392 90.4415 53.4535 91.9965 53.2207Z" fill="black"/>
<path d="M56.1268 71.6614C57.7082 71.5365 59.1952 71.92 60.2279 73.1838C61.8624 75.1841 61.5892 78.3424 59.5883 79.9756C60.2864 80.5065 61.1436 81.0832 61.8661 81.6043C61.5747 81.9235 61.3222 82.2235 61.0773 82.5811C60.7533 82.38 60.3607 82.0815 60.0445 81.8546C59.5287 81.507 58.8315 81.0229 58.3551 80.6411C51.1551 82.6471 49.7722 72.4922 56.1268 71.6614ZM57.1278 79.7034C61.0956 79.0551 60.5434 72.3567 56.2104 72.8333C52.3243 73.5279 52.7641 80.0423 57.1278 79.7034Z" fill="#7D7C7D"/>
<path d="M14.6472 71.6594C16.3177 71.5475 17.8106 71.9237 18.8734 73.2999C20.3845 75.2566 20.1153 78.4456 18.1254 79.9706L20.427 81.6026C20.1494 81.8818 19.857 82.2608 19.6297 82.5819C19.2928 82.3758 18.841 82.0332 18.5095 81.7975C17.97 81.4088 17.4352 81.0626 16.9103 80.6464C15.3526 81.0505 13.7238 81.0179 12.3982 80.0462C9.87539 78.1969 10.0644 73.7274 12.8669 72.2222C13.4806 71.8926 13.9692 71.756 14.6472 71.6594ZM15.6658 79.7074C15.9241 79.6627 16.1692 79.6208 16.4125 79.5224C19.3527 78.3327 18.852 72.992 15.4748 72.8162C15.241 72.804 15.0144 72.8043 14.7831 72.8294C11.6888 73.3832 11.2682 77.4741 13.5586 79.2368C14.1248 79.6727 14.9674 79.7498 15.6658 79.7074Z" fill="#7D7C7D"/>
<path d="M45.184 71.7921C45.7595 71.8136 46.3281 71.8003 46.9037 71.7916C47.7281 73.8535 48.7227 75.9455 49.5644 78.0079C49.9086 78.8514 50.4208 79.8894 50.6997 80.734C50.1969 80.7176 49.698 80.7289 49.195 80.7362C48.8186 79.9525 48.4322 78.9591 48.0954 78.145L47.0904 78.1306L44.0162 78.1483C43.7357 78.9272 43.2863 79.9753 42.9554 80.7421C42.4852 80.7153 41.9766 80.728 41.5029 80.7304L43.9081 74.8508C44.2726 73.9638 44.7757 72.6099 45.184 71.7921ZM44.423 76.9658L46.1331 76.9727L47.6752 76.9657C47.141 75.8094 46.6894 74.6168 46.2108 73.4369C46.1367 73.2542 46.0755 73.0649 45.97 72.8973C45.5557 74.2087 44.948 75.6817 44.423 76.9658Z" fill="#7D7C7D"/>
<path d="M83.5713 71.7921C84.1152 71.8157 84.7583 71.799 85.31 71.7968C86.5707 74.7731 87.8942 77.7513 89.1282 80.735C88.6147 80.7221 88.1193 80.7291 87.6061 80.7362C87.2205 79.9228 86.8468 78.9893 86.4921 78.1544L85.4135 78.1306C84.4062 78.1273 83.4163 78.1314 82.409 78.1483C82.2253 78.7381 81.623 80.1411 81.3593 80.738C80.8583 80.7258 80.4112 80.7139 79.9092 80.7372C80.3094 79.6695 80.8079 78.5218 81.2446 77.4576L83.5713 71.7921ZM82.8388 76.9608C83.4003 76.9655 83.9696 76.9751 84.5303 76.9727L86.0637 76.9648C85.9041 76.5848 84.3987 72.9173 84.3801 72.8996C83.9611 74.2051 83.3479 75.6816 82.8388 76.9608Z" fill="#7D7C7D"/>
<path d="M97.7638 71.7927C98.2161 71.8103 98.646 71.7986 99.0975 71.7889C99.0232 74.5309 99.1274 77.3295 99.0953 80.0777C99.0933 80.2556 99.1426 80.5954 99.0267 80.7314L98.89 80.7312L97.4849 80.7293C97.2745 80.4761 97.0475 80.1388 96.8558 79.8644C95.3378 77.6912 93.8488 75.4913 92.3959 73.275C92.5603 75.4116 92.4667 78.5292 92.4789 80.7469C92.0001 80.7234 91.6125 80.7266 91.1361 80.7366C91.1748 79.6651 91.144 78.4004 91.1442 77.3167L91.1348 71.7917C91.6724 71.8147 92.2831 71.801 92.8265 71.7991C93.0787 72.0648 94.1371 73.6291 94.4025 74.0053C95.5678 75.6567 96.7776 77.3062 97.86 79.0098C97.7667 78.3299 97.7579 76.6448 97.7576 75.9426L97.7638 71.7927Z" fill="#7D7C7D"/>
<path d="M24.8715 71.7872C25.4327 71.8142 26.0247 71.7991 26.5891 71.7946C27.1795 73.0073 27.8674 74.7508 28.407 76.0166C29.0385 77.4977 29.8616 79.2656 30.4065 80.7338C29.894 80.7219 29.4032 80.7283 28.8912 80.7362C28.5255 79.9673 28.1231 78.942 27.7922 78.145L26.8211 78.1308C25.7807 78.1279 24.7518 78.1276 23.7113 78.1436C23.394 78.9867 23.004 79.8974 22.6615 80.738C22.1758 80.7194 21.681 80.7272 21.1943 80.729L24.8715 71.7872ZM24.1203 76.9699L25.9197 76.9726L27.368 76.9671C27.1656 76.4996 25.771 73.0272 25.6643 72.9015C25.3363 74.0229 24.5833 75.8571 24.1203 76.9699Z" fill="#7D7C7D"/>
<path d="M66.3859 71.6635C68.3705 71.4559 70.1425 71.9846 70.6122 74.0987C70.1903 74.0916 69.5862 74.0743 69.1797 74.1179C68.7162 72.9749 68.1852 72.8037 67.0089 72.7492C66.1525 72.7094 64.9247 73.0107 65.0123 74.0936C65.1152 75.3681 67.2989 75.3351 68.2194 75.646C68.9597 75.8857 69.6343 76.0374 70.2287 76.5715C71.1313 77.3589 71.0723 79.0261 70.2638 79.8689C69.4819 80.6842 68.2694 80.8597 67.1929 80.8904C65.1676 80.9291 63.5478 80.2289 63.1484 78.1089C63.5762 78.144 64.1327 78.1383 64.5568 78.1117C65.267 79.716 66.2079 79.8698 67.8826 79.7399C68.7316 79.6742 69.595 79.0619 69.3911 78.1177C69.111 76.8212 67.0614 76.8004 66.0444 76.4978C65.4356 76.3185 64.9085 76.1954 64.3845 75.8321C63.346 75.1975 63.3496 73.6819 63.9994 72.7683C64.5061 72.056 65.532 71.7716 66.3859 71.6635Z" fill="#7D7C7D"/>
<path d="M32.2516 71.7879C32.6547 71.8027 33.0598 71.8085 33.4631 71.8046C35.5403 71.7845 37.6339 71.8422 39.7093 71.7869C39.6776 72.1243 39.6896 72.5933 39.6885 72.9416C37.7609 75.1372 35.8061 77.4055 33.853 79.5724C35.207 79.5377 36.6028 79.5866 37.96 79.5683C38.6319 79.5593 39.3376 79.5903 40.0043 79.5342C39.9354 79.8843 39.8786 80.2704 39.8187 80.625L39.7705 80.7113C39.6297 80.7533 38.2178 80.7195 37.9409 80.7235C35.9779 80.7526 33.9431 80.6774 31.9863 80.7395L31.9964 79.6833C32.3501 79.1853 33.3801 78.0815 33.8411 77.5568L37.8769 72.9671C36.0203 73.0081 34.1151 72.9533 32.2465 72.9796C32.2653 72.5485 32.2669 72.219 32.2516 71.7879Z" fill="#7D7C7D"/>
<path d="M72.1745 71.7949C74.6595 71.8502 77.6409 71.8412 80.1248 71.7897C80.1099 72.2232 80.1087 72.5874 80.1167 73.0198C79.3037 72.9216 77.7241 72.9936 76.8366 72.9802C76.8623 74.4375 76.8427 75.9492 76.8433 77.4107C76.8414 78.4825 76.8161 79.692 76.8662 80.7498C76.3667 80.7149 75.9142 80.7227 75.4162 80.7423C75.4518 78.1865 75.4194 75.5532 75.42 72.9909C74.4777 72.9777 73.0905 72.942 72.167 73.0154C72.2064 72.5704 72.1956 72.2406 72.1745 71.7949Z" fill="#7D7C7D"/>
<path d="M82.9419 29.4125C83.0994 29.4655 83.1062 29.8334 83.154 30.0081C83.2976 30.5333 83.3573 31.0138 83.5609 31.529C83.7777 32.0779 84.5362 32.386 84.6174 32.9832C84.5979 33.7742 83.6039 35.3383 82.7161 35.3722C82.5289 35.3793 82.419 35.3293 82.294 35.2054C81.8212 34.7743 81.5474 35.3569 81.0011 35.1191C80.8602 35.061 80.8086 34.8591 80.7952 34.7172C80.6787 33.4757 80.8209 32.1428 80.442 30.9283L80.4209 30.8621C81.7067 30.6031 81.9003 30.2132 82.9419 29.4125Z" fill="black"/>
<path d="M71.5015 31.5305L71.5848 31.5653C72.8348 33.1806 73.0221 33.63 72.9595 35.5578C72.2234 35.9648 71.7039 36.0432 70.8716 36.0424C70.4934 35.9581 70.4444 35.9663 70.2445 35.6239C70.1911 35.5325 70.0419 35.5515 69.9433 35.5695C69.2834 35.7329 69.3092 34.863 69.5511 34.511C70.257 33.4832 70.9622 32.6853 71.5015 31.5305Z" fill="black"/>
</g>
<defs>
<clipPath id="clip0_2795_22345">
<rect width="100.43" height="82.6453" fill="white" transform="translate(0.133789 0.583862)"/>
</clipPath>
</defs>
</svg>
