<svg width="191" height="49" viewBox="0 0 191 49" fill="none" xmlns="http://www.w3.org/2000/svg">
<g clip-path="url(#clip0_2795_22249)">
<path fill-rule="evenodd" clip-rule="evenodd" d="M180.308 24.9251H175.119V16.2775C175.119 16.0304 175.366 15.7833 175.86 15.7833H180.308C183.767 15.7833 185.99 17.2658 185.99 20.4777C185.99 23.1956 183.767 24.9251 180.308 24.9251ZM180.802 11.8301H171.66C171.166 11.8301 170.672 12.0772 170.672 12.5714V36.2905C170.672 36.7846 171.166 37.2788 171.66 37.2788H174.625C174.872 37.2788 175.119 37.0317 175.119 36.5376V29.1253H180.308C185.743 29.1253 190.438 25.9134 190.438 20.2307C190.438 15.0421 186.731 11.8301 180.802 11.8301ZM83.9486 22.9485H74.3127C74.0656 22.9485 73.8186 23.1956 73.8186 23.4426V26.4075C73.8186 26.6546 74.0656 26.9017 74.3127 26.9017H80.2425V31.5961C78.76 32.8314 76.5364 33.5727 74.0656 33.5727C68.8771 33.5727 65.418 29.6195 65.418 24.4309C65.418 19.4894 69.1242 15.2892 73.8186 15.2892C76.7835 15.2892 78.513 16.2775 80.4896 17.7599L80.7366 18.007C80.9837 18.007 81.2308 17.7599 81.2308 17.7599L82.9603 15.5363C83.2074 15.2892 83.2074 15.0421 83.2074 14.795C83.2074 14.548 83.2074 14.3009 82.9603 14.0538C80.4896 12.3243 77.7717 11.336 73.8186 11.336C66.1593 11.336 60.7236 17.2658 60.7236 24.4309C60.7236 31.8432 65.9122 37.7729 74.0656 37.7729C78.2659 37.7729 81.972 36.0434 84.4427 33.8197C84.4427 33.8197 84.6898 33.5727 84.6898 33.3256V23.4426C84.6898 23.1956 84.4427 22.9485 83.9486 22.9485ZM93.5845 24.4309V16.2775C93.5845 16.0304 94.0786 15.7833 94.3257 15.7833H100.255C103.467 15.7833 105.444 17.2658 105.444 19.9836C105.444 22.7014 103.467 24.4309 100.255 24.4309H93.5845ZM110.138 36.2905L103.962 27.6429C107.668 26.6546 110.138 23.9368 110.138 19.7365C110.138 15.0421 106.679 11.8301 100.503 11.8301H90.1255C89.6313 11.8301 89.1372 12.0772 89.1372 12.5714V36.2905C89.1372 36.7846 89.6313 37.2788 90.1255 37.2788H93.0903C93.3374 37.2788 93.5845 37.0317 93.5845 36.5376V28.3841H99.2672L105.197 36.7846C105.444 37.0317 105.691 37.2788 106.185 37.2788H109.891C110.138 37.2788 110.386 37.0317 110.386 36.5376C110.386 36.5376 110.386 36.2905 110.138 36.2905ZM126.692 33.5727C121.504 33.5727 118.045 29.3724 118.045 24.4309C118.045 19.4894 121.504 15.2892 126.445 15.2892C131.634 15.2892 135.093 19.4894 135.093 24.4309C135.093 29.6195 131.634 33.5727 126.692 33.5727ZM126.692 11.336C118.786 11.336 113.35 17.2658 113.35 24.4309C113.35 31.8432 118.786 37.7729 126.445 37.7729C134.352 37.7729 140.034 31.5961 140.034 24.4309C140.034 17.2658 134.352 11.336 126.692 11.336ZM164.495 11.8301H161.53C161.283 11.8301 161.036 12.0772 161.036 12.3243V26.4075C161.036 31.1019 158.565 33.5727 154.612 33.5727C150.659 33.5727 148.188 30.8549 148.188 26.1604V12.3243C148.188 12.0772 147.941 11.8301 147.694 11.8301H144.729C144.235 11.8301 143.741 12.0772 143.741 12.5714V26.4075C143.741 33.8197 147.941 37.5259 154.612 37.5259C161.283 37.5259 165.483 33.8197 165.483 26.1604V12.5714C165.483 12.0772 164.989 11.8301 164.495 11.8301Z" fill="#191850"/>
<path d="M26.8742 19.2427C26.8742 17.5131 25.3917 16.5248 23.168 16.5248H18.7207C18.4736 16.5248 18.2266 16.7719 18.2266 17.019V21.9605H22.6739C25.1446 21.9605 26.8742 21.2192 26.8742 19.2427Z" fill="#191850"/>
<path d="M23.9093 26.6541H18.2266V31.8426C18.2266 32.0897 18.4736 32.3368 18.7207 32.3368H24.1563C26.6271 32.3368 28.1095 31.5955 28.1095 29.6189C28.1095 27.8894 26.8742 26.6541 23.9093 26.6541Z" fill="#191850"/>
<path d="M38.2398 45.4321C35.0279 46.6675 31.3218 47.4087 27.8627 47.4087C24.1566 47.4087 20.4505 46.6675 17.2385 45.4321C8.59095 42.4672 1.91994 35.5491 1.91994 24.4308C1.91994 13.5595 8.59095 6.39438 17.2385 3.42949C20.4505 2.19412 24.1566 1.69997 27.8627 1.69997C31.3218 1.69997 35.0279 2.19412 38.2398 3.42949C46.8874 6.39438 53.5584 13.5595 53.5584 24.4308C53.5584 35.5491 46.8874 42.4672 38.2398 45.4321ZM0.4375 24.4308C0.4375 56.5504 55.0409 56.5504 55.0409 24.4308C55.0409 -7.44177 0.4375 -7.44177 0.4375 24.4308Z" fill="#191850"/>
<path d="M42.6871 36.2907C42.6871 37.0319 42.4401 37.279 41.6988 37.279H37.7456C37.2515 37.279 37.0044 37.0319 37.0044 36.7848V12.0774C37.0044 11.8303 37.2515 11.5833 37.7456 11.5833H41.6988C42.4401 11.5833 42.6871 12.0774 42.6871 12.5716V36.2907ZM24.1566 37.279H13.7795C13.0382 37.279 12.7912 37.0319 12.7912 36.2907V12.5716C12.7912 12.0774 13.0382 11.5833 13.7795 11.5833H23.9095C28.1098 11.5833 32.31 13.5599 32.31 18.2543C32.31 21.2192 30.8276 22.9487 29.0981 23.937C32.0629 24.9253 33.7925 26.6548 33.7925 30.3609C33.7925 35.0553 30.0864 37.279 24.1566 37.279ZM37.9927 4.66519C34.7808 3.42982 31.3217 2.93567 27.8627 2.93567C24.1566 2.93567 20.6975 3.42982 17.4856 4.66519C9.33213 7.383 3.15527 14.054 3.15527 24.4311C3.15527 34.8082 9.33213 41.4792 17.4856 44.4441C20.6975 45.4324 24.1566 46.1736 27.8627 46.1736C31.3217 46.1736 34.7808 45.4324 37.9927 44.4441C46.1462 41.4792 52.323 34.8082 52.323 24.4311C52.323 14.054 46.1462 7.383 37.9927 4.66519Z" fill="#191850"/>
</g>
<defs>
<clipPath id="clip0_2795_22249">
<rect width="190" height="48.0031" fill="white" transform="translate(0.4375 0.428833)"/>
</clipPath>
</defs>
</svg>
