<svg width="181" height="72" viewBox="0 0 181 72" fill="none" xmlns="http://www.w3.org/2000/svg">
<g clip-path="url(#clip0_2795_22289)">
<path fill-rule="evenodd" clip-rule="evenodd" d="M159.177 0.184571C187.408 0.184571 187.407 43.0732 159.176 43.074C130.947 43.074 130.947 0.185423 159.177 0.184571ZM55.2152 32.0477H73.0698L64.7005 8.02297L64.3838 8.02553L55.2152 32.0477ZM60.139 2.58709C61.8685 2.74118 63.9611 2.94849 62.8846 5.60428L50.8444 35.3144C49.5614 38.4814 48.2754 40.265 44.3213 40.7349V42.123H57.4155V40.7349C55.4604 40.5676 52.1116 40.1798 53.0013 37.8501L54.369 34.2668H73.8628L75.408 38.5857C76.1138 40.5561 74.2153 40.3842 71.7374 40.7353V42.1235H78.7551H78.7781C79.2578 42.1128 79.4349 41.7527 79.0233 40.6953L65.6094 3.33713H66.9162L80.4714 40.6081C80.8516 41.5795 81.0852 42.1077 81.771 42.1239H81.8042H87.9672V40.7358C84.0778 40.3118 82.8501 39.3872 81.619 36.0482L68.7594 1.19938H60.1399V2.58794L60.139 2.58709ZM24.8109 25.1986H40.3233V26.5927C36.674 26.9724 36.577 27.261 36.577 31.9839V37.301C36.577 38.6934 36.5484 38.9501 38.112 39.3647C38.0315 39.8244 37.9519 40.2837 37.8714 40.7421C36.7838 41.0193 35.6962 41.296 34.6086 41.5722C33.9812 41.7557 33.9029 41.5978 33.9029 40.425V27.3167H32.513V40.4633C32.513 41.8029 32.3998 42.0626 31.4165 42.2584C14.6938 46.0891 0.019042 38.5478 0.0871502 21.582C0.136954 8.84878 8.59344 0.301632 23.7224 0.0568685C28.418 -0.0189019 33.1618 0.999741 37.9468 2.71607C37.2053 5.51531 36.4633 8.31414 35.7222 11.1125C35.2774 11.1951 34.8321 11.2781 34.3873 11.3607C34.0655 6.61058 33.2852 4.69248 30.5881 3.31755C28.2959 2.14907 25.2825 1.75361 22.5122 1.75361C12.4471 1.56163 7.35642 9.60138 7.34961 20.9546C7.34152 33.9445 13.3985 41.7531 24.1442 41.6906C30.7239 41.6522 29.813 38.8355 29.8819 33.8428C29.8994 32.6334 29.9156 31.4237 29.9322 30.2135C29.9322 27.0899 28.1916 26.6821 24.8138 26.5846C24.813 26.1223 24.8121 25.66 24.8113 25.1982L24.8109 25.1986ZM6.08919 10.6511C0.875928 18.4061 2.6842 28.5725 6.87839 33.6866C3.96251 26.33 3.59345 18.4708 6.08919 10.6511ZM93.3285 42.1081H100.294C101.053 42.1081 101.213 41.7412 101.187 41.0882V3.28775H102.528V41.0631C102.528 41.8221 102.71 42.1081 103.586 42.1081H110.438V40.7047C106.593 40.4506 105.33 40.726 105.33 36.2015C105.295 32.0307 105.259 28.1017 105.223 23.9322C105.223 23.6223 105.34 23.4188 105.721 23.4188H110.241C111.243 23.4188 111.314 23.6036 111.701 24.2527C118.544 36.1798 127.18 46.5794 142.382 48.1702C142.444 47.8386 142.504 47.507 142.565 47.1762C131.365 44.7439 125.031 33.8083 118.402 22.8114C118.091 22.3389 118.137 21.9566 118.584 21.7097C123.054 19.357 125.705 15.5966 125.705 11.0453C125.612 3.72535 119.233 1.19811 108.964 1.19811H93.329V2.57559C96.6518 2.61305 98.4184 3.1128 98.4184 6.12701V36.9881C98.4184 40.7141 96.6867 40.4816 93.329 40.7136V42.1073L93.3285 42.1081ZM119.599 4.96066C124.188 7.75607 124.471 12.8953 121.134 17.1742C122.633 12.9608 122.611 8.7296 119.599 4.96066ZM114.251 23.5525C114.774 23.4218 115.27 23.2669 115.749 23.0923C119.245 29.755 122.928 35.3931 126.854 39.692C123.048 36.8238 118.846 31.4633 114.251 23.5525H114.251ZM105.23 20.8767C105.216 21.2321 105.348 21.405 105.728 21.405H111.261C116.458 21.405 119.78 17.7624 119.715 12.5173C119.634 6.02527 115.876 2.94466 109.228 2.91741H106.421C105.665 2.91741 105.401 3.1907 105.401 3.94329C105.344 9.58776 105.287 15.2327 105.23 20.8767H105.23ZM143.631 11.3922C139.024 19.0901 139.766 29.8742 147.382 36.2781C141.932 29.1591 140.624 19.7784 143.631 11.3922ZM171.066 7.06605C176.452 14.1944 177.721 23.6108 174.683 31.9468C179.986 23.1753 177.771 12.7965 171.066 7.06605ZM159.178 40.2535C150.478 39.8189 145.749 31.2636 144.956 22.4615C144.068 12.6169 148.197 2.46024 159.178 3.0051V2.98382C168.464 3.44866 173.281 13.1677 173.501 22.5602C173.717 31.8085 169.494 40.7443 159.178 40.2322V40.253V40.2535Z" fill="#C69C6D"/>
<path d="M23.7214 0.0573605C8.59246 0.302124 0.136403 8.84928 0.0861736 21.5825C0.0180654 38.5483 14.6928 46.0896 31.4151 42.2585C32.3988 42.0635 32.5116 41.803 32.5116 40.4638V27.3172H33.9019V40.4255C33.9019 41.5978 33.9798 41.7562 34.6077 41.5727C35.6953 41.2964 36.7829 41.0198 37.8705 40.7426C37.9509 40.2833 38.0305 39.8245 38.1106 39.3652C36.5475 38.9505 36.576 38.6939 36.576 37.3015V31.9844C36.576 27.2615 36.6735 26.9733 40.3224 26.5932V25.1991H24.8099C24.8107 25.6614 24.8116 26.1236 24.8124 26.5855C28.1906 26.683 29.9312 27.0908 29.9312 30.2148C29.9142 31.4246 29.898 32.6339 29.8805 33.8437C29.8116 38.8365 30.7225 41.6532 24.1428 41.6915C13.3975 41.7541 7.34012 33.9454 7.34821 20.9555C7.35502 9.6023 12.4457 1.56255 22.5108 1.75411C25.2811 1.75411 28.2945 2.14956 30.5867 3.31847C33.2838 4.69298 34.0641 6.6115 34.3859 11.3616C34.8307 11.279 35.276 11.196 35.7208 11.1134C36.4619 8.31463 37.2039 5.51581 37.9454 2.71699C33.3277 1.06025 28.7474 0.0539551 24.2131 0.0539551C24.0492 0.0539551 23.8853 0.0552321 23.721 0.0577862L23.7214 0.0573605ZM6.08778 10.6516C3.59204 18.4713 3.9611 26.3305 6.87699 33.6871C2.68322 28.573 0.8741 18.407 6.08778 10.6516ZM159.175 43.0745C187.406 43.0736 187.407 0.184638 159.176 0.184638C130.946 0.185915 130.946 43.0745 159.175 43.0745ZM159.176 2.98474C168.462 3.44915 173.28 13.1686 173.499 22.5612C173.715 31.8094 169.493 40.7452 159.176 40.2331V40.254C150.476 39.8189 145.747 31.2645 144.954 22.4616C144.067 12.6174 148.196 2.46073 159.176 3.00559V2.98431V2.98474ZM171.064 7.06697C177.77 12.7974 179.985 23.1767 174.681 31.9482C177.72 23.6109 176.451 14.1949 171.064 7.06697ZM143.63 11.3931C140.622 19.7798 141.93 29.16 147.381 36.279C139.764 29.8747 139.022 19.091 143.63 11.3931ZM93.3267 1.19945V2.57694C96.65 2.6144 98.417 3.11414 98.417 6.12836V36.9895C98.417 40.7154 96.6849 40.483 93.3267 40.715V42.1086H100.293C101.052 42.1086 101.211 41.7417 101.186 41.0891V3.28824H102.527V41.0636C102.527 41.8226 102.708 42.1086 103.585 42.1086H110.437V40.7052C106.592 40.4511 105.329 40.7265 105.329 36.202C105.293 32.0312 105.258 28.1022 105.222 23.9327C105.222 23.6224 105.338 23.4193 105.72 23.4193H110.24C111.241 23.4193 111.313 23.6041 111.7 24.2532C118.543 36.1802 127.178 46.5795 142.381 48.1707C142.443 47.8391 142.503 47.5075 142.563 47.1767C131.364 44.7444 125.03 33.8084 118.401 22.8119C118.09 22.339 118.136 21.9571 118.583 21.7102C123.053 19.3575 125.703 15.5975 125.703 11.0458C125.61 3.72584 119.231 1.1986 108.963 1.1986H93.3272L93.3267 1.19945ZM105.229 20.8772C105.285 15.2336 105.342 9.58868 105.399 3.94421C105.399 3.19162 105.662 2.91833 106.419 2.91833H109.226C115.874 2.94557 119.633 6.02577 119.713 12.5182C119.778 17.7634 116.456 21.4059 111.258 21.4059H105.726C105.346 21.4059 105.214 21.2335 105.228 20.8772H105.229ZM119.597 4.96158C124.187 7.75657 124.47 12.8962 121.133 17.1751C122.632 12.9617 122.61 8.73051 119.597 4.96158ZM114.249 23.5534C114.773 23.4232 115.269 23.2678 115.748 23.0933C119.244 29.7559 122.926 35.3944 126.852 39.6929C123.047 36.8247 118.845 31.4642 114.25 23.5534H114.249ZM60.138 1.19945V2.58801C61.8671 2.7421 63.9602 2.9494 62.8836 5.6052L50.8438 35.3148C49.5604 38.4823 48.2744 40.2659 44.3203 40.7358V42.124H57.4141V40.7358C55.4598 40.5685 52.1106 40.1808 52.9999 37.851L54.3676 34.2677H73.8618L75.407 38.5866C76.1128 40.557 74.2143 40.3851 71.7364 40.7363V42.1244H78.7541H78.7771C79.2569 42.1137 79.4339 41.7541 79.0223 40.6962L65.6084 3.33805H66.9152L80.4709 40.609C80.8502 41.5808 81.0843 42.1086 81.77 42.1248H81.8032H87.9662V40.7367C84.0768 40.3127 82.8491 39.3881 81.6181 36.0491L68.7584 1.2003H60.1389L60.138 1.19945ZM64.3824 8.02645L64.6996 8.02389L73.0688 32.0486H55.2142L64.3824 8.02645Z" fill="#C69C6D"/>
<path fill-rule="evenodd" clip-rule="evenodd" d="M44.0576 69.6285V69.9584H47.7584V69.6238C47.4507 69.5847 47.2706 69.5404 47.0731 69.4846C46.7028 69.3803 46.6615 69.1352 46.6606 68.7844L46.641 63.9062C46.641 63.638 46.8258 63.4528 47.0318 63.2885C47.5265 62.9173 48.1228 62.7526 48.4727 62.7526C49.7072 62.7526 50.2342 63.6265 50.2431 64.2139L50.3057 68.641C50.3129 69.1756 50.2231 69.3889 49.9545 69.4846C49.7102 69.5715 49.574 69.5877 49.2036 69.6285V69.9584L52.9198 69.9571V69.6247C52.512 69.583 52.3383 69.5144 52.1157 69.4221C51.9548 69.3548 51.8288 69.1965 51.8288 68.9491L51.8079 65.1202C51.8062 64.6251 51.7875 64.1118 51.7249 63.6997C51.7249 63.6588 51.7249 63.5554 51.767 63.5154C52.3843 62.9786 52.9815 62.7739 53.5161 62.7739C54.7719 62.7739 55.3508 63.5882 55.3687 64.3599L55.4521 68.0642C55.4704 68.9078 55.4496 69.3161 55.1839 69.4225C54.9362 69.5217 54.7642 69.5519 54.3522 69.6136L54.3539 69.9576L58.0539 69.9588V69.6221C57.5384 69.5634 57.2987 69.5161 57.0982 69.3403C56.9782 69.2356 56.9556 69.0726 56.9548 68.8878L56.9135 64.8529C56.8952 62.9173 56.1106 61.7446 54.5876 61.7446C53.7643 61.7446 52.7555 62.2997 51.6644 63.1438C51.6444 63.1646 51.5614 63.1851 51.541 63.1225C51.1711 62.3201 50.4291 61.7446 49.482 61.7446C48.8235 61.7446 47.8772 62.1975 46.7236 63.1225C46.7028 63.1438 46.6419 63.102 46.6419 63.0616C46.6419 62.7734 46.6615 61.9502 46.6615 61.7854C46.6615 61.7646 46.6202 61.7233 46.6002 61.7233L44.2121 62.5253L44.1296 62.8352C44.4177 62.8969 44.8298 62.999 45.0145 63.2259C45.1793 63.432 45.201 63.7827 45.1997 63.9062L45.1384 68.5371C45.1333 68.9683 45.0924 69.3484 44.7468 69.4634C44.5361 69.5327 44.4288 69.5872 44.058 69.6285H44.0576ZM118.458 69.62C118.092 69.58 117.976 69.5459 117.782 69.4817C117.491 69.3846 117.347 69.1918 117.348 68.7584L117.369 61.6867L114.908 62.3069V62.6181C115.28 62.7206 115.55 62.7828 115.735 63.0105C115.859 63.1757 115.859 63.3008 115.859 63.4234L115.838 68.6133C115.838 69.1905 115.71 69.3501 115.466 69.46C115.255 69.5553 115.034 69.6051 114.745 69.626V69.9567H118.458V69.6196L118.458 69.62ZM116.562 58.4426C117.058 58.4426 117.461 58.8453 117.461 59.3416C117.461 59.838 117.058 60.2407 116.562 60.2407C116.065 60.2407 115.663 59.838 115.663 59.3416C115.663 58.8453 116.065 58.4426 116.562 58.4426ZM119.606 69.6264V69.9571H123.337V69.6238C123.005 69.5817 122.799 69.5119 122.611 69.4399C122.367 69.3476 122.243 69.2122 122.239 68.6137L122.196 64.1471C122.194 63.7129 122.259 63.5477 122.404 63.403C122.9 62.9484 123.479 62.7206 124.078 62.7206C124.699 62.7206 125.071 62.9071 125.339 63.1761C125.732 63.5273 125.935 64.1428 125.939 64.4995L125.98 68.8614C125.983 69.1718 125.876 69.3982 125.547 69.5025C125.423 69.5417 125.229 69.5851 124.857 69.6264V69.9571H128.585V69.6187C128.247 69.577 128.012 69.5153 127.759 69.3991C127.551 69.3365 127.49 69.1713 127.49 68.9232L127.468 65.1189C127.463 64.1271 127.345 63.3404 126.972 62.7624C126.559 62.1 125.959 61.7075 125.132 61.7075C124.491 61.7075 123.54 62.0587 122.279 63.0718C122.238 63.0927 122.196 63.0514 122.196 62.9901C122.217 62.6385 122.238 62.1834 122.279 61.7701C122.279 61.728 122.238 61.6867 122.217 61.6867L119.798 62.472V62.7798C120.55 62.9973 120.707 63.1378 120.707 63.3821V68.6546C120.707 69.047 120.602 69.3757 120.315 69.4812C120.108 69.5591 119.874 69.6051 119.605 69.626L119.606 69.6264ZM100.962 62.2486L101.561 62.3554C102.051 62.4427 102.211 62.6989 102.533 63.7201L104.517 70.0189L105.2 69.998L107.309 64.5025C107.336 64.4323 107.371 64.4812 107.392 64.5025L109.48 70.0393L110.162 69.998L112.622 63.2996C112.868 62.63 113.015 62.4933 113.594 62.3482C113.759 62.2865 113.862 62.2865 114.008 62.2443V61.9348H110.74V62.2533C111.02 62.2971 111.356 62.3724 111.568 62.4303C111.96 62.5342 112.052 62.7756 111.94 63.1135L110.348 67.9092C110.335 67.9522 110.285 67.9092 110.265 67.9092L108.238 62.3682L107.515 62.389L105.489 67.8266C105.489 67.8671 105.469 67.8466 105.426 67.8466L103.856 62.7819C103.8 62.5993 103.856 62.4508 104.104 62.389C104.224 62.3482 104.482 62.3073 104.724 62.2486V61.9344H100.961V62.2477L100.962 62.2486ZM86.386 60.4267C86.386 61.6458 86.8823 62.4516 87.5851 63.2383C87.606 63.2587 87.606 63.3 87.5634 63.3413C80.702 68.1169 88.3709 73.3489 92.8661 67.8654C95.0694 69.8154 95.7173 70.2773 95.607 71.7543C96.9487 70.2896 96.8504 68.8304 95.8377 68.1144L93.8481 66.4938C94.4764 65.5084 95.0196 64.4685 95.5449 63.569C95.7505 63.2391 95.9582 62.9914 96.4128 62.8449L97.1165 62.7049V62.3703H93.5182V62.704C93.9635 62.7645 94.2857 62.8054 94.4696 62.8875C94.8008 63.0322 94.8416 63.28 94.6973 63.6725C94.4547 64.4544 94.0541 65.3709 93.5186 66.2252L89.3445 62.8237C90.6679 62.0992 91.927 61.3363 91.927 59.7647C91.927 56.3751 86.3864 56.6884 86.3864 60.4271L86.386 60.4267ZM92.5102 67.5487C88.6055 71.7241 83.6493 66.3955 87.9946 63.5946L92.5102 67.5487ZM90.7066 59.8065C90.7066 60.8604 90.1073 61.7493 89.0946 62.535C89.0533 62.5763 88.9907 62.535 88.9907 62.535C88.1019 61.7493 87.543 60.7157 87.543 59.7435C87.543 57.1145 90.7066 57.2256 90.7066 59.8065ZM76.163 66.9106C76.1566 68.2276 76.1843 68.764 76.4316 69.2582C76.7398 69.8958 77.3774 70.1227 78.0364 70.1227C78.654 70.1227 79.4364 69.8754 79.9298 69.216L79.9719 68.8674C79.6625 69.0726 79.3543 69.1952 78.8383 69.1952C78.3246 69.1952 77.9133 68.9491 77.749 68.4758C77.666 68.291 77.6035 67.899 77.6035 67.2396V66.9106L77.672 62.7777L79.7659 62.8147L79.9298 61.9506L77.6831 62.0877L77.7282 59.3352L76.1843 60.3228L76.1791 62.1796L75.2367 62.2375L75.0728 62.7317L76.177 62.7517L76.163 66.9106ZM71.6406 64.9027C71.6389 64.9431 71.558 65.0729 71.518 65.0874L67.7099 66.4674C67.606 66.6722 67.483 67.7543 67.483 67.9194C67.483 68.6405 67.7503 69.2782 68.162 69.6894C68.4506 69.9789 68.8205 70.1427 69.2121 70.1427C69.6237 70.1427 70.6122 69.669 71.4971 69.0722C71.518 69.0513 71.5801 69.0722 71.5801 69.1143C71.601 69.2578 71.6614 69.5251 71.7236 69.6485C71.9083 69.9784 72.1765 70.1427 72.6916 70.1427C73.1649 70.1427 73.823 69.9367 74.2964 69.4016C74.3377 69.3612 74.3794 69.0517 74.3794 68.9904C74.1325 69.0726 74.0086 69.093 73.6791 69.093C73.0823 69.093 72.9325 68.5579 72.9389 68.1872L72.9998 64.7911C73.0108 64.153 72.9185 63.3077 72.5677 62.7739C72.1557 62.1145 71.518 61.7446 70.6939 61.7446C69.5224 61.7446 68.1202 62.6517 67.7099 63.9066L68.2662 64.4421C69.1478 61.5637 71.816 62.326 71.6406 64.9031V64.9027ZM71.621 65.6616L71.5797 68.3511C71.578 68.5545 71.4967 68.7014 71.3941 68.784C71.0438 68.99 70.6122 69.0926 70.3235 69.0926C69.4786 69.0926 68.9035 68.4549 68.9035 67.5904C68.9035 67.4056 68.9669 66.5947 69.0469 66.5636L71.558 65.6204C71.5797 65.5999 71.621 65.6429 71.621 65.6616ZM136.335 68.1246C135.593 68.8253 134.873 68.99 134.091 68.99C133.226 68.99 132.445 68.7014 131.825 67.9399C131.374 67.3839 131.08 66.4789 131.065 65.6761C131.063 65.5757 131.107 65.4526 131.188 65.4488L136.281 65.1896C136.381 63.566 135.348 61.7437 133.556 61.7437C133.02 61.7437 132.012 62.031 131.455 62.4018C130.364 63.082 129.685 64.3369 129.685 66.0047C129.685 67.1166 129.974 68.3102 130.756 69.1552C131.311 69.772 132.135 70.1423 133.164 70.1423C134.174 70.1423 135.388 69.6072 136.376 68.5367L136.336 68.1246H136.335ZM132.897 62.2784C134.09 62.2784 134.667 63.5754 134.791 64.6251C134.791 64.7077 134.711 64.7894 134.667 64.7907L131.187 64.9342C131.167 64.9342 131.126 64.8724 131.126 64.8111C131.208 63.1642 131.97 62.2784 132.897 62.2784ZM65.7254 68.1246C64.983 68.8253 64.2628 68.99 63.4808 68.99C62.6158 68.99 61.8347 68.7014 61.2153 67.9399C60.7641 67.3839 60.4704 66.4789 60.4547 65.6761C60.453 65.5757 60.4964 65.4526 60.5773 65.4488L65.6713 65.1896C65.7714 63.566 64.7378 61.7437 62.9453 61.7437C62.4102 61.7437 61.4018 62.031 60.8454 62.4018C59.754 63.082 59.0751 64.3369 59.0751 66.0047C59.0751 67.1166 59.3637 68.3102 60.1456 69.1552C60.7016 69.772 61.5252 70.1423 62.5537 70.1423C63.5638 70.1423 64.7778 69.6072 65.7654 68.5367L65.7258 68.1246H65.7254ZM62.2863 62.2784C63.4804 62.2784 64.0563 63.5754 64.1806 64.6251C64.1806 64.7077 64.1014 64.7894 64.0563 64.7907L60.5768 64.9342C60.5573 64.9342 60.5164 64.8724 60.5164 64.8111C60.5977 63.1642 61.3605 62.2784 62.2863 62.2784Z" fill="#C69C6D"/>
<path fill-rule="evenodd" clip-rule="evenodd" d="M159.177 0.184571C187.408 0.184571 187.407 43.0732 159.176 43.074C130.947 43.074 130.947 0.185423 159.177 0.184571ZM55.2152 32.0477H73.0698L64.7005 8.02297L64.3838 8.02553L55.2152 32.0477ZM60.139 2.58709C61.8685 2.74118 63.9611 2.94849 62.8846 5.60428L50.8444 35.3144C49.5614 38.4814 48.2754 40.265 44.3213 40.7349V42.123H57.4155V40.7349C55.4604 40.5676 52.1116 40.1798 53.0013 37.8501L54.369 34.2668H73.8628L75.408 38.5857C76.1138 40.5561 74.2153 40.3842 71.7374 40.7353V42.1235H78.7551H78.7781C79.2578 42.1128 79.4349 41.7527 79.0233 40.6953L65.6094 3.33713H66.9162L80.4714 40.6081C80.8516 41.5795 81.0852 42.1077 81.771 42.1239H81.8042H87.9672V40.7358C84.0778 40.3118 82.8501 39.3872 81.619 36.0482L68.7594 1.19938H60.1399V2.58794L60.139 2.58709ZM24.8109 25.1986H40.3233V26.5927C36.674 26.9724 36.577 27.261 36.577 31.9839V37.301C36.577 38.6934 36.5484 38.9501 38.112 39.3647C38.0315 39.8244 37.9519 40.2837 37.8714 40.7421C36.7838 41.0193 35.6962 41.296 34.6086 41.5722C33.9812 41.7557 33.9029 41.5978 33.9029 40.425V27.3167H32.513V40.4633C32.513 41.8029 32.3998 42.0626 31.4165 42.2584C14.6938 46.0891 0.019042 38.5478 0.0871502 21.582C0.136954 8.84878 8.59344 0.301632 23.7224 0.0568685C28.418 -0.0189019 33.1618 0.999741 37.9468 2.71607C37.2053 5.51531 36.4633 8.31414 35.7222 11.1125C35.2774 11.1951 34.8321 11.2781 34.3873 11.3607C34.0655 6.61058 33.2852 4.69248 30.5881 3.31755C28.2959 2.14907 25.2825 1.75361 22.5122 1.75361C12.4471 1.56163 7.35642 9.60138 7.34961 20.9546C7.34152 33.9445 13.3985 41.7531 24.1442 41.6906C30.7239 41.6522 29.813 38.8355 29.8819 33.8428C29.8994 32.6334 29.9156 31.4237 29.9322 30.2135C29.9322 27.0899 28.1916 26.6821 24.8138 26.5846C24.813 26.1223 24.8121 25.66 24.8113 25.1982L24.8109 25.1986ZM6.08919 10.6511C0.875928 18.4061 2.6842 28.5725 6.87839 33.6866C3.96251 26.33 3.59345 18.4708 6.08919 10.6511ZM93.3285 42.1081H100.294C101.053 42.1081 101.213 41.7412 101.187 41.0882V3.28775H102.528V41.0631C102.528 41.8221 102.71 42.1081 103.586 42.1081H110.438V40.7047C106.593 40.4506 105.33 40.726 105.33 36.2015C105.295 32.0307 105.259 28.1017 105.223 23.9322C105.223 23.6223 105.34 23.4188 105.721 23.4188H110.241C111.243 23.4188 111.314 23.6036 111.701 24.2527C118.544 36.1798 127.18 46.5794 142.382 48.1702C142.444 47.8386 142.504 47.507 142.565 47.1762C131.365 44.7439 125.031 33.8083 118.402 22.8114C118.091 22.3389 118.137 21.9566 118.584 21.7097C123.054 19.357 125.705 15.5966 125.705 11.0453C125.612 3.72535 119.233 1.19811 108.964 1.19811H93.329V2.57559C96.6518 2.61305 98.4184 3.1128 98.4184 6.12701V36.9881C98.4184 40.7141 96.6867 40.4816 93.329 40.7136V42.1073L93.3285 42.1081ZM119.599 4.96066C124.188 7.75607 124.471 12.8953 121.134 17.1742C122.633 12.9608 122.611 8.7296 119.599 4.96066ZM114.251 23.5525C114.774 23.4218 115.27 23.2669 115.749 23.0923C119.245 29.755 122.928 35.3931 126.854 39.692C123.048 36.8238 118.846 31.4633 114.251 23.5525H114.251ZM105.23 20.8767C105.216 21.2321 105.348 21.405 105.728 21.405H111.261C116.458 21.405 119.78 17.7624 119.715 12.5173C119.634 6.02527 115.876 2.94466 109.228 2.91741H106.421C105.665 2.91741 105.401 3.1907 105.401 3.94329C105.344 9.58776 105.287 15.2327 105.23 20.8767H105.23ZM143.631 11.3922C139.024 19.0901 139.766 29.8742 147.382 36.2781C141.932 29.1591 140.624 19.7784 143.631 11.3922ZM171.066 7.06605C176.452 14.1944 177.721 23.6108 174.683 31.9468C179.986 23.1753 177.771 12.7965 171.066 7.06605ZM159.178 40.2535C150.478 39.8189 145.749 31.2636 144.956 22.4615C144.068 12.6169 148.197 2.46024 159.178 3.0051V2.98382C168.464 3.44866 173.281 13.1677 173.501 22.5602C173.717 31.8085 169.494 40.7443 159.178 40.2322V40.253V40.2535Z" fill="#C69C6D"/>
<path d="M23.7214 0.0573605C8.59246 0.302124 0.136403 8.84928 0.0861736 21.5825C0.0180654 38.5483 14.6928 46.0896 31.4151 42.2585C32.3988 42.0635 32.5116 41.803 32.5116 40.4638V27.3172H33.9019V40.4255C33.9019 41.5978 33.9798 41.7562 34.6077 41.5727C35.6953 41.2964 36.7829 41.0198 37.8705 40.7426C37.9509 40.2833 38.0305 39.8245 38.1106 39.3652C36.5475 38.9505 36.576 38.6939 36.576 37.3015V31.9844C36.576 27.2615 36.6735 26.9733 40.3224 26.5932V25.1991H24.8099C24.8107 25.6614 24.8116 26.1236 24.8124 26.5855C28.1906 26.683 29.9312 27.0908 29.9312 30.2148C29.9142 31.4246 29.898 32.6339 29.8805 33.8437C29.8116 38.8365 30.7225 41.6532 24.1428 41.6915C13.3975 41.7541 7.34012 33.9454 7.34821 20.9555C7.35502 9.6023 12.4457 1.56255 22.5108 1.75411C25.2811 1.75411 28.2945 2.14956 30.5867 3.31847C33.2838 4.69298 34.0641 6.6115 34.3859 11.3616C34.8307 11.279 35.276 11.196 35.7208 11.1134C36.4619 8.31463 37.2039 5.51581 37.9454 2.71699C33.3277 1.06025 28.7474 0.0539551 24.2131 0.0539551C24.0492 0.0539551 23.8853 0.0552321 23.721 0.0577862L23.7214 0.0573605ZM6.08778 10.6516C3.59204 18.4713 3.9611 26.3305 6.87699 33.6871C2.68322 28.573 0.8741 18.407 6.08778 10.6516ZM159.175 43.0745C187.406 43.0736 187.407 0.184638 159.176 0.184638C130.946 0.185915 130.946 43.0745 159.175 43.0745ZM159.176 2.98474C168.462 3.44915 173.28 13.1686 173.499 22.5612C173.715 31.8094 169.493 40.7452 159.176 40.2331V40.254C150.476 39.8189 145.747 31.2645 144.954 22.4616C144.067 12.6174 148.196 2.46073 159.176 3.00559V2.98431V2.98474ZM171.064 7.06697C177.77 12.7974 179.985 23.1767 174.681 31.9482C177.72 23.6109 176.451 14.1949 171.064 7.06697ZM143.63 11.3931C140.622 19.7798 141.93 29.16 147.381 36.279C139.764 29.8747 139.022 19.091 143.63 11.3931ZM93.3267 1.19945V2.57694C96.65 2.6144 98.417 3.11414 98.417 6.12836V36.9895C98.417 40.7154 96.6849 40.483 93.3267 40.715V42.1086H100.293C101.052 42.1086 101.211 41.7417 101.186 41.0891V3.28824H102.527V41.0636C102.527 41.8226 102.708 42.1086 103.585 42.1086H110.437V40.7052C106.592 40.4511 105.329 40.7265 105.329 36.202C105.293 32.0312 105.258 28.1022 105.222 23.9327C105.222 23.6224 105.338 23.4193 105.72 23.4193H110.24C111.241 23.4193 111.313 23.6041 111.7 24.2532C118.543 36.1802 127.178 46.5795 142.381 48.1707C142.443 47.8391 142.503 47.5075 142.563 47.1767C131.364 44.7444 125.03 33.8084 118.401 22.8119C118.09 22.339 118.136 21.9571 118.583 21.7102C123.053 19.3575 125.703 15.5975 125.703 11.0458C125.61 3.72584 119.231 1.1986 108.963 1.1986H93.3272L93.3267 1.19945ZM105.229 20.8772C105.285 15.2336 105.342 9.58868 105.399 3.94421C105.399 3.19162 105.662 2.91833 106.419 2.91833H109.226C115.874 2.94557 119.633 6.02577 119.713 12.5182C119.778 17.7634 116.456 21.4059 111.258 21.4059H105.726C105.346 21.4059 105.214 21.2335 105.228 20.8772H105.229ZM119.597 4.96158C124.187 7.75657 124.47 12.8962 121.133 17.1751C122.632 12.9617 122.61 8.73051 119.597 4.96158ZM114.249 23.5534C114.773 23.4232 115.269 23.2678 115.748 23.0933C119.244 29.7559 122.926 35.3944 126.852 39.6929C123.047 36.8247 118.845 31.4642 114.25 23.5534H114.249ZM60.138 1.19945V2.58801C61.8671 2.7421 63.9602 2.9494 62.8836 5.6052L50.8438 35.3148C49.5604 38.4823 48.2744 40.2659 44.3203 40.7358V42.124H57.4141V40.7358C55.4598 40.5685 52.1106 40.1808 52.9999 37.851L54.3676 34.2677H73.8618L75.407 38.5866C76.1128 40.557 74.2143 40.3851 71.7364 40.7363V42.1244H78.7541H78.7771C79.2569 42.1137 79.4339 41.7541 79.0223 40.6962L65.6084 3.33805H66.9152L80.4709 40.609C80.8502 41.5808 81.0843 42.1086 81.77 42.1248H81.8032H87.9662V40.7367C84.0768 40.3127 82.8491 39.3881 81.6181 36.0491L68.7584 1.2003H60.1389L60.138 1.19945ZM64.3824 8.02645L64.6996 8.02389L73.0688 32.0486H55.2142L64.3824 8.02645Z" fill="#C69C6D"/>
</g>
<defs>
<clipPath id="clip0_2795_22289">
<rect width="180.264" height="71.7005" fill="white" transform="translate(0.0859375 0.0529785)"/>
</clipPath>
</defs>
</svg>
