<svg width="1140" height="424" viewBox="0 0 1140 424" fill="none" xmlns="http://www.w3.org/2000/svg">
<path d="M306.797 235.654H375.551C383.882 235.213 392.214 236.482 400.041 239.383C407.868 242.285 415.026 246.757 421.078 252.529C427.129 258.301 431.949 265.252 435.242 272.957C438.536 280.662 440.234 288.96 440.234 297.346C440.234 305.732 438.536 314.03 435.242 321.735C431.949 329.44 427.129 336.39 421.078 342.162C415.026 347.934 407.868 352.407 400.041 355.309C392.214 358.21 383.882 359.479 375.551 359.038H337.524V423.376H306.797V235.654ZM337.524 330.027H375.551C379.723 330.18 383.88 329.437 387.744 327.848C391.608 326.259 395.091 323.86 397.96 320.811C403.641 314.329 406.776 305.985 406.776 297.346C406.776 288.706 403.641 280.363 397.96 273.881C395.099 270.809 391.622 268.385 387.759 266.766C383.896 265.148 379.735 264.374 375.551 264.494H337.524V330.027Z" fill="#131C26"/>
<path d="M600.974 423.361H567.021L553.95 385.475H474.501L461.429 423.361H427.476L495.381 235.638H532.22L600.974 423.361ZM515.074 272.329L485.365 357.658H544.443L515.074 272.329Z" fill="#131C26"/>
<path d="M733.092 362.948V235.638H763.819V423.361H739.713L651.775 295.88V423.361H621.048V235.638H645.154L733.092 362.948Z" fill="#131C26"/>
<path d="M801.173 235.65H874.511C886.438 235.383 898.287 237.646 909.285 242.292C920.284 246.938 930.184 253.862 938.341 262.613C954.84 280.914 963.977 304.728 963.977 329.426C963.977 354.123 954.84 377.937 938.341 396.238C930.199 405.02 920.306 411.976 909.306 416.652C898.307 421.328 886.45 423.618 874.511 423.372H801.173V235.65ZM831.9 393.848H874.511C882.563 394.153 890.584 392.676 898.006 389.521C905.428 386.365 912.069 381.609 917.461 375.588C928.897 363.053 934.991 346.511 934.437 329.511C934.964 312.464 928.876 295.88 917.461 283.263C912.039 277.292 905.388 272.58 897.97 269.456C890.553 266.332 882.547 264.87 874.511 265.173H831.9V393.848Z" fill="#131C26"/>
<path d="M1139.86 423.361H1106.76L1093.68 385.475H1014.07L1000.99 423.361H967.041L1034.95 235.638H1071.78L1139.86 423.361ZM1053.79 272.329L1024.08 357.658H1083.33L1053.79 272.329Z" fill="#131C26"/>
<path d="M330.066 113.293L330.099 113.407C330.352 114.316 330.398 115.292 330.64 116.21C331.415 119.151 333.16 121.711 335.003 124.069C334.877 124.072 334.726 124.083 334.603 124.055C334.115 123.943 333.517 123.373 333.124 123.053C331.061 121.369 329.399 119.601 327.806 117.467C327.319 116.814 326.806 116.168 326.43 115.441C327.474 114.734 328.614 114.328 329.701 113.729C329.973 113.579 329.977 113.598 330.066 113.293Z" fill="#812609"/>
<path d="M424.312 140.804C425.859 142.562 427.65 144.062 429.359 145.654C430.793 146.992 432.185 148.43 433.519 149.869C433.757 150.125 433.991 150.383 434.223 150.644C434.454 150.906 434.682 151.17 434.907 151.437C435.132 151.704 435.353 151.974 435.571 152.247C435.789 152.52 436.003 152.796 436.214 153.074C436.425 153.352 436.632 153.633 436.835 153.917C437.039 154.201 437.239 154.487 437.435 154.776C437.632 155.065 437.824 155.356 438.013 155.65C438.202 155.944 438.387 156.24 438.569 156.539C438.75 156.837 438.928 157.138 439.101 157.441C439.275 157.745 439.445 158.05 439.611 158.357C439.777 158.665 439.939 158.975 440.097 159.286C417.313 159.059 429.359 166.272 432.106 167.184C430.023 166.249 426.107 165.506 423.806 165.136C423.067 165.017 420.598 164.933 420.114 164.653C420.08 164.632 420.047 164.61 420.013 164.589C421.988 164.119 424.032 163.561 425.951 162.894C424.423 161.789 422.807 161.657 420.977 161.949C417.923 162.437 415.188 164.214 412.842 166.143C412.902 163.416 412.976 161.737 412.137 159.059C411.72 160.314 411.317 161.574 410.929 162.838C410.735 163.472 410.574 164.412 410.256 164.969C409.78 166.958 409.128 170.277 408.344 172.051C407.501 173.961 406.322 175.695 405.554 177.659C405.24 178.461 404.958 179.274 404.709 180.099C404.453 180.976 404.266 181.927 403.84 182.74C403.446 183.49 402.622 184.053 402.023 184.645C401.364 185.297 403.08 172.41 402.714 173.259C402.05 174.799 401.948 176.362 402.021 178.017C402.047 178.62 402.12 179.264 402.031 179.863C401.883 180.857 399.117 172.618 398.702 173.527C397.298 176.599 395.349 180.103 392.406 181.911C390.337 159.74 388.103 183.564 385.904 183.842C385.336 183.914 384.615 184.061 384.053 183.916C383.845 183.862 383.742 183.815 383.632 183.623C383.12 182.723 384.12 179.094 384.124 177.852C382.183 179.679 381.653 181.551 381.392 184.128C380.356 184.056 377.193 183.975 376.534 183.263C376.117 182.814 376.247 181.638 376.322 181.064C376.453 180.07 377.263 178.708 377.019 177.778C376.865 177.674 376.86 177.671 376.685 177.71C375.994 177.864 375.433 178.57 375.09 179.157C374.408 180.327 374.285 181.638 374.007 182.934C373.132 182.373 372.339 181.744 372.09 180.668C371.767 179.269 372.338 177.726 373.099 176.573C373.968 175.256 375.413 174.31 376.124 172.932C376.91 171.407 379.55 178.138 379.878 176.421C380.618 172.552 378.921 182.439 379.528 178.548C379.9 176.164 380.354 173.795 380.731 171.413C380.85 170.663 380.937 169.909 380.99 169.152C381.03 168.597 380.966 167.875 381.125 167.352C381.125 166.911 381.172 166.427 381.027 166.006L380.901 165.976C379.897 167.079 378.406 172.919 378.095 174.543C377.514 177.01 377.097 179.519 376.575 181.999C372.957 180.672 370.267 179.138 367.313 176.66C366.887 176.302 366.216 175.868 365.9 175.432C364.255 173.758 362.608 172.064 361.183 170.192C360.317 169.054 359.604 167.718 358.647 166.663C358.647 167.808 358.721 168.956 359.058 170.054L358.964 170.247L358.838 170.216C358.471 169.533 358.105 168.842 357.648 168.214C357.092 167.451 356.432 166.761 355.899 165.981C355.412 165.27 355.019 164.482 354.604 163.727C353.869 164.064 353.33 164.645 352.619 165.021C352.064 165.315 351.395 165.415 350.799 165.614C351.335 162.96 350.852 160.793 350.432 158.179C350.24 156.943 350.098 155.702 350.006 154.454C349.802 151.933 349.931 149.44 350.077 146.921C350.133 146.682 350.128 146.566 350.308 146.394C350.561 146.385 350.689 146.408 350.915 146.522L351.82 146.965C357.159 143.493 357.362 143.037 363.378 145.523C364.596 146.026 365.76 146.638 367.015 147.052C371.119 148.406 375.443 149.247 379.766 148.694C381.605 148.459 383.427 148.014 385.236 147.608C387.573 147.083 389.985 146.55 392.229 145.691C393.434 145.23 394.347 144.319 395.495 143.759C395.74 143.639 395.995 143.556 396.259 143.49C397.182 143.259 398.158 143.377 399.086 143.206C399.915 143.053 400.679 142.625 401.518 142.5C403.079 142.269 404.93 143.005 406.498 143.186C408.97 143.473 411.36 143.301 413.827 143.113C417.079 142.865 419.108 142.745 422.247 141.619C422.942 141.37 423.653 141.14 424.312 140.804Z" fill="#F15F31"/>
<path d="M367.7 171.724C368.877 172.536 369.149 173.296 370.092 174.172C370.171 174.245 370.309 174.362 370.406 174.404C370.91 174.619 372.324 174.363 372.954 174.384C374.79 174.446 376.191 174.614 378.096 174.543C377.515 177.009 377.098 179.518 376.576 181.999C372.958 180.672 370.268 179.137 367.314 176.659C366.888 176.302 366.217 175.867 365.901 175.431C366.027 175.169 366.049 174.886 366.181 174.63C366.692 173.63 367.288 172.788 367.7 171.724Z" fill="#812609"/>
<path d="M348.058 171.555C348.206 172.127 348.081 173.01 348.094 173.624C348.121 174.847 348.188 176.074 348.262 177.294C348.385 179.303 348.717 181.323 348.975 183.32C348.373 182.792 347.847 182.133 347.284 181.557C346.398 180.718 345.468 180.04 344.468 179.349C345.203 176.888 346.297 173.401 348.058 171.555Z" fill="#812609"/>
<path d="M361.704 96.0156C361.726 96.0117 361.748 96.0083 361.77 96.0054C361.792 96.0027 361.814 96.0004 361.836 95.9987C361.859 95.997 361.881 95.9957 361.903 95.995C361.925 95.9944 361.948 95.9944 361.97 95.9948C361.992 95.9952 362.014 95.9962 362.037 95.9978C362.059 95.9994 362.081 96.0016 362.103 96.0043C362.125 96.0069 362.147 96.0101 362.169 96.0138C362.191 96.0176 362.213 96.0219 362.234 96.0268C362.256 96.0317 362.278 96.0372 362.299 96.0431C362.321 96.049 362.342 96.0554 362.363 96.0623C362.384 96.0693 362.405 96.0768 362.426 96.0849C362.447 96.0928 362.467 96.1013 362.488 96.1104C362.508 96.1195 362.528 96.129 362.548 96.139C362.568 96.1491 362.588 96.1596 362.607 96.1706C362.626 96.1816 362.645 96.1931 362.664 96.205C362.683 96.217 362.702 96.2294 362.72 96.2423C362.738 96.2551 362.756 96.2685 362.773 96.2823C362.791 96.2961 362.808 96.3102 362.825 96.3248C362.842 96.3395 362.858 96.3545 362.874 96.3698C362.89 96.3853 362.906 96.4011 362.921 96.4175C362.937 96.4336 362.952 96.4502 362.966 96.4673C362.981 96.4841 362.995 96.5014 363.008 96.519C363.022 96.5368 363.035 96.5547 363.048 96.5729C363.061 96.5913 363.073 96.6099 363.085 96.6288C363.097 96.6477 363.108 96.6669 363.119 96.6864C363.13 96.7059 363.141 96.7257 363.151 96.7457C363.161 96.7658 363.17 96.7861 363.179 96.8066C363.188 96.8269 363.196 96.8476 363.204 96.8685C363.212 96.8894 363.22 96.9105 363.227 96.9317C363.234 96.9529 363.24 96.9744 363.246 96.996C363.252 97.0177 363.257 97.0394 363.262 97.0612C363.267 97.083 363.271 97.1049 363.275 97.127C363.278 97.1491 363.281 97.1713 363.284 97.1935C363.287 97.2157 363.289 97.238 363.29 97.2602C363.292 97.2826 363.293 97.3049 363.293 97.3273C363.294 97.3497 363.294 97.372 363.293 97.3942C363.292 97.4166 363.291 97.439 363.289 97.4614C363.288 97.4836 363.285 97.5058 363.282 97.528C363.28 97.5503 363.276 97.5724 363.272 97.5943C363.268 97.6164 363.264 97.6383 363.259 97.6601C363.254 97.6819 363.248 97.7036 363.242 97.7251C363.236 97.7466 363.23 97.768 363.222 97.7892C363.215 97.8103 363.208 97.8313 363.199 97.8522C363.191 97.873 363.183 97.8935 363.174 97.9139C363.164 97.9343 363.155 97.9544 363.145 97.9743C363.134 97.9942 363.124 98.0139 363.113 98.0332C363.102 98.0527 363.09 98.0718 363.078 98.0906C363.066 98.1094 363.053 98.1278 363.04 98.146C363.027 98.1642 363.014 98.182 363 98.1995C362.986 98.2171 362.972 98.2343 362.957 98.251C362.943 98.2678 362.928 98.2842 362.912 98.3004C362.897 98.3164 362.881 98.3321 362.865 98.3474C362.848 98.3627 362.832 98.3776 362.815 98.392C362.798 98.4064 362.78 98.4204 362.762 98.434C362.745 98.4476 362.727 98.4607 362.709 98.4734C362.69 98.4861 362.672 98.4983 362.653 98.51C362.634 98.5219 362.615 98.5332 362.595 98.544C362.576 98.5548 362.556 98.5652 362.536 98.575C362.516 98.5848 362.496 98.5941 362.475 98.6029C362.455 98.6117 362.434 98.62 362.413 98.6278C362.393 98.6356 362.372 98.6429 362.35 98.6497C362.329 98.6565 362.308 98.6627 362.286 98.6685C362.265 98.6741 362.243 98.6793 362.221 98.6839C362.199 98.6885 362.178 98.6926 362.156 98.6962C362.134 98.6997 362.112 98.7027 362.09 98.7051C362.068 98.7076 362.046 98.7095 362.024 98.711C362.003 98.7123 361.98 98.7131 361.958 98.7133C361.936 98.7136 361.914 98.7133 361.892 98.7125C361.87 98.7118 361.849 98.7105 361.827 98.7086C361.805 98.7067 361.783 98.7042 361.761 98.7012C361.739 98.6983 361.717 98.6949 361.696 98.6908C361.674 98.6868 361.653 98.6822 361.631 98.6772C361.61 98.6721 361.588 98.6666 361.567 98.6605C361.546 98.6543 361.525 98.6477 361.504 98.6406C361.483 98.6334 361.463 98.6257 361.442 98.6176C361.422 98.6094 361.402 98.6007 361.382 98.5916C361.362 98.5824 361.342 98.5727 361.322 98.5626C361.303 98.5525 361.283 98.5419 361.264 98.5308C361.245 98.5197 361.226 98.5081 361.208 98.4962C361.189 98.4842 361.171 98.4718 361.153 98.4589C361.135 98.4459 361.118 98.4326 361.101 98.4189C361.083 98.4051 361.067 98.391 361.05 98.3764C361.033 98.3618 361.017 98.3468 361.001 98.3314C360.986 98.3161 360.97 98.3003 360.955 98.2842C360.94 98.268 360.925 98.2515 360.911 98.2346C360.897 98.2178 360.883 98.2007 360.87 98.1831C360.856 98.1656 360.843 98.1478 360.831 98.1296C360.818 98.1114 360.806 98.0929 360.794 98.0741C360.783 98.0554 360.771 98.0363 360.761 98.017C360.75 97.9976 360.74 97.9781 360.73 97.9583C360.72 97.9385 360.711 97.9184 360.702 97.8981C360.693 97.8779 360.685 97.8574 360.677 97.8366C360.669 97.816 360.662 97.7951 360.655 97.774C360.648 97.7529 360.642 97.7317 360.636 97.7104C360.63 97.6891 360.625 97.6677 360.62 97.6461C360.616 97.6244 360.612 97.6027 360.608 97.5809C360.604 97.5591 360.601 97.5372 360.598 97.5153C360.596 97.4932 360.594 97.4712 360.592 97.4492C360.591 97.4271 360.59 97.405 360.589 97.3828C360.589 97.3607 360.589 97.3386 360.589 97.3165C360.59 97.2944 360.591 97.2723 360.593 97.2502C360.595 97.2281 360.597 97.2061 360.599 97.1842C360.602 97.1623 360.606 97.1404 360.609 97.1186C360.613 97.0968 360.617 97.0751 360.622 97.0534C360.627 97.0319 360.633 97.0105 360.638 96.9891C360.644 96.9679 360.651 96.9467 360.658 96.9257C360.665 96.9047 360.672 96.8839 360.68 96.8633C360.688 96.8427 360.697 96.8222 360.705 96.802C360.714 96.7818 360.724 96.7618 360.734 96.742C360.744 96.7223 360.754 96.7028 360.765 96.6836C360.776 96.6642 360.787 96.6452 360.799 96.6266C360.81 96.6079 360.823 96.5895 360.836 96.5714C360.848 96.5534 360.861 96.5356 360.875 96.5181C360.888 96.5007 360.902 96.4836 360.916 96.4668C360.931 96.4499 360.946 96.4335 360.961 96.4175C360.976 96.4014 360.992 96.3858 361.008 96.3705C361.023 96.3553 361.04 96.3404 361.056 96.3259C361.073 96.3114 361.09 96.2974 361.107 96.2836C361.125 96.2701 361.142 96.2569 361.16 96.244C361.178 96.2313 361.196 96.219 361.215 96.2072C361.234 96.1952 361.253 96.1837 361.272 96.1728C361.291 96.1619 361.31 96.1515 361.33 96.1414C361.349 96.1314 361.369 96.1219 361.389 96.1128C361.409 96.1038 361.43 96.0953 361.45 96.0872C361.471 96.0792 361.491 96.0717 361.512 96.0647C361.533 96.0577 361.554 96.0512 361.575 96.0452C361.597 96.0392 361.618 96.0337 361.639 96.0288C361.661 96.0239 361.682 96.0195 361.704 96.0156Z" fill="white"/>
<path d="M140.994 188.079H106.978L67.3506 119.69H31.1241V188.079H0V0.00978862H74.8337C82.7322 -0.0127046 90.5575 1.53167 97.8612 4.55463C105.165 7.57758 111.804 12.0196 117.397 17.6262C122.99 23.2327 127.427 29.8935 130.455 37.227C133.482 44.5606 135.041 52.4228 135.041 60.3629C135.153 72.1901 131.52 83.7464 124.666 93.3604C118.064 103.091 108.7 110.598 97.7942 114.903L140.994 188.079ZM75.5142 28.9038H31.4643V91.8217H75.5142C79.436 91.8548 83.3216 91.066 86.9233 89.5059C90.5251 87.9457 93.764 85.6484 96.4336 82.7602C101.749 76.5546 104.672 68.6373 104.672 60.4482C104.672 52.2591 101.749 44.3421 96.4336 38.1365C93.7994 35.1917 90.5713 32.8451 86.9641 31.2531C83.3569 29.6611 79.4535 28.8602 75.5142 28.9038Z" fill="#131C26"/>
<path d="M195.237 107.722V158.5H278.064V188.079H164.453V0.00954641H276.874V29.5876H195.237V78.4857H270.071V107.722H195.237Z" fill="#131C26"/>
<path d="M306.114 0.021233H379.588C391.537 -0.246524 403.408 2.02071 414.426 6.67531C425.445 11.3299 435.364 18.2671 443.536 27.0346C460.065 45.3687 469.219 69.2273 469.219 93.9703C469.219 118.713 460.065 142.572 443.536 160.906C435.379 169.704 425.467 176.674 414.447 181.358C403.428 186.042 391.549 188.337 379.588 188.091H306.114V0.021233ZM336.728 158.512H379.588C387.655 158.818 395.691 157.338 403.126 154.176C410.562 151.015 417.216 146.25 422.617 140.218C434.074 127.659 440.18 111.087 439.625 94.0559C440.152 76.9778 434.053 60.3624 422.617 47.7223C417.185 41.74 410.522 37.0197 403.091 33.8898C395.659 30.7599 387.639 29.2958 379.588 29.5993H336.728V158.512Z" fill="#131C26"/>
<path d="M332.262 74.5773L328.265 94.4747C328.527 94.6702 328.88 94.6915 329.163 94.5289L331.864 92.9792L353.566 71.3529L410.774 76.6274C419.655 86.5001 435.249 107.176 436.872 106.31C438.495 105.445 438.373 96.9848 438.418 94.8209L441.609 77.8445L445.802 58.6479L442.826 49.9844L418.753 62.1563L365.467 60.6687L351.882 58.6479L336.438 48.0607L328.959 51.946L332.262 74.5773Z" fill="white"/>
<path d="M408.256 58.253C414.355 52.1204 423.903 46.9297 433.534 44.5403C430.024 46.4957 427.647 46.9032 424.555 49.4269C420.942 52.3767 417.062 56.631 414.721 60.6947C417.974 63.3531 421.813 66.3743 423.981 69.0487C424.545 68.6136 425.106 68.1763 425.737 67.8409C427.315 67.0015 429.876 66.239 431.672 66.5143C432.04 66.5708 432.466 66.7044 432.71 67.0056C432.852 67.182 432.822 67.499 432.778 67.7085C432.668 68.2309 432.337 68.9922 431.969 69.3926C431.505 69.8961 428.209 71.4175 428.679 72.2965C428.937 72.7789 430.769 73.6427 431.305 74.1171C432.757 75.4028 431.07 76.0498 429.677 76.1284C429.624 76.1314 429.571 76.1328 429.519 76.1362C429.351 76.1478 429.416 76.1374 429.251 76.2027C433.444 81.7874 435.657 88.3365 437.263 95.0568C438.194 98.9555 439.016 102.769 440.691 106.437C441.049 107.202 441.445 107.945 441.879 108.669C442.313 109.392 442.783 110.091 443.29 110.765C443.796 111.425 444.396 112.051 444.85 112.744C443.146 114.594 441.434 115.825 439.119 116.797C438.3 117.141 437.339 117.448 436.596 117.928C437.354 119.205 438.792 119.748 439.867 120.686C435.092 126.254 428.075 130.058 421.199 132.329C420.134 132.68 419.065 133.04 417.986 133.341C417.241 133.549 416.067 133.62 415.423 134.007L415.274 133.884C414.399 133.92 409.308 135.128 408.355 135.467C408.232 135.514 408.2 135.515 408.069 135.497C407.437 135.407 399.234 137.213 398.222 137.48C397.639 137.634 397.09 137.848 396.535 138.081C398.623 138.192 400.748 138.39 402.837 138.357C408.739 138.265 414.546 137.005 420.263 135.646C421.649 137.717 421.317 137.832 423.175 139.61C422.673 140.157 421.58 141.77 420.885 142.019C417.746 143.144 417.079 142.864 413.826 143.112C411.359 143.3 408.97 143.472 406.498 143.186C404.929 143.004 403.078 142.269 401.517 142.5C400.678 142.624 399.914 143.052 399.086 143.205C398.157 143.377 397.181 143.258 396.259 143.489C395.994 143.555 395.739 143.638 395.494 143.758C394.347 144.319 393.434 145.23 392.229 145.691C389.984 146.549 387.573 147.083 385.235 147.608C383.427 148.014 381.604 148.459 379.765 148.694C375.443 149.246 371.118 148.405 367.014 147.052C365.759 146.638 364.595 146.026 363.377 145.523C361.345 144.683 359.169 144.226 357.432 142.814C355.585 144.206 353.756 145.704 351.819 146.964L350.914 146.521C350.688 146.407 350.561 146.384 350.307 146.393C350.127 146.565 350.132 146.681 350.077 146.92C350.031 144.204 351.476 138.345 352.858 135.97C354.446 136.181 356.078 136.251 357.676 136.376C359.437 136.513 361.213 136.702 362.979 136.726C359.484 134.535 354.887 133.808 351.005 132.429C350.179 132.136 349.285 131.849 348.505 131.45C345.804 130.643 338.625 127.259 336.324 125.488C335.82 125.101 335.408 124.556 335 124.07C334.874 124.073 334.723 124.083 334.6 124.055C334.112 123.943 333.514 123.373 333.121 123.053C331.058 121.369 329.397 119.601 327.803 117.468C327.316 116.814 326.803 116.168 326.427 115.441C327.471 114.734 328.611 114.328 329.698 113.729C329.97 113.579 329.974 113.598 330.063 113.293L330.043 113.219C329.713 113.003 329.421 112.742 329.084 112.531C328.095 111.909 326.955 111.339 326.09 110.548C325.081 109.625 324.389 108.413 323.295 107.552C324.182 106.742 325.042 105.939 325.767 104.971C328.717 101.033 330.872 93.4284 332.604 88.6838C332.979 87.6576 333.315 86.5852 333.77 85.5944C336.442 79.7781 340.018 74.6362 344.095 69.7458C344.953 69.1195 346.094 67.8193 346.906 67.0333C349.705 63.1174 354.221 60.6016 358.002 57.5978C355.656 54.4599 353.215 51.5659 350.162 49.089C349.095 48.2229 345.481 46.3252 344.36 45.5291C347.434 46.5178 349.308 47.3525 350.402 47.8735C354.52 49.8347 359.014 52.5303 362.306 55.7359C361.07 56.6134 360.705 56.7208 359.74 56.7713C369.698 52.2091 389.72 50.3472 408.256 58.253Z" fill="#F15F31"/>
<path d="M362.635 107.819L362.722 107.76C364.852 106.305 366.088 104.176 367.711 102.239C371.2 98.0744 376.367 95.918 381.754 96.9497C386.668 97.891 389.85 100.811 392.807 104.671C393.931 106.139 400.445 117.573 401.743 118.898C407.526 115.844 409.765 116.428 418.532 115.588C419.508 120.107 418.77 124.469 416.281 128.371C416.002 128.807 415.711 129.234 415.407 129.653C413.997 131.191 413.389 132.053 411.591 133.299C411.105 133.636 410.623 134.006 410.108 134.297C409.574 134.6 409.314 134.869 408.82 135.222C408.733 135.284 408.561 135.321 408.503 135.399L408.355 135.467C405.32 136.637 401.428 136.636 398.222 137.48C397.639 137.634 397.09 137.848 396.535 138.082C398.622 138.193 400.747 138.39 402.837 138.357C408.739 138.265 414.546 137.005 420.263 135.646C421.649 137.717 421.317 137.832 423.175 139.61C422.702 140.098 421.639 141.785 420.944 142.034C417.805 143.159 417.078 142.864 413.826 143.112C411.359 143.3 408.969 143.473 406.497 143.186C400.313 142.469 397.657 143.614 392.228 145.691C389.984 146.549 387.572 147.083 385.235 147.608C383.426 148.014 381.604 148.459 379.765 148.694C375.442 149.246 371.118 148.406 367.014 147.052C365.759 146.638 364.595 146.026 363.377 145.523C358.582 143.541 353.537 147.807 350.914 146.521C350.688 146.407 350.56 146.384 350.307 146.394C350.127 146.566 350.132 146.681 350.076 146.92C350.031 144.204 351.476 138.345 352.858 135.971C354.446 136.181 356.078 136.252 357.676 136.376C359.436 136.514 361.213 136.703 362.978 136.727C359.484 134.535 354.887 133.808 351.005 132.429C350.179 132.136 349.285 131.85 348.505 131.451C347.902 131.051 346.168 129.443 345.868 129.122C343.907 127.027 342.677 124.815 341.593 122.178C341.251 121.097 341.087 120.02 340.951 118.898C344.286 119.02 347.598 119.256 350.902 119.744C352.523 119.984 354.12 120.404 355.743 120.614C355.666 119.429 355.608 118.216 355.752 117.034C356.078 114.369 357.764 111.465 359.845 109.797C360.733 109.085 361.736 108.523 362.635 107.819Z" fill="#812609"/>
<path d="M362.636 107.819L362.724 107.76C364.854 106.305 366.089 104.176 367.712 102.239C371.202 98.0744 376.368 95.918 381.756 96.9497C386.669 97.891 389.851 100.811 392.808 104.671C393.932 106.139 394.969 107.605 396.267 108.93C397.456 110.095 398.755 111.175 399.879 112.401C401.894 115.294 402.822 118.356 402.2 121.898C401.451 126.171 398.47 129.876 394.984 132.289C394.598 132.558 394.196 132.801 393.778 133.018C393.775 133.022 393.771 133.026 393.767 133.03C389.784 136.001 381.017 136.552 376.151 136.075C370.183 135.49 363.575 133.582 359.617 128.747C357.597 126.34 356.24 123.737 355.744 120.614C355.667 119.429 355.61 118.216 355.754 117.034C356.079 114.369 357.765 111.465 359.846 109.797C360.734 109.085 361.738 108.523 362.636 107.819Z" fill="white"/>
<path d="M359.616 128.747C372.021 137.232 387.43 135.213 397.142 130.599C389.52 138.179 376.151 136.075 376.151 136.075C370.182 135.49 363.575 133.582 359.616 128.747Z" fill="#E3E3E3"/>
<path d="M375.876 103.34C377.9 103.034 381.024 103.239 382.745 104.439C383.605 105.038 384.318 105.926 384.482 106.988C384.591 107.694 384.46 108.415 384.167 109.062C382.835 111.999 378.864 112.01 378.614 112.454C378.336 112.948 378.469 114.031 378.565 114.585L378.596 114.757C378.616 114.875 378.629 114.987 378.681 115.097C378.843 115.443 379.182 115.771 379.436 116.053C380.426 117.148 381.384 117.862 382.811 118.261C385.067 118.891 387.874 118.229 389.462 116.452C389.984 115.868 390.436 114.896 391.146 114.544C391.358 114.438 391.57 114.438 391.786 114.532C392.051 114.649 392.263 114.96 392.353 115.229C392.471 115.582 392.367 115.983 392.207 116.306C391.352 118.039 389.181 119.508 387.408 120.124C385.19 120.895 382.398 120.573 380.314 119.577C379.083 118.853 378.204 118.059 377.294 116.956C375.995 118.083 374.726 119.256 373.031 119.727C371.301 120.209 369.373 119.892 367.833 118.985C366.666 118.298 364.758 116.427 364.457 115.084C364.391 114.79 364.444 114.495 364.611 114.244C364.777 113.993 365.059 113.812 365.356 113.764C365.394 113.758 365.433 113.754 365.473 113.752C365.512 113.75 365.551 113.751 365.59 113.754C365.63 113.757 365.669 113.762 365.707 113.769C365.746 113.777 365.784 113.787 365.821 113.799C365.859 113.811 365.895 113.825 365.931 113.842C365.967 113.858 366.001 113.877 366.035 113.897C366.068 113.918 366.101 113.94 366.132 113.965C366.162 113.989 366.192 114.015 366.22 114.043C366.425 114.245 366.556 114.552 366.704 114.799C367.162 115.561 367.651 116.262 368.367 116.802C368.43 116.85 368.495 116.897 368.561 116.942C368.627 116.987 368.695 117.031 368.763 117.073C368.831 117.114 368.9 117.154 368.97 117.192C369.041 117.231 369.112 117.267 369.184 117.302C369.256 117.337 369.329 117.37 369.402 117.401C369.476 117.432 369.55 117.461 369.625 117.488C369.7 117.516 369.776 117.541 369.852 117.565C369.929 117.588 370.006 117.61 370.083 117.63C370.16 117.65 370.238 117.667 370.316 117.683C370.395 117.699 370.473 117.713 370.552 117.725C370.631 117.737 370.711 117.747 370.79 117.755C370.87 117.763 370.949 117.769 371.029 117.773C371.109 117.777 371.188 117.779 371.268 117.779C371.348 117.779 371.428 117.777 371.508 117.773C371.588 117.769 371.667 117.763 371.747 117.755C371.826 117.748 371.905 117.738 371.984 117.726C373.803 117.453 375.117 116.238 376.168 114.803L376.398 112.354C375.337 111.862 374.166 111.577 373.211 110.876C372.251 110.171 371.477 109.042 371.316 107.847C371.3 107.727 371.29 107.606 371.286 107.484C371.282 107.363 371.284 107.242 371.293 107.121C371.301 106.999 371.315 106.879 371.336 106.759C371.356 106.639 371.383 106.521 371.415 106.404C371.448 106.287 371.486 106.172 371.53 106.059C371.575 105.946 371.624 105.835 371.68 105.727C371.735 105.619 371.796 105.514 371.862 105.412C371.927 105.31 371.998 105.212 372.074 105.118C373.021 103.925 374.424 103.487 375.876 103.34Z" fill="#43250A"/>
<path d="M381.122 106.054C381.446 106.247 381.44 106.698 381.109 106.878C379.106 107.969 376.223 107.895 374.38 106.546C374.041 106.298 374.168 105.803 374.573 105.693C376.744 105.105 379.145 104.873 381.122 106.054Z" fill="#812609"/>
<path d="M413.166 103.933C413.125 102.745 413.437 101.808 414.248 100.921C415.479 99.5753 417.048 98.8739 418.865 98.8195C421.884 98.7291 424.691 100.346 426.825 102.378C429.82 105.233 432.069 109.325 432.165 113.54C432.192 114.754 431.984 115.889 431.759 117.076L431.817 116.988C431.976 116.743 432.067 116.59 432.095 116.298C432.272 116.9 431.962 118.53 432.423 118.837C433.056 119.257 434.905 118.68 435.57 118.422C435.876 118.303 436.349 118.136 436.598 117.928C435.57 119.021 432.197 120.392 433.273 121.33C428.498 126.898 428.077 130.059 421.201 132.329C420.137 132.681 419.067 133.041 417.988 133.342C417.243 133.549 416.069 133.621 415.425 134.007L415.276 133.884C414.401 133.92 409.31 135.128 408.357 135.467L408.857 135.186C408.915 135.108 409.508 135.033 409.596 134.971C410.089 134.618 409.576 134.6 410.111 134.297C410.625 134.006 411.107 133.636 411.593 133.299C413.391 132.053 413.999 131.191 415.409 129.653C415.713 129.234 416.005 128.807 416.283 128.371C418.772 124.469 419.51 120.107 418.534 115.589C418.011 112.749 416.666 110.134 415.202 107.681C414.472 106.46 413.704 105.256 413.166 103.933Z" fill="white"/>
<path d="M431.758 117.076L431.816 116.988C431.975 116.743 432.066 116.59 432.094 116.297C432.271 116.899 431.961 118.53 432.422 118.837C433.055 119.257 434.903 118.68 435.569 118.421C435.875 118.302 436.348 118.136 436.597 117.928C437.355 119.205 438.793 119.748 439.868 120.686C435.093 126.254 428.076 130.058 421.2 132.329C420.135 132.68 419.066 133.04 417.987 133.341C417.5 133.477 415.055 134.209 414.738 133.948C415.101 133.869 415.321 133.866 415.624 133.687C416.528 133.154 418.119 132.61 419.144 132.131C421.773 130.901 424.169 129.012 426.194 126.943C426.765 126.359 427.507 125.705 427.889 124.981C429.703 122.647 431.141 119.995 431.758 117.076Z" fill="#812609"/>
<path d="M416.161 128.54C419.623 126.577 425.798 125.611 429.111 123.267C428.592 124.425 427.107 126.013 426.196 126.944C424.171 129.013 421.775 130.902 419.146 132.132C418.121 132.611 416.53 133.155 415.626 133.688C415.551 133.733 415.501 133.816 415.421 133.853C415.376 133.873 415.223 133.993 415.175 134.003C414.299 134.039 409.311 135.129 408.358 135.467L407.676 135.715C408.732 135.155 409.398 134.702 410.112 134.298C410.626 134.006 411.108 133.637 411.594 133.3C413.257 132.147 414.522 130.806 416.161 128.54Z" fill="#E3E3E3"/>
<path d="M427.223 111.155C428.655 111.219 431.154 112.42 432.174 113.417C432.143 115.697 431.703 117.971 430.829 120.053C430.849 119.865 430.867 119.402 430.878 119.213C431.026 116.822 429.8 114.191 428.347 112.358C428.002 111.924 427.589 111.569 427.223 111.155Z" fill="#E3E3E3"/>
<path d="M330.051 111.633C329.997 109.923 330.406 108.058 331.023 106.471C332.605 102.406 335.874 98.4408 339.928 96.6912C341.549 95.9917 343.525 95.7443 345.193 96.4302C346.14 96.8199 347.084 97.6123 347.467 98.5882C348.432 101.046 344.462 105.514 343.4 107.855C341.819 110.862 340.473 115.479 340.954 118.898C341.09 120.02 341.254 121.097 341.597 122.178C342.68 124.815 343.91 127.027 345.871 129.122C346.171 129.442 347.746 131.039 348.508 131.451C345.807 130.644 338.628 127.259 336.327 125.488C335.823 125.101 335.411 124.556 335.003 124.07C334.877 124.073 334.726 124.083 334.603 124.055C334.115 123.944 333.517 123.374 333.124 123.054C331.061 121.369 329.399 119.601 327.806 117.468C327.319 116.814 326.806 116.168 326.43 115.441C327.474 114.734 328.614 114.328 329.701 113.729C329.973 113.579 329.977 113.598 330.066 113.293L330.046 113.219C330.102 112.71 330.053 112.149 330.051 111.633Z" fill="white"/>
<path d="M330.051 111.633C331.208 110.208 332.897 109.824 334.26 109.013C332.555 111.795 331.038 114.599 331.208 117.911C332.443 118.428 334.221 118.468 335.477 118.924C337.531 119.67 339.821 120.882 341.447 122.345C341.572 122.297 341.511 122.34 341.597 122.179C342.68 124.816 343.91 127.028 345.871 129.123C346.171 129.443 347.68 130.754 348.508 131.451C345.807 130.644 338.628 127.26 336.327 125.489C335.212 124.632 334.222 123.95 333.124 123.054C331.061 121.37 329.399 119.602 327.806 117.469C327.319 116.815 326.806 116.169 326.43 115.442C327.474 114.735 328.614 114.329 329.701 113.73C329.973 113.58 329.977 113.599 330.066 113.294L330.046 113.22C330.102 112.71 330.053 112.15 330.051 111.633Z" fill="#E3E3E3"/>
<path d="M398.882 107.761C398.723 107.675 398.57 107.581 398.419 107.481C396.926 106.5 395.991 104.735 395.658 103.012C395.191 100.592 395.674 97.8891 397.068 95.8468C397.937 94.5737 399.267 93.5612 400.798 93.2806C402.191 93.0254 403.575 93.3887 404.724 94.2022C408.43 96.825 409.502 103.503 406.087 106.793C404.903 107.935 403.369 108.458 401.741 108.421C401.495 108.414 401.25 108.395 401.006 108.364C400.761 108.332 400.519 108.289 400.279 108.234C400.039 108.178 399.803 108.111 399.569 108.032C399.336 107.953 399.107 107.863 398.882 107.761Z" fill="#43250A"/>
<path d="M399.981 96.6713C400.005 96.6669 400.03 96.6631 400.055 96.6599C400.079 96.6568 400.104 96.6543 400.129 96.6524C400.154 96.6504 400.179 96.6491 400.204 96.6483C400.229 96.6476 400.254 96.6475 400.278 96.648C400.303 96.6485 400.328 96.6496 400.353 96.6514C400.378 96.6532 400.403 96.6556 400.428 96.6587C400.452 96.6616 400.477 96.6652 400.502 96.6694C400.526 96.6736 400.551 96.6784 400.575 96.6839C400.599 96.6894 400.623 96.6955 400.648 96.7021C400.672 96.7087 400.695 96.7159 400.719 96.7237C400.743 96.7314 400.766 96.7399 400.789 96.7489C400.813 96.7578 400.836 96.7673 400.859 96.7775C400.882 96.7877 400.904 96.7984 400.926 96.8095C400.949 96.8209 400.971 96.8327 400.992 96.845C401.014 96.8572 401.035 96.8701 401.057 96.8835C401.078 96.8969 401.098 96.9108 401.119 96.9252C401.139 96.9396 401.159 96.9546 401.179 96.9701C401.198 96.9855 401.218 97.0013 401.237 97.0176C401.255 97.0341 401.274 97.0509 401.292 97.0681C401.31 97.0854 401.327 97.1032 401.345 97.1214C401.362 97.1395 401.379 97.1581 401.395 97.1772C401.411 97.1961 401.427 97.2155 401.442 97.2352C401.458 97.2551 401.472 97.2752 401.487 97.2956C401.501 97.3161 401.515 97.337 401.528 97.3581C401.541 97.3793 401.554 97.4008 401.566 97.4227C401.579 97.4445 401.59 97.4666 401.602 97.4891C401.613 97.5116 401.623 97.5343 401.633 97.5573C401.643 97.5801 401.653 97.6032 401.662 97.6266C401.67 97.6501 401.679 97.6737 401.687 97.6974C401.694 97.7212 401.702 97.7452 401.708 97.7695C401.715 97.7937 401.721 97.8181 401.726 97.8425C401.731 97.8669 401.736 97.8915 401.74 97.9162C401.744 97.9409 401.748 97.9658 401.751 97.9907C401.754 98.0156 401.756 98.0405 401.758 98.0654C401.76 98.0904 401.761 98.1155 401.761 98.1406C401.762 98.1656 401.762 98.1906 401.761 98.2155C401.76 98.2406 401.759 98.2656 401.757 98.2907C401.755 98.3156 401.752 98.3405 401.749 98.3654C401.746 98.3903 401.742 98.415 401.738 98.4396C401.733 98.4643 401.728 98.4889 401.723 98.5133C401.717 98.5377 401.711 98.562 401.704 98.5861C401.697 98.6102 401.69 98.6341 401.682 98.6579C401.674 98.6815 401.665 98.705 401.656 98.7284C401.647 98.7517 401.637 98.7748 401.627 98.7976C401.617 98.8204 401.606 98.8429 401.595 98.8652C401.583 98.8875 401.571 98.9095 401.559 98.9312C401.546 98.953 401.534 98.9745 401.52 98.9955C401.507 99.0165 401.492 99.0372 401.478 99.0576C401.463 99.0779 401.448 99.0979 401.433 99.1175C401.417 99.1372 401.401 99.1564 401.385 99.1752C401.368 99.1939 401.352 99.2124 401.334 99.2305C401.317 99.2484 401.299 99.266 401.281 99.2831C401.263 99.3003 401.244 99.3169 401.225 99.3331C401.206 99.3492 401.187 99.3649 401.167 99.3801C401.147 99.3953 401.127 99.41 401.106 99.4243C401.086 99.4385 401.065 99.4522 401.044 99.4653C401.022 99.4785 401.001 99.4912 400.979 99.5033C400.957 99.5155 400.935 99.527 400.913 99.538C400.89 99.549 400.868 99.5594 400.845 99.5693C400.822 99.5792 400.799 99.5885 400.775 99.5972C400.752 99.6059 400.729 99.6141 400.705 99.6217C400.681 99.6293 400.657 99.6363 400.633 99.6428C400.609 99.6491 400.585 99.6548 400.56 99.66C400.536 99.6652 400.511 99.6698 400.487 99.6738C400.462 99.6777 400.438 99.681 400.413 99.6838C400.389 99.6865 400.364 99.6887 400.34 99.6903C400.315 99.6918 400.29 99.6927 400.266 99.693C400.241 99.6933 400.216 99.693 400.192 99.692C400.167 99.6912 400.143 99.6898 400.118 99.6877C400.093 99.6856 400.069 99.6828 400.044 99.6794C400.02 99.6762 399.996 99.6723 399.971 99.6678C399.947 99.6632 399.923 99.6582 399.899 99.6525C399.875 99.6468 399.851 99.6406 399.828 99.6338C399.804 99.6269 399.78 99.6194 399.757 99.6115C399.734 99.6034 399.71 99.5948 399.688 99.5858C399.665 99.5766 399.642 99.5669 399.62 99.5567C399.597 99.5463 399.575 99.5355 399.553 99.5242C399.531 99.5129 399.51 99.501 399.488 99.4885C399.467 99.4761 399.446 99.4632 399.425 99.4497C399.404 99.4363 399.384 99.4224 399.364 99.408C399.344 99.3935 399.324 99.3785 399.305 99.3631C399.285 99.3478 399.267 99.3319 399.248 99.3156C399.229 99.2993 399.211 99.2825 399.194 99.2652C399.176 99.248 399.159 99.2304 399.142 99.2123C399.125 99.1942 399.108 99.1757 399.092 99.1568C399.076 99.138 399.061 99.1188 399.046 99.099C399.031 99.0795 399.016 99.0595 399.002 99.0391C398.988 99.0188 398.974 98.9981 398.961 98.977C398.948 98.956 398.936 98.9347 398.924 98.913C398.912 98.8913 398.9 98.8694 398.889 98.8473C398.878 98.8251 398.868 98.8027 398.858 98.7799C398.848 98.7572 398.839 98.7343 398.83 98.711C398.822 98.6879 398.813 98.6645 398.806 98.6409C398.798 98.6173 398.791 98.5935 398.785 98.5696C398.778 98.5458 398.772 98.5218 398.767 98.4976C398.762 98.4733 398.757 98.449 398.753 98.4246C398.749 98.4001 398.745 98.3756 398.742 98.3511C398.739 98.3263 398.737 98.3017 398.735 98.2771C398.734 98.2524 398.732 98.2275 398.732 98.2026C398.731 98.1779 398.731 98.1532 398.732 98.1284C398.733 98.1037 398.734 98.0789 398.736 98.0542C398.738 98.0295 398.74 98.0048 398.743 97.9802C398.746 97.9557 398.75 97.9312 398.754 97.9068C398.759 97.8823 398.763 97.858 398.769 97.8338C398.774 97.8097 398.78 97.7856 398.787 97.7617C398.794 97.7379 398.801 97.7143 398.809 97.6907C398.816 97.6672 398.825 97.6439 398.834 97.6208C398.843 97.5977 398.852 97.5748 398.862 97.5522C398.872 97.5295 398.883 97.5071 398.894 97.485C398.905 97.4628 398.916 97.441 398.929 97.4195C398.941 97.3978 398.953 97.3766 398.967 97.3557C398.98 97.3347 398.993 97.3141 399.008 97.2939C399.022 97.2737 399.037 97.2538 399.052 97.2342C399.067 97.2147 399.082 97.1955 399.098 97.1767C399.115 97.1578 399.131 97.1394 399.148 97.1214C399.165 97.1035 399.183 97.0859 399.201 97.0688C399.218 97.0518 399.236 97.0352 399.255 97.0188C399.274 97.0027 399.293 96.9869 399.312 96.9716C399.332 96.9564 399.351 96.9416 399.372 96.9272C399.392 96.9129 399.412 96.8992 399.433 96.8859C399.454 96.8725 399.475 96.8597 399.496 96.8474C399.518 96.8353 399.539 96.8235 399.561 96.8122C399.583 96.8011 399.606 96.7904 399.628 96.7802C399.651 96.7702 399.673 96.7606 399.696 96.7516C399.719 96.7425 399.743 96.7341 399.766 96.7264C399.789 96.7184 399.813 96.7112 399.837 96.7045C399.86 96.6977 399.884 96.6916 399.908 96.6861C399.932 96.6806 399.956 96.6757 399.981 96.6713Z" fill="white"/>
<path d="M353.86 102.103C353.239 99.845 353.666 97.2603 354.815 95.2359C355.663 93.741 356.957 92.4939 358.645 92.0457C358.737 92.0214 358.829 91.9995 358.922 91.9799C359.015 91.9604 359.108 91.9432 359.202 91.9283C359.295 91.9132 359.389 91.9006 359.484 91.8904C359.578 91.8801 359.673 91.8721 359.767 91.8664C359.862 91.8609 359.957 91.8578 360.052 91.857C360.147 91.856 360.241 91.8575 360.336 91.8613C360.431 91.8652 360.526 91.8715 360.62 91.88C360.715 91.8886 360.809 91.8995 360.903 91.9128C360.997 91.9259 361.091 91.9414 361.184 91.9593C361.277 91.9773 361.37 91.9975 361.462 92.02C361.554 92.0424 361.646 92.0672 361.737 92.0942C361.827 92.1213 361.918 92.1507 362.007 92.1822C362.097 92.2137 362.186 92.2475 362.273 92.2833C362.361 92.3194 362.448 92.3576 362.534 92.3978C362.62 92.4381 362.705 92.4804 362.789 92.5249C362.873 92.5694 362.956 92.6159 363.038 92.6646C364.515 93.5472 365.406 94.9914 365.803 96.647C366.352 98.9292 365.855 101.587 364.635 103.576C363.624 105.225 362.176 106.283 360.295 106.697C360.268 106.703 360.242 106.707 360.215 106.713C358.991 106.73 357.855 106.618 356.758 106.032C355.148 105.172 354.388 103.793 353.86 102.103Z" fill="#43250A"/>
<path d="M423.982 69.0491C424.547 68.614 425.107 68.1768 425.738 67.8413C427.317 67.0019 429.877 66.2394 431.673 66.5147C432.042 66.5712 432.468 66.7048 432.711 67.0061C432.854 67.1824 432.823 67.4994 432.78 67.7089C432.67 68.2313 432.339 68.9926 431.97 69.3931C431.506 69.8965 428.21 71.4179 428.681 72.2969C428.939 72.7793 430.77 73.6432 431.306 74.1176C432.759 75.4032 431.071 76.0502 429.678 76.1289C429.625 76.1318 429.573 76.1332 429.52 76.1366C429.353 76.1483 429.417 76.1378 429.252 76.2031C428.747 75.0224 426.72 72.3131 425.846 71.2829C425.237 70.5647 424.473 69.8514 423.982 69.0491Z" fill="#F15F31"/>
<path d="M362.244 74.8702C363.472 74.7553 364.758 74.9083 365.735 75.7421C366.563 76.4491 366.983 77.5301 367.054 78.602C367.119 79.5923 366.852 80.5258 366.189 81.2728C364.979 82.6344 363.046 82.9477 361.332 83.075C359.991 83.0898 358.36 83.133 357.218 82.3009C356.688 81.915 356.342 81.3812 356.254 80.7256C356.115 79.7007 356.561 78.7 357.156 77.8934C358.426 76.1724 360.161 75.195 362.244 74.8702Z" fill="white"/>
<path d="M404.543 77.8096C405.651 78.786 406.607 80.2376 406.673 81.7561C406.7 82.3699 406.557 82.9627 406.117 83.4094C405.258 84.2808 403.921 84.2782 402.789 84.2818C401.068 84.2406 399.293 83.9643 397.819 83.0119C396.937 82.442 396.261 81.6135 396.054 80.5616C395.882 79.6849 396.041 78.7548 396.548 78.015C398.447 75.2486 402.385 75.9096 404.543 77.8096Z" fill="white"/>
<path d="M442.048 42.8515C443.225 42.7678 444.528 42.623 445.67 42.9822C445.737 43.0032 445.803 43.0258 445.868 43.0501C445.933 43.0745 445.998 43.1005 446.062 43.1281C446.126 43.1558 446.189 43.1851 446.252 43.216C446.314 43.247 446.376 43.2795 446.436 43.3136C446.497 43.3477 446.557 43.3834 446.616 43.4206C446.675 43.4578 446.733 43.4965 446.79 43.5367C446.847 43.5769 446.903 43.6185 446.958 43.6616C447.013 43.7047 447.067 43.7492 447.119 43.795C447.172 43.8409 447.223 43.888 447.273 43.9366C447.324 43.9851 447.372 44.0348 447.42 44.0859C447.468 44.1369 447.514 44.1892 447.559 44.2426C447.604 44.296 447.648 44.3506 447.69 44.4062C447.732 44.4619 447.773 44.5186 447.812 44.5764C447.851 44.6342 447.889 44.6929 447.925 44.7527C447.962 44.8124 447.997 44.873 448.03 44.9346C448.063 44.9961 448.094 45.0584 448.125 45.1216C448.747 46.4017 448.93 47.9617 449.108 49.3643C450.146 57.5426 448.376 66.7374 445.658 74.4419C444.763 77.0293 443.679 79.5345 442.407 81.9572C445.743 83.2001 448.842 85.5347 450.347 88.8722C450.568 89.3643 450.767 89.9626 450.567 90.4952C450.423 90.8796 450.089 91.1282 449.717 91.2704C447.826 91.9919 444.285 91.1809 442.505 90.3148C442.679 90.8321 442.857 91.3482 443.012 91.8718C443.228 92.4406 443.393 93.0256 443.546 93.6142C443.907 95.0053 444.416 97.3033 443.596 98.6164C443.407 98.9188 443.137 99.1587 442.781 99.2295C442.357 99.3137 441.933 99.1284 441.584 98.9009C439.605 97.6084 439.255 93.9702 438.747 91.7649C437.848 88.1657 436.579 84.7807 435.009 81.4255C434.268 80.0664 433.424 78.7485 432.642 77.4107C433.168 76.8645 433.573 76.3748 433.876 75.6693C433.884 73.8183 433.148 73.212 432.023 71.9108C432.532 71.3845 433.119 70.9298 433.586 70.362C434.355 69.429 435.042 67.9253 434.898 66.6976C434.889 66.6121 434.875 66.5273 434.857 66.4432C434.839 66.3591 434.816 66.2763 434.789 66.1946C434.762 66.113 434.731 66.0329 434.696 65.9545C434.661 65.8759 434.622 65.7995 434.579 65.7253C434.536 65.6509 434.489 65.579 434.438 65.5095C434.388 65.4401 434.334 65.3735 434.276 65.3096C434.219 65.2459 434.158 65.1854 434.094 65.128C434.031 65.0706 433.964 65.0166 433.895 64.9662C431.942 63.528 428.538 64.7916 426.376 65.1117C428.789 61.6503 432.624 58.2914 435.877 55.6086C436.672 55.0791 439.368 53.4741 439.765 52.7766C438.397 52.8105 437.259 53.0955 435.975 53.5628C435.322 53.9535 434.612 54.2643 433.927 54.5956C429.315 56.8477 424.452 62.6158 422.345 67.2659C419.911 64.925 417.332 62.828 414.722 60.6954C417.062 56.6317 420.942 52.3774 424.556 49.4276C429.504 45.3891 435.699 43.3022 442.048 42.8515Z" fill="white"/>
<path d="M439.85 52.6775C440.682 52.9164 441.274 53.2468 441.721 54.0348C442.307 55.0667 442.328 56.4434 442.365 57.5983C442.495 61.6159 441.934 65.4709 440.787 69.3165C439.54 73.4967 437.692 77.9651 435.008 81.4251C434.267 80.0659 433.423 78.748 432.641 77.4102C433.167 76.864 433.572 76.3744 433.875 75.6688C433.883 73.8178 433.146 73.2115 432.021 71.9103C432.531 71.384 433.118 70.9293 433.585 70.3615C434.353 69.4285 435.04 67.9248 434.897 66.6971C434.888 66.6116 434.874 66.5268 434.856 66.4427C434.837 66.3586 434.815 66.2758 434.788 66.1941C434.761 66.1125 434.73 66.0324 434.695 65.954C434.66 65.8754 434.621 65.799 434.577 65.7248C434.534 65.6505 434.487 65.5785 434.437 65.509C434.386 65.4396 434.332 65.373 434.275 65.3091C434.217 65.2454 434.157 65.1849 434.093 65.1275C434.029 65.0701 433.963 65.0162 433.893 64.9657C431.94 63.5275 428.536 64.7911 426.375 65.1112C428.474 62.0994 435.754 52.6775 439.85 52.6775Z" fill="#F15F31"/>
<path d="M434.993 55.2269C436.993 56.1676 438.696 57.3387 438.978 59.7221C439.445 63.6536 437.577 68.6027 435.903 72.1388C435.377 73.2508 434.886 74.3722 434.126 75.3477C434.043 75.4551 433.96 75.5628 433.875 75.6693C433.883 73.8183 433.146 73.212 432.021 71.9108C432.531 71.3845 433.118 70.9297 433.585 70.362C434.353 69.429 435.04 67.9253 434.897 66.6976C434.888 66.612 434.874 66.5272 434.856 66.4432C434.837 66.3591 434.815 66.2762 434.788 66.1946C434.761 66.1129 434.73 66.0329 434.695 65.9545C434.66 65.8759 434.621 65.7995 434.577 65.7253C434.534 65.6509 434.487 65.5789 434.437 65.5094C434.386 65.44 434.332 65.3734 434.275 65.3096C434.217 65.2459 434.157 65.1853 434.093 65.1279C434.029 65.0705 433.963 65.0166 433.893 64.9661C431.94 63.5279 428.536 64.7915 426.375 65.1117C428.788 61.6503 431.74 57.9096 434.993 55.2269Z" fill="#812609"/>
<path d="M328.975 80.6996C328.683 79.8107 328.308 78.9442 327.972 78.0715C327.779 77.5815 327.594 77.0886 327.416 76.5931C327.238 76.0977 327.067 75.5997 326.904 75.0991C326.74 74.5985 326.584 74.0956 326.435 73.5903C326.287 73.0852 326.145 72.5779 326.011 72.0684C325.877 71.5591 325.751 71.0478 325.632 70.5346C325.513 70.0216 325.402 69.5069 325.298 68.9905C325.194 68.474 325.097 67.9562 325.009 67.437C324.92 66.9177 324.839 66.3972 324.765 65.8756C324.692 65.354 324.626 64.8314 324.568 64.3077C324.509 63.7841 324.459 63.2598 324.416 62.7346C324.373 62.2096 324.338 61.6841 324.31 61.1579C324.283 60.6317 324.263 60.1053 324.251 59.5785C324.239 59.0518 324.235 58.525 324.238 57.9982C324.241 57.4713 324.252 56.9447 324.271 56.4181C324.29 55.8916 324.316 55.3655 324.35 54.8397C324.384 54.314 324.426 53.7889 324.476 53.2644C324.712 50.8443 325.071 48.3075 326.066 46.0739C326.651 44.7595 327.517 43.4856 328.926 42.9791C331.649 42.0003 339.244 43.7159 342.068 44.6554C345.07 45.654 347.708 47.0967 350.164 49.0891C353.217 51.5661 355.658 54.4601 358.004 57.598C355.146 59.8682 351.564 61.7009 349.105 64.442C348.615 63.484 348.445 62.705 347.853 61.8062C344.71 57.0261 339.311 51.7139 333.297 51.4203C335.433 52.8941 337.698 54.4945 339.577 56.2987C340.702 57.3798 341.696 58.6536 342.859 59.6755C343.907 60.9851 344.934 62.1061 345.799 63.7355C343.159 63.3426 340.07 63.0392 337.793 64.7728C337.594 64.9247 337.408 65.0944 337.223 65.2632C336.82 65.8853 336.601 66.4955 336.743 67.2425C337.07 68.9725 338.881 70.2751 340.175 71.2744C339.302 72.6585 338.29 73.965 337.336 75.2938C336.961 75.8153 336.609 76.4728 336.178 76.9387C334.678 78.9616 333.451 81.5077 332.358 83.781C331.87 84.894 331.39 86.0109 330.918 87.1315C329.97 89.528 328.957 91.9945 328.274 94.4812C327.285 93.2877 327.345 91.9513 327.479 90.4746C327.522 90.0038 327.767 88.8023 327.614 88.4046C325.94 88.674 324.087 89.8154 322.355 89.3303C322.094 89.2573 321.849 89.1125 321.734 88.853C321.583 88.5084 321.685 88.0691 321.802 87.7313C322.528 85.6404 324.594 83.2037 326.435 81.9855C327.223 81.4645 328.126 81.1061 328.975 80.6996Z" fill="white"/>
<path d="M333.285 51.4137C336.149 50.4244 341.168 57.8761 342.857 59.6759C343.773 61.0637 344.851 62.3591 345.797 63.7359C343.157 63.343 340.068 63.0396 337.791 64.7732C337.592 64.9251 337.406 65.0948 337.221 65.2636C336.818 65.8857 336.599 66.4959 336.741 67.2429C337.068 68.9729 338.879 70.2755 340.173 71.2748C339.3 72.6589 338.288 73.9654 337.334 75.2942C336.959 75.8157 336.607 76.4732 336.176 76.9391C336.154 76.9075 336.131 76.8772 336.11 76.8447C332.388 70.9473 329.976 61.053 331.461 54.1696C331.724 52.9488 332.237 52.1002 333.285 51.4137Z" fill="#F15F31"/>
<path d="M342.859 59.6755C344.131 60.9333 345.065 62.4798 345.799 63.7355C343.159 63.3426 340.071 63.0392 337.793 64.7728C337.594 64.9246 337.408 65.0944 337.223 65.2632C337.356 63.5364 338.153 62.0982 339.41 60.9333C340.475 59.9459 341.41 59.6089 342.859 59.6755Z" fill="#812609"/>
<path d="M344.098 69.7459C343.757 69.6232 343.339 69.6385 342.98 69.5805C341.371 69.3208 339.929 68.4915 339.014 67.1089C338.862 66.8777 338.806 66.7878 338.858 66.5137C339.231 66.0648 339.837 65.9282 340.38 65.7871C342.056 65.3517 345.091 65.3413 346.566 66.3386C346.836 66.5215 347.589 66.8993 348.306 67.1089C347.494 67.8949 344.957 69.1197 344.098 69.7459Z" fill="#F15F31"/>
<path d="M361.125 96.0689C361.15 96.0645 361.175 96.0607 361.199 96.0575C361.224 96.0544 361.249 96.0519 361.274 96.05C361.298 96.048 361.323 96.0467 361.348 96.0458C361.373 96.0452 361.398 96.0451 361.423 96.0456C361.448 96.0461 361.473 96.0472 361.498 96.049C361.523 96.0508 361.547 96.0532 361.572 96.0563C361.597 96.0592 361.622 96.0627 361.646 96.0669C361.671 96.0711 361.695 96.076 361.72 96.0815C361.744 96.087 361.768 96.0931 361.792 96.0997C361.816 96.1063 361.84 96.1135 361.864 96.1213C361.887 96.129 361.911 96.1374 361.934 96.1465C361.957 96.1554 361.98 96.1649 362.003 96.1751C362.026 96.1853 362.049 96.196 362.071 96.2071C362.093 96.2184 362.115 96.2302 362.137 96.2425C362.159 96.2548 362.18 96.2677 362.201 96.2811C362.222 96.2945 362.243 96.3084 362.263 96.3228C362.284 96.3372 362.304 96.3522 362.323 96.3677C362.343 96.383 362.362 96.3989 362.381 96.4152C362.4 96.4317 362.418 96.4485 362.436 96.4657C362.454 96.483 362.472 96.5007 362.489 96.519C362.506 96.5371 362.523 96.5557 362.539 96.5748C362.556 96.5937 362.571 96.613 362.587 96.6328C362.602 96.6527 362.617 96.6728 362.631 96.6932C362.646 96.7137 362.659 96.7346 362.673 96.7557C362.686 96.7769 362.699 96.7984 362.711 96.8202C362.723 96.8421 362.735 96.8642 362.746 96.8867C362.757 96.9092 362.768 96.9319 362.778 96.9548C362.788 96.9776 362.797 97.0008 362.806 97.0242C362.815 97.0477 362.823 97.0713 362.831 97.095C362.839 97.1188 362.846 97.1428 362.853 97.1671C362.859 97.1913 362.865 97.2156 362.871 97.2401C362.876 97.2645 362.881 97.2891 362.885 97.3138C362.889 97.3385 362.893 97.3633 362.895 97.3882C362.898 97.4131 362.901 97.4381 362.902 97.463C362.904 97.488 362.905 97.5131 362.906 97.5381C362.906 97.5632 362.906 97.5882 362.905 97.6131C362.905 97.6381 362.903 97.6632 362.901 97.6883C362.899 97.7132 362.897 97.7381 362.894 97.763C362.89 97.7879 362.887 97.8126 362.882 97.8372C362.878 97.8619 362.873 97.8865 362.867 97.9109C362.862 97.9353 362.855 97.9596 362.849 97.9837C362.842 98.0078 362.834 98.0317 362.826 98.0555C362.818 98.0791 362.81 98.1026 362.801 98.126C362.792 98.1493 362.782 98.1724 362.772 98.1951C362.761 98.2179 362.751 98.2405 362.739 98.2628C362.728 98.2851 362.716 98.3071 362.703 98.3288C362.691 98.3506 362.678 98.372 362.665 98.3931C362.651 98.4141 362.637 98.4348 362.622 98.4551C362.608 98.4755 362.593 98.4955 362.577 98.515C362.562 98.5348 362.546 98.554 362.529 98.5728C362.513 98.5915 362.496 98.61 362.479 98.6281C362.461 98.646 362.444 98.6636 362.425 98.6807C362.407 98.6978 362.388 98.7145 362.369 98.7307C362.351 98.7468 362.331 98.7625 362.311 98.7777C362.291 98.7929 362.271 98.8076 362.251 98.8219C362.23 98.8361 362.209 98.8497 362.188 98.8628C362.167 98.8761 362.146 98.8888 362.124 98.9009C362.102 98.913 362.08 98.9246 362.057 98.9356C362.035 98.9466 362.012 98.957 361.989 98.9669C361.966 98.9767 361.943 98.986 361.92 98.9948C361.897 99.0035 361.873 99.0117 361.849 99.0193C361.826 99.0269 361.802 99.0339 361.777 99.0404C361.753 99.0467 361.729 99.0524 361.705 99.0576C361.68 99.0628 361.656 99.0674 361.631 99.0714C361.607 99.0753 361.582 99.0786 361.558 99.0814C361.533 99.0841 361.509 99.0863 361.484 99.0879C361.46 99.0894 361.435 99.0903 361.41 99.0906C361.386 99.0909 361.361 99.0906 361.336 99.0896C361.312 99.0888 361.287 99.0873 361.263 99.0852C361.238 99.0831 361.213 99.0804 361.189 99.077C361.165 99.0738 361.14 99.0699 361.116 99.0654C361.092 99.0608 361.068 99.0557 361.044 99.0501C361.02 99.0444 360.996 99.0382 360.972 99.0314C360.948 99.0244 360.925 99.017 360.901 99.0091C360.878 99.001 360.855 98.9924 360.832 98.9834C360.809 98.9742 360.786 98.9645 360.764 98.9543C360.742 98.9439 360.719 98.9331 360.698 98.9218C360.676 98.9105 360.654 98.8986 360.633 98.8861C360.611 98.8737 360.59 98.8607 360.569 98.8473C360.549 98.8339 360.528 98.82 360.508 98.8056C360.488 98.791 360.469 98.7761 360.449 98.7607C360.43 98.7454 360.411 98.7295 360.393 98.7132C360.374 98.6969 360.356 98.6801 360.338 98.6628C360.32 98.6456 360.303 98.628 360.286 98.6099C360.269 98.5918 360.253 98.5733 360.237 98.5543C360.221 98.5356 360.205 98.5163 360.19 98.4966C360.175 98.4771 360.161 98.4571 360.147 98.4367C360.133 98.4163 360.119 98.3956 360.106 98.3746C360.093 98.3536 360.08 98.3323 360.068 98.3106C360.056 98.2889 360.045 98.267 360.034 98.2449C360.023 98.2227 360.013 98.2002 360.003 98.1774C359.993 98.1548 359.983 98.1318 359.975 98.1086C359.966 98.0854 359.958 98.0621 359.95 98.0385C359.943 98.0149 359.936 97.9911 359.929 97.9672C359.923 97.9434 359.917 97.9194 359.911 97.8951C359.906 97.8709 359.901 97.8466 359.897 97.8221C359.893 97.7977 359.89 97.7732 359.887 97.7487C359.884 97.7239 359.881 97.6993 359.88 97.6747C359.878 97.6499 359.877 97.6251 359.876 97.6002C359.876 97.5755 359.876 97.5507 359.877 97.526C359.877 97.5013 359.878 97.4765 359.88 97.4518C359.882 97.4271 359.885 97.4024 359.888 97.3778C359.891 97.3532 359.895 97.3288 359.899 97.3043C359.903 97.2799 359.908 97.2556 359.913 97.2313C359.919 97.2072 359.925 97.1832 359.932 97.1593C359.938 97.1355 359.945 97.1118 359.953 97.0882C359.961 97.0648 359.969 97.0415 359.978 97.0184C359.987 96.9953 359.997 96.9724 360.007 96.9498C360.017 96.9271 360.027 96.9047 360.038 96.8826C360.049 96.8604 360.061 96.8386 360.073 96.8171C360.085 96.7954 360.098 96.7742 360.111 96.7533C360.124 96.7323 360.138 96.7117 360.152 96.6915C360.166 96.6713 360.181 96.6514 360.196 96.6318C360.211 96.6122 360.227 96.5931 360.243 96.5743C360.259 96.5554 360.276 96.537 360.293 96.519C360.31 96.5011 360.327 96.4835 360.345 96.4664C360.363 96.4494 360.381 96.4328 360.4 96.4164C360.418 96.4003 360.437 96.3845 360.457 96.3691C360.476 96.3539 360.496 96.3391 360.516 96.3248C360.536 96.3105 360.557 96.2968 360.577 96.2835C360.598 96.2701 360.619 96.2572 360.641 96.245C360.662 96.2328 360.684 96.2211 360.706 96.2098C360.728 96.1986 360.75 96.188 360.773 96.1778C360.795 96.1678 360.818 96.1582 360.841 96.1492C360.864 96.1401 360.887 96.1317 360.911 96.1239C360.934 96.116 360.957 96.1087 360.981 96.1021C361.005 96.0953 361.029 96.0892 361.053 96.0837C361.077 96.0782 361.101 96.0732 361.125 96.0689Z" fill="white"/>
</svg>
