<svg width="834" height="424" viewBox="0 0 834 424" fill="none" xmlns="http://www.w3.org/2000/svg">
<path d="M0 235.653H68.7542C77.0849 235.213 85.4174 236.482 93.2444 239.383C101.071 242.285 108.229 246.757 114.281 252.529C120.332 258.301 125.152 265.252 128.445 272.957C131.739 280.661 133.437 288.96 133.437 297.346C133.437 305.732 131.739 314.03 128.445 321.735C125.152 329.44 120.332 336.39 114.281 342.162C108.229 347.934 101.071 352.407 93.2444 355.309C85.4174 358.21 77.0849 359.479 68.7542 359.038H30.7271V423.376H0V235.653ZM30.7271 330.027H68.7542C72.9263 330.18 77.083 329.437 80.9471 327.848C84.8112 326.259 88.2938 323.86 91.1628 320.811C96.8442 314.328 99.9787 305.985 99.9787 297.346C99.9787 288.706 96.8442 280.363 91.1628 273.88C88.3023 270.809 84.8254 268.384 80.9621 266.766C77.0989 265.148 72.9376 264.374 68.7542 264.494H30.7271V330.027Z" fill="#131C26"/>
<path d="M294.177 423.36H260.225L247.153 385.475H167.704L154.632 423.36H120.679L188.585 235.638H225.423L294.177 423.36ZM208.277 272.329L178.569 357.658H237.646L208.277 272.329Z" fill="#131C26"/>
<path d="M426.295 362.948V235.638H457.022V423.36H432.916L344.979 295.88V423.36H314.251V235.638H338.358L426.295 362.948Z" fill="#131C26"/>
<path d="M494.376 235.65H567.714C579.641 235.382 591.49 237.645 602.488 242.291C613.487 246.937 623.387 253.862 631.545 262.613C648.043 280.913 657.18 304.728 657.18 329.425C657.18 354.123 648.043 377.937 631.545 396.238C623.402 405.02 613.509 411.976 602.51 416.652C591.51 421.328 579.653 423.618 567.714 423.372H494.376V235.65ZM525.103 393.848H567.714C575.766 394.153 583.787 392.676 591.209 389.52C598.631 386.365 605.272 381.609 610.664 375.588C622.1 363.052 628.194 346.511 627.64 329.511C628.167 312.464 622.079 295.88 610.664 283.263C605.242 277.292 598.591 272.58 591.173 269.456C583.756 266.332 575.75 264.87 567.714 265.173H525.103V393.848Z" fill="#131C26"/>
<path d="M833.063 423.36H799.959L786.888 385.475H707.269L694.197 423.36H660.244L728.149 235.638H764.988L833.063 423.36ZM746.993 272.329L717.285 357.658H776.532L746.993 272.329Z" fill="#131C26"/>
<path d="M330.066 113.293L330.099 113.407C330.352 114.316 330.398 115.292 330.64 116.21C331.415 119.151 333.16 121.711 335.003 124.069C334.877 124.072 334.726 124.083 334.603 124.055C334.115 123.943 333.517 123.373 333.124 123.053C331.061 121.369 329.399 119.601 327.806 117.467C327.319 116.814 326.806 116.168 326.43 115.441C327.474 114.734 328.614 114.328 329.701 113.729C329.973 113.579 329.977 113.598 330.066 113.293Z" fill="#812609"/>
<path d="M424.312 140.804C425.859 142.562 427.65 144.061 429.359 145.654C430.793 146.992 432.185 148.43 433.519 149.869C433.757 150.125 433.991 150.383 434.223 150.644C434.454 150.905 434.682 151.17 434.907 151.437C435.132 151.704 435.353 151.974 435.571 152.247C435.789 152.52 436.003 152.795 436.214 153.074C436.425 153.352 436.632 153.633 436.835 153.917C437.039 154.201 437.239 154.487 437.435 154.776C437.632 155.065 437.824 155.356 438.013 155.65C438.202 155.944 438.387 156.24 438.569 156.539C438.75 156.837 438.928 157.138 439.101 157.441C439.275 157.744 439.445 158.05 439.611 158.357C439.777 158.665 439.939 158.975 440.097 159.286C417.313 159.059 429.359 166.271 432.106 167.184C430.023 166.249 426.107 165.506 423.806 165.136C423.067 165.017 420.598 164.933 420.114 164.653C420.08 164.632 420.047 164.61 420.013 164.589C421.988 164.119 424.032 163.561 425.951 162.894C424.423 161.789 422.807 161.657 420.977 161.949C417.923 162.437 415.188 164.214 412.842 166.143C412.902 163.416 412.976 161.737 412.137 159.059C411.72 160.314 411.317 161.574 410.929 162.838C410.735 163.472 410.574 164.412 410.256 164.969C409.78 166.958 409.128 170.277 408.344 172.051C407.501 173.961 406.322 175.695 405.554 177.659C405.24 178.461 404.958 179.274 404.709 180.099C404.453 180.976 404.266 181.927 403.84 182.74C403.446 183.49 402.622 184.053 402.023 184.645C401.364 185.297 403.08 172.41 402.714 173.259C402.05 174.799 401.948 176.362 402.021 178.016C402.047 178.62 402.12 179.264 402.031 179.863C401.883 180.857 399.117 172.618 398.702 173.526C397.298 176.599 395.349 180.102 392.406 181.911C390.337 159.74 388.103 183.564 385.904 183.842C385.336 183.914 384.615 184.061 384.053 183.916C383.845 183.862 383.742 183.815 383.632 183.623C383.12 182.723 384.12 179.094 384.124 177.852C382.183 179.679 381.653 181.551 381.392 184.128C380.356 184.056 377.193 183.975 376.534 183.263C376.117 182.814 376.247 181.638 376.322 181.064C376.453 180.069 377.263 178.708 377.019 177.777C376.865 177.673 376.86 177.671 376.685 177.71C375.994 177.864 375.433 178.57 375.09 179.157C374.408 180.327 374.285 181.638 374.007 182.933C373.132 182.373 372.339 181.744 372.09 180.668C371.767 179.269 372.338 177.726 373.099 176.573C373.968 175.256 375.413 174.31 376.124 172.932C376.91 171.407 379.55 178.138 379.878 176.421C380.618 172.552 378.921 182.439 379.528 178.548C379.9 176.164 380.354 173.795 380.731 171.413C380.85 170.663 380.937 169.909 380.99 169.151C381.03 168.597 380.966 167.875 381.125 167.352C381.125 166.911 381.172 166.426 381.027 166.006L380.901 165.976C379.897 167.079 378.406 172.919 378.095 174.543C377.514 177.01 377.097 179.519 376.575 181.999C372.957 180.672 370.267 179.137 367.313 176.66C366.887 176.302 366.216 175.868 365.9 175.432C364.255 173.758 362.608 172.064 361.183 170.192C360.317 169.053 359.604 167.718 358.647 166.663C358.647 167.808 358.721 168.955 359.058 170.054L358.964 170.246L358.838 170.216C358.471 169.533 358.105 168.842 357.648 168.214C357.092 167.451 356.432 166.761 355.899 165.981C355.412 165.27 355.019 164.482 354.604 163.727C353.869 164.064 353.33 164.645 352.619 165.021C352.064 165.315 351.395 165.415 350.799 165.613C351.335 162.96 350.852 160.793 350.432 158.179C350.24 156.943 350.098 155.701 350.006 154.454C349.802 151.933 349.931 149.44 350.077 146.921C350.133 146.681 350.128 146.566 350.308 146.394C350.561 146.385 350.689 146.408 350.915 146.521L351.82 146.965C357.159 143.492 357.362 143.037 363.378 145.523C364.596 146.026 365.76 146.638 367.015 147.052C371.119 148.406 375.443 149.247 379.766 148.694C381.605 148.459 383.427 148.014 385.236 147.608C387.573 147.083 389.985 146.55 392.229 145.691C393.434 145.23 394.347 144.319 395.495 143.758C395.74 143.639 395.995 143.556 396.259 143.49C397.182 143.259 398.158 143.377 399.086 143.206C399.915 143.053 400.679 142.624 401.518 142.5C403.079 142.269 404.93 143.004 406.498 143.186C408.97 143.473 411.36 143.301 413.827 143.113C417.079 142.865 419.108 142.745 422.247 141.619C422.942 141.37 423.653 141.14 424.312 140.804Z" fill="#F15F31"/>
<path d="M367.7 171.724C368.877 172.536 369.149 173.296 370.092 174.172C370.171 174.245 370.309 174.362 370.406 174.404C370.91 174.619 372.324 174.363 372.954 174.384C374.79 174.446 376.191 174.614 378.096 174.543C377.515 177.009 377.098 179.518 376.576 181.999C372.958 180.672 370.268 179.137 367.314 176.659C366.888 176.301 366.217 175.867 365.901 175.431C366.027 175.169 366.049 174.886 366.181 174.63C366.692 173.63 367.288 172.788 367.7 171.724Z" fill="#812609"/>
<path d="M348.058 171.555C348.206 172.127 348.081 173.01 348.094 173.624C348.121 174.847 348.188 176.074 348.262 177.294C348.385 179.303 348.717 181.323 348.975 183.32C348.373 182.792 347.847 182.133 347.284 181.557C346.398 180.718 345.468 180.04 344.468 179.349C345.203 176.888 346.297 173.401 348.058 171.555Z" fill="#812609"/>
<path d="M361.704 96.0155C361.726 96.0116 361.748 96.0082 361.77 96.0053C361.792 96.0025 361.814 96.0003 361.836 95.9986C361.859 95.9968 361.881 95.9956 361.903 95.9949C361.925 95.9943 361.948 95.9942 361.97 95.9947C361.992 95.9951 362.014 95.9961 362.037 95.9977C362.059 95.9993 362.081 96.0014 362.103 96.0042C362.125 96.0068 362.147 96.01 362.169 96.0137C362.191 96.0175 362.213 96.0218 362.234 96.0267C362.256 96.0316 362.278 96.037 362.299 96.043C362.321 96.0489 362.342 96.0553 362.363 96.0622C362.384 96.0691 362.405 96.0767 362.426 96.0847C362.447 96.0927 362.467 96.1012 362.488 96.1103C362.508 96.1194 362.528 96.1289 362.548 96.1389C362.568 96.149 362.588 96.1595 362.607 96.1705C362.626 96.1815 362.645 96.1929 362.664 96.2049C362.683 96.2169 362.702 96.2293 362.72 96.2422C362.738 96.255 362.756 96.2684 362.773 96.2822C362.791 96.2959 362.808 96.3101 362.825 96.3247C362.842 96.3394 362.858 96.3544 362.874 96.3697C362.89 96.3851 362.906 96.401 362.921 96.4173C362.937 96.4335 362.952 96.4501 362.966 96.4671C362.981 96.484 362.995 96.5013 363.008 96.5189C363.022 96.5366 363.035 96.5546 363.048 96.5728C363.061 96.5911 363.073 96.6098 363.085 96.6287C363.097 96.6476 363.108 96.6668 363.119 96.6863C363.13 96.7058 363.141 96.7255 363.151 96.7456C363.161 96.7657 363.17 96.7859 363.179 96.8064C363.188 96.8268 363.196 96.8474 363.204 96.8684C363.212 96.8893 363.22 96.9104 363.227 96.9316C363.234 96.9528 363.24 96.9743 363.246 96.9959C363.252 97.0176 363.257 97.0393 363.262 97.0611C363.267 97.0829 363.271 97.1048 363.275 97.1269C363.278 97.149 363.281 97.1711 363.284 97.1934C363.287 97.2156 363.289 97.2378 363.29 97.2601C363.292 97.2825 363.293 97.3048 363.293 97.3272C363.294 97.3496 363.294 97.3719 363.293 97.3941C363.292 97.4165 363.291 97.4389 363.289 97.4612C363.288 97.4835 363.285 97.5057 363.282 97.5279C363.28 97.5502 363.276 97.5722 363.272 97.5942C363.268 97.6163 363.264 97.6382 363.259 97.66C363.254 97.6818 363.248 97.7035 363.242 97.725C363.236 97.7465 363.23 97.7678 363.222 97.7891C363.215 97.8101 363.208 97.8311 363.199 97.8521C363.191 97.8729 363.183 97.8934 363.174 97.9138C363.164 97.9341 363.155 97.9543 363.145 97.9742C363.134 97.9941 363.124 98.0138 363.113 98.0331C363.102 98.0526 363.09 98.0717 363.078 98.0905C363.066 98.1092 363.053 98.1277 363.04 98.1459C363.027 98.1641 363.014 98.1819 363 98.1994C362.986 98.217 362.972 98.2342 362.957 98.2509C362.943 98.2677 362.928 98.2841 362.912 98.3003C362.897 98.3163 362.881 98.332 362.865 98.3473C362.848 98.3626 362.832 98.3774 362.815 98.3919C362.798 98.4063 362.78 98.4203 362.762 98.4339C362.745 98.4475 362.727 98.4606 362.709 98.4733C362.69 98.486 362.672 98.4982 362.653 98.5099C362.634 98.5217 362.615 98.5331 362.595 98.5439C362.576 98.5547 362.556 98.565 362.536 98.5749C362.516 98.5847 362.496 98.594 362.475 98.6028C362.455 98.6116 362.434 98.6199 362.413 98.6277C362.393 98.6355 362.372 98.6428 362.35 98.6496C362.329 98.6563 362.308 98.6626 362.286 98.6684C362.265 98.674 362.243 98.6791 362.221 98.6838C362.199 98.6884 362.178 98.6925 362.156 98.6961C362.134 98.6996 362.112 98.7025 362.09 98.705C362.068 98.7074 362.046 98.7094 362.024 98.7108C362.003 98.7121 361.98 98.7129 361.958 98.7132C361.936 98.7135 361.914 98.7132 361.892 98.7124C361.87 98.7116 361.849 98.7103 361.827 98.7085C361.805 98.7066 361.783 98.7041 361.761 98.7011C361.739 98.6982 361.717 98.6947 361.696 98.6907C361.674 98.6867 361.653 98.6821 361.631 98.6771C361.61 98.672 361.588 98.6664 361.567 98.6604C361.546 98.6542 361.525 98.6475 361.504 98.6405C361.483 98.6332 361.463 98.6256 361.442 98.6175C361.422 98.6093 361.402 98.6006 361.382 98.5915C361.362 98.5823 361.342 98.5726 361.322 98.5625C361.303 98.5524 361.283 98.5418 361.264 98.5307C361.245 98.5196 361.226 98.508 361.208 98.496C361.189 98.4841 361.171 98.4716 361.153 98.4588C361.135 98.4458 361.118 98.4324 361.101 98.4187C361.083 98.405 361.067 98.3909 361.05 98.3763C361.033 98.3617 361.017 98.3467 361.001 98.3313C360.986 98.316 360.97 98.3002 360.955 98.2841C360.94 98.2679 360.925 98.2514 360.911 98.2345C360.897 98.2177 360.883 98.2005 360.87 98.1829C360.856 98.1655 360.843 98.1476 360.831 98.1294C360.818 98.1113 360.806 98.0928 360.794 98.074C360.783 98.0553 360.771 98.0362 360.761 98.0169C360.75 97.9975 360.74 97.9779 360.73 97.9582C360.72 97.9384 360.711 97.9183 360.702 97.898C360.693 97.8778 360.685 97.8573 360.677 97.8365C360.669 97.8158 360.662 97.795 360.655 97.7739C360.648 97.7528 360.642 97.7316 360.636 97.7102C360.63 97.689 360.625 97.6676 360.62 97.6459C360.616 97.6243 360.612 97.6026 360.608 97.5808C360.604 97.559 360.601 97.5371 360.598 97.5151C360.596 97.4931 360.594 97.471 360.592 97.4491C360.591 97.427 360.59 97.4049 360.589 97.3826C360.589 97.3605 360.589 97.3385 360.589 97.3164C360.59 97.2943 360.591 97.2722 360.593 97.2501C360.595 97.228 360.597 97.206 360.599 97.1841C360.602 97.1621 360.606 97.1403 360.609 97.1185C360.613 97.0967 360.617 97.0749 360.622 97.0533C360.627 97.0318 360.633 97.0103 360.638 96.989C360.644 96.9678 360.651 96.9466 360.658 96.9255C360.665 96.9046 360.672 96.8838 360.68 96.8632C360.688 96.8425 360.697 96.8221 360.705 96.8019C360.714 96.7817 360.724 96.7617 360.734 96.7419C360.744 96.7221 360.754 96.7026 360.765 96.6834C360.776 96.6641 360.787 96.6451 360.799 96.6265C360.81 96.6077 360.823 96.5893 360.836 96.5713C360.848 96.5532 360.861 96.5355 360.875 96.518C360.888 96.5006 360.902 96.4834 360.916 96.4667C360.931 96.4498 360.946 96.4334 360.961 96.4173C360.976 96.4013 360.992 96.3856 361.008 96.3703C361.023 96.3552 361.04 96.3403 361.056 96.3257C361.073 96.3113 361.09 96.2972 361.107 96.2835C361.125 96.2699 361.142 96.2567 361.16 96.2439C361.178 96.2312 361.196 96.2189 361.215 96.2071C361.234 96.1951 361.253 96.1836 361.272 96.1727C361.291 96.1618 361.31 96.1514 361.33 96.1413C361.349 96.1313 361.369 96.1218 361.389 96.1127C361.409 96.1037 361.43 96.0952 361.45 96.0871C361.471 96.079 361.491 96.0715 361.512 96.0646C361.533 96.0575 361.554 96.051 361.575 96.0451C361.597 96.0391 361.618 96.0336 361.639 96.0287C361.661 96.0237 361.682 96.0193 361.704 96.0155Z" fill="white"/>
<path d="M140.994 188.079H106.978L67.3506 119.69H31.1241V188.079H0V0.00972758H74.8337C82.7322 -0.0127656 90.5575 1.53161 97.8612 4.55456C105.165 7.57752 111.804 12.0195 117.397 17.6261C122.99 23.2326 127.427 29.8934 130.455 37.227C133.482 44.5605 135.041 52.4227 135.041 60.3628C135.153 72.19 131.52 83.7463 124.666 93.3603C118.064 103.091 108.7 110.598 97.7942 114.903L140.994 188.079ZM75.5142 28.9038H31.4643V91.8216H75.5142C79.436 91.8547 83.3216 91.0659 86.9233 89.5058C90.5251 87.9456 93.764 85.6484 96.4336 82.7601C101.749 76.5545 104.672 68.6372 104.672 60.4482C104.672 52.2591 101.749 44.342 96.4336 38.1364C93.7994 35.1917 90.5713 32.845 86.9641 31.253C83.3569 29.661 79.4535 28.8601 75.5142 28.9038Z" fill="#131C26"/>
<path d="M195.237 107.722V158.5H278.064V188.079H164.453V0.00948537H276.874V29.5876H195.237V78.4856H270.071V107.722H195.237Z" fill="#131C26"/>
<path d="M306.114 0.0211719H379.588C391.537 -0.246585 403.408 2.02065 414.426 6.67525C425.445 11.3298 435.364 18.267 443.536 27.0345C460.065 45.3686 469.219 69.2273 469.219 93.9703C469.219 118.713 460.065 142.572 443.536 160.906C435.379 169.704 425.467 176.674 414.447 181.358C403.428 186.042 391.549 188.336 379.588 188.09H306.114V0.0211719ZM336.728 158.512H379.588C387.655 158.818 395.691 157.337 403.126 154.176C410.562 151.015 417.216 146.25 422.617 140.218C434.074 127.659 440.18 111.087 439.625 94.0558C440.152 76.9777 434.053 60.3624 422.617 47.7223C417.185 41.74 410.522 37.0196 403.091 33.8898C395.659 30.7599 387.639 29.2958 379.588 29.5993H336.728V158.512Z" fill="#131C26"/>
<path d="M332.262 74.5772L328.265 94.4746C328.527 94.6701 328.88 94.6914 329.163 94.5289L331.864 92.9792L353.566 71.3528L410.774 76.6273C419.655 86.5001 435.249 107.176 436.872 106.31C438.495 105.444 438.373 96.9847 438.418 94.8208L441.609 77.8445L445.802 58.6478L442.826 49.9844L418.753 62.1563L365.467 60.6686L351.882 58.6478L336.438 48.0607L328.959 51.9459L332.262 74.5772Z" fill="white"/>
<path d="M408.256 58.2529C414.355 52.1204 423.903 46.9297 433.534 44.5403C430.024 46.4956 427.647 46.9031 424.555 49.4269C420.942 52.3766 417.062 56.631 414.721 60.6946C417.974 63.353 421.813 66.3742 423.981 69.0487C424.545 68.6136 425.106 68.1763 425.737 67.8409C427.315 67.0015 429.876 66.2389 431.672 66.5142C432.04 66.5707 432.466 66.7044 432.71 67.0056C432.852 67.1819 432.822 67.4989 432.778 67.7084C432.668 68.2309 432.337 68.9922 431.969 69.3926C431.505 69.8961 428.209 71.4175 428.679 72.2964C428.937 72.7788 430.769 73.6427 431.305 74.1171C432.757 75.4027 431.07 76.0497 429.677 76.1284C429.624 76.1313 429.571 76.1327 429.519 76.1361C429.351 76.1478 429.416 76.1374 429.251 76.2026C433.444 81.7874 435.657 88.3364 437.263 95.0567C438.194 98.9554 439.016 102.769 440.691 106.437C441.049 107.201 441.445 107.945 441.879 108.669C442.313 109.392 442.783 110.09 443.29 110.765C443.796 111.425 444.396 112.051 444.85 112.744C443.146 114.594 441.434 115.825 439.119 116.797C438.3 117.141 437.339 117.448 436.596 117.928C437.354 119.205 438.792 119.748 439.867 120.686C435.092 126.254 428.075 130.058 421.199 132.329C420.134 132.68 419.065 133.04 417.986 133.341C417.241 133.549 416.067 133.62 415.423 134.007L415.274 133.884C414.399 133.92 409.308 135.128 408.355 135.466C408.232 135.514 408.2 135.515 408.069 135.497C407.437 135.407 399.234 137.213 398.222 137.48C397.639 137.634 397.09 137.848 396.535 138.081C398.623 138.192 400.748 138.39 402.837 138.357C408.739 138.265 414.546 137.005 420.263 135.645C421.649 137.717 421.317 137.832 423.175 139.61C422.673 140.157 421.58 141.77 420.885 142.019C417.746 143.144 417.079 142.864 413.826 143.112C411.359 143.3 408.97 143.472 406.498 143.186C404.929 143.004 403.078 142.269 401.517 142.5C400.678 142.624 399.914 143.052 399.086 143.205C398.157 143.377 397.181 143.258 396.259 143.489C395.994 143.555 395.739 143.638 395.494 143.758C394.347 144.319 393.434 145.23 392.229 145.691C389.984 146.549 387.573 147.082 385.235 147.608C383.427 148.014 381.604 148.459 379.765 148.694C375.443 149.246 371.118 148.405 367.014 147.052C365.759 146.638 364.595 146.026 363.377 145.523C361.345 144.683 359.169 144.226 357.432 142.814C355.585 144.206 353.756 145.704 351.819 146.964L350.914 146.521C350.688 146.407 350.561 146.384 350.307 146.393C350.127 146.565 350.132 146.681 350.077 146.92C350.031 144.204 351.476 138.345 352.858 135.97C354.446 136.181 356.078 136.251 357.676 136.376C359.437 136.513 361.213 136.702 362.979 136.726C359.484 134.535 354.887 133.808 351.005 132.429C350.179 132.136 349.285 131.849 348.505 131.45C345.804 130.643 338.625 127.259 336.324 125.488C335.82 125.1 335.408 124.556 335 124.069C334.874 124.073 334.723 124.083 334.6 124.055C334.112 123.943 333.514 123.373 333.121 123.053C331.058 121.369 329.397 119.601 327.803 117.468C327.316 116.814 326.803 116.168 326.427 115.441C327.471 114.734 328.611 114.328 329.698 113.729C329.97 113.579 329.974 113.598 330.063 113.293L330.043 113.219C329.713 113.003 329.421 112.742 329.084 112.531C328.095 111.909 326.955 111.339 326.09 110.548C325.081 109.625 324.389 108.413 323.295 107.552C324.182 106.742 325.042 105.939 325.767 104.971C328.717 101.033 330.872 93.4284 332.604 88.6837C332.979 87.6576 333.315 86.5851 333.77 85.5944C336.442 79.778 340.018 74.6361 344.095 69.7457C344.953 69.1195 346.094 67.8193 346.906 67.0332C349.705 63.1174 354.221 60.6015 358.002 57.5977C355.656 54.4599 353.215 51.5659 350.162 49.0889C349.095 48.2229 345.481 46.3251 344.36 45.529C347.434 46.5177 349.308 47.3524 350.402 47.8735C354.52 49.8346 358.596 52.1979 361.888 55.4035C360.652 56.281 360.938 55.8403 359.74 56.7713C368.849 49.6904 394.76 49.4269 408.256 58.2529Z" fill="#F15F31"/>
<path d="M362.635 107.819L362.722 107.76C364.852 106.305 366.088 104.176 367.711 102.239C371.2 98.0744 376.367 95.918 381.754 96.9497C386.668 97.891 389.85 100.811 392.807 104.671C393.931 106.139 400.445 117.573 401.743 118.898C407.526 115.844 409.765 116.428 418.532 115.588C419.508 120.107 418.77 124.469 416.281 128.371C416.002 128.807 415.711 129.234 415.407 129.653C413.997 131.191 413.389 132.053 411.591 133.299C411.105 133.636 410.623 134.006 410.108 134.297C409.574 134.6 409.314 134.869 408.82 135.222C408.733 135.284 408.561 135.321 408.503 135.399L408.355 135.467C405.32 136.637 401.428 136.636 398.222 137.48C397.639 137.634 397.09 137.848 396.535 138.082C398.622 138.193 400.747 138.39 402.837 138.357C408.739 138.265 414.546 137.005 420.263 135.646C421.649 137.717 421.317 137.832 423.175 139.61C422.702 140.098 421.639 141.785 420.944 142.034C417.805 143.159 417.078 142.864 413.826 143.112C411.359 143.3 408.969 143.473 406.497 143.186C400.313 142.469 397.657 143.614 392.228 145.691C389.984 146.549 387.572 147.083 385.235 147.608C383.426 148.014 381.604 148.459 379.765 148.694C375.442 149.246 371.118 148.406 367.014 147.052C365.759 146.638 364.595 146.026 363.377 145.523C358.582 143.541 353.537 147.807 350.914 146.521C350.688 146.407 350.56 146.384 350.307 146.394C350.127 146.566 350.132 146.681 350.076 146.92C350.031 144.204 351.476 138.345 352.858 135.971C354.446 136.181 356.078 136.252 357.676 136.376C359.436 136.514 361.213 136.703 362.978 136.727C359.484 134.535 354.887 133.808 351.005 132.429C350.179 132.136 349.285 131.85 348.505 131.451C347.902 131.051 346.168 129.443 345.868 129.122C343.907 127.027 342.677 124.815 341.593 122.178C341.251 121.097 341.087 120.02 340.951 118.898C344.286 119.02 347.598 119.256 350.902 119.744C352.523 119.984 354.12 120.404 355.743 120.614C355.666 119.429 355.608 118.216 355.752 117.034C356.078 114.369 357.764 111.465 359.845 109.797C360.733 109.085 361.736 108.523 362.635 107.819Z" fill="#812609"/>
<path d="M362.636 107.819L362.724 107.76C364.854 106.305 366.089 104.176 367.712 102.239C371.202 98.0744 376.368 95.918 381.756 96.9497C386.669 97.891 389.851 100.811 392.808 104.671C393.932 106.139 394.969 107.605 396.267 108.93C397.456 110.095 398.755 111.175 399.879 112.401C401.894 115.294 402.822 118.356 402.2 121.898C401.451 126.171 398.47 129.876 394.984 132.289C394.598 132.558 394.196 132.801 393.778 133.018C393.775 133.022 393.771 133.026 393.767 133.03C389.784 136.001 381.017 136.552 376.151 136.075C370.183 135.49 363.575 133.582 359.617 128.747C357.597 126.34 356.24 123.737 355.744 120.614C355.667 119.429 355.61 118.216 355.754 117.034C356.079 114.369 357.765 111.465 359.846 109.797C360.734 109.085 361.738 108.523 362.636 107.819Z" fill="white"/>
<path d="M359.616 128.747C372.021 137.232 387.43 135.213 397.142 130.599C389.52 138.179 376.151 136.075 376.151 136.075C370.182 135.49 363.575 133.582 359.616 128.747Z" fill="#E3E3E3"/>
<path d="M375.876 103.34C377.9 103.034 381.024 103.239 382.745 104.439C383.605 105.038 384.318 105.926 384.482 106.987C384.591 107.694 384.46 108.415 384.167 109.062C382.835 111.999 378.864 112.01 378.614 112.454C378.336 112.948 378.469 114.031 378.565 114.585L378.596 114.757C378.616 114.875 378.629 114.987 378.681 115.096C378.843 115.443 379.182 115.771 379.436 116.053C380.426 117.148 381.384 117.862 382.811 118.261C385.067 118.891 387.874 118.229 389.462 116.452C389.984 115.868 390.436 114.896 391.146 114.544C391.358 114.438 391.57 114.438 391.786 114.532C392.051 114.649 392.263 114.96 392.353 115.229C392.471 115.582 392.367 115.983 392.207 116.306C391.352 118.038 389.181 119.508 387.408 120.124C385.19 120.895 382.398 120.573 380.314 119.577C379.083 118.853 378.204 118.059 377.294 116.956C375.995 118.083 374.726 119.255 373.031 119.727C371.301 120.209 369.373 119.892 367.833 118.985C366.666 118.298 364.758 116.427 364.457 115.083C364.391 114.79 364.444 114.495 364.611 114.244C364.777 113.993 365.059 113.812 365.356 113.764C365.394 113.758 365.433 113.754 365.473 113.752C365.512 113.75 365.551 113.751 365.59 113.754C365.63 113.757 365.669 113.762 365.707 113.769C365.746 113.777 365.784 113.787 365.821 113.799C365.859 113.811 365.895 113.825 365.931 113.842C365.967 113.858 366.001 113.877 366.035 113.897C366.068 113.918 366.101 113.94 366.132 113.965C366.162 113.989 366.192 114.015 366.22 114.043C366.425 114.245 366.556 114.552 366.704 114.799C367.162 115.56 367.651 116.262 368.367 116.802C368.43 116.85 368.495 116.897 368.561 116.942C368.627 116.987 368.695 117.031 368.763 117.072C368.831 117.114 368.9 117.154 368.97 117.192C369.041 117.231 369.112 117.267 369.184 117.302C369.256 117.337 369.329 117.369 369.402 117.401C369.476 117.432 369.55 117.461 369.625 117.488C369.7 117.516 369.776 117.541 369.852 117.565C369.929 117.588 370.006 117.61 370.083 117.63C370.16 117.649 370.238 117.667 370.316 117.683C370.395 117.699 370.473 117.713 370.552 117.725C370.631 117.737 370.711 117.747 370.79 117.755C370.87 117.763 370.949 117.769 371.029 117.773C371.109 117.777 371.188 117.779 371.268 117.779C371.348 117.779 371.428 117.777 371.508 117.773C371.588 117.769 371.667 117.763 371.747 117.755C371.826 117.747 371.905 117.738 371.984 117.726C373.803 117.452 375.117 116.238 376.168 114.803L376.398 112.354C375.337 111.862 374.166 111.577 373.211 110.876C372.251 110.171 371.477 109.041 371.316 107.847C371.3 107.727 371.29 107.606 371.286 107.484C371.282 107.363 371.284 107.241 371.293 107.12C371.301 106.999 371.315 106.879 371.336 106.759C371.356 106.639 371.383 106.521 371.415 106.404C371.448 106.287 371.486 106.172 371.53 106.059C371.575 105.946 371.624 105.835 371.68 105.727C371.735 105.619 371.796 105.514 371.862 105.412C371.927 105.31 371.998 105.212 372.074 105.118C373.021 103.925 374.424 103.487 375.876 103.34Z" fill="#43250A"/>
<path d="M381.122 106.054C381.446 106.247 381.44 106.698 381.109 106.878C379.106 107.969 376.223 107.895 374.38 106.546C374.041 106.298 374.168 105.803 374.573 105.693C376.744 105.105 379.145 104.873 381.122 106.054Z" fill="#812609"/>
<path d="M413.166 103.933C413.125 102.745 413.437 101.808 414.248 100.921C415.479 99.5753 417.048 98.8739 418.865 98.8195C421.884 98.7291 424.691 100.346 426.825 102.378C429.82 105.233 432.069 109.325 432.165 113.54C432.192 114.754 431.984 115.889 431.759 117.076L431.817 116.988C431.976 116.743 432.067 116.59 432.095 116.298C432.272 116.9 431.962 118.53 432.423 118.837C433.056 119.257 434.905 118.68 435.57 118.422C435.876 118.303 436.349 118.136 436.598 117.928C435.57 119.021 432.197 120.392 433.273 121.33C428.498 126.898 428.077 130.059 421.201 132.329C420.137 132.681 419.067 133.041 417.988 133.342C417.243 133.549 416.069 133.621 415.425 134.007L415.276 133.884C414.401 133.92 409.31 135.128 408.357 135.467L408.857 135.186C408.915 135.108 409.508 135.033 409.596 134.971C410.089 134.618 409.576 134.6 410.111 134.297C410.625 134.006 411.107 133.636 411.593 133.299C413.391 132.053 413.999 131.191 415.409 129.653C415.713 129.234 416.005 128.807 416.283 128.371C418.772 124.469 419.51 120.107 418.534 115.589C418.011 112.749 416.666 110.134 415.202 107.681C414.472 106.46 413.704 105.256 413.166 103.933Z" fill="white"/>
<path d="M431.758 117.076L431.816 116.988C431.975 116.743 432.066 116.59 432.094 116.297C432.271 116.899 431.961 118.53 432.422 118.837C433.055 119.257 434.903 118.68 435.569 118.421C435.875 118.302 436.348 118.136 436.597 117.928C437.355 119.205 438.793 119.748 439.868 120.686C435.093 126.254 428.076 130.058 421.2 132.329C420.135 132.68 419.066 133.04 417.987 133.341C417.5 133.477 415.055 134.209 414.738 133.948C415.101 133.869 415.321 133.866 415.624 133.687C416.528 133.154 418.119 132.61 419.144 132.131C421.773 130.901 424.169 129.012 426.194 126.943C426.765 126.359 427.507 125.705 427.889 124.981C429.703 122.647 431.141 119.995 431.758 117.076Z" fill="#812609"/>
<path d="M416.161 128.54C419.623 126.577 425.798 125.611 429.111 123.267C428.592 124.425 427.107 126.013 426.196 126.944C424.171 129.013 421.775 130.902 419.146 132.132C418.121 132.611 416.53 133.155 415.626 133.688C415.551 133.733 415.501 133.816 415.421 133.853C415.376 133.873 415.223 133.993 415.175 134.003C414.299 134.039 409.311 135.129 408.358 135.467L407.676 135.715C408.732 135.155 409.398 134.702 410.112 134.298C410.626 134.006 411.108 133.637 411.594 133.3C413.257 132.147 414.522 130.806 416.161 128.54Z" fill="#E3E3E3"/>
<path d="M427.223 111.155C428.655 111.219 431.154 112.42 432.174 113.417C432.143 115.697 431.703 117.971 430.829 120.053C430.849 119.865 430.867 119.402 430.878 119.213C431.026 116.822 429.8 114.191 428.347 112.358C428.002 111.924 427.589 111.569 427.223 111.155Z" fill="#E3E3E3"/>
<path d="M330.051 111.632C329.997 109.923 330.406 108.057 331.023 106.471C332.605 102.406 335.874 98.4407 339.928 96.691C341.549 95.9916 343.525 95.7442 345.193 96.4301C346.14 96.8198 347.084 97.6122 347.467 98.5881C348.432 101.046 344.462 105.514 343.4 107.855C341.819 110.862 340.473 115.478 340.954 118.898C341.09 120.02 341.254 121.096 341.597 122.178C342.68 124.815 343.91 127.027 345.871 129.122C346.171 129.442 347.746 131.039 348.508 131.451C345.807 130.643 338.628 127.259 336.327 125.488C335.823 125.101 335.411 124.556 335.003 124.07C334.877 124.073 334.726 124.083 334.603 124.055C334.115 123.944 333.517 123.374 333.124 123.053C331.061 121.369 329.399 119.601 327.806 117.468C327.319 116.814 326.806 116.168 326.43 115.441C327.474 114.734 328.614 114.328 329.701 113.729C329.973 113.579 329.977 113.598 330.066 113.293L330.046 113.219C330.102 112.709 330.053 112.149 330.051 111.632Z" fill="white"/>
<path d="M330.051 111.633C331.208 110.208 332.897 109.824 334.26 109.013C332.555 111.795 331.038 114.599 331.208 117.911C332.443 118.428 334.221 118.468 335.477 118.924C337.531 119.67 339.821 120.882 341.447 122.345C341.572 122.297 341.511 122.34 341.597 122.179C342.68 124.816 343.91 127.028 345.871 129.123C346.171 129.443 347.68 130.754 348.508 131.451C345.807 130.644 338.628 127.26 336.327 125.489C335.212 124.632 334.222 123.95 333.124 123.054C331.061 121.37 329.399 119.602 327.806 117.469C327.319 116.815 326.806 116.169 326.43 115.442C327.474 114.735 328.614 114.329 329.701 113.73C329.973 113.58 329.977 113.599 330.066 113.294L330.046 113.22C330.102 112.71 330.053 112.15 330.051 111.633Z" fill="#E3E3E3"/>
<path d="M398.882 107.761C398.723 107.675 398.57 107.581 398.419 107.481C396.926 106.5 395.991 104.735 395.658 103.012C395.191 100.592 395.674 97.889 397.068 95.8467C397.937 94.5736 399.267 93.561 400.798 93.2804C402.191 93.0253 403.575 93.3886 404.724 94.2021C408.43 96.8249 409.502 103.503 406.087 106.793C404.903 107.934 403.369 108.458 401.741 108.421C401.495 108.414 401.25 108.395 401.006 108.364C400.761 108.332 400.519 108.289 400.279 108.234C400.039 108.178 399.803 108.111 399.569 108.032C399.336 107.953 399.107 107.863 398.882 107.761Z" fill="#43250A"/>
<path d="M399.981 96.6713C400.005 96.6669 400.03 96.6631 400.055 96.6599C400.079 96.6568 400.104 96.6543 400.129 96.6524C400.154 96.6504 400.179 96.6491 400.204 96.6483C400.229 96.6476 400.254 96.6475 400.278 96.648C400.303 96.6485 400.328 96.6496 400.353 96.6514C400.378 96.6532 400.403 96.6556 400.428 96.6587C400.452 96.6616 400.477 96.6652 400.502 96.6694C400.526 96.6736 400.551 96.6784 400.575 96.6839C400.599 96.6894 400.623 96.6955 400.648 96.7021C400.672 96.7087 400.695 96.7159 400.719 96.7237C400.743 96.7314 400.766 96.7399 400.789 96.7489C400.813 96.7578 400.836 96.7673 400.859 96.7775C400.882 96.7877 400.904 96.7984 400.926 96.8095C400.949 96.8209 400.971 96.8327 400.992 96.845C401.014 96.8572 401.035 96.8701 401.057 96.8835C401.078 96.8969 401.098 96.9108 401.119 96.9252C401.139 96.9396 401.159 96.9546 401.179 96.9701C401.198 96.9855 401.218 97.0013 401.237 97.0176C401.255 97.0341 401.274 97.0509 401.292 97.0681C401.31 97.0854 401.327 97.1032 401.345 97.1214C401.362 97.1395 401.379 97.1581 401.395 97.1772C401.411 97.1961 401.427 97.2155 401.442 97.2352C401.458 97.2551 401.472 97.2752 401.487 97.2956C401.501 97.3161 401.515 97.337 401.528 97.3581C401.541 97.3793 401.554 97.4008 401.566 97.4227C401.579 97.4445 401.59 97.4666 401.602 97.4891C401.613 97.5116 401.623 97.5343 401.633 97.5573C401.643 97.5801 401.653 97.6032 401.662 97.6266C401.67 97.6501 401.679 97.6737 401.687 97.6974C401.694 97.7212 401.702 97.7452 401.708 97.7695C401.715 97.7937 401.721 97.8181 401.726 97.8425C401.731 97.8669 401.736 97.8915 401.74 97.9162C401.744 97.9409 401.748 97.9658 401.751 97.9907C401.754 98.0156 401.756 98.0405 401.758 98.0654C401.76 98.0904 401.761 98.1155 401.761 98.1406C401.762 98.1656 401.762 98.1906 401.761 98.2155C401.76 98.2406 401.759 98.2656 401.757 98.2907C401.755 98.3156 401.752 98.3405 401.749 98.3654C401.746 98.3903 401.742 98.415 401.738 98.4396C401.733 98.4643 401.728 98.4889 401.723 98.5133C401.717 98.5377 401.711 98.562 401.704 98.5861C401.697 98.6102 401.69 98.6341 401.682 98.6579C401.674 98.6815 401.665 98.705 401.656 98.7284C401.647 98.7517 401.637 98.7748 401.627 98.7976C401.617 98.8204 401.606 98.8429 401.595 98.8652C401.583 98.8875 401.571 98.9095 401.559 98.9312C401.546 98.953 401.534 98.9745 401.52 98.9955C401.507 99.0165 401.492 99.0372 401.478 99.0576C401.463 99.0779 401.448 99.0979 401.433 99.1175C401.417 99.1372 401.401 99.1564 401.385 99.1752C401.368 99.1939 401.352 99.2124 401.334 99.2305C401.317 99.2484 401.299 99.266 401.281 99.2831C401.263 99.3003 401.244 99.3169 401.225 99.3331C401.206 99.3492 401.187 99.3649 401.167 99.3801C401.147 99.3953 401.127 99.41 401.106 99.4243C401.086 99.4385 401.065 99.4522 401.044 99.4653C401.022 99.4785 401.001 99.4912 400.979 99.5033C400.957 99.5155 400.935 99.527 400.913 99.538C400.89 99.549 400.868 99.5594 400.845 99.5693C400.822 99.5792 400.799 99.5885 400.775 99.5972C400.752 99.6059 400.729 99.6141 400.705 99.6217C400.681 99.6293 400.657 99.6363 400.633 99.6428C400.609 99.6491 400.585 99.6548 400.56 99.66C400.536 99.6652 400.511 99.6698 400.487 99.6738C400.462 99.6777 400.438 99.681 400.413 99.6838C400.389 99.6865 400.364 99.6887 400.34 99.6903C400.315 99.6918 400.29 99.6927 400.266 99.693C400.241 99.6933 400.216 99.693 400.192 99.692C400.167 99.6912 400.143 99.6898 400.118 99.6877C400.093 99.6856 400.069 99.6828 400.044 99.6794C400.02 99.6762 399.996 99.6723 399.971 99.6678C399.947 99.6632 399.923 99.6582 399.899 99.6525C399.875 99.6468 399.851 99.6406 399.828 99.6338C399.804 99.6269 399.78 99.6194 399.757 99.6115C399.734 99.6034 399.71 99.5948 399.688 99.5858C399.665 99.5766 399.642 99.5669 399.62 99.5567C399.597 99.5463 399.575 99.5355 399.553 99.5242C399.531 99.5129 399.51 99.501 399.488 99.4885C399.467 99.4761 399.446 99.4632 399.425 99.4497C399.404 99.4363 399.384 99.4224 399.364 99.408C399.344 99.3935 399.324 99.3785 399.305 99.3631C399.285 99.3478 399.267 99.3319 399.248 99.3156C399.229 99.2993 399.211 99.2825 399.194 99.2652C399.176 99.248 399.159 99.2304 399.142 99.2123C399.125 99.1942 399.108 99.1757 399.092 99.1568C399.076 99.138 399.061 99.1188 399.046 99.099C399.031 99.0795 399.016 99.0595 399.002 99.0391C398.988 99.0188 398.974 98.9981 398.961 98.977C398.948 98.956 398.936 98.9347 398.924 98.913C398.912 98.8913 398.9 98.8694 398.889 98.8473C398.878 98.8251 398.868 98.8027 398.858 98.7799C398.848 98.7572 398.839 98.7343 398.83 98.711C398.822 98.6879 398.813 98.6645 398.806 98.6409C398.798 98.6173 398.791 98.5935 398.785 98.5696C398.778 98.5458 398.772 98.5218 398.767 98.4976C398.762 98.4733 398.757 98.449 398.753 98.4246C398.749 98.4001 398.745 98.3756 398.742 98.3511C398.739 98.3263 398.737 98.3017 398.735 98.2771C398.734 98.2524 398.732 98.2275 398.732 98.2026C398.731 98.1779 398.731 98.1532 398.732 98.1284C398.733 98.1037 398.734 98.0789 398.736 98.0542C398.738 98.0295 398.74 98.0048 398.743 97.9802C398.746 97.9557 398.75 97.9312 398.754 97.9068C398.759 97.8823 398.763 97.858 398.769 97.8338C398.774 97.8097 398.78 97.7856 398.787 97.7617C398.794 97.7379 398.801 97.7143 398.809 97.6907C398.816 97.6672 398.825 97.6439 398.834 97.6208C398.843 97.5977 398.852 97.5748 398.862 97.5522C398.872 97.5295 398.883 97.5071 398.894 97.485C398.905 97.4628 398.916 97.441 398.929 97.4195C398.941 97.3978 398.953 97.3766 398.967 97.3557C398.98 97.3347 398.993 97.3141 399.008 97.2939C399.022 97.2737 399.037 97.2538 399.052 97.2342C399.067 97.2147 399.082 97.1955 399.098 97.1767C399.115 97.1578 399.131 97.1394 399.148 97.1214C399.165 97.1035 399.183 97.0859 399.201 97.0688C399.218 97.0518 399.236 97.0352 399.255 97.0188C399.274 97.0027 399.293 96.9869 399.312 96.9716C399.332 96.9564 399.351 96.9416 399.372 96.9272C399.392 96.9129 399.412 96.8992 399.433 96.8859C399.454 96.8725 399.475 96.8597 399.496 96.8474C399.518 96.8353 399.539 96.8235 399.561 96.8122C399.583 96.8011 399.606 96.7904 399.628 96.7802C399.651 96.7702 399.673 96.7606 399.696 96.7516C399.719 96.7425 399.743 96.7341 399.766 96.7264C399.789 96.7184 399.813 96.7112 399.837 96.7045C399.86 96.6977 399.884 96.6916 399.908 96.6861C399.932 96.6806 399.956 96.6757 399.981 96.6713Z" fill="white"/>
<path d="M353.86 102.103C353.239 99.8449 353.666 97.2602 354.815 95.2358C355.663 93.7408 356.957 92.4937 358.645 92.0455C358.737 92.0213 358.829 91.9994 358.922 91.9798C359.015 91.9603 359.108 91.943 359.202 91.9282C359.295 91.9131 359.389 91.9005 359.484 91.8903C359.578 91.88 359.673 91.872 359.767 91.8663C359.862 91.8608 359.957 91.8577 360.052 91.8569C360.147 91.8559 360.241 91.8573 360.336 91.8612C360.431 91.8651 360.526 91.8713 360.62 91.8799C360.715 91.8885 360.809 91.8994 360.903 91.9126C360.997 91.9257 361.091 91.9413 361.184 91.9592C361.277 91.9772 361.37 91.9974 361.462 92.0198C361.554 92.0423 361.646 92.0671 361.737 92.0941C361.827 92.1212 361.918 92.1506 362.007 92.1821C362.097 92.2136 362.186 92.2473 362.273 92.2832C362.361 92.3193 362.448 92.3574 362.534 92.3977C362.62 92.438 362.705 92.4803 362.789 92.5248C362.873 92.5693 362.956 92.6158 363.038 92.6645C364.515 93.5471 365.406 94.9913 365.803 96.6468C366.352 98.9291 365.855 101.587 364.635 103.576C363.624 105.225 362.176 106.283 360.295 106.697C360.268 106.702 360.242 106.707 360.215 106.713C358.991 106.73 357.855 106.618 356.758 106.032C355.148 105.172 354.388 103.793 353.86 102.103Z" fill="#43250A"/>
<path d="M423.982 69.0491C424.547 68.614 425.107 68.1767 425.738 67.8413C427.317 67.0019 429.877 66.2394 431.673 66.5146C432.042 66.5711 432.468 66.7048 432.711 67.006C432.854 67.1823 432.823 67.4993 432.78 67.7089C432.67 68.2313 432.339 68.9926 431.97 69.393C431.506 69.8965 428.21 71.4179 428.681 72.2968C428.939 72.7792 430.77 73.6431 431.306 74.1175C432.759 75.4031 431.071 76.0502 429.678 76.1288C429.625 76.1317 429.573 76.1332 429.52 76.1366C429.353 76.1482 429.417 76.1378 429.252 76.203C428.747 75.0224 426.72 72.3131 425.846 71.2828C425.237 70.5647 424.473 69.8514 423.982 69.0491Z" fill="#F15F31"/>
<path d="M362.244 74.8702C363.472 74.7552 364.758 74.9082 365.735 75.7421C366.563 76.449 366.983 77.53 367.054 78.602C367.119 79.5922 366.852 80.5257 366.189 81.2727C364.979 82.6343 363.046 82.9477 361.332 83.075C359.991 83.0898 358.36 83.133 357.218 82.3008C356.688 81.915 356.342 81.3811 356.254 80.7256C356.115 79.7007 356.561 78.7 357.156 77.8933C358.426 76.1723 360.161 75.1949 362.244 74.8702Z" fill="white"/>
<path d="M404.543 77.8095C405.651 78.786 406.607 80.2375 406.673 81.756C406.7 82.3699 406.557 82.9626 406.117 83.4093C405.258 84.2808 403.921 84.2781 402.789 84.2817C401.068 84.2405 399.293 83.9643 397.819 83.0118C396.937 82.4419 396.261 81.6134 396.054 80.5615C395.882 79.6848 396.041 78.7547 396.548 78.015C398.447 75.2486 402.385 75.9095 404.543 77.8095Z" fill="white"/>
<path d="M442.048 42.8514C443.225 42.7678 444.528 42.6229 445.67 42.9822C445.737 43.0031 445.803 43.0258 445.868 43.0501C445.933 43.0744 445.998 43.1004 446.062 43.1281C446.126 43.1558 446.189 43.185 446.252 43.216C446.314 43.2469 446.376 43.2794 446.436 43.3135C446.497 43.3476 446.557 43.3833 446.616 43.4205C446.675 43.4577 446.733 43.4964 446.79 43.5366C446.847 43.5768 446.903 43.6184 446.958 43.6615C447.013 43.7046 447.067 43.7491 447.119 43.7949C447.172 43.8408 447.223 43.888 447.273 43.9365C447.324 43.985 447.372 44.0348 447.42 44.0858C447.468 44.1369 447.514 44.1891 447.559 44.2425C447.604 44.2959 447.648 44.3505 447.69 44.4062C447.732 44.4618 447.773 44.5186 447.812 44.5764C447.851 44.6341 447.889 44.6929 447.925 44.7526C447.962 44.8124 447.997 44.873 448.03 44.9345C448.063 44.996 448.094 45.0584 448.125 45.1215C448.747 46.4016 448.93 47.9616 449.108 49.3642C450.146 57.5425 448.376 66.7373 445.658 74.4418C444.763 77.0293 443.679 79.5344 442.407 81.9571C445.743 83.2001 448.842 85.5347 450.347 88.8722C450.568 89.3642 450.767 89.9626 450.567 90.4952C450.423 90.8796 450.089 91.1282 449.717 91.2703C447.826 91.9918 444.285 91.1808 442.505 90.3147C442.679 90.832 442.857 91.3482 443.012 91.8718C443.228 92.4405 443.393 93.0255 443.546 93.6141C443.907 95.0053 444.416 97.3033 443.596 98.6163C443.407 98.9188 443.137 99.1586 442.781 99.2294C442.357 99.3136 441.933 99.1283 441.584 98.9008C439.605 97.6084 439.255 93.9702 438.747 91.7648C437.848 88.1657 436.579 84.7807 435.009 81.4255C434.268 80.0663 433.424 78.7484 432.642 77.4106C433.168 76.8644 433.573 76.3748 433.876 75.6693C433.884 73.8183 433.148 73.2119 432.023 71.9108C432.532 71.3845 433.119 70.9297 433.586 70.362C434.355 69.4289 435.042 67.9252 434.898 66.6976C434.889 66.612 434.875 66.5272 434.857 66.4431C434.839 66.3591 434.816 66.2762 434.789 66.1945C434.762 66.1129 434.731 66.0329 434.696 65.9544C434.661 65.8759 434.622 65.7995 434.579 65.7252C434.536 65.6509 434.489 65.5789 434.438 65.5094C434.388 65.44 434.334 65.3734 434.276 65.3096C434.219 65.2458 434.158 65.1853 434.094 65.1279C434.031 65.0705 433.964 65.0166 433.895 64.9661C431.942 63.5279 428.538 64.7915 426.376 65.1116C428.789 61.6502 432.624 58.2913 435.877 55.6086C436.672 55.079 439.368 53.474 439.765 52.7765C438.397 52.8105 437.259 53.0954 435.975 53.5627C435.322 53.9535 434.612 54.2642 433.927 54.5955C429.315 56.8477 424.452 62.6158 422.345 67.2658C419.911 64.9249 417.332 62.828 414.722 60.6954C417.062 56.6317 420.942 52.3773 424.556 49.4276C429.504 45.389 435.699 43.3022 442.048 42.8514Z" fill="white"/>
<path d="M439.85 52.6774C440.682 52.9164 441.274 53.2467 441.721 54.0347C442.307 55.0666 442.328 56.4434 442.365 57.5983C442.495 61.6158 441.934 65.4708 440.787 69.3164C439.54 73.4967 437.692 77.9651 435.008 81.425C434.267 80.0659 433.423 78.7479 432.641 77.4101C433.167 76.864 433.572 76.3743 433.875 75.6688C433.883 73.8178 433.146 73.2115 432.021 71.9103C432.531 71.384 433.118 70.9292 433.585 70.3615C434.353 69.4285 435.04 67.9248 434.897 66.6971C434.888 66.6115 434.874 66.5267 434.856 66.4427C434.837 66.3586 434.815 66.2757 434.788 66.1941C434.761 66.1124 434.73 66.0324 434.695 65.954C434.66 65.8754 434.621 65.799 434.577 65.7248C434.534 65.6504 434.487 65.5784 434.437 65.5089C434.386 65.4396 434.332 65.3729 434.275 65.3091C434.217 65.2454 434.157 65.1848 434.093 65.1274C434.029 65.07 433.963 65.0161 433.893 64.9656C431.94 63.5274 428.536 64.791 426.375 65.1112C428.474 62.0994 435.754 52.6774 439.85 52.6774Z" fill="#F15F31"/>
<path d="M434.993 55.2268C436.993 56.1676 438.696 57.3386 438.978 59.722C439.445 63.6535 437.577 68.6026 435.903 72.1387C435.377 73.2507 434.886 74.3722 434.126 75.3476C434.043 75.4551 433.96 75.5627 433.875 75.6692C433.883 73.8182 433.146 73.2119 432.021 71.9107C432.531 71.3844 433.118 70.9297 433.585 70.3619C434.353 69.4289 435.04 67.9252 434.897 66.6975C434.888 66.612 434.874 66.5272 434.856 66.4431C434.837 66.359 434.815 66.2762 434.788 66.1945C434.761 66.1128 434.73 66.0328 434.695 65.9544C434.66 65.8758 434.621 65.7994 434.577 65.7252C434.534 65.6508 434.487 65.5789 434.437 65.5094C434.386 65.44 434.332 65.3734 434.275 65.3095C434.217 65.2458 434.157 65.1852 434.093 65.1278C434.029 65.0705 433.963 65.0165 433.893 64.9661C431.94 63.5279 428.536 64.7915 426.375 65.1116C428.788 61.6502 431.74 57.9096 434.993 55.2268Z" fill="#812609"/>
<path d="M328.975 80.6995C328.683 79.8107 328.308 78.9441 327.972 78.0715C327.779 77.5814 327.594 77.0886 327.416 76.593C327.238 76.0976 327.067 75.5996 326.904 75.099C326.74 74.5984 326.584 74.0955 326.435 73.5902C326.287 73.0851 326.145 72.5778 326.011 72.0684C325.877 71.559 325.751 71.0478 325.632 70.5346C325.513 70.0216 325.402 69.5068 325.298 68.9904C325.194 68.474 325.097 67.9562 325.009 67.437C324.92 66.9176 324.839 66.3972 324.765 65.8756C324.692 65.354 324.626 64.8313 324.568 64.3076C324.509 63.7841 324.459 63.2597 324.416 62.7346C324.373 62.2096 324.338 61.684 324.31 61.1579C324.283 60.6317 324.263 60.1052 324.251 59.5785C324.239 59.0518 324.235 58.525 324.238 57.9981C324.241 57.4713 324.252 56.9446 324.271 56.4181C324.29 55.8915 324.316 55.3654 324.35 54.8397C324.384 54.3139 324.426 53.7888 324.476 53.2643C324.712 50.8442 325.071 48.3075 326.066 46.0738C326.651 44.7594 327.517 43.4856 328.926 42.979C331.649 42.0002 339.244 43.7158 342.068 44.6554C345.07 45.6539 347.708 47.0966 350.164 49.0891C353.217 51.566 355.658 54.46 358.004 57.5979C355.146 59.8682 351.564 61.7009 349.105 64.442C348.615 63.484 348.445 62.705 347.853 61.8061C344.71 57.0261 339.311 51.7138 333.297 51.4203C335.433 52.894 337.698 54.4944 339.577 56.2987C340.702 57.3797 341.696 58.6536 342.859 59.6755C343.907 60.985 344.934 62.1061 345.799 63.7355C343.159 63.3426 340.07 63.0392 337.793 64.7728C337.594 64.9246 337.408 65.0944 337.223 65.2632C336.82 65.8853 336.601 66.4955 336.743 67.2425C337.07 68.9724 338.881 70.2751 340.175 71.2743C339.302 72.6584 338.29 73.9649 337.336 75.2938C336.961 75.8152 336.609 76.4727 336.178 76.9386C334.678 78.9616 333.451 81.5077 332.358 83.7809C331.87 84.894 331.39 86.0108 330.918 87.1315C329.97 89.5279 328.957 91.9945 328.274 94.4811C327.285 93.2876 327.345 91.9513 327.479 90.4745C327.522 90.0038 327.767 88.8023 327.614 88.4045C325.94 88.674 324.087 89.8153 322.355 89.3302C322.094 89.2572 321.849 89.1125 321.734 88.8529C321.583 88.5083 321.685 88.0691 321.802 87.7312C322.528 85.6404 324.594 83.2037 326.435 81.9854C327.223 81.4645 328.126 81.106 328.975 80.6995Z" fill="white"/>
<path d="M333.285 51.4136C336.149 50.4243 341.168 57.876 342.857 59.6759C343.773 61.0637 344.851 62.359 345.797 63.7359C343.157 63.343 340.068 63.0396 337.791 64.7732C337.592 64.925 337.406 65.0948 337.221 65.2636C336.818 65.8857 336.599 66.4959 336.741 67.2429C337.068 68.9728 338.879 70.2755 340.173 71.2747C339.3 72.6588 338.288 73.9653 337.334 75.2942C336.959 75.8156 336.607 76.4731 336.176 76.939C336.154 76.9075 336.131 76.8772 336.11 76.8447C332.388 70.9473 329.976 61.053 331.461 54.1696C331.724 52.9487 332.237 52.1001 333.285 51.4136Z" fill="#F15F31"/>
<path d="M342.859 59.6755C344.131 60.9333 345.065 62.4797 345.799 63.7355C343.159 63.3426 340.071 63.0391 337.793 64.7728C337.594 64.9246 337.408 65.0944 337.223 65.2632C337.356 63.5363 338.153 62.0981 339.41 60.9333C340.475 59.9459 341.41 59.6089 342.859 59.6755Z" fill="#812609"/>
<path d="M344.098 69.7458C343.757 69.6231 343.339 69.6384 342.98 69.5804C341.371 69.3207 339.929 68.4915 339.014 67.1088C338.862 66.8777 338.806 66.7877 338.858 66.5136C339.231 66.0647 339.837 65.9282 340.38 65.787C342.056 65.3517 345.091 65.3412 346.566 66.3385C346.836 66.5214 347.589 66.8992 348.306 67.1088C347.494 67.8949 344.957 69.1196 344.098 69.7458Z" fill="#F15F31"/>
<path d="M361.125 96.0688C361.15 96.0644 361.175 96.0606 361.199 96.0574C361.224 96.0543 361.249 96.0518 361.274 96.0498C361.298 96.0479 361.323 96.0465 361.348 96.0457C361.373 96.0451 361.398 96.045 361.423 96.0455C361.448 96.046 361.473 96.0471 361.498 96.0489C361.523 96.0507 361.547 96.0531 361.572 96.0562C361.597 96.0591 361.622 96.0626 361.646 96.0668C361.671 96.071 361.695 96.0759 361.72 96.0814C361.744 96.0869 361.768 96.0929 361.792 96.0996C361.816 96.1062 361.84 96.1134 361.864 96.1211C361.887 96.1289 361.911 96.1373 361.934 96.1464C361.957 96.1553 361.98 96.1648 362.003 96.175C362.026 96.1852 362.049 96.1958 362.071 96.207C362.093 96.2183 362.115 96.2301 362.137 96.2424C362.159 96.2547 362.18 96.2676 362.201 96.281C362.222 96.2944 362.243 96.3083 362.263 96.3227C362.284 96.3371 362.304 96.352 362.323 96.3676C362.343 96.3829 362.362 96.3988 362.381 96.4151C362.4 96.4316 362.418 96.4484 362.436 96.4655C362.454 96.4828 362.472 96.5006 362.489 96.5189C362.506 96.537 362.523 96.5556 362.539 96.5747C362.556 96.5936 362.571 96.6129 362.587 96.6326C362.602 96.6525 362.617 96.6727 362.631 96.693C362.646 96.7136 362.659 96.7344 362.673 96.7556C362.686 96.7768 362.699 96.7983 362.711 96.8201C362.723 96.8419 362.735 96.8641 362.746 96.8866C362.757 96.909 362.768 96.9318 362.778 96.9547C362.788 96.9775 362.797 97.0006 362.806 97.0241C362.815 97.0475 362.823 97.0711 362.831 97.0949C362.839 97.1187 362.846 97.1427 362.853 97.1669C362.859 97.1912 362.865 97.2155 362.871 97.2399C362.876 97.2644 362.881 97.2889 362.885 97.3137C362.889 97.3384 362.893 97.3632 362.895 97.3881C362.898 97.413 362.901 97.4379 362.902 97.4628C362.904 97.4879 362.905 97.513 362.906 97.538C362.906 97.5631 362.906 97.5881 362.905 97.613C362.905 97.638 362.903 97.6631 362.901 97.6881C362.899 97.713 362.897 97.7379 362.894 97.7628C362.89 97.7877 362.887 97.8125 362.882 97.8371C362.878 97.8618 362.873 97.8864 362.867 97.9108C362.862 97.9352 362.855 97.9594 362.849 97.9835C362.842 98.0076 362.834 98.0316 362.826 98.0553C362.818 98.0789 362.81 98.1025 362.801 98.1259C362.792 98.1492 362.782 98.1722 362.772 98.195C362.761 98.2178 362.751 98.2404 362.739 98.2627C362.728 98.285 362.716 98.307 362.703 98.3287C362.691 98.3505 362.678 98.3719 362.665 98.3929C362.651 98.414 362.637 98.4347 362.622 98.455C362.608 98.4754 362.593 98.4954 362.577 98.5149C362.562 98.5347 362.546 98.5539 362.529 98.5726C362.513 98.5914 362.496 98.6098 362.479 98.6279C362.461 98.6459 362.444 98.6634 362.425 98.6806C362.407 98.6977 362.388 98.7144 362.369 98.7305C362.351 98.7467 362.331 98.7624 362.311 98.7776C362.291 98.7928 362.271 98.8075 362.251 98.8217C362.23 98.836 362.209 98.8496 362.188 98.8627C362.167 98.876 362.146 98.8887 362.124 98.9008C362.102 98.9129 362.08 98.9245 362.057 98.9355C362.035 98.9465 362.012 98.9569 361.989 98.9668C361.966 98.9766 361.943 98.9859 361.92 98.9947C361.897 99.0034 361.873 99.0115 361.849 99.0191C361.826 99.0267 361.802 99.0338 361.777 99.0403C361.753 99.0466 361.729 99.0523 361.705 99.0575C361.68 99.0626 361.656 99.0672 361.631 99.0713C361.607 99.0752 361.582 99.0785 361.558 99.0812C361.533 99.084 361.509 99.0862 361.484 99.0878C361.46 99.0892 361.435 99.0901 361.41 99.0905C361.386 99.0908 361.361 99.0905 361.336 99.0895C361.312 99.0887 361.287 99.0872 361.263 99.0851C361.238 99.083 361.213 99.0803 361.189 99.0769C361.165 99.0736 361.14 99.0698 361.116 99.0652C361.092 99.0607 361.068 99.0556 361.044 99.05C361.02 99.0443 360.996 99.0381 360.972 99.0313C360.948 99.0243 360.925 99.0169 360.901 99.009C360.878 99.0009 360.855 98.9923 360.832 98.9833C360.809 98.974 360.786 98.9643 360.764 98.9541C360.742 98.9438 360.719 98.933 360.698 98.9216C360.676 98.9103 360.654 98.8984 360.633 98.886C360.611 98.8735 360.59 98.8606 360.569 98.8472C360.549 98.8338 360.528 98.8199 360.508 98.8055C360.488 98.7909 360.469 98.776 360.449 98.7606C360.43 98.7452 360.411 98.7294 360.393 98.7131C360.374 98.6967 360.356 98.6799 360.338 98.6626C360.32 98.6455 360.303 98.6279 360.286 98.6098C360.269 98.5917 360.253 98.5731 360.237 98.5542C360.221 98.5355 360.205 98.5162 360.19 98.4965C360.175 98.4769 360.161 98.457 360.147 98.4366C360.133 98.4162 360.119 98.3955 360.106 98.3745C360.093 98.3535 360.08 98.3321 360.068 98.3105C360.056 98.2888 360.045 98.2669 360.034 98.2447C360.023 98.2226 360.013 98.2001 360.003 98.1773C359.993 98.1547 359.983 98.1317 359.975 98.1084C359.966 98.0853 359.958 98.062 359.95 98.0384C359.943 98.0147 359.936 97.991 359.929 97.9671C359.923 97.9433 359.917 97.9193 359.911 97.895C359.906 97.8708 359.901 97.8464 359.897 97.822C359.893 97.7976 359.89 97.7731 359.887 97.7485C359.884 97.7238 359.881 97.6991 359.88 97.6746C359.878 97.6498 359.877 97.625 359.876 97.6001C359.876 97.5754 359.876 97.5506 359.877 97.5259C359.877 97.5011 359.878 97.4764 359.88 97.4517C359.882 97.4269 359.885 97.4023 359.888 97.3777C359.891 97.3531 359.895 97.3286 359.899 97.3042C359.903 97.2798 359.908 97.2555 359.913 97.2312C359.919 97.2071 359.925 97.1831 359.932 97.1592C359.938 97.1354 359.945 97.1117 359.953 97.0881C359.961 97.0647 359.969 97.0414 359.978 97.0183C359.987 96.9951 359.997 96.9723 360.007 96.9496C360.017 96.927 360.027 96.9046 360.038 96.8825C360.049 96.8603 360.061 96.8385 360.073 96.817C360.085 96.7953 360.098 96.774 360.111 96.7532C360.124 96.7322 360.138 96.7116 360.152 96.6913C360.166 96.6711 360.181 96.6512 360.196 96.6317C360.211 96.6121 360.227 96.593 360.243 96.5742C360.259 96.5553 360.276 96.5368 360.293 96.5189C360.31 96.5009 360.327 96.4834 360.345 96.4663C360.363 96.4493 360.381 96.4326 360.4 96.4163C360.418 96.4001 360.437 96.3844 360.457 96.369C360.476 96.3538 360.496 96.339 360.516 96.3246C360.536 96.3104 360.557 96.2967 360.577 96.2834C360.598 96.27 360.619 96.2571 360.641 96.2448C360.662 96.2327 360.684 96.221 360.706 96.2097C360.728 96.1985 360.75 96.1878 360.773 96.1777C360.795 96.1676 360.818 96.1581 360.841 96.149C360.864 96.14 360.887 96.1316 360.911 96.1238C360.934 96.1159 360.957 96.1086 360.981 96.102C361.005 96.0952 361.029 96.0891 361.053 96.0836C361.077 96.0781 361.101 96.0731 361.125 96.0688Z" fill="white"/>
</svg>
