<svg width="127" height="85" viewBox="0 0 127 85" fill="none" xmlns="http://www.w3.org/2000/svg">
<g clip-path="url(#clip0_2795_22027)">
<path d="M13.3392 51.0026H19.1271V53.9743C18.8859 53.9743 18.6772 54.043 18.5009 54.1807C18.3247 54.3182 18.0975 54.5705 17.8193 54.9373L14.341 59.4683C15.6396 59.7067 16.6135 60.1425 17.2627 60.7754C17.9119 61.4036 18.2366 62.4264 18.2366 63.8389V65.7054C18.2366 66.5309 18.3108 67.1088 18.4592 67.4481C18.6076 67.7874 18.8303 67.9572 19.1271 67.9572V71.0344H13.8679C13.7567 70.7591 13.6731 70.4336 13.6175 70.0575C13.5619 69.6814 13.534 69.0624 13.534 68.2002V65.5862C13.534 64.5588 13.3485 63.7929 12.9775 63.2885C12.6065 62.7841 11.9572 62.5319 11.0296 62.5319H9.63841V65.6411C9.63841 66.5584 9.72653 67.15 9.89812 67.416C10.0696 67.682 10.3247 67.8608 10.668 67.9526V71.0344H3.85059V67.9572C4.22155 67.8654 4.48591 67.6819 4.64355 67.4068C4.80125 67.1316 4.88013 66.5492 4.88013 65.6503V56.2811C4.88013 55.3822 4.80125 54.7998 4.64355 54.5247C4.48591 54.2495 4.22155 54.0661 3.85059 53.9743V51.0026H10.668V53.9743C10.3619 53.9743 10.1114 54.1166 9.92125 54.4008C9.73105 54.6852 9.63841 55.3134 9.63841 56.2857V59.505L12.4767 55.9555C12.792 55.5519 13.0146 55.1529 13.1445 54.7585C13.2743 54.3642 13.3393 53.9559 13.3393 53.5295V51.0026L13.3392 51.0026ZM61.1721 54.6071V58.9821H63.0365C63.9084 58.9821 64.5391 58.8262 64.9286 58.5143C65.3181 58.2024 65.5129 57.6705 65.5129 56.9185C65.5129 56.0747 65.3181 55.4783 64.9286 55.1299C64.5391 54.7813 63.9084 54.6071 63.0365 54.6071H61.1721V54.6071ZM61.1721 62.3666V67.4022H63.2869C64.1774 67.4022 64.8266 67.2004 65.2347 66.7967C65.6429 66.3932 65.847 65.742 65.847 64.8431C65.847 63.9442 65.6289 63.3068 65.193 62.9308C64.7571 62.5546 64.0846 62.3667 63.1756 62.3667H61.1722L61.1721 62.3666ZM63.5651 71.0343H55.3842V67.9526C55.7553 67.8608 56.0196 67.6773 56.1773 67.4022C56.3349 67.1271 56.4138 66.54 56.4138 65.6411V56.2582C56.4138 55.3594 56.3349 54.7724 56.1773 54.4971C56.0196 54.222 55.7552 54.0385 55.3842 53.9468V51.0026H63.2868C65.7356 51.0026 67.4978 51.429 68.5738 52.2821C69.6498 53.1351 70.1877 54.5063 70.1877 56.3957C70.1877 57.4598 70.0161 58.3035 69.6728 58.9272C69.3297 59.5509 68.6664 60.0645 67.6833 60.4682C68.3141 60.7432 68.8149 61.0551 69.1859 61.4037C69.5569 61.7522 69.8399 62.1375 70.0346 62.5593C70.2294 62.9813 70.3593 63.449 70.4242 63.9627C70.4891 64.4764 70.5216 65.045 70.5216 65.6687C70.5216 67.5948 70.0021 68.9706 68.9633 69.7962C67.9244 70.6217 66.1251 71.0344 63.565 71.0344L63.5651 71.0343ZM28.5879 54.442L27.1131 62.2842H30.3129L28.8383 54.442H28.5879ZM27.2522 71.0343H20.6574V67.9526C20.9357 67.8608 21.1723 67.6727 21.367 67.3884C21.5618 67.1042 21.7241 66.6409 21.854 65.9989L23.9965 55.9555C24.0708 55.607 24.0708 55.2676 23.9965 54.9373C23.9224 54.6072 23.7554 54.442 23.4956 54.442V51.0026H34.1808V54.442C33.9211 54.442 33.7542 54.6071 33.68 54.9373C33.6057 55.2676 33.6057 55.607 33.68 55.9555L35.8504 65.9989C35.9988 66.6408 36.1565 67.1042 36.3235 67.3884C36.4903 67.6727 36.7223 67.8608 37.019 67.9526V71.0343H30.2017V67.9526C30.5356 67.9526 30.7674 67.8332 30.8972 67.5948C31.0272 67.3564 31.0921 67.1729 31.0921 67.0445C31.0921 66.5676 31.0457 66.0997 30.953 65.6411L30.8973 65.3384H26.5288L26.4731 65.6411C26.3803 66.0997 26.334 66.5676 26.334 67.0445C26.334 67.1729 26.3989 67.3564 26.5288 67.5948C26.6586 67.8332 26.8997 67.9526 27.2522 67.9526V71.0343ZM52.6295 71.0343H38.5774V67.292L47.5095 54.552H45.2556C44.2909 54.552 43.6325 54.6713 43.28 54.9098C42.9275 55.1483 42.7512 55.7444 42.7512 56.6983V57.1661H38.8556V51.0025H52.6295V54.6071L43.753 67.3471H46.5913C47.2777 67.3471 47.7785 67.1545 48.0938 66.7693C48.4092 66.384 48.5669 65.8428 48.5669 65.1458V64.6504H52.6295V71.0343V71.0343ZM88.0243 71.0343H73.5546V67.9526C73.9257 67.8608 74.19 67.6773 74.3476 67.4022C74.5054 67.1271 74.5842 66.54 74.5842 65.6411V56.2582C74.5842 55.3594 74.5054 54.7724 74.3476 54.4971C74.19 54.222 73.9257 54.0385 73.5546 53.9468V51.0026H88.0243V57.6065H83.5721V56.8635C83.5721 56.0013 83.3866 55.4005 83.0154 55.0612C82.6444 54.7218 82.0044 54.552 81.0955 54.552H79.3981V58.9545H83.5721V62.4217H79.3981V67.4572H81.4572C82.2179 67.4572 82.7604 67.292 83.0851 66.9619C83.4097 66.6316 83.5721 66.008 83.5721 65.0906V63.77H88.0243V71.0343ZM105.471 71.0343H91.0016V67.9526C91.3727 67.8608 91.637 67.6773 91.7947 67.4022C91.9524 67.1271 92.0312 66.54 92.0312 65.6411V56.2582C92.0312 55.3594 91.9524 54.7724 91.7947 54.4971C91.637 54.222 91.3727 54.0385 91.0016 53.9468V51.0026H105.471V57.6065H101.019V56.8635C101.019 56.0013 100.834 55.4005 100.463 55.0612C100.091 54.7218 99.4515 54.552 98.5425 54.552H96.845V58.9545H101.019V62.4217H96.845V67.4572H98.9042C99.6648 67.4572 100.207 67.292 100.532 66.9619C100.857 66.6316 101.019 66.008 101.019 65.0906V63.77H105.471V71.0343H105.471ZM114.988 71.0343H108.115V67.9526C108.486 67.8608 108.75 67.6773 108.908 67.4022C109.065 67.1271 109.144 66.54 109.144 65.6411V56.2582C109.144 55.3594 109.065 54.7724 108.908 54.4971C108.75 54.222 108.486 54.0385 108.115 53.9468V51.0026H121.889V57.6065H117.687V56.8911C117.687 56.0655 117.515 55.4876 117.172 55.1575C116.829 54.8273 116.231 54.6622 115.377 54.6622H113.958V59.0373H117.687V62.4217H113.958V65.641C113.958 66.5216 114.037 67.1178 114.195 67.4298C114.352 67.7415 114.617 67.9159 114.988 67.9526V71.0343Z" fill="#942724"/>
<path fill-rule="evenodd" clip-rule="evenodd" d="M106.502 45.7469C106.498 45.4544 106.628 45.1625 106.75 44.9576C106.87 45.1682 107.15 45.44 107.205 45.7646L106.502 45.7469H106.502ZM20.6157 45.0031C20.6526 45.4422 20.7187 45.2976 20.7298 45.7941H20.0449C20.0869 45.2947 20.1853 45.1167 20.6157 45.0031ZM18.3328 45.3421C18.6318 45.5403 18.5686 45.3994 18.6752 45.7941H18.3328V45.3421ZM101.66 45.0031V45.6812C101.318 45.7094 101.072 45.8856 101.128 45.5034C101.176 45.1786 101.383 45.0762 101.66 45.0031V45.0031ZM22.0996 43.1948H22.2137C22.2137 44.0674 22.3279 44.6922 22.3279 45.6812H22.0996V43.1948ZM99.2628 44.89C99.5721 45.1144 99.6846 45.2669 99.7194 45.6812C99.1323 45.6812 98.9401 45.7518 98.9536 45.3823C98.9627 45.1337 99.1246 44.9903 99.2628 44.89ZM91.9574 44.89C92.2132 45.0597 92.9155 45.7288 91.729 45.4552C91.7989 45.158 91.8328 45.123 91.9574 44.89ZM36.1396 44.89C36.419 45.0928 36.3853 45.044 36.4821 45.4552H36.0255C36.0343 45.0613 36.0079 45.1529 36.1396 44.89ZM25.4098 45.6812C24.2994 45.6812 23.9259 45.9003 23.9259 45.116C23.9259 43.6772 24.3548 43.0398 24.6108 41.9517C25.2331 42.4031 25.6193 45.1834 25.4098 45.6812ZM93.998 45.1205L94.2403 45.116C94.2403 45.179 94.2425 45.3005 94.2327 45.3344C94.1744 45.5344 94.1954 45.46 94.1261 45.5681L93.9979 45.1205H93.998ZM87.0491 44.664C87.0491 44.111 87.3789 42.292 87.8481 41.9517C87.9173 42.2457 87.9721 42.298 88.051 42.5419C88.4082 43.6468 88.533 43.8002 88.533 45.116C88.533 45.5873 88.3908 45.3421 87.0491 45.3421V44.664ZM83.4086 45.1206C83.3711 44.9462 83.3327 44.98 83.5079 45.0047L83.6068 45.0209C83.6133 45.0267 84.084 45.3739 83.6099 45.3407L83.4268 45.3336C83.4043 45.3193 83.1091 45.2454 83.4086 45.1206ZM52.5767 45.0031C52.6631 45.1553 52.6391 45.128 52.6909 45.3421H52.3485C52.4234 45.0324 52.3022 45.1661 52.5768 45.0031H52.5767ZM38.2321 45.4176C38.2316 45.0995 38.1681 45.1775 38.4957 45.0437C38.5025 45.4218 38.5951 45.344 38.2321 45.4176ZM72.6165 45.1533C72.5266 45.2746 72.36 45.3316 72.5359 45.1482C72.5472 45.1362 72.58 45.1322 72.5827 45.1321C72.5845 45.1321 72.6138 45.1264 72.6151 45.1268L72.6165 45.1533ZM65.3612 45.0031V45.3421C65.3029 45.3497 65.2674 45.3512 65.0187 45.2291C65.0621 45.047 65.1378 45.0249 65.3612 45.0031ZM62.8499 44.7771C63.2498 44.8099 63.0699 44.7047 63.3281 44.9817L63.5348 45.3421C63.071 45.3421 63.1673 45.3798 62.8499 45.2291V44.7771H62.8499ZM54.5172 44.89H54.7455V45.2291H54.5172V44.89ZM47.4402 44.89C47.7909 45.1445 47.6243 44.8173 47.6685 45.3421C47.2937 45.243 47.2076 45.2442 47.4402 44.89ZM70.4979 45.2291C70.2722 45.1694 70.4143 45.319 70.2678 45.1375C70.1331 44.9705 70.3609 44.7214 70.4979 45.2291ZM69.4705 45.2291C69.4705 44.83 69.5234 44.9552 69.6489 45.0116C69.6425 45.2238 69.5445 45.2324 69.4705 45.2291ZM62.2793 45.0031C62.284 44.9657 62.3972 44.9857 62.409 44.9892C62.4159 44.9912 62.6226 44.7462 62.4577 45.0116C62.4575 45.0117 62.2523 45.2184 62.2793 45.0031ZM58.7407 42.0646C59.1596 42.1754 59.2058 42.4905 59.4529 43.5069C59.9528 45.5632 59.5707 45.2291 58.3983 45.2291C57.9282 45.2291 58.1191 44.9481 58.1506 44.6607C58.3909 42.4701 58.6147 42.281 58.7407 42.0646H58.7407ZM49.9514 45.2291H49.7231C49.7487 44.9239 49.7767 44.9216 49.8373 44.664C49.8805 44.6954 50.164 44.7579 49.9514 45.2291ZM43.5592 44.7771C43.9727 44.8864 44.3289 45.1687 43.6733 45.3421C43.6591 45.1721 43.6107 44.8912 43.5592 44.7771ZM46.6412 45.0031C46.6777 44.5676 46.7553 44.6387 46.7553 44.0989H46.9836C46.9602 45.1398 46.7251 44.9891 46.6412 45.0031ZM62.2793 44.7771V43.986C62.5336 44.0532 62.6217 44.0123 62.6217 44.3249C62.6217 44.6726 62.4148 44.6458 62.2793 44.7771ZM28.2261 44.11C28.3328 44.2259 28.5239 44.0483 28.2636 44.4293C28.2206 44.3625 28.2202 44.3976 28.1925 44.2367C28.1896 44.2197 28.2133 44.1454 28.2261 44.11ZM106.182 44.5025C106.101 44.4354 105.706 44.6785 106.165 44.1373L106.182 44.5025ZM98.3497 44.8901C98.3591 44.4754 98.4433 44.2638 98.578 43.986C98.856 44.1876 98.9438 44.7331 98.3497 44.8901ZM91.3377 44.2356C91.3355 44.196 91.372 44.1886 91.4351 44.1647L91.4106 44.4578L91.321 44.3085C91.3176 44.2974 91.3397 44.2696 91.3377 44.2357V44.2356ZM84.18 44.4478C83.8396 44.1588 84.1949 44.1136 84.1955 44.1127L84.18 44.4478ZM69.5847 44.664V43.986H69.813C69.8922 44.3559 69.9465 44.4494 69.5847 44.664ZM55.2022 43.986C55.6623 44.2271 55.4535 43.9456 55.5426 44.327C55.5607 44.4039 55.5446 44.8869 55.5446 45.0032C55.0968 44.8426 55.2647 44.6993 55.2324 44.5737C55.1537 44.2672 55.0351 44.2403 55.2021 43.986H55.2022ZM51.093 45.2293H50.8647C50.8647 43.9916 50.967 44.057 50.9788 43.5339C51.5152 43.6757 51.3923 43.9571 51.093 45.2293H51.093ZM32.6012 43.5339L32.7154 45.1161C32.7154 45.5482 32.7504 45.1573 32.6012 45.4552C32.2395 45.1929 32.4416 45.5353 32.3559 45.0036C32.3513 44.9752 32.3162 44.0583 32.317 44.0491C32.3589 43.5824 32.3695 43.702 32.6012 43.5339V43.5339ZM66.3887 43.76C66.3887 43.554 66.5624 43.5786 66.7311 43.5339C66.7436 44.092 67.0209 44.853 66.8453 45.2293C66.4998 44.9786 66.6769 45.1597 66.5452 44.6222C66.4541 44.2498 66.3887 44.1459 66.3887 43.7601V43.76ZM63.4208 44.099C63.4208 43.8775 63.8399 43.143 63.9671 42.9447C64.408 42.2572 64.3639 42.1775 64.7906 42.0648C64.9564 44.0377 65.5869 43.5329 64.7087 44.696C64.527 44.9366 64.4522 45.0751 64.2199 45.2292C63.9519 45.0347 63.4208 44.1655 63.4208 44.099H63.4208ZM52.5769 44.099C52.6016 43.8062 52.6913 43.2725 52.754 42.9181C52.8508 42.3712 52.7988 42.1871 53.2618 42.0647C53.3979 42.6427 54.2891 43.5794 54.2891 43.986C54.2891 44.2859 53.6857 45.0872 53.4901 45.2292C53.2876 45.0822 52.7393 44.3391 52.5769 44.099ZM18.447 43.986C18.447 43.0961 18.7293 42.6674 18.7895 41.9518C19.21 42.2306 20.1592 43.8256 20.1592 44.099C20.1592 44.1221 19.8134 44.6131 19.7481 44.709C19.5593 44.987 19.5068 45.0679 19.3602 45.3422C19.1415 45.1835 18.447 44.1882 18.447 43.986ZM102.687 43.76C102.687 43.5011 102.726 43.6286 102.801 43.3079H103.144C103.151 43.6337 103.228 44.0232 103.288 44.4082C103.353 44.8223 103.372 45.1061 103.372 45.6813H103.03C103.013 44.9432 102.687 44.0796 102.687 43.7601V43.76ZM100.633 45.3422C100.106 45.2989 100.273 45.2671 99.9939 44.8445C98.9011 43.1488 101.15 41.8383 101.198 41.9573C101.393 42.2973 101.546 43.3711 101.546 43.8729C101.546 44.1946 100.784 44.6981 100.633 45.3421V45.3422ZM93.5556 41.9517C93.983 42.2617 94.1263 43.4145 94.1263 43.986C94.1263 44.1904 93.7807 44.6088 93.6702 44.7775C93.1778 45.5296 93.4422 45.3046 92.9849 45.3421C92.8761 44.8795 92.8644 44.9926 92.6247 44.6816L92.3431 44.2822C92.1472 44.0271 92.32 44.2517 92.1859 44.0989C92.4134 43.673 92.5155 43.4384 92.8033 43.015C93.1207 42.5478 93.1241 42.2378 93.5557 41.9517L93.5556 41.9517ZM16.7348 45.7942C16.5538 45.4209 16.7356 44.0155 16.849 43.5339H17.0772C17.205 44.0773 17.0145 44.6403 16.9516 45.2358C16.9006 45.7156 17.1258 45.5146 16.7348 45.7941V45.7942ZM95.1537 43.76C95.4852 43.5401 95.3068 43.5313 95.7244 43.421C95.7503 43.7292 95.7799 43.7275 95.8443 43.9911C95.9664 44.4905 96.0622 45.3817 95.6102 45.6813C95.3889 45.2246 95.3706 44.2403 95.1537 43.76ZM71.5253 45.2292L70.8638 44.415C70.8498 44.3953 70.8314 44.367 70.8173 44.348L70.6121 44.099C70.8481 43.6575 70.9522 43.3548 71.2662 42.9384C71.5699 42.5353 71.6935 42.1055 72.096 41.8387C72.305 42.2697 72.5526 43.122 72.5526 43.7601C72.5526 44.0766 71.6088 45.1688 71.5253 45.2293V45.2292ZM37.2813 45.3422C36.4707 43.8256 36.1203 44.4505 37.0558 42.9717C37.2497 42.6363 37.6153 42.3593 37.7378 41.8387H37.9661C38.5888 44.4851 38.6342 43.4377 37.8734 44.5724C37.6756 44.8675 37.5434 45.152 37.2812 45.3422L37.2813 45.3422ZM85.2229 45.3422C85.2229 44.0676 85.0427 45.0043 85.3172 43.2883C85.4099 42.7094 85.182 43.0209 85.5653 42.7429C85.5653 43.3804 85.5144 43.645 85.4618 44.1096C85.3889 44.7556 85.644 45.0367 85.2229 45.3422ZM75.8628 42.7429C76.2502 43.0239 75.9976 42.6547 76.1003 43.1858L76.3194 45.3422C75.9084 45.2335 76.0211 45.3322 75.9704 44.8949C75.9394 44.6273 75.9257 44.3234 75.9194 44.2086C75.9047 43.941 75.8629 43.3155 75.8629 42.7428L75.8628 42.7429ZM74.2647 43.3079C74.2647 43.7432 74.4042 44.8517 74.493 45.2293H74.0364C74.0102 44.0646 73.248 43.3917 74.2647 43.3079ZM89.9934 42.7449C90.3773 43.0043 90.2011 42.897 90.2966 43.4831C90.3635 43.8921 90.3594 44.107 90.3594 44.5511H90.1311L89.9934 42.7449ZM81.9126 42.9689C82.1396 42.8183 82.2288 42.7631 82.4833 42.6298L83.2823 43.986C83.1415 44.2495 83.1034 44.377 82.9109 44.6354C82.725 44.8846 82.6118 45.0683 82.3692 45.2292C82.1554 44.7883 81.9126 43.6424 81.9126 42.9688L81.9126 42.9689ZM78.4881 43.0819C78.4881 43.7773 78.6168 44.8414 78.374 45.3422C78.001 45.2436 78.0518 45.3233 78.0861 44.9629L78.213 43.6256C78.2287 43.2868 78.2008 43.2903 78.4881 43.0819V43.0819ZM45.4997 42.7429C45.8823 43.0203 45.6189 42.6547 45.7628 43.1604C45.908 43.6704 45.8422 44.6566 45.8422 45.2292H45.7281C45.7281 44.3427 45.4998 43.7096 45.4998 42.7428L45.4997 42.7429ZM27.2363 42.8558L27.3752 45.3405C27.361 45.5033 27.2106 45.5073 27.1221 45.5682C27.1221 45.067 27.035 44.7136 27.0087 44.0943C26.9855 43.551 26.7961 43.1751 27.2362 42.8558H27.2363ZM50.0656 43.5339C50.0656 43.0877 50.1014 43.0754 50.1798 42.7429C50.3584 42.8724 50.4709 42.7788 50.4144 43.1849C50.3649 43.5399 50.2156 43.3406 50.0656 43.5339ZM22.3089 43.3267L22.6704 42.8558C22.6671 43.0024 22.6933 43.0237 22.6387 43.1634L22.3089 43.3267ZM68.3291 42.7429C68.6353 42.965 68.6703 43.2293 68.6766 43.755C68.6818 44.2047 68.6715 44.6649 68.6715 45.1161L68.3291 42.7428V42.7429ZM56.5719 45.1162C56.1345 44.9726 56.5034 45.1518 56.4486 44.4564C56.4142 44.0203 56.1123 43.1591 56.6861 42.743L56.5719 45.1162V45.1162ZM33.4002 42.7429C33.4334 43.1375 33.8562 44.2601 33.865 44.6559C33.8707 44.9101 33.8568 45.1956 33.8568 45.4552C33.4541 45.2943 33.6918 45.1267 33.6413 44.9585C33.479 44.4208 33.0001 43.0329 33.4002 42.7428V42.7429ZM103.715 42.6298H103.943C104.066 44.091 104.399 43.2227 104.399 45.6813C103.949 45.3546 104.205 44.635 103.899 43.5845C103.768 43.133 103.715 43.1889 103.715 42.6298H103.715ZM96.5233 42.7429C96.7475 43.6953 96.8657 43.9987 96.8657 45.2293H96.6374C96.6374 44.4036 96.6358 44.331 96.3325 43.492C96.1478 42.9812 96.0022 42.8807 96.5233 42.743L96.5233 42.7429ZM67.3017 42.9689C67.3017 42.7633 67.2945 42.9567 67.4159 42.7429C67.7455 42.9818 67.5456 42.7101 67.6943 43.1453C67.7507 43.3102 67.8282 43.6919 67.8451 43.787C67.9352 44.2942 67.9866 44.5525 67.9866 45.1161L67.4678 43.5035C67.4382 43.3717 67.4735 43.4958 67.4141 43.3079C67.2894 42.9138 67.3018 43.4707 67.3018 42.9689H67.3017ZM61.1379 42.7429C61.6996 43.1153 61.4803 43.7083 61.4803 45.2293H61.252C61.252 43.9977 61.1378 44.0682 61.1378 42.7429H61.1379ZM48.3534 44.7771C48.0687 44.5884 47.97 44.3758 47.7826 44.099C48.0066 43.68 48.2139 43.0095 48.5817 42.7429C48.5669 43.3974 48.3534 44.0504 48.3534 44.7771ZM43.5593 42.2907C43.5693 42.7363 43.8676 43.4691 44.0158 44.099C43.625 43.8399 43.3976 43.5308 43.1027 43.1949C43.299 42.7899 43.2184 42.538 43.5593 42.2908V42.2907ZM97.2082 42.7428C97.4164 42.845 97.3511 42.8299 97.6648 42.8557C97.6648 44.5929 98.2771 45.4892 97.5506 45.6813C97.498 45.3463 97.4305 45.4636 97.3224 45.1161C97.2716 44.3648 97.2998 43.4503 97.2082 42.7428ZM75.0638 42.6297C75.1544 42.858 75.4062 43.1582 75.4062 45.1161C75.2779 45.0231 74.3563 42.8168 75.0638 42.6297ZM51.7778 42.8557V43.1948C51.4758 43.1155 51.684 43.2038 51.4354 43.0818C51.6154 42.8255 51.4569 42.9497 51.7778 42.8557ZM34.2074 42.568C34.5404 42.8816 34.5539 43.4612 34.6444 43.8843C34.7026 44.1565 34.6559 45.2165 34.6559 45.5682H34.4276C34.4889 45.3078 34.4454 45.2246 34.4513 44.8837L34.3542 44.1717C34.0923 43.4946 34.2131 42.7714 34.2074 42.568ZM15.9357 45.9073C15.6055 45.7988 15.652 45.478 15.8216 44.8901C15.2422 44.6586 15.8177 42.9941 16.164 42.7429C16.4146 43.2793 16.017 43.8047 16.0102 44.1996L15.9357 45.9074L15.9357 45.9073ZM78.1457 42.9688C78.246 42.5932 78.3646 42.5346 78.4881 42.5168C78.5914 42.7228 78.5761 42.6582 78.6023 42.9688C78.3991 42.8858 78.4467 42.8617 78.1457 42.9688ZM28.4919 43.4209C28.4687 43.1453 28.3045 42.8255 28.6859 42.1436C28.7667 41.9991 28.7619 42.0341 28.8343 41.9517C28.8343 42.7113 28.7984 43.1985 28.4919 43.4209H28.4919ZM81.9632 42.0145C82.1656 42.236 82.1328 42.0338 82.0267 42.3199C81.9593 42.2964 81.9112 42.1654 81.9247 42.1236C81.9201 42.1071 81.9467 42.0484 81.9632 42.0145ZM22.5563 42.1777C22.5693 42.1423 22.9289 41.9105 22.7125 42.1644C22.7121 42.1648 22.4392 42.497 22.5563 42.1777ZM32.9437 42.0647L33.1491 41.8161L33.172 42.0647C33.3363 42.1635 33.327 42.0881 33.1539 42.1777L33.0062 42.3693L32.9093 42.1777C32.7887 42.074 32.807 42.1468 32.9437 42.0647ZM88.1907 41.1606C88.1907 40.8172 88.3887 40.7768 88.6472 40.7085C88.6865 41.1751 89.0802 42.0118 89.2861 42.9015C89.5224 43.9229 89.6746 44.4215 89.6746 45.4552C89.1755 45.093 89.4492 44.9105 89.5604 44.4381C89.2943 44.3427 89.3672 44.658 89.1487 43.7154C88.8368 42.3691 88.1906 41.7308 88.1906 41.1606H88.1907ZM86.0219 44.2121C86.1237 42.9999 86.8209 41.788 86.8209 40.7085C87.1576 40.7362 86.9746 40.6447 87.1815 40.8036C87.7113 41.2104 86.9238 41.9486 86.4638 43.5192C86.3093 44.0462 86.5137 44.0819 86.0219 44.212L86.0219 44.2121ZM59.3115 41.2736C59.3115 41.0345 59.3524 41.1245 59.4257 40.8215H59.6539C60.0111 42.3397 60.6813 43.0477 60.6813 45.1161C60.2524 44.8051 60.572 45.1823 60.3841 44.2276C60.1976 43.2798 60.0859 43.0226 59.7528 42.1929C59.7114 42.0898 59.3115 41.2797 59.3115 41.2736ZM23.1904 43.986L23.1456 44.2121L23.127 44.4622C22.9508 44.3161 23.0777 44.4578 23.0038 44.2092C22.9895 44.161 22.9999 44.0595 23.0071 43.986C23.1409 42.7187 23.8119 41.6072 23.8119 40.7085L24.2938 41.1354C24.1904 41.4926 24.15 41.5025 24.0007 41.7995L23.1904 43.986V43.986ZM42.4178 40.5955C42.6143 40.738 42.839 41.0514 42.9619 41.3091C43.121 41.6424 43.0628 41.8452 42.7603 42.0647C42.6375 41.8115 42.4283 40.9726 42.4178 40.5955ZM33.6285 40.5955C34.0161 40.8766 33.7494 40.5619 33.9093 41.1087C34.0001 41.4194 34.0573 41.5079 34.0851 41.8387H33.8568C33.83 41.5202 33.8028 41.4832 33.6914 41.202C33.403 40.4737 33.644 41.1495 33.6286 40.5955H33.6285ZM25.3498 40.8215C25.4569 40.7384 25.5444 40.7101 25.5241 40.8587C25.5781 41.4122 25.871 41.9391 26.0456 42.4526C26.3172 43.2523 26.2878 43.9036 26.4373 44.2121C26.0719 44.066 26.1999 44.0357 26.0479 43.4673C25.6518 41.9865 24.8633 41.4416 25.3498 40.8215ZM57.8276 40.4825C59.0334 40.8012 58.0035 41.9029 57.6413 43.1234C57.27 44.375 57.417 44.363 57.2916 44.8114C57.1504 45.3163 57.4089 44.9533 57.0286 45.2291C57.1107 44.6261 57.0225 44.824 57.3029 43.3534L57.8276 40.4825V40.4825ZM85.5653 42.0647L86.2502 39.6913C86.8454 40.0859 86.5886 39.7776 85.93 41.6347C85.7687 42.0893 85.87 41.9555 85.5653 42.0646V42.0647ZM56.6862 42.1777C56.6862 41.2143 57.2416 40.4837 57.2569 39.8043C57.8913 39.9548 57.54 40.1072 56.9889 41.6863C56.811 42.196 57.0485 41.9149 56.6862 42.1777H56.6862ZM34.0851 40.0304C34.0851 39.753 34.743 39.0126 34.8831 38.7862C34.9728 38.6415 35.0302 38.4891 35.1124 38.3351C35.4295 38.419 35.6801 38.6389 35.941 38.8709L37.2369 40.4135C37.4276 40.6892 37.5851 41.1006 37.7379 41.3865C37.2792 41.6907 37.1189 42.03 36.7387 42.4316C35.9193 43.2975 36.3415 43.2034 35.7974 43.5339C35.5039 42.9285 36.2443 41.6069 36.4823 40.5955C35.5132 40.6754 35.6936 42.2386 34.9984 42.7428C34.8031 42.3397 34.9506 42.4248 34.8593 41.9764C34.7579 41.4794 34.0851 40.3244 34.0851 40.0304H34.0851ZM22.5563 41.8386L23.127 39.6914C23.791 40.1316 23.382 40.1052 23.0423 40.9637C22.7993 41.5778 23.0925 41.6969 22.5563 41.8387V41.8386ZM89.9153 41.7256L89.9931 42.0614C89.7068 41.9206 89.847 42.0962 89.707 41.7256L89.1487 39.8487C89.313 39.69 89.1867 39.7969 89.3322 39.6914C89.4428 39.9196 89.505 40.3446 89.6014 40.6679C89.7225 41.074 89.8093 41.3572 89.9153 41.7256H89.9153ZM59.9964 40.0304L60.1554 39.8487C60.3197 39.69 60.1934 39.7969 60.3388 39.6914L60.9907 41.6603C61.1126 42.066 61.1904 41.9769 60.9096 42.1778C60.7142 41.3475 60.4124 40.6455 59.9964 40.0305V40.0304ZM25.8665 40.0304L26.0255 39.8487C26.1898 39.69 26.0635 39.7969 26.2089 39.6914C26.6193 40.5383 26.6834 41.1707 26.8939 42.0648H26.6656C26.6144 41.4551 26.1432 40.4395 25.8665 40.0305V40.0304ZM60.6813 39.4653C60.6813 39.1893 61.5025 38.2457 61.7086 38.1091C62.3113 38.5088 63.3729 39.6149 63.8775 40.3694C64.9201 41.928 64.4689 41.1115 63.239 43.0148C63.1375 43.1718 63.1924 43.1327 63.0622 43.2919C62.9134 43.4735 62.9897 43.443 62.7359 43.5339C62.363 42.7646 63.3067 41.2754 63.3067 40.9346C63.3067 40.7289 63.2656 40.7078 63.1925 40.7085C63.0656 40.7859 62.9808 40.905 62.7899 41.101C62.2027 42.0941 62.288 42.4881 61.9369 42.7429L60.9077 39.8063C60.8103 39.6222 60.6813 39.5802 60.6813 39.4654L60.6813 39.4653ZM55.8871 42.7428H55.6588C55.5225 42.1633 55.2373 41.5518 54.9123 41.1086C54.6666 40.7736 54.8276 40.8206 54.4032 40.7085L55.2022 43.1948C55.2022 43.4025 54.9404 43.4822 54.7456 43.5338C54.5548 42.8263 53.2617 41.6011 53.2617 41.4996C53.2617 41.0544 54.0831 39.9663 54.4291 39.604C54.8202 39.1945 55.5824 38.3866 56.0012 38.109C56.2247 38.2572 57.1427 39.1832 57.1427 39.3522C56.6633 40.2972 56.4276 40.7329 56.1313 41.7414C56.0288 42.0904 55.9204 42.346 55.887 42.7428L55.8871 42.7428ZM28.7675 32.6692L29.107 31.6671C28.6011 30.7488 29.1731 30.3821 29.6084 29.7865C29.527 30.2446 29.1645 30.6929 29.1342 31.331C29.1014 32.0236 29.4596 32.1897 28.8343 32.7534C28.7877 33.3993 28.7534 32.9292 28.606 33.4755C29.0078 33.3693 29.1875 33.1046 29.3866 32.779C29.9421 31.8705 29.2706 31.5816 29.9741 30.4223C30.5188 29.5246 30.5554 27.4883 30.5457 26.3546C30.5371 25.3415 30.7748 24.5195 30.7748 23.53H31.1173C31.1173 24.3683 31.476 25.3336 31.7031 26.0014C32.3732 27.9718 32.4709 29.1854 31.2126 30.7444C30.8646 31.1756 30.1498 32.1396 29.9577 32.6663C29.502 33.9157 29.8068 35.4031 29.6069 36.7266C29.274 38.9303 29.8254 39.4908 28.1214 37.9109C27.7243 37.5428 26.6727 36.8862 26.0949 36.7529C26.6093 37.5136 29.217 39.1946 29.1381 39.9846C29.0883 40.4851 28.9976 40.6605 28.7536 40.9675C28.3988 41.4141 27.9785 42.061 27.9213 42.7428H27.693C27.6719 41.8054 27.2618 41.016 26.9304 40.2204C26.9083 40.1677 26.7645 39.8555 26.7502 39.8338C26.6087 39.6197 26.5654 39.5717 26.4374 39.5783C26.501 38.8221 27.1433 38.9899 27.3506 38.1091C26.5413 38.5331 25.7955 39.234 25.2472 39.9823C24.8974 40.4596 25.0433 40.5504 24.4969 40.5956C24.4001 40.2365 24.2264 40.0896 24.0228 39.8218C23.4655 39.0885 22.8108 38.5012 21.9857 38.1092C22.109 38.5666 22.6387 38.968 22.8988 39.3524C22.7458 39.92 22.1264 40.6898 21.6433 42.743C21.2045 42.4248 21.1214 41.42 20.7038 40.9506C19.6323 39.7461 20.8593 42.6952 20.9037 42.9268C20.9905 43.3794 20.9159 43.3351 20.6159 43.534C20.453 42.9297 19.132 41.6851 19.132 41.3867C19.2423 40.9776 19.6994 40.3772 19.9486 40.0478C20.5103 39.3052 21.146 38.7774 21.8228 38.174C22.0837 37.9414 21.8812 38.1056 22.0799 37.8634C22.2681 37.6344 22.4544 37.529 22.7027 37.3499C23.063 37.0898 23.1221 37.1951 23.2414 36.753C22.593 36.9024 21.8769 37.4609 21.3662 37.8349C19.8982 38.9098 18.8052 40.4519 17.9894 42.0636C17.7975 42.4426 17.711 42.8296 17.5339 43.195C17.1164 43.0846 17.2948 43.0757 16.9632 42.8559C17.2821 41.5005 18.6343 39.9414 19.5059 38.8185C19.6527 38.6514 19.8151 38.6522 19.931 38.2222C18.8681 38.5031 17.8044 40.1611 17.2379 41.0936C16.9818 41.5153 16.7355 41.916 16.6207 42.4039H16.1642C16.1642 41.7538 16.3031 41.7262 16.4086 41.1674C16.5092 40.6351 16.4391 40.6325 16.5066 40.0305C16.1192 40.2874 15.953 40.7146 15.778 41.2305C15.3995 42.3475 15.3437 43.0444 15.1644 44.2231C15.0718 44.7556 15.3306 45.7142 14.9085 46.0204C15.0107 44.6162 15.0217 42.5709 15.3384 41.2473C15.4798 40.6569 15.7075 40.3841 15.7075 39.6915C14.3135 41.2794 14.3378 43.8767 14.3378 45.9074C12.9167 46.0728 10.6587 46.0249 9.08694 46.0203C7.37517 46.0153 5.45473 46.0968 3.71748 46.1288L0.183594 46.3594C5.35068 46.3594 10.6209 46.6985 15.8217 46.6985L19.7027 46.8115C20.7429 46.8109 22.7454 46.6988 23.6713 46.8379C24.8841 47.0198 52.4627 47.3766 55.0882 47.3766H71.1829C79.1069 47.3766 87.041 47.0374 94.9254 47.0376C100.17 46.9031 105.31 46.6986 110.563 46.6986C113.277 46.6986 115.673 46.5855 118.44 46.5855C121.026 46.5371 123.764 46.3595 126.316 46.3595V46.2465C123.283 46.2465 120.191 46.016 117.184 46.0204L109.421 45.9084C107.798 45.9234 108.531 45.6003 109.216 44.573C109.484 44.1709 109.629 44.0636 109.965 43.732C110.399 43.303 111.316 42.585 111.591 42.1779C110.18 42.2942 108.68 44.3588 107.938 45.4553C107.535 45.1631 107.245 44.4792 106.911 44.0991C107.213 43.5338 108.289 41.9501 108.395 41.4998C107.556 42.0562 107.123 42.8279 106.568 43.647L106.13 43.2888C106.209 42.8958 106.319 42.5177 106.439 42.1629C106.571 41.7764 106.761 41.3594 106.797 40.9347C106.233 41.3087 105.919 42.2193 105.769 42.8559C105.27 42.7239 105.299 41.969 105.07 41.2878C104.91 40.8093 104.667 40.0814 104.286 39.8045C104.286 40.6159 104.688 41.4635 104.856 42.1779C104.389 42.1273 104.622 42.3263 104.39 41.8489C104.095 41.244 103.959 40.5689 103.487 40.0306C103.487 41.8157 104.01 41.7995 103.601 42.404C103.267 42.1824 102.206 40.2391 101.632 39.6065C101.157 39.0821 100.73 38.5723 100.062 38.2224C100.183 38.67 101.244 39.8165 101.63 40.2868C102.105 40.8663 102.753 41.9361 102.916 42.63L102.485 43.1072C102.108 42.5633 101.815 41.7425 101.471 41.1225C100.72 39.7718 98.1814 36.8803 96.6378 36.7532C96.9497 37.2145 97.3887 37.4707 97.8464 37.8169C98.817 38.5512 100.861 40.2599 100.861 41.6129C100.487 41.7117 100.583 41.7094 100.316 41.9775C99.9339 42.3618 99.3369 43.498 98.9207 43.6472C98.3479 42.8002 99.2414 42.0141 99.2632 41.0478C98.7672 41.3767 98.6376 41.9087 98.4056 42.4592C98.2463 42.8372 98.4734 42.7329 98.0076 42.8561C97.8671 42.2593 97.7336 41.5381 97.5074 40.978L96.7954 39.6486C96.7816 39.6309 96.7572 39.6016 96.7445 39.586L96.6378 39.4657C96.717 40.4075 97.244 41.1295 97.3227 42.065C96.7981 41.9263 96.6391 40.9366 96.1443 40.1802C96.0839 40.0943 96.022 39.9962 95.9529 39.9176L95.9903 40.3857C96.0511 41.1076 96.262 41.5561 96.3541 42.0279C96.4528 42.5326 96.0825 42.5685 95.7941 42.1141C95.7434 42.0342 95.5918 41.7537 95.5513 41.6714C95.4262 41.4173 95.4431 41.3738 95.2947 41.1345C95.0824 40.7921 94.9594 40.7043 94.735 40.3323C94.388 39.7573 93.1901 38.277 92.5285 38.2225C92.6435 38.6488 93.995 40.0927 94.3544 40.5961L95.1553 41.9506C95.4415 42.5172 95.7789 42.9983 94.9256 43.1952C94.8859 43.0266 94.8448 42.8475 94.7688 42.6722L94.4968 42.1505C94.0531 41.0679 92.7773 39.3742 92.5726 39.1958C91.7987 38.357 90.2627 36.9942 89.2182 36.7532C89.3605 37.281 90.0064 37.4723 90.3776 37.8655C91.4398 38.9904 92.0168 39.1455 93.1469 40.7745C93.6681 41.5253 93.4675 41.4925 92.9844 42.0644L91.8436 43.6471L91.3616 43.2203C91.565 42.4935 92.0089 41.6848 92.0718 40.9349C91.6173 41.2362 91.1929 42.2254 91.0445 42.8561C90.6181 42.7434 90.6691 42.6782 90.5754 42.1905C90.5085 41.8431 90.4518 41.5564 90.3144 41.2058C90.2017 40.9179 90.1095 40.682 89.9804 40.4063C89.7243 39.8582 89.8517 39.837 89.4465 39.6917C89.4636 38.9339 90.0591 38.9135 90.2456 38.2225C89.8988 38.3142 89.2455 38.9504 88.9582 39.2081C88.6689 39.4676 88.0515 40.2668 87.9626 40.5958C87.4194 40.551 87.7864 40.6634 87.5469 40.4424C87.5404 40.4364 87.2827 40.0796 87.2598 40.0485C86.8944 39.5485 86.5855 39.089 86.0902 38.7202C85.7065 38.4344 85.6932 38.2611 85.2232 38.2225C85.3377 38.6474 85.8699 39.0716 86.1363 39.4657C85.7292 40.0676 85.6057 40.1486 85.3018 40.8997C85.0569 41.5053 85.0276 42.2046 84.7666 42.7432C84.4047 42.6134 84.6547 42.8526 84.4307 42.3976C84.2129 41.955 84.0465 41.0764 83.511 40.9349C83.511 41.8967 84.3152 42.817 83.9676 43.5342C83.39 43.4716 83.5849 43.2415 83.0252 42.5459L82.6644 41.9991C82.6558 41.9907 82.4837 41.8817 82.3997 41.8092C81.887 41.3662 82.3932 40.7988 82.9584 40.0485L84.6232 38.3065C85.1826 37.8061 86.0615 37.3703 86.4789 36.7532C85.9661 36.7955 85.6727 37.0424 85.2895 37.2708C84.9832 37.4533 85.0022 37.4064 84.7381 37.629L83.9769 38.2316C83.9597 38.2474 83.9368 38.2721 83.9198 38.2882L83.3112 38.8156C82.9943 39.1673 82.8962 39.5524 82.3695 39.6917C82.388 39.4734 82.5785 38.9038 82.6755 38.7512C82.9139 38.3762 83.0054 38.6463 82.9872 37.9508C82.9685 37.2331 83.4469 36.8388 83.511 36.0751C84.0754 36.1216 84.1885 36.4418 85.5571 36.2927C86.5679 36.1826 87.2389 35.7316 87.8795 35.0885C88.5311 34.4345 88.8759 33.6233 88.8759 32.5716C89.2553 32.6028 89.3503 32.759 89.6979 32.6035C90.8769 32.0757 91.516 30.7856 92.2522 29.8115C94.3047 27.0954 93.8736 26.7548 94.7983 23.7432C95.6525 20.9613 94.4739 22.8702 96.5224 20.1385C96.9221 19.6055 97.5438 18.6996 98.2033 18.5252C98.671 18.4017 99.5166 18.4047 100.133 18.2882C101.303 18.0665 102.422 17.5586 103.611 17.4379C104.756 17.3217 104.43 17.3978 105.22 16.883L106.569 16.0712C106.783 16.1835 106.787 16.1807 106.993 16.3293C108.265 17.2471 108.922 15.9165 109.675 15.7559C110.289 15.6248 110.276 15.6222 110.792 15.2801C110.792 14.6796 110.715 14.5958 110.678 14.1499C110.967 13.7227 111.119 13.8006 111.363 13.4719C111.145 12.5478 109.864 11.9496 109.42 10.9876C107.875 7.63467 107.29 8.88799 107.14 6.57773C107.085 5.73908 106.281 4.61026 106.162 4.49398C105.016 3.37714 105.053 3.85776 104.4 2.50931C103.575 2.50931 103.416 2.54417 102.945 2.14116C102.537 1.79141 102.43 1.53756 102.091 1.17845C101.369 0.412379 100.605 0.100865 99.5362 0.745047C99.318 0.876432 99.1884 0.972581 99.0076 1.12588C96.7108 3.07347 95.988 3.02581 92.6164 2.53538L89.3021 2.59221C88.7394 2.7048 88.1975 2.82147 87.7099 2.93705C85.5539 3.44844 84.3071 4.47538 82.0968 4.83863C80.9277 5.03074 80.0855 5.02035 78.9214 5.31103C77.3733 5.6976 75.9628 6.1528 74.3946 6.36689C73.7708 6.45208 73.2628 6.41123 72.5539 6.46584L70.8409 6.57792C67.8008 6.57601 64.4547 6.63495 61.5894 6.35739C60.9078 6.29145 60.6586 6.2139 60.045 6.07812C57.597 5.53684 54.1187 5.15103 51.6595 5.11325C49.1807 5.07515 44.6172 4.31169 41.5514 4.15864C37.7709 3.55001 34.5561 4.21617 32.0024 7.00189C31.7463 7.28117 31.4024 7.82467 31.2298 8.15811C30.3943 9.77188 30.1722 11.5223 30.0938 13.3623C30.0727 13.8605 29.9942 13.761 29.9726 14.2595L29.6373 20.3693C29.6167 20.87 29.536 20.7665 29.5164 21.2668C29.3946 24.3803 28.6399 26.3156 26.3524 28.3056C26.0192 28.5953 26.0236 28.4119 25.8264 28.802C25.5683 29.312 25.5533 29.4406 25.0962 29.8873C24.6907 30.2836 24.3992 30.3865 24.383 31.1024C24.8946 30.7632 25.1645 30.2474 25.8669 30.0853C25.668 30.8231 24.5397 31.487 23.9264 31.8936C24.3326 32.6538 24.3609 32.1545 24.907 32.505C25.1887 32.6858 25.239 33.3485 25.4104 33.7019C25.8037 33.4165 25.7427 33.0642 26.3235 32.9109C26.3235 33.5068 26.2054 33.4506 26.5519 33.7019C26.6604 33.2404 26.6564 33.2443 27.1226 33.1368C27.0599 33.4029 27.0162 33.4706 27.0084 33.8149C28.0841 33.5305 27.7351 31.2805 28.2149 30.4888C28.4086 30.1692 28.2941 30.2809 28.6064 30.1984C28.5157 30.584 28.3744 30.5951 28.3717 30.9903C28.369 31.3928 28.5593 31.5422 28.7206 31.7806C28.6743 32.3317 28.485 32.4568 28.3782 32.9107C28.5463 32.8172 28.6197 32.8358 28.7679 32.6696L28.7675 32.6692ZM92.1858 40.9345L92.1517 40.9007C92.1539 40.903 92.1744 40.9457 92.1858 40.9345ZM36.1398 36.4138C36.5017 36.6763 36.9039 37.5807 36.9387 37.9961H36.5963C37.1306 38.7861 37.5484 38.9087 37.6237 39.8043L36.7118 38.786C36.5091 38.5438 35.8653 37.9614 35.569 37.8831C35.5819 37.3062 35.9005 36.7677 36.1398 36.4139V36.4138ZM75.977 34.2666C75.977 37.5028 76.5039 37.2168 76.5516 38.4442C76.5926 39.4987 76.5477 40.6589 76.5477 41.7256H76.3195C76.2664 41.0947 75.7977 39.9529 75.3386 39.527C75.1221 39.3264 75.3675 39.3989 75.178 39.4653C75.0009 39.8376 75.821 41.6795 75.8629 42.1777H75.6346C75.4879 41.5542 75.0498 39.9818 74.379 39.8043C74.3964 40.0103 74.5011 40.9937 74.5599 41.2076C74.7121 41.7608 75.0434 41.9743 74.6072 42.2907C74.2252 42.0135 73.5507 40.4294 73.0378 39.8891L70.9546 37.9961C70.9928 38.4494 72.169 39.7578 72.5255 40.1702C72.9114 40.6165 73.9224 42.0338 73.9224 42.6297C73.9224 42.8376 73.6607 42.9173 73.4659 42.9688C72.9286 40.6853 70.2144 37.8275 68.1637 36.8038C67.7845 36.6147 68.0972 36.6524 67.5303 36.6398C67.6403 37.048 69.1482 37.958 70.0133 38.8151C70.7302 39.5256 71.8679 40.4892 71.8679 41.6125C71.3178 41.758 70.3996 42.9821 70.2698 43.5339C69.9853 43.4588 69.837 43.4481 69.836 43.1044C69.8337 42.3061 70.478 41.7114 70.4981 40.8214C70.1561 40.9119 70.332 40.7918 70.1006 41.106C69.7311 41.6072 69.5046 42.114 69.3567 42.7428H69.1284C68.9354 41.9228 68.6185 40.4104 68.0644 39.7277C67.8448 39.4571 67.9341 39.5417 67.6445 39.4653C67.6582 40.074 67.8466 40.2223 67.9882 40.7073C68.1108 41.1265 68.2259 41.5121 68.3293 41.9517C67.9575 41.8184 67.8875 41.3266 67.6821 40.8972C67.5657 40.6538 67.5074 40.4948 67.4012 40.2713C67.3899 40.2473 67.3771 40.2171 67.3654 40.1937C67.2482 39.9599 67.2448 39.8798 66.9596 39.8043C66.9596 40.1037 67.0087 40.2307 67.0273 40.4154C67.0912 41.049 66.8105 40.6771 67.241 41.6788C67.4568 42.1808 67.4545 42.0896 67.2529 42.3484C67.2425 42.3617 67.2087 42.3843 67.1879 42.4038C66.9992 42.2668 66.1244 40.5817 65.6209 39.9997C65.1763 39.4859 64.2202 38.1656 63.5352 38.1091C63.5713 38.5394 63.5805 38.4503 63.8448 38.7067C64.6701 39.5075 65.4081 40.4784 65.9342 41.4977C66.1492 41.9144 66.49 42.3893 66.503 42.9689L66.0509 43.0958C65.9183 42.8175 65.9868 42.8376 65.8849 42.5638L64.7613 40.5118C63.669 39.0617 62.7335 38.0262 61.1428 37.0875C60.7844 36.876 60.5824 36.6529 59.9968 36.6399C60.4313 37.2822 61.0806 37.4046 61.4807 37.9961L59.4058 39.8973C59.183 40.1966 59.1085 40.4984 58.7412 40.5955C58.4417 39.4849 56.7124 38.535 56.23 37.8831C56.4771 37.7192 56.6506 37.6006 56.897 37.4133C57.2791 37.123 57.2254 37.0433 57.7118 36.9769C59.0228 36.7979 58.8554 37.0691 58.8554 35.6227C59.6364 35.2136 60.6417 34.7187 61.8232 34.7187C62.3149 34.7187 62.5189 34.7897 63.0531 34.6937C63.2549 34.6575 63.9526 34.4574 64.2062 34.3656C65.9114 33.7481 69.9519 32.4584 71.4115 32.4584C74.2198 32.4584 73.7251 33.2495 75.8632 33.2495L76.0915 32.7973C76.0915 33.4421 75.9774 33.5791 75.9774 34.2666H75.977ZM45.8422 29.1809L52.6903 32.7981C54.4128 33.5692 55.9463 33.6593 56.7206 35.8147C57.3195 37.4821 57.1713 36.3104 55.0033 38.2511C54.792 38.4402 54.8051 38.3917 54.611 38.5407C53.9825 39.024 52.8895 40.6601 52.4656 41.3895C52.2428 41.7727 52.1089 42.3085 51.3213 42.5168C51.5494 41.5475 53.1096 39.4806 53.8631 38.7044C54.1279 38.4318 54.1367 38.5634 54.175 38.1091C53.1323 38.3848 50.8325 41.4283 50.7505 42.4038C49.9858 42.3408 50.2317 42.037 50.3951 41.4313C50.5045 41.026 50.6383 40.5075 50.7505 40.0304C50.2717 40.0823 50.5855 39.7635 50.0252 40.8945C49.6172 41.7181 49.3488 43.169 49.278 44.1031C49.2329 44.6982 49.3999 44.5148 49.0384 44.7771C49.0384 42.1475 50.0123 40.1007 50.0657 39.4654C49.6272 39.5813 49.7873 39.5699 49.3807 40.3694L48.8839 41.5727C48.6969 41.8679 48.3029 42.1159 48.0552 42.4476C47.8225 42.7588 47.5284 43.1597 47.4402 43.534H47.0978C46.8368 42.4244 47.5767 41.9149 47.6685 40.8216C47.3021 40.9185 47.1325 41.1316 46.9125 41.6553C46.6688 42.2351 46.7457 42.5827 46.2988 42.743C46.2244 42.5893 45.9627 41.174 45.4061 40.1233C45.0496 39.4505 45.1293 39.5486 44.8149 39.4655C44.8965 40.4368 45.4777 41.1943 45.4998 42.1779C45.1592 41.9308 45.0775 41.4516 44.8827 40.9805C44.5149 40.0898 44.5123 40.0185 44.13 39.9174C44.1386 40.3019 44.199 40.3171 44.213 40.5115C44.2584 41.1447 44.4369 41.5857 44.5885 42.1759C44.8047 43.0164 45.0432 43.7178 45.0432 44.7773L44.8083 44.3318C44.7509 44.131 44.7417 44.015 44.6792 43.7814C44.5982 43.4794 44.4681 43.0908 44.3431 42.7581C44.24 42.484 44.095 42.0999 43.9403 41.799C43.5825 41.1036 43.7277 41.5341 43.7876 40.8216C43.0953 40.9668 43.4726 40.7146 42.3883 39.4947C41.9513 39.0029 42.0754 38.7392 42.0754 37.7702C42.0754 34.5929 44.1083 29.8078 46.3268 27.6263C46.5174 27.4389 46.6475 27.2871 46.8493 27.1265L47.5545 26.6946C47.2411 27.2811 46.4892 27.9703 45.8422 29.181V29.1809Z" fill="#942724"/>
<path fill-rule="evenodd" clip-rule="evenodd" d="M65.5912 16.1087C65.6452 16.3087 65.7141 16.0808 65.6097 16.6065C65.552 16.8964 65.7295 17.4037 65.7295 17.7842C65.7295 18.6142 65.6599 19.3665 65.6612 20.076C65.6615 20.2484 65.6338 20.346 65.6456 20.4655C65.657 20.579 65.672 21.6821 65.8678 21.6821C66.2989 21.6821 67.3108 21.2157 67.704 20.9012C68.1977 20.5062 68.6313 19.8614 68.6313 19.186V18.81C68.6313 17.1033 66.4573 14.8286 65.5913 16.1087H65.5912ZM65.7294 22.8789C65.7294 23.2171 65.764 23.5814 65.6653 23.9096C65.5203 24.3918 65.5945 24.2801 65.7512 24.6697C65.8904 25.0158 65.7985 25.7213 65.7985 26.1957C65.7985 26.7179 65.8238 27.6317 66.524 27.6317C67.4664 27.6317 68.5622 27.2243 69.3636 26.7496C69.7118 26.5435 69.8795 26.3617 70.0892 26.0317C70.6073 25.2167 70.9792 24.2989 70.4006 23.3842C70.3208 23.258 70.1894 23.1004 70.079 23.0161C69.8505 22.8414 70.1563 22.8612 69.8498 22.5959C69.7114 22.4761 69.5645 22.4199 69.37 22.3528C69.2188 22.3007 68.9629 22.1985 68.8039 22.195V22.3318C68.1081 22.3165 68.493 21.3646 66.7885 22.2859L65.7294 22.879V22.8789ZM57.8187 15.2197C57.8187 15.4259 57.8517 15.8605 57.9223 16.0061C57.4342 16.2617 57.6779 16.0669 57.266 15.9719C56.9963 16.1507 57.1969 16.3026 57.0637 17.071C56.9487 17.7347 57.033 17.6733 57.0585 18.2632C57.0657 18.4315 57.081 18.7203 57.1078 18.8981L57.1979 20.829C57.1948 20.9474 57.1621 21.0496 57.1859 21.1154C57.2066 21.1725 57.3474 21.2719 57.3695 21.2719C57.5449 21.2719 58.0902 21.1217 58.2296 21.0632C58.5588 20.9252 58.5688 20.7544 58.7938 20.5275C59.6644 19.6502 59.7905 20.1624 60.696 18.1019C60.8773 17.6894 61.515 16.1275 60.918 15.8408C60.7165 15.7441 60.6514 16.0061 60.1677 16.0061C59.8954 16.0061 60.0822 15.245 60.1182 15.1365C60.1743 14.9678 60.2001 14.918 60.4074 14.91C60.7505 14.8968 61.1327 14.912 61.4804 14.9121C61.8629 14.9121 62.1127 14.8774 62.4822 14.8778C63.0426 14.8784 63.3458 14.7682 63.3458 15.1172C63.3458 15.5012 63.1658 15.6589 63.035 15.9036C62.5253 15.9036 62.3725 15.9305 62.3787 16.4506C62.3887 17.3053 61.7625 18.3626 61.2684 19.0105C60.9169 19.4714 60.5264 19.8966 60.1628 20.3438C59.8603 20.7157 59.0279 21.2015 59.0279 21.6822C59.0279 22.1393 59.4303 22.2009 59.8581 22.2282C61.5103 22.3335 62.2413 23.3765 62.808 24.7792C63.458 26.3883 63.2256 27.2343 63.726 27.9739C64.0338 27.8276 64.1257 27.9747 64.3823 28.1449C64.4583 28.0324 64.5204 27.9705 64.5204 27.803C64.5204 27.5946 64.3823 27.4366 64.3823 27.4268C64.3823 27.0559 64.6165 26.6774 64.483 25.5491C64.4673 25.4163 64.4537 25.2392 64.4313 25.0873C64.2938 24.1532 64.4137 22.7128 64.4176 21.7842C64.4188 21.4799 64.3448 21.2285 64.4404 20.9535C64.5216 20.7201 65.1034 20.1592 64.4772 20.1575C64.3889 20.1574 64.4278 20.1532 64.3132 20.1437C64.3132 19.7955 64.2436 19.4939 64.2441 19.118C64.2451 18.2757 64.3296 17.3615 64.0593 16.5654C64.0307 16.4812 63.8986 16.1856 63.8986 16.1431C63.8986 16.0181 63.9922 16.0693 64.0368 15.9037C63.907 15.7119 63.6568 15.6484 63.6568 15.3566C63.6568 14.914 64.2067 14.9238 64.4929 14.8508C64.9649 14.7303 65.3025 14.8037 65.7783 14.898C66.1896 14.9794 66.2835 14.9468 66.6191 14.989C67.1483 15.0557 66.91 15.0961 67.2089 15.3284C67.3198 15.4145 67.6474 15.6668 67.7676 15.6985C68.0257 15.5275 67.9574 15.3154 68.6606 15.7731C68.985 15.9842 69.2415 16.3003 69.4463 16.6357C69.64 16.953 70.1512 18.1428 70.1512 18.5024C70.1512 19.3206 70.0298 19.6599 69.5402 20.2569C69.3912 20.4386 68.7003 21.2139 68.7003 21.4087C68.7003 21.5908 68.9756 21.669 69.1675 21.6986C69.8574 21.8052 69.99 21.5246 70.8849 22.2554C71.3961 22.6729 72.1379 23.1829 72.2501 23.9478C72.373 24.7866 71.8573 25.6136 71.607 26.2348C71.4743 26.5644 71.306 26.9876 71.0767 27.2144C70.7966 27.4914 70.3837 27.5748 70.0476 27.7344C70.072 28.0244 70.435 28.3763 69.1403 28.6144C68.8941 28.6598 68.7296 28.6695 68.4644 28.6975C67.7174 28.7767 66.8816 28.7336 66.2575 28.8382C65.855 28.9058 65.3685 29.0337 64.9005 29.0337C64.6077 29.0337 64.4353 28.9653 64.1404 28.9653C63.9551 28.9653 63.8539 29.1027 63.2623 29.014C62.9608 28.9688 62.6207 28.9996 62.3096 28.9996C61.9528 28.9996 61.7005 28.9635 61.3771 28.9652C61.0547 28.9667 60.732 28.9653 60.4097 28.9653C60.4097 28.5808 60.6888 28.349 60.785 28.0034C60.8351 27.8237 60.7961 27.9092 60.9311 27.8059C61.3457 27.489 61.2623 27.7687 61.7569 27.7687C61.9392 27.7687 62.021 27.5442 62.0103 27.4185C61.9614 26.8464 61.8368 26.2381 61.7316 25.7079C61.646 25.2772 61.4993 25.1163 61.2305 24.8702C61.0618 24.7159 60.5823 24.411 60.5823 24.1783C60.5823 24.0483 60.6254 23.9469 60.6514 23.8364C60.5376 23.761 60.4765 23.6999 60.3411 23.6307C59.9924 23.4525 59.5899 23.3193 59.2013 23.2203C58.926 23.1501 58.6423 23.1002 58.3456 23.0414C58.13 22.9987 57.6693 22.879 57.4389 22.879C57.3094 23.0704 57.2599 23.3986 57.2039 23.6379C57.0919 24.1156 57.0589 24.4712 57.0589 24.9648C57.0589 25.2267 57.1582 25.2921 57.1641 25.5445C57.1698 25.7857 57.1474 26.0154 57.1825 26.2443C57.255 26.7186 57.1694 27.1959 57.0243 27.495C56.8929 27.4842 56.657 27.3251 56.7413 27.5612C56.7888 27.6935 56.8944 27.7892 57.0589 27.8028C57.0772 28.0197 57.314 28.0774 57.4313 28.2206C57.591 28.4158 57.4935 28.5896 57.4734 28.8285C56.5427 28.8285 54.9733 28.6893 54.3036 28.0337C54.0277 27.7634 54.0534 27.8521 54.0534 27.4266C54.0534 27.2659 54.1312 27.2501 54.2261 27.1873C54.7661 27.3118 55.1226 27.7552 55.2877 26.8019C55.3575 26.3987 55.3719 25.9623 55.4625 25.5729C55.6565 24.7383 55.573 24.0852 55.573 23.3235C55.573 23.0844 55.5391 23.0277 55.6406 22.8771C55.7291 22.746 55.7785 22.7236 55.7827 22.5049C55.7902 22.1113 55.8246 21.9192 55.7667 21.5592C55.7096 21.2048 55.6079 20.8808 55.6079 20.5196C55.8348 20.5246 55.7592 20.58 55.9189 20.6221C55.9189 20.2184 55.6079 19.8773 55.6079 19.5279C55.6079 18.3923 56.0054 17.7765 55.424 16.5301C55.352 16.376 55.3039 16.2808 55.1935 16.177C55.1078 16.2097 55.1664 16.3187 54.9191 16.3152L54.4335 16.2797L54.2998 16.0368C54.2552 15.9455 54.2607 15.8327 54.2607 15.6983C55.1029 15.5041 55.2424 15.0438 56.818 15.0497C57.151 15.0509 57.5036 14.9804 57.8533 14.9804C57.8444 15.0874 57.8188 15.1019 57.8188 15.2197L57.8187 15.2197ZM56.057 10.7404C56.3474 10.7404 56.6904 10.9156 56.9552 11.0479L57.7728 11.4355C60.1324 12.5178 59.657 11.9029 60.1677 11.9029C60.7971 11.9029 62.4159 12.0009 62.943 12.2675C63.2518 12.4236 63.4789 12.5184 63.8639 12.5184C64.2492 12.5184 64.2661 12.3133 64.3821 12.0739L65.6321 12.1387C65.8262 12.1579 66.5464 12.0559 66.7787 11.9842C67.0251 11.9083 67.2111 11.7662 67.4912 11.7662C67.7123 11.7662 67.8055 12.0678 68.1217 11.7749C68.4581 11.4634 68.1904 11.7784 69.0504 11.4973C69.3725 11.3919 70.5027 10.8163 70.2463 11.2382C70.2302 11.2648 70.1329 11.3599 70.1074 11.3809C69.9919 11.4758 69.8693 11.5296 69.7368 11.5954L68.7189 12.0238C68.6261 12.0564 68.6019 12.0582 68.512 12.0927C68.0423 12.2735 67.6454 12.5526 67.1457 12.5526C66.9119 12.5526 67.1141 12.4501 66.6276 12.4501C66.2366 12.4501 66.1325 12.5118 66.0324 12.8183C65.9592 13.0425 65.9635 13.0261 65.315 13.0656L63.9679 13.1684L61.0314 13.0313C61.0314 12.858 60.9969 12.8451 60.9969 12.6552L58.672 12.4263C58.505 12.3811 58.5445 12.3465 58.4318 12.2537C58.3575 12.1927 58.2194 12.1482 58.1288 12.1091C57.7375 11.9403 57.3564 11.7481 56.9964 11.5203L56.256 10.9882C56.0104 10.7929 56.1178 10.8749 56.0572 10.7405L56.057 10.7404Z" fill="#FEFEFE"/>
<path fill-rule="evenodd" clip-rule="evenodd" d="M9.62625 83.2332L9.61752 79.6199L7.8233 82.595H7.19619L5.40198 79.6889V83.2332H4.07812V77.1967H5.24517L7.52714 80.9479L9.77426 77.1967H10.9413L10.95 83.2332H9.62618H9.62625ZM15.1046 77.1967C15.6446 77.1967 16.1149 77.283 16.5156 77.4641C16.9075 77.6452 17.2123 77.8952 17.4301 78.223C17.6478 78.5506 17.7523 78.9387 17.7523 79.3871C17.7523 79.827 17.6478 80.215 17.4301 80.5427C17.2123 80.879 16.9075 81.1291 16.5156 81.3015C16.1149 81.4826 15.6446 81.5689 15.1046 81.5689H13.8765V83.2332H12.4656V77.1968H15.1046V77.1967ZM15.0262 80.4306C15.453 80.4306 15.7752 80.3357 15.993 80.1545C16.2107 79.9735 16.324 79.7234 16.324 79.3871C16.324 79.0508 16.2108 78.7835 15.993 78.6024C15.7752 78.4213 15.453 78.335 15.0262 78.335H13.8765V80.4306H15.0262Z" fill="#1D1D1D"/>
<path fill-rule="evenodd" clip-rule="evenodd" d="M22.5079 81.9396H19.6772L19.1372 83.2331H17.6914L20.4088 77.1967H21.8024L24.5285 83.2331H23.0479L22.5079 81.9396ZM22.0637 80.8789L21.0969 78.5678L20.1301 80.8789H22.0637ZM30.8867 83.2331L30.878 79.6199L29.0837 82.5949H28.4566L26.6624 79.6889V83.2331H25.3386V77.1967H26.5056L28.7876 80.9479L31.0347 77.1967H32.2017L32.2104 83.2331H30.8866H30.8867ZM36.635 83.3366C35.9992 83.3366 35.433 83.1986 34.9279 82.9313C34.414 82.6639 34.0221 82.2844 33.7347 81.8103C33.4473 81.3359 33.2992 80.81 33.2992 80.2148C33.2992 79.6198 33.4473 79.0852 33.7347 78.6109C34.0221 78.1366 34.4141 77.7658 34.9279 77.4985C35.433 77.2311 35.9992 77.0931 36.635 77.0931C37.2708 77.0931 37.8369 77.2311 38.3421 77.4985C38.8473 77.7659 39.2479 78.1366 39.5354 78.6109C39.8228 79.0852 39.9709 79.6198 39.9709 80.2148C39.9709 80.8099 39.8228 81.3359 39.5354 81.8103C39.2479 82.2845 38.8473 82.6639 38.3421 82.9313C37.837 83.1986 37.2708 83.3366 36.635 83.3366ZM36.635 82.1466C36.9921 82.1466 37.3231 82.0603 37.6105 81.8965C37.8979 81.7326 38.1331 81.5084 38.2985 81.2152C38.464 80.922 38.5424 80.5857 38.5424 80.2149C38.5424 79.8441 38.4641 79.5078 38.2985 79.2146C38.1331 78.9214 37.8979 78.6886 37.6105 78.5247C37.3231 78.3609 36.9921 78.2833 36.635 78.2833C36.2779 78.2833 35.947 78.3609 35.6596 78.5247C35.3721 78.6886 35.1456 78.9214 34.9802 79.2146C34.8147 79.5078 34.7276 79.8441 34.7276 80.2149C34.7276 80.5857 34.8147 80.922 34.9802 81.2152C35.1456 81.5084 35.3721 81.7326 35.6596 81.8965C35.947 82.0603 36.2779 82.1466 36.635 82.1466ZM43.6986 77.1967C44.2386 77.1967 44.7089 77.283 45.1095 77.464C45.5015 77.6451 45.8063 77.8952 46.0241 78.223C46.2418 78.5506 46.3463 78.9387 46.3463 79.3871C46.3463 79.8269 46.2418 80.215 46.0241 80.5427C45.8063 80.879 45.5015 81.1291 45.1095 81.3015C44.7089 81.4826 44.2386 81.5688 43.6986 81.5688H42.4705V83.2332H41.0595V77.1967H43.6986V77.1967ZM43.6202 80.4305C44.047 80.4305 44.3692 80.3356 44.587 80.1545C44.8047 79.9735 44.9179 79.7234 44.9179 79.387C44.9179 79.0507 44.8048 78.7834 44.587 78.6023C44.3692 78.4213 44.047 78.335 43.6202 78.335H42.4705V80.4305H43.6202Z" fill="#1D1D1D"/>
<path fill-rule="evenodd" clip-rule="evenodd" d="M52.87 77.1967V83.2332H51.459V80.7582H48.6893V83.2332H47.2783V77.1967H48.6893V79.5769H51.459V77.1967H52.87ZM58.5225 81.9396H55.6919L55.1519 83.2332H53.7061L56.4235 77.1967H57.8171L60.5432 83.2332H59.0626L58.5226 81.9396H58.5225ZM58.0783 80.8789L57.1116 78.5678L56.1448 80.8789H58.0783Z" fill="#1D1D1D"/>
<path fill-rule="evenodd" clip-rule="evenodd" d="M65.9082 77.1967V83.2332H64.5146V81.6292H63.2256L62.1456 83.2332H60.6562L61.9278 81.4137C61.5185 81.2498 61.1962 80.9911 60.9785 80.6548C60.7608 80.3185 60.6475 79.9218 60.6475 79.4475C60.6475 78.9818 60.752 78.5766 60.9697 78.2401C61.1875 77.9038 61.4924 77.6452 61.8842 77.4641C62.2762 77.2831 62.7465 77.1967 63.2778 77.1967H65.9081H65.9082ZM63.3127 78.335C62.912 78.335 62.6072 78.4299 62.3982 78.611C62.1804 78.7921 62.0759 79.068 62.0759 79.4303C62.0759 79.7838 62.1804 80.0511 62.3808 80.2408C62.5811 80.4306 62.886 80.5254 63.2779 80.5254H64.5147V78.3351H63.3127V78.335ZM74.1912 78.335H71.2908L71.2995 83.2332H69.8972V77.1967H74.1998L74.1912 78.335Z" fill="#1D1D1D"/>
<path fill-rule="evenodd" clip-rule="evenodd" d="M77.3524 83.3366C76.7166 83.3366 76.1504 83.1986 75.6453 82.9313C75.1314 82.6639 74.7395 82.2844 74.452 81.8103C74.1647 81.3359 74.0166 80.81 74.0166 80.2148C74.0166 79.6198 74.1647 79.0852 74.452 78.6109C74.7395 78.1366 75.1315 77.7658 75.6453 77.4985C76.1504 77.2311 76.7166 77.0931 77.3524 77.0931C77.9882 77.0931 78.5543 77.2311 79.0595 77.4985C79.5647 77.7659 79.9653 78.1366 80.2527 78.6109C80.5402 79.0852 80.6883 79.6198 80.6883 80.2148C80.6883 80.8099 80.5402 81.3359 80.2527 81.8103C79.9653 82.2845 79.5647 82.6639 79.0595 82.9313C78.5544 83.1986 77.9882 83.3366 77.3524 83.3366ZM77.3524 82.1466C77.7095 82.1466 78.0405 82.0603 78.3279 81.8965C78.6153 81.7326 78.8505 81.5084 79.0159 81.2152C79.1814 80.922 79.2598 80.5857 79.2598 80.2149C79.2598 79.8441 79.1815 79.5078 79.0159 79.2146C78.8505 78.9214 78.6153 78.6886 78.3279 78.5247C78.0405 78.3609 77.7095 78.2833 77.3524 78.2833C76.9953 78.2833 76.6644 78.3609 76.3769 78.5247C76.0895 78.6886 75.863 78.9214 75.6976 79.2146C75.5321 79.5078 75.445 79.8441 75.445 80.2149C75.445 80.5857 75.5321 80.922 75.6976 81.2152C75.863 81.5084 76.0895 81.7326 76.3769 81.8965C76.6644 82.0603 76.9953 82.1466 77.3524 82.1466ZM86.0011 80.0856C86.3756 80.1976 86.6544 80.3702 86.8546 80.6202C87.0549 80.8703 87.1507 81.1721 87.1507 81.5342C87.1507 82.0689 86.9504 82.4829 86.5411 82.7846C86.1317 83.0865 85.5395 83.2331 84.7818 83.2331H81.7769V77.1966H84.6163C85.3218 77.1966 85.8792 77.3346 86.2711 77.6019C86.6631 77.8693 86.8634 78.2572 86.8634 78.7574C86.8634 79.0593 86.785 79.318 86.637 79.5422C86.4889 79.775 86.2711 79.9561 86.0011 80.0854V80.0856ZM83.1792 79.6975H84.4943C84.7992 79.6975 85.0343 79.6371 85.1911 79.5078C85.3479 79.387 85.4262 79.206 85.4262 78.9645C85.4262 78.7317 85.3478 78.5506 85.1911 78.4213C85.0256 78.2919 84.7992 78.2316 84.4943 78.2316H83.1792V79.6975V79.6975ZM84.7295 82.1982C85.3915 82.1982 85.7224 81.9395 85.7224 81.4222C85.7224 80.922 85.3915 80.6719 84.7295 80.6719H83.1792V82.1982H84.7295Z" fill="#1D1D1D"/>
<path fill-rule="evenodd" clip-rule="evenodd" d="M93.0469 77.1967V83.2332H91.6533V81.6292H90.3643L89.2843 83.2332H87.7949L89.0665 81.4137C88.6572 81.2498 88.3349 80.9911 88.1171 80.6548C87.8994 80.3185 87.7861 79.9218 87.7861 79.4475C87.7861 78.9818 87.8906 78.5766 88.1084 78.2401C88.3261 77.9038 88.631 77.6452 89.0229 77.4641C89.4149 77.2831 89.8852 77.1967 90.4165 77.1967H93.0468H93.0469ZM90.4514 78.335C90.0508 78.335 89.7459 78.4299 89.5369 78.611C89.3191 78.7921 89.2146 79.068 89.2146 79.4303C89.2146 79.7838 89.3191 80.0511 89.5195 80.2408C89.7198 80.4306 90.0246 80.5254 90.4166 80.5254H91.6533V78.3351H90.4514V78.335Z" fill="#1D1D1D"/>
<path fill-rule="evenodd" clip-rule="evenodd" d="M100.816 82.0949V84.4835H99.5095V83.2332H95.2069V84.4835H93.9004L93.9091 82.0949H94.153C94.5188 82.0863 94.7801 81.8189 94.9281 81.3015C95.0762 80.7841 95.1721 80.0425 95.2069 79.0853L95.2766 77.1967H99.9623V82.0949H100.816H100.816ZM96.4523 79.2146C96.4262 79.9304 96.3652 80.534 96.2695 81.017C96.1736 81.5085 96.0343 81.8621 95.8427 82.0949H98.5688V78.3351H96.4785L96.4523 79.2147V79.2146ZM101.765 77.1967H103.168V81.129L106.077 77.1967H107.4V83.2332H106.007V79.3095L103.098 83.2332H101.765V77.1967H101.765ZM114.508 77.1967V83.2332H113.097V80.7582H110.327V83.2332H108.916V77.1967H110.327V79.5769H113.097V77.1967H114.508ZM120.16 81.9396H117.329L116.789 83.2332H115.344L118.061 77.1967H119.455L122.181 83.2332H120.7L120.16 81.9396ZM119.716 80.8789L118.749 78.5678L117.782 80.8789H119.716Z" fill="#1D1D1D"/>
</g>
<defs>
<clipPath id="clip0_2795_22027">
<rect width="126.132" height="84.0868" fill="white" transform="translate(0.183594 0.396851)"/>
</clipPath>
</defs>
</svg>
