<svg width="160" height="51" viewBox="0 0 160 51" fill="none" xmlns="http://www.w3.org/2000/svg">
<path fill-rule="evenodd" clip-rule="evenodd" d="M154.595 29.98C158.125 28.6928 155.832 34.312 156.187 34.988C156.538 35.4074 157.252 35.0657 157.242 36.2105C157.238 36.6485 157.225 37.8231 156.722 37.9541C156.016 37.894 155.831 36.8553 155.2 37.4249C154.94 37.6598 154.149 38.408 153.896 38.55C152.706 39.217 151.111 38.4546 151.083 37.3128C151.033 35.2187 152.247 36.2032 153.489 34.8588C154.048 34.2534 155.234 32.3792 154.168 31.7993C153.319 31.8288 151.898 34.0593 151.473 34.6817C150.545 36.0435 150.325 37.1471 149.978 38.8175C149.645 40.4258 147.975 45.8542 147.199 47.2995C146.647 48.3271 146.138 50.4244 144.634 50.36C143.179 50.2979 143.649 46.9564 143.868 46.0029C144.573 42.9279 148.229 38.9761 147.111 38.2688C146.645 38.0762 146.297 39.3206 144.997 39.4728C143.517 39.6457 143.642 38.3184 143.061 37.9828C142.595 37.9709 140.928 42.1173 138.975 40.1128C138.059 39.1726 139.366 35.354 139.89 34.4797C140.721 33.0922 141.598 30.7836 143.885 31.8413C145.177 32.4387 144.993 37.4805 145.209 37.6339C146.209 38.2352 149.417 32.2287 150.218 31.1203C151.588 29.2253 151.585 30.8741 151.147 31.8141C150.969 32.1953 150.862 33.4621 151.421 32.6874C152.207 31.5974 153.304 30.4504 154.595 29.98ZM141.37 38.4036C142.028 38.1353 144.569 32.5409 143.018 33.238C141.131 34.0862 140.134 38.9067 141.37 38.4036Z" fill="#E42A26"/>
<path fill-rule="evenodd" clip-rule="evenodd" d="M45.8213 0.583109C46.7882 0.50489 46.47 0.987017 46.061 1.76864C45.8895 2.09646 40.1808 18.0144 40.0189 19.0705C39.9448 19.553 39.1886 20.5831 40.1989 20.5166C40.4665 20.499 42.251 20.2696 42.2636 20.271C42.7975 21.707 41.7655 24.6469 40.4908 25.251C39.9201 25.5213 38.2377 25.7973 37.9632 26.3212C37.1597 27.8552 36.4938 33.9713 36.4262 35.6147C36.3797 36.7425 36.3983 38.0724 36.4229 39.2082C36.4384 39.9235 36.9663 41.9941 36.7421 42.4603C33.6708 43.1565 30.9905 40.2065 30.9849 37.2936C30.9797 34.5405 31.1756 31.1491 31.977 27.6218C31.8184 27.486 24.106 28.6668 23.2304 28.9922C21.9448 29.4702 21.5971 28.6628 21.4014 30.6435C21.1927 32.757 18.9345 38.9832 17.9179 41.0805C16.2288 44.5648 13.4535 47.1396 9.3891 45.2367C8.67841 44.904 7.72218 44.5434 6.94714 44.198C6.22927 43.8783 5.49468 43.2606 4.81635 42.8482C3.32456 41.9413 2.32648 40.5955 1.29642 39.4075C0.265856 38.2188 -0.55299 35.672 0.520779 34.2458C3.30089 30.5536 11.6233 27.0749 16.1119 25.473C17.6307 24.9311 17.6716 25.3381 18.0271 23.9079C18.3671 22.5392 18.669 21.0332 19.0141 19.6944C19.5408 17.6509 22.1115 7.96105 21.7905 7.03435C19.5642 6.72255 17.8528 7.20756 15.9321 7.69895C15.3555 7.84653 14.3045 8.40724 13.5867 8.71699C13.2261 8.87256 11.5567 9.92245 11.4731 9.8747C11.0343 9.00118 12.5776 6.15571 13.225 5.34475C14.2231 4.09476 15.5926 3.29033 17.0764 2.74387C18.5308 2.20824 28.7748 1.7196 28.9379 2.5737C28.9798 2.79678 26.6565 11.809 26.4068 12.931C26.0492 14.5386 23.7395 22.1874 24.2977 23.1386C26.7124 22.701 30.2239 22.5062 32.4013 21.8951C33.8161 21.4979 34.145 21.8881 34.4294 20.6988C34.9309 18.601 35.4943 16.7324 36.1284 14.6663L39.6261 3.27015C40.5156 0.416133 40.0788 0.585395 41.309 0.617088L45.8213 0.583109ZM13.9581 39.8979C14.3619 39.1912 16.908 31.1491 15.7138 31.3777C15.0563 31.5036 8.81357 34.4819 8.26484 34.9105C7.41652 35.5728 5.55913 36.1389 5.1746 37.2954C4.52734 39.2425 8.08304 42.3213 10.9243 42.3698C12.5054 42.3968 13.2592 41.1203 13.9581 39.8979Z" fill="#E42A26"/>
<path fill-rule="evenodd" clip-rule="evenodd" d="M149.815 22.1607C151.872 21.6974 153.549 21.6599 155.719 21.7712C158.1 21.8935 158.311 23.3925 157.87 25.3588C157.651 26.3397 153.141 25.8917 152.106 25.8912C150.076 25.8904 148.21 26.4063 146.402 26.5232C145.115 26.6064 137.441 28.8149 136.722 29.6707C136.657 29.8278 137.25 31.7408 137.355 32.0747C137.711 33.2082 137.573 33.7011 137.592 34.8861C137.629 37.2341 137.21 38.2482 136.571 40.2717C135.393 43.9991 129.517 43.7274 131.262 38.562C131.93 36.5834 132.346 36.1098 133.502 34.4278C134.973 32.2871 137.439 34.8115 136.104 31.6436C135.535 30.294 134.042 28.8382 135.823 27.2865C137.874 25.5001 147.276 22.7327 149.815 22.1607ZM134.195 40.6142C135.214 40.2976 137.109 34.8305 135.746 35.7455C134.358 36.6776 132.698 41.0792 134.195 40.6142Z" fill="#E42A26"/>
<path fill-rule="evenodd" clip-rule="evenodd" d="M81.2972 6.75503C82.2055 6.76573 82.9749 6.79192 83.6429 7.50284C83.9996 7.88257 84.0576 8.30742 83.9736 8.75659C83.7375 10.0178 82.3687 12.9396 81.8813 14.2818C81.7265 14.7078 81.5989 14.7197 81.3898 14.5975C80.7366 14.2161 78.3062 13.4389 78.7006 12.7067C78.8686 12.3947 79.7873 10.612 79.6114 10.3434C78.9019 9.68867 75.983 13.6542 75.4311 14.1992C75.1346 14.4922 71.73 18.6624 71.7333 18.689C72.2802 19.2506 73.1014 18.3871 73.8047 19.3552C74.1512 19.8321 76.1993 24.6394 77.1282 24.4582C82.0354 21.624 85.6936 13.2 87.1901 7.772L91.5111 7.77253L86.7476 22.9064L87.0237 22.9944C87.7732 23.6343 89.226 21.2617 89.5999 20.6996C90.3118 19.63 91.1693 18.6204 91.7348 17.7119C92.2194 16.9331 96.0304 12.1345 96.0333 11.7203L99.6179 11.7708C100.077 12.431 97.5144 25.9222 97.8058 26.5633C97.8097 26.5691 98.8785 27.536 99.1904 28.033C99.4031 28.3721 99.7793 29.9454 99.6388 30.4265L97.2239 30.056L97.2049 30.179C97.1835 30.2111 94.0814 37.4939 93.1734 38.6211C87.6855 45.4345 79.1357 38.4256 85.138 31.3705C86.7533 29.4718 87.4167 29.4152 88.5469 28.483C89.3304 27.8368 92.6208 26.6089 93.0112 26.6706L94.4017 17.8788L94.1029 17.8315C94.0187 17.8471 91.7599 21.3435 91.5477 21.7083C91.0062 22.6394 89.5403 24.3243 88.6325 25.2066C87.2368 26.5627 86.2572 27.3243 84.3832 26.531C82.224 25.6167 82.78 22.3942 82.1052 22.3908C81.7553 22.3897 79.7888 28.9049 75.8073 28.8102C74.393 28.7766 74.611 28.4524 73.8962 27.4743C73.2206 26.5499 70.3966 22.1333 69.9372 21.8052C69.4809 22.0882 68.1155 24.5672 67.7515 25.2892C67.2284 26.3271 67.3906 26.3674 67.3997 27.6715C67.4024 28.0626 67.4661 30.2598 67.3537 30.4437C66.7243 30.8073 64.6829 30.039 64.1861 29.5572C62.8506 28.2618 63.5652 26.7864 63.1285 26.3132C62.699 26.3239 61.0249 30.5182 59.211 31.805C55.9706 34.1038 55.0662 31.4988 54.8747 28.585C54.5775 24.0586 55.7914 22.6006 52.7846 27.1008C51.524 28.9877 50.1986 30.9151 48.8893 32.5908C47.201 34.7514 46.0905 36.3911 42.9633 34.7031C42.15 34.2641 41.4879 32.4484 41.4669 31.5045C41.428 29.7646 45.6762 13.8488 46.1209 12.9061L50.9326 12.707L46.107 30.7746L46.2643 30.8166C48.025 31.6645 52.5556 24.548 53.5006 22.8513C54.6024 20.8733 55.892 18.3917 57.0607 16.5116C57.2484 16.2098 57.5261 16.0184 58.186 15.9211C58.8224 15.8272 60.8294 15.4152 61.4675 15.4625C61.8503 16.5869 57.8177 28.6474 59.0719 28.9221C60.2357 29.4934 64.648 19.9621 64.9487 18.7732C64.9946 18.5913 66.0666 15.949 66.1015 15.8984C66.4733 15.3592 67.9577 10.378 68.4616 10.2033C68.7827 10.0921 72.1511 10.0036 72.2577 10.1115C72.5911 10.4099 69.585 17.6823 70.2045 17.8893C70.5469 18.0025 74.8659 10.4048 78.4135 7.6409C79.526 6.77439 79.8881 6.7384 81.2972 6.75503ZM92.9379 30.8442C93.5653 29.0972 88.2836 32.665 87.9708 32.9512C86.4279 34.363 85.304 36.1948 86.8302 38.2385C90.3655 42.9719 92.3453 32.4942 92.9379 30.8442Z" fill="#E42A26"/>
<path d="M154.155 5.9018C155.753 0.117396 154.522 0.590823 157.478 0.61468C159.987 0.634922 159.461 0.267127 158.809 2.18308C157.188 6.94902 156.615 12.4137 156.826 17.4456C156.886 18.8646 157.271 20.2459 156.385 20.0936C155.243 19.8974 153.908 19.1847 153.208 18.2545C151.593 16.108 152.954 11.4499 152.635 11.1103C152.531 11.0541 146.466 11.958 146.305 12.0908C145.168 13.0421 144.441 20.8138 144.237 21.2452C143.791 22.1915 142.085 21.4753 141.668 20.8759C140.135 18.6745 141.512 15.2069 141.037 14.7428C140.751 14.9953 138.865 19.2629 136.691 19.6837C131.705 20.6494 133.177 15.2564 132.587 14.7051C132.559 14.7239 130.634 18.8613 128.667 20.4393C127.599 21.2953 126.365 21.2977 125.1 21.0167C122.231 20.3792 122.402 15.7195 122.226 15.4842C122.035 15.4671 119.817 18.2899 119.454 18.6387C117.94 20.0925 117.753 20.1358 116.036 21.1654C115.387 21.5545 114.431 21.4013 113.923 20.7341C112.15 18.4061 113.113 14.0435 112.684 13.5669C112.517 13.5699 109.998 17.6364 109.785 18.1614C109.327 19.2895 107.239 21.2582 106.294 22.1391C104.819 23.5129 102.032 23.4665 101.796 20.9707C101.581 18.6951 101.619 16.6446 102.199 14.3899L106.166 14.0761L105.11 19.7212L105.414 19.7782C105.949 19.947 108.22 16.7613 108.626 15.9867C110.228 12.9342 112.881 8.60182 113.784 5.45231C113.899 5.04898 114.064 4.83729 115.155 4.84042C115.573 4.84151 118.389 4.81671 118.545 4.89205C118.726 5.09842 116.095 17.6542 117.814 17.8601C119.8 17.9584 124.244 8.13879 125.227 5.79959C125.816 4.39909 125.303 4.20572 126.89 4.21595C127.434 4.21948 129.685 4.10049 130.045 4.27454L126.877 17.0842L127.229 17.1714C128.184 17.8517 131.452 12.8433 131.97 12.1489C133.041 10.7134 134.773 6.59748 135.494 5.74742L138.974 5.89618C138.264 8.14451 137.915 10.5567 137.284 12.8087C137.154 13.2753 136.563 16.4865 137.866 15.3496C139.718 13.733 140.168 13.0382 141.597 10.8098C144.057 6.97559 144.624 2.49269 145.232 1.3154L149.246 1.21935C149.444 1.57781 146.431 9.04743 146.917 9.32621C147.201 9.48882 148.579 9.41429 148.987 9.41531C150.486 9.41906 151.334 9.07324 152.694 8.78147C153.86 8.53162 153.808 7.15843 154.155 5.9018Z" fill="#E42A26"/>
</svg>
