<svg width="151" height="35" viewBox="0 0 151 35" fill="none" xmlns="http://www.w3.org/2000/svg">
<path fill-rule="evenodd" clip-rule="evenodd" d="M13.6723 0.963424C16.4935 0.148689 19.3163 0.10461 22.1362 0.831743C24.9575 1.55797 27.5172 3.07271 29.8142 5.36966C32.1111 7.66658 33.6311 10.233 34.3723 13.0679C35.1142 15.9042 35.0777 18.7325 34.2626 21.5537C33.4491 24.3749 31.8933 26.9348 29.5964 29.2317C27.2985 31.5296 24.7397 33.0841 21.9184 33.8979C19.0971 34.7136 16.2689 34.7484 13.4326 34.0085C10.5977 33.2662 8.03125 31.7472 5.73435 29.4503C3.43751 27.1521 1.9245 24.5927 1.19728 21.7715C0.470072 18.9502 0.513356 16.1298 1.32812 13.3085C2.14192 10.4873 3.69785 7.9288 5.99603 5.62964C8.29257 3.33278 10.8525 1.77722 13.6723 0.963424ZM18.2322 5.25824C15.9503 4.17039 13.7971 3.6904 11.7756 3.82072C9.75451 3.95074 8.01665 4.74347 6.56327 6.19773C5.1964 7.56459 4.40332 9.2291 4.18542 11.1931C3.9666 13.1558 4.3816 15.2866 5.42794 17.5847C6.47564 19.8816 8.19174 22.2234 10.5761 24.6068C12.8164 26.8471 15.0693 28.5192 17.3383 29.6234C19.6064 30.7285 21.7596 31.2089 23.7949 31.0626C25.8299 30.9175 27.5735 30.1178 29.0292 28.6636C30.396 27.2968 31.1878 25.6318 31.407 23.669C31.6245 21.7054 31.203 19.5673 30.1417 17.2555C29.0803 14.9449 27.3572 12.5963 24.9715 10.2106C22.7625 8.0013 20.5163 6.351 18.2322 5.25824Z" fill="#1D5E79"/>
<path d="M93.9249 0.743112C96.5581 0.74314 98.9712 1.22687 101.173 2.19244C103.373 3.15944 105.235 4.52662 106.759 6.29564C108.279 8.06464 109.369 10.1429 110.027 12.526H103.427C103.095 10.6361 102.532 8.85599 101.73 7.18955C100.928 5.52432 99.8773 4.16702 98.5818 3.11843C97.2866 2.0698 95.734 1.54506 93.9249 1.54501C91.9922 1.54501 90.2547 2.16191 88.7117 3.39614C87.1696 4.62938 85.9554 6.42948 85.0728 8.7942C84.1878 11.1591 83.745 14.0278 83.745 17.3999C83.745 20.5679 84.1571 23.3443 84.9799 25.7287C85.8015 28.1154 86.9844 29.9753 88.5277 31.3124C90.0697 32.6492 91.8687 33.3163 93.9249 33.3163C95.6095 33.3163 97.1031 32.8336 98.3987 31.867C99.694 30.901 100.774 29.5949 101.638 27.9503C102.501 26.3059 103.095 24.4126 103.427 22.2737H110.027C109.369 24.6188 108.279 26.6852 106.759 28.4737C105.235 30.2633 103.373 31.6518 101.173 32.6394C98.9712 33.6258 96.5581 34.1199 93.9249 34.1199C90.676 34.1199 87.7669 33.4104 85.1968 31.9919C82.6246 30.5719 80.5996 28.5974 79.1184 26.068C77.6389 23.5395 76.8976 20.65 76.8976 17.3999C76.8976 14.1523 77.6389 11.2719 79.1184 8.76297C80.5996 6.254 82.6245 4.28991 85.1968 2.8711C87.7669 1.45235 90.676 0.743112 93.9249 0.743112Z" fill="#1D5E79"/>
<path fill-rule="evenodd" clip-rule="evenodd" d="M134.335 0.743112C136.967 0.743119 139.402 1.22684 141.645 2.19244C143.886 3.15944 145.787 4.52662 147.351 6.29564C148.913 8.06465 150.026 10.1428 150.683 12.526H124.526C124.284 14.0163 124.154 15.6355 124.154 17.3999C124.154 20.5679 124.565 23.3442 125.391 25.7287C126.212 28.1153 127.393 29.9753 128.935 31.3124C130.478 32.6492 132.278 33.3163 134.335 33.3163C136.761 33.3163 138.858 32.3611 140.626 30.4481C142.395 28.536 143.567 25.7705 144.142 22.1505H150.683C150.065 24.5357 148.966 26.6344 147.385 28.4425C145.799 30.2533 143.895 31.6518 141.677 32.6394C139.455 33.6259 137.006 34.1199 134.335 34.1199C131.084 34.1199 128.176 33.4104 125.604 31.9919C123.034 30.5719 121.009 28.5973 119.529 26.068C118.048 23.5395 117.307 20.65 117.307 17.3999C117.307 14.1523 118.048 11.2719 119.529 8.76297C121.009 6.25411 123.034 4.28988 125.604 2.8711C128.176 1.45229 131.084 0.743112 134.335 0.743112ZM134.335 1.54501C132.401 1.54501 130.663 2.16191 129.121 3.39614C127.578 4.62939 126.364 6.42939 125.48 8.7942C125.146 9.69091 124.895 10.6833 124.686 11.7241H143.912C143.567 10.1325 143.046 8.6162 142.324 7.18955C141.481 5.52432 140.4 4.16702 139.085 3.11843C137.767 2.06977 136.184 1.54502 134.335 1.54501Z" fill="#1D5E79"/>
<path d="M58.8835 0.742268C60.7746 0.742292 62.4498 1.17578 63.911 2.03882C65.3703 2.90321 66.5226 4.09566 67.3651 5.61698C68.2086 7.13837 68.6313 8.86626 68.6313 10.799V33.5012H61.967V10.4284C61.967 9.0719 61.7222 7.84919 61.2268 6.75821C60.7345 5.66915 60.0461 4.79435 59.1612 4.13642C58.2762 3.47945 57.258 3.14882 56.1081 3.14882C54.9556 3.14882 53.9261 3.46783 53.0212 4.10519C52.118 4.74351 51.3962 5.58643 50.8628 6.63497C50.3269 7.68354 50.0609 8.88586 50.0609 10.2444V33.5012H43.3984V1.35931H50.0609V6.59699C50.2073 6.2409 50.3687 5.89101 50.5556 5.55452C51.3771 4.07493 52.5076 2.90314 53.948 2.03882C55.3861 1.1757 57.0338 0.742268 58.8835 0.742268Z" fill="#1D5E79"/>
</svg>
