<svg width="103" height="104" viewBox="0 0 103 104" fill="none" xmlns="http://www.w3.org/2000/svg">
<g clip-path="url(#clip0_2795_22044)">
<path d="M6.95422 0.278687H96.0139C97.9113 0.278687 99.6382 1.05418 100.887 2.30404C102.137 3.5539 102.912 5.27812 102.912 7.17689V96.2366C102.912 98.1287 102.137 99.8529 100.887 101.104L100.881 101.109C99.6289 102.359 97.906 103.135 96.0139 103.135H6.95422C5.05545 103.135 3.3299 102.359 2.08004 101.109C0.830186 99.8596 0.0546875 98.1353 0.0546875 96.2366V7.17689C0.0546875 5.28211 0.830186 3.55923 2.08004 2.30937L2.08537 2.30404C3.33523 1.05418 5.05812 0.278687 6.95289 0.278687L6.95422 0.278687ZM30.7641 66.4638C32.3311 65.5085 33.3864 63.7802 33.3864 61.8095C33.3864 58.8101 30.9387 56.3611 27.9393 56.3611H18.2536V85.4196H27.9393C33.2799 85.4196 37.625 81.0744 37.625 75.7338C37.625 71.3753 34.7336 67.6831 30.7641 66.4652V66.4638ZM23.0958 57.5709H27.9393C30.2725 57.5709 32.1766 59.4737 32.1766 61.8082C32.1766 64.1427 30.2725 66.0454 27.9393 66.0454C26.1764 66.0454 24.5215 66.5171 23.0958 67.3513V57.5709ZM27.9393 84.2084H23.0958V68.785C24.4682 67.823 26.1351 67.258 27.9393 67.258C32.6136 67.258 36.4138 71.0582 36.4138 75.7325C36.4138 80.4082 32.6136 84.2084 27.9393 84.2084ZM50.7406 56.3611L39.8449 85.4196H41.1361L43.8597 78.1549H53.7399L56.4635 85.4196H61.6362L50.7392 56.3611H50.7406ZM44.3167 76.9437L48.7965 64.9848L53.2909 76.9437H44.3167ZM86.2562 66.0468C86.2562 60.7062 81.911 56.3611 76.5705 56.3611H66.8834V85.4196H71.727V74.4294C73.1527 75.2635 74.809 75.7338 76.5705 75.7338C77.1408 75.7338 77.7004 75.6872 78.2454 75.5859L84.7958 85.4196H86.2562L79.4966 75.2835C83.4114 74.0389 86.2562 70.3733 86.2562 66.0468ZM76.5705 74.5226C74.7677 74.5226 73.0994 73.9577 71.727 72.9956V57.5723H76.5705C81.2448 57.5723 85.045 61.3725 85.045 66.0468C85.045 70.7224 81.2448 74.5226 76.5705 74.5226ZM37.0188 29.6304C37.0188 24.2898 32.6736 19.9446 27.333 19.9446H17.6473V49.0018H22.4908V38.0116C23.9166 38.8457 25.5715 39.3174 27.333 39.3174C27.906 39.3174 28.463 39.2708 29.0079 39.1695L35.5597 49.0031H37.0188L30.2591 38.867C34.1739 37.6225 37.0188 33.9569 37.0188 29.6317V29.6304ZM27.333 38.1049C25.5302 38.1049 23.8633 37.5399 22.4908 36.5779V21.1545H27.333C32.0087 21.1545 35.8089 24.9547 35.8089 29.629C35.8089 34.3047 32.0087 38.1035 27.333 38.1035V38.1049ZM51.1443 19.9446L40.2487 49.0018H41.5398L44.2647 41.7372H54.145L56.8686 49.0018H62.0412L51.1443 19.9446ZM44.7204 40.5273L49.2002 28.5684L53.6933 40.5273H44.7204ZM68.4371 24.3658H80.961C81.2381 24.3658 81.6112 24.6349 81.4647 24.8694L75.3087 34.6271H73.9415L67.9348 24.8694C67.7895 24.6336 68.1613 24.3658 68.4384 24.3658H68.4371ZM64.0706 18.9466H85.3448C85.6566 18.9466 86.0031 19.0585 86.2789 19.2344C86.4481 19.341 86.6027 19.4769 86.7173 19.6328C86.8665 19.834 86.9571 20.0659 86.9571 20.315C86.9571 20.5043 86.9051 20.6935 86.7906 20.876L76.3346 37.452C76.2747 37.5466 76.2041 41.1136 76.1534 43.6999C76.1361 44.5873 76.1201 45.3668 76.1041 45.8878L82.4574 47.5894L82.488 49.1884L66.012 49.2483L66.016 47.5547L73.0474 45.8985C73.0328 45.4108 73.0195 44.6966 73.0048 43.8785C72.9568 41.2761 72.8875 37.5559 72.8209 37.4493L62.6155 20.872C62.5063 20.6908 62.4556 20.5043 62.4556 20.3177C62.4556 20.0645 62.5502 19.8287 62.7048 19.6235C62.8261 19.4636 62.982 19.3264 63.1512 19.2224C63.427 19.0559 63.7641 18.9479 64.0679 18.9479L64.0706 18.9466ZM85.3448 20.351H64.0706C64.0386 20.351 64 20.3604 63.96 20.3763L74.0175 36.7124C74.2787 37.1362 74.3519 41.0883 74.4026 43.8545C74.4265 45.1776 74.4465 46.213 74.4652 46.3422L74.5611 46.9805L70.9475 47.8319L77.8523 47.8066L74.5798 46.9298L74.6851 46.3036C74.7064 46.1823 74.7277 45.0697 74.7557 43.6719C74.809 40.923 74.8849 37.1282 75.1501 36.7071L85.4514 20.3763C85.4128 20.3604 85.3755 20.351 85.3435 20.351H85.3448ZM96.0126 3.08753H6.95289C5.82695 3.08753 4.80361 3.54724 4.06143 4.28809C3.32057 5.03028 2.86087 6.05362 2.86087 7.17955V96.2392C2.86087 97.3625 3.32191 98.3858 4.06409 99.128C4.80628 99.8702 5.82962 100.331 6.95289 100.331H96.0126C97.1399 100.331 98.1619 99.8716 98.9014 99.132L98.9067 99.1267C99.6462 98.3872 100.105 97.3652 100.105 96.2379V7.17822C100.105 6.05495 99.6449 5.03161 98.9014 4.28942C98.1592 3.54724 97.1359 3.0862 96.0126 3.0862V3.08753Z" fill="#C88E15"/>
</g>
<defs>
<clipPath id="clip0_2795_22044">
<rect width="102.857" height="102.857" fill="white" transform="translate(0.0546875 0.278687)"/>
</clipPath>
</defs>
</svg>
