<svg width="99" height="99" viewBox="0 0 99 99" fill="none" xmlns="http://www.w3.org/2000/svg">
<path d="M98.0947 0.820801H0.469727V98.4389H98.0947V0.820801Z" fill="#E10A17"/>
<path d="M15.4479 88.1655L16.5944 82.6717H18.6873C19.9969 82.6717 20.6514 83.1498 20.6514 84.1054C20.6514 84.3705 20.6108 84.7935 20.534 85.3744C20.4551 85.9554 20.4169 86.3715 20.4169 86.622C20.4169 87.3561 20.4835 87.8726 20.6154 88.1655H25.2494C25.132 87.8865 25.0539 87.5118 25.011 87.0428C24.9941 86.7018 24.9941 86.2398 25.011 85.6519V84.1523C25.011 83.2993 24.9296 82.6518 24.7704 82.2118C24.5229 81.5483 24.0645 81.1237 23.3949 80.9313V80.8868C24.5344 80.6953 25.4364 80.2109 26.1024 79.4317C26.769 78.6516 27.1018 77.6882 27.1018 76.5418C27.1018 74.9983 26.6082 73.8948 25.6212 73.2327C24.8106 72.6887 23.5888 72.4173 21.9527 72.4173L13.9537 72.4166L10.6846 88.1655H15.4479ZM20.5952 76.1754C21.6848 76.1754 22.2291 76.6298 22.2291 77.5355C22.2291 78.0329 22.0382 78.4414 21.656 78.7646C21.2284 79.115 20.6314 79.2896 19.8659 79.2896H17.3039L17.9675 76.1751L20.5952 76.1754Z" fill="white"/>
<path d="M15.4479 88.1655L16.5944 82.6717H18.6873C19.9969 82.6717 20.6514 83.1498 20.6514 84.1054C20.6514 84.3705 20.6108 84.7935 20.534 85.3744C20.4551 85.9554 20.4169 86.3715 20.4169 86.622C20.4169 87.3561 20.4835 87.8726 20.6154 88.1655H25.2494C25.132 87.8865 25.0539 87.5118 25.011 87.0428V85.6519V84.1523C25.011 83.2993 24.9296 82.6518 24.7704 82.2118C24.5229 81.5483 24.0645 81.1237 23.3949 80.9313V80.8868C24.5344 80.6953 25.4364 80.2109 26.1024 79.4317C26.769 78.6516 27.1018 77.6882 27.1018 76.5418C27.1018 74.9983 26.6082 73.8948 25.6212 73.2327C24.8106 72.6887 23.5888 72.4173 21.9527 72.4173L13.9537 72.4166L10.6846 88.1655H15.4479ZM20.5952 76.1754C21.6848 76.1754 22.2291 76.6298 22.2291 77.5355C22.2291 78.0329 22.0382 78.4414 21.656 78.7646C21.2284 79.115 20.6314 79.2896 19.8659 79.2896H17.3039L17.9675 76.1751L20.5952 76.1754Z" stroke="white" stroke-width="0.100655"/>
<path d="M43.3069 72.4167L41.1428 82.8304C40.3497 86.6399 37.7748 88.5441 33.4206 88.5441C31.199 88.5441 29.4924 88.0597 28.3008 87.0881C27.2563 86.2199 26.7344 85.1025 26.7344 83.7346C26.7344 83.4402 26.7925 83.015 26.9114 82.4549L29.0074 72.4167H33.862L32.075 81.0134C31.9125 81.7929 31.832 82.2994 31.832 82.5345C31.832 83.0931 31.8903 83.4979 32.0075 83.747C32.2741 84.3201 32.8244 84.6069 33.6644 84.6069C34.561 84.6069 35.2584 84.2322 35.7588 83.4834C36.1274 82.9539 36.4224 82.1469 36.6424 81.0588L38.4516 72.4167H43.3069Z" fill="white"/>
<path d="M43.3069 72.4167L41.1428 82.8304C40.3497 86.6399 37.7748 88.5441 33.4206 88.5441C31.199 88.5441 29.4924 88.0597 28.3008 87.0881C27.2563 86.2199 26.7344 85.1025 26.7344 83.7346C26.7344 83.4402 26.7925 83.015 26.9114 82.4549L29.0074 72.4167H33.862L32.075 81.0134C31.9125 81.7929 31.832 82.2994 31.832 82.5345C31.832 83.0931 31.8903 83.4979 32.0075 83.747C32.2741 84.3201 32.8244 84.6069 33.6644 84.6069C34.561 84.6069 35.2584 84.2322 35.7588 83.4834C36.1274 82.9539 36.4224 82.1469 36.6424 81.0588L38.4516 72.4167H43.3069Z" stroke="white" stroke-width="0.100655"/>
<path d="M46.1498 88.1648L47.1438 83.4052H50.4138C52.4314 83.4052 54.0875 82.8167 55.3834 81.6411C56.6218 80.5077 57.2403 79.1254 57.2403 77.4915C57.2403 75.8003 56.8049 74.5204 55.9368 73.6523C55.1259 72.8293 53.9712 72.4169 52.4683 72.4169H44.6495L41.3574 88.1648H46.1498ZM50.2719 76.4643C51.6696 76.4643 52.3679 76.9333 52.3679 77.8689C52.3679 79.0538 51.5073 79.6469 49.7853 79.6469H47.9323L48.6167 76.4643H50.2719Z" fill="white"/>
<path d="M46.1498 88.1648L47.1438 83.4052H50.4138C52.4314 83.4052 54.0875 82.8167 55.3834 81.6411C56.6218 80.5077 57.2403 79.1254 57.2403 77.4915C57.2403 75.8003 56.8049 74.5204 55.9368 73.6523C55.1259 72.8293 53.9712 72.4169 52.4683 72.4169H44.6495L41.3574 88.1648H46.1498ZM50.2719 76.4643C51.6696 76.4643 52.3679 76.9333 52.3679 77.8689C52.3679 79.0538 51.5073 79.6469 49.7853 79.6469H47.9323L48.6167 76.4643H50.2719Z" stroke="white" stroke-width="0.100655"/>
<path d="M55.6562 88.165L58.9423 72.4161H71.9606L71.1445 76.4647H62.98L62.5618 78.4006H70.1321L69.3581 82.1593H61.7684L61.3487 84.1173H69.69L68.8501 88.165H55.6562Z" fill="white"/>
<path d="M55.6562 88.165L58.9423 72.4161H71.9606L71.1445 76.4647H62.98L62.5618 78.4006H70.1321L69.3581 82.1593H61.7684L61.3487 84.1173H69.69L68.8501 88.165H55.6562Z" stroke="white" stroke-width="0.100655"/>
<path d="M84.6965 77.1766H80.2081C80.2517 76.0792 79.5965 75.5306 78.2401 75.5306C76.9864 75.5306 76.3602 75.9575 76.3602 76.8096C76.3602 77.2947 76.8177 77.6771 77.7312 77.9567C78.5872 78.1767 79.4347 78.3988 80.2746 78.6188C82.7216 79.4863 83.9468 80.9347 83.9468 82.9639C83.9468 84.7433 83.1882 86.1473 81.6723 87.1764C80.3343 88.0884 78.7227 88.5435 76.8407 88.5435C74.8542 88.5435 73.2642 88.1021 72.0741 87.2185C70.7061 86.2039 70.0664 84.7548 70.1545 82.8704H74.859C74.859 83.6934 75.0566 84.2874 75.4545 84.6559C75.7489 84.9195 76.345 85.0514 77.2446 85.0514C77.7735 85.0507 78.2455 84.9264 78.657 84.6774C79.1284 84.3978 79.3629 84.0145 79.3629 83.5303C79.3629 83.0437 79.0019 82.6552 78.28 82.3602C77.3795 82.0673 76.4745 81.7792 75.5603 81.4996C74.3948 81.118 73.5249 80.6551 72.9509 80.111C72.1678 79.3761 71.7784 78.4129 71.7784 77.222C71.7784 75.5614 72.4849 74.2518 73.898 73.296C75.1349 72.4569 76.6361 72.0376 78.4026 72.0376C80.287 72.0376 81.7676 72.4062 82.8411 73.1411C84.1217 74.024 84.7401 75.369 84.6965 77.1766Z" fill="white"/>
<path d="M84.6965 77.1766H80.2081C80.2517 76.0792 79.5965 75.5306 78.2401 75.5306C76.9864 75.5306 76.3602 75.9575 76.3602 76.8096C76.3602 77.2947 76.8177 77.6771 77.7312 77.9567C78.5872 78.1767 79.4347 78.3988 80.2746 78.6188C82.7216 79.4863 83.9468 80.9347 83.9468 82.9639C83.9468 84.7433 83.1882 86.1473 81.6723 87.1764C80.3343 88.0884 78.7227 88.5435 76.8407 88.5435C74.8542 88.5435 73.2642 88.1021 72.0741 87.2185C70.7061 86.2039 70.0664 84.7548 70.1545 82.8704H74.859C74.859 83.6934 75.0566 84.2874 75.4545 84.6559C75.7489 84.9195 76.345 85.0514 77.2446 85.0514C77.7735 85.0507 78.2455 84.9264 78.657 84.6774C79.1284 84.3978 79.3629 84.0145 79.3629 83.5303C79.3629 83.0437 79.0019 82.6552 78.28 82.3602C77.3795 82.0673 76.4745 81.7792 75.5603 81.4996C74.3948 81.118 73.5249 80.6551 72.9509 80.111C72.1678 79.3761 71.7784 78.4129 71.7784 77.222C71.7784 75.5614 72.4849 74.2518 73.898 73.296C75.1349 72.4569 76.6361 72.0376 78.4026 72.0376C80.287 72.0376 81.7676 72.4062 82.8411 73.1411C84.1217 74.024 84.7401 75.369 84.6965 77.1766Z" stroke="white" stroke-width="0.100655"/>
<path d="M86.4227 73.6482V73.0711H86.8066C87.0036 73.0711 87.2127 73.1148 87.2127 73.3438C87.2127 73.6313 86.9988 73.6482 86.7598 73.6482H86.4227ZM86.4227 73.8859H86.7468L87.2379 74.6936H87.5544L87.024 73.8744C87.2984 73.8408 87.5069 73.6959 87.5069 73.3634C87.5069 72.9948 87.2893 72.8323 86.8494 72.8323H86.1404V74.6938H86.4224V73.8859H86.4227ZM86.7637 75.378C87.6433 75.378 88.3952 74.6944 88.3952 73.7595C88.3952 72.8323 87.6435 72.1494 86.7637 72.1494C85.8747 72.1494 85.123 72.8323 85.123 73.7595C85.123 74.6936 85.8747 75.378 86.7637 75.378ZM85.448 73.7595C85.448 72.9946 86.025 72.4184 86.7637 72.4184C87.4947 72.4178 88.0702 72.9948 88.0702 73.7595C88.0702 74.5365 87.4947 75.1081 86.7637 75.1081C86.025 75.1081 85.448 74.5372 85.448 73.7595Z" fill="white"/>
<path d="M86.4227 73.6482V73.0711H86.8066C87.0036 73.0711 87.2127 73.1148 87.2127 73.3438C87.2127 73.6313 86.9988 73.6482 86.7598 73.6482H86.4227ZM86.4227 73.8859H86.7468L87.2379 74.6936H87.5544L87.024 73.8744C87.2984 73.8408 87.5069 73.6959 87.5069 73.3634C87.5069 72.9948 87.2893 72.8323 86.8494 72.8323H86.1404V74.6938H86.4224V73.8859H86.4227ZM86.7637 75.378C87.6433 75.378 88.3952 74.6944 88.3952 73.7595C88.3952 72.8323 87.6435 72.1494 86.7637 72.1494C85.8747 72.1494 85.123 72.8323 85.123 73.7595C85.123 74.6936 85.8747 75.378 86.7637 75.378ZM85.448 73.7595C85.448 72.9946 86.025 72.4184 86.7637 72.4184C87.4947 72.4178 88.0702 72.9948 88.0702 73.7595C88.0702 74.5365 87.4947 75.1081 86.7637 75.1081C86.025 75.1081 85.448 74.5372 85.448 73.7595Z" stroke="white" stroke-width="0.0201744"/>
</svg>
