<svg width="126" height="50" viewBox="0 0 126 50" fill="none" xmlns="http://www.w3.org/2000/svg">
<g clip-path="url(#clip0_2795_22099)">
<path d="M30.2398 14.6561C30.1714 14.6614 30.124 14.6614 30.0714 14.6614C29.1289 14.6614 28.1811 14.6614 27.2386 14.6667C27.1017 14.6667 27.0543 14.6351 27.028 14.4929C26.8016 13.1871 26.5331 11.8866 26.1434 10.6229C25.7485 9.33291 25.2799 8.0745 24.4849 6.96351C23.6582 5.81041 22.5525 5.02588 21.2204 4.57306C19.4775 3.98335 17.6979 3.90963 15.9077 4.30453C13.8858 4.74682 12.401 5.89992 11.5743 7.82176C11.111 8.90115 11.0004 10.0437 11.1583 11.2074C11.4269 13.1871 12.4694 14.7088 14.0332 15.8988C15.5707 17.0677 17.2661 17.9786 18.9879 18.8473C20.5411 19.6319 22.1207 20.369 23.6529 21.1957C25.5063 22.2013 27.2439 23.3808 28.734 24.8919C30.2925 26.4768 31.2824 28.367 31.7984 30.5205C32.2091 32.237 32.3091 33.9798 32.1459 35.7332C31.8616 38.7028 30.7137 41.3092 28.8182 43.5996C27.8599 44.758 26.7753 45.7636 25.48 46.5376C24.2426 47.2748 22.9211 47.8066 21.5363 48.1909C20.3042 48.5332 19.051 48.7543 17.7821 48.8912C16.3499 49.0492 14.9125 49.1071 13.4751 49.0913C11.7744 49.0702 10.0842 48.9491 8.39932 48.7069C6.40903 48.4226 4.43453 48.0646 2.48637 47.5644C1.90718 47.4169 1.33853 47.2432 0.738281 47.0747C1.54387 42.5255 2.3442 38.0026 3.1498 33.4638H7.5358C7.4305 33.943 7.3094 34.4169 7.21989 34.896C6.91976 36.5335 6.90397 38.1658 7.2778 39.7928C7.67797 41.5356 8.65732 42.8624 10.1632 43.7944C12.2956 45.1107 14.5966 45.5688 17.045 44.958C19.4881 44.3473 21.1466 42.8045 21.9312 40.4193C22.6104 38.3448 22.5209 36.265 21.5521 34.2747C21.0308 33.2058 20.2463 32.3371 19.3354 31.5841C18.2455 30.6838 17.0239 29.994 15.776 29.3411C14.3544 28.5987 12.9064 27.9037 11.4848 27.1613C9.5103 26.1293 7.60425 24.9867 5.88249 23.5598C4.17653 22.1434 2.91286 20.4217 2.2231 18.2997C1.85979 17.173 1.67551 16.0199 1.63865 14.8352C1.586 13.2924 1.75449 11.776 2.18624 10.2859C2.7391 8.37988 3.70792 6.71078 5.03478 5.23649C7.07772 2.96714 9.65773 1.64028 12.5905 0.945258C14.0437 0.603012 15.518 0.423992 17.0081 0.350277C18.4087 0.281828 19.804 0.318685 21.1993 0.445053C22.5788 0.571421 23.9478 0.792564 25.301 1.08216C26.9227 1.42967 28.5128 1.88775 30.0924 2.39322C30.2398 2.44061 30.2346 2.53012 30.2346 2.64596C30.1925 4.72049 30.124 6.79502 30.1187 8.86956C30.1187 10.7229 30.1872 12.5763 30.224 14.4297C30.224 14.5034 30.224 14.5719 30.224 14.6667L30.2398 14.6561Z" fill="#DB3A48"/>
<path d="M111.806 41.1828C111.806 41.346 111.753 41.4356 111.621 41.5356C110.658 42.2412 109.594 42.7203 108.409 42.9098C106.803 43.1678 105.219 43.0362 103.771 42.2833C100.959 40.8248 98.9371 38.6291 97.8893 35.6069C97.4733 34.4169 97.3312 33.1795 97.3733 31.9211C97.4365 29.9256 97.9051 28.0248 98.7317 26.2188C99.4215 24.7129 100.422 23.465 101.865 22.6068C102.686 22.1276 103.571 21.8433 104.513 21.7591C105.619 21.659 106.709 21.7222 107.767 22.075C109.046 22.5015 109.978 23.3334 110.631 24.497C111.316 25.7239 111.669 27.056 111.716 28.446C111.795 30.6417 111.795 32.8373 111.827 35.0382C111.816 35.0382 111.806 35.0382 111.795 35.0382C111.795 37.0864 111.79 39.1346 111.8 41.1828H111.806ZM125.185 42.515C124.858 42.4096 124.5 42.357 124.153 42.3517C123.489 42.3412 122.826 42.378 122.162 42.3886C122.047 42.3938 121.925 42.3833 121.815 42.3623C120.978 42.1938 120.414 41.6883 120.077 40.9196C119.751 40.1771 119.698 39.3821 119.698 38.5923C119.693 26.0924 119.698 13.5873 119.698 1.08744V0.797852C115.375 1.48761 111.079 2.1721 106.767 2.85659C106.898 3.5832 107.025 4.28349 107.151 4.98904C107.198 4.97851 107.225 4.97851 107.251 4.97325C107.809 4.9048 108.367 4.79949 108.931 4.7679C109.457 4.74157 109.963 4.86794 110.415 5.1628C111.047 5.57876 111.347 6.20533 111.537 6.90562C111.774 7.79546 111.8 8.70109 111.8 9.61199C111.806 13.1819 111.806 16.757 111.806 20.3269V20.5744C111.716 20.527 111.669 20.5007 111.616 20.4743C111.205 20.2637 110.805 20.0268 110.379 19.853C108.82 19.2265 107.209 18.8474 105.529 18.7842C103.707 18.7157 101.917 18.9211 100.18 19.4739C97.6313 20.2795 95.5778 21.7696 94.0245 23.9389C92.5818 25.9555 91.792 28.2249 91.4393 30.6575C91.2023 32.3055 91.1918 33.9588 91.3919 35.6174C91.5972 37.3339 92.0185 38.9977 92.6819 40.5984C93.5875 42.7782 94.867 44.6895 96.7309 46.1691C98.5896 47.6434 100.711 48.3752 103.091 48.3594C104.524 48.3489 105.882 47.9961 107.209 47.4854C108.878 46.843 110.41 45.9953 111.7 44.7369C111.721 44.7158 111.748 44.7053 111.806 44.6685V48.3542C111.895 48.3542 111.958 48.3594 112.021 48.3542C112.832 48.2647 113.654 48.2015 114.459 48.0751C116.844 47.6908 119.182 47.101 121.452 46.2744C122.51 45.89 123.547 45.453 124.49 44.8264C124.958 44.5158 125.395 44.163 125.637 43.6312C125.853 43.1521 125.685 42.6834 125.195 42.5255L125.185 42.515Z" fill="#DB3A48"/>
<path d="M49.6849 32.2528C49.6217 32.2896 49.5902 32.3054 49.5586 32.3265C49.3374 32.4897 49.1268 32.6582 48.9004 32.8109C48.0474 33.3901 47.1313 33.8482 46.2098 34.301C44.9619 34.9118 43.693 35.4804 42.561 36.3071C41.4079 37.1495 40.5865 38.2184 40.2232 39.6137C40.0547 40.2666 39.9494 40.9195 40.0599 41.5987C40.2074 42.5044 40.6496 43.2678 41.2236 43.9628C42.1713 45.116 43.3666 45.5898 44.8303 45.1949C46.6732 44.6947 48.258 43.7206 49.6112 42.378C49.6691 42.3201 49.6849 42.2042 49.6849 42.1147C49.6902 38.9134 49.6902 35.7068 49.6902 32.5003V32.2633L49.6849 32.2528ZM49.8166 44.6421C49.2795 45.3318 48.6319 45.8742 47.9737 46.4112C46.6784 47.4801 45.1936 48.0487 43.5298 48.233C42.4767 48.3541 41.4289 48.3857 40.3759 48.3331C38.9805 48.2646 37.6116 48.0487 36.3163 47.4906C34.4629 46.7008 33.294 45.3318 32.8201 43.3784C32.5463 42.2464 32.52 41.0985 32.6832 39.9507C32.7885 39.2346 32.8991 38.508 33.0834 37.8077C33.3625 36.7652 34.0364 35.9596 34.8262 35.2487C35.8056 34.3694 36.9692 33.8166 38.1908 33.369C41.9607 32 45.7359 30.6363 49.5112 29.2726C49.6323 29.2305 49.6849 29.1778 49.6797 29.0409C49.6744 27.6298 49.6849 26.2187 49.6691 24.8076C49.6586 24.0652 49.5902 23.3281 49.29 22.6331C48.8899 21.7011 48.0737 21.2588 47.0839 21.4589C45.936 21.6906 44.8303 22.0381 43.8299 22.6699C42.3609 23.5966 41.529 24.9287 41.3552 26.661C41.3131 27.1086 41.3236 27.5561 41.3183 28.0037C41.3183 28.1142 41.2973 28.1774 41.1867 28.2195C39.1648 29.062 37.1482 29.9097 35.1263 30.7574C35.1053 30.768 35.0789 30.7732 35.0158 30.7943C34.9263 30.3783 34.8209 29.9782 34.763 29.5727C34.6103 28.5197 34.6419 27.4719 34.9105 26.4399C35.1685 25.4395 35.6371 24.5496 36.3005 23.7651C37.4905 22.354 38.9963 21.3904 40.6865 20.7007C42.5294 19.9477 44.4565 19.4844 46.4257 19.2159C47.6999 19.0421 48.9794 18.9947 50.2589 19.1264C52.0333 19.3106 53.6813 19.8319 55.0924 20.9692C56.4456 22.0591 57.3196 23.4597 57.783 25.1235C58.0463 26.0713 58.1305 27.0401 58.1305 28.0195C58.1358 32.3212 58.1252 36.6177 58.1358 40.9195C58.1358 41.5513 58.1832 42.1937 58.2674 42.8203C58.3095 43.1309 58.4464 43.4468 58.5991 43.7259C58.7834 44.0524 59.1151 44.1471 59.4416 43.9576C59.7259 43.7891 59.9734 43.5522 60.2208 43.3205C60.3788 43.173 60.4946 42.973 60.6473 42.815C60.8263 42.6307 61.0317 42.4622 61.3107 42.5465C61.6056 42.636 61.7004 42.894 61.7636 43.1572C61.8952 43.7417 61.8162 44.3104 61.6056 44.8579C61.1581 46.0426 60.3051 46.8272 59.1467 47.2905C58.3095 47.6275 57.4513 47.9066 56.5614 48.0856C54.8134 48.4384 53.2232 48.0751 51.7647 47.0694C51.0802 46.5955 50.4747 46.0584 50.0956 45.3055C49.9956 45.1054 49.9113 44.8895 49.8113 44.6526L49.8166 44.6421Z" fill="#DB3A48"/>
<path d="M79.3178 32.2372C79.0282 32.4478 78.7808 32.6374 78.528 32.8111C77.6066 33.4377 76.6062 33.9221 75.6058 34.4118C74.4421 34.9857 73.2574 35.5227 72.1991 36.2967C71.046 37.1392 70.2141 38.2133 69.8508 39.6139C69.677 40.2721 69.577 40.9355 69.6928 41.62C69.856 42.5519 70.3194 43.3312 70.9196 44.042C71.9095 45.2109 73.1521 45.59 74.6159 45.153C76.3535 44.637 77.8593 43.7156 79.1651 42.4572C79.2757 42.3519 79.3178 42.2413 79.3178 42.0833C79.3126 38.8925 79.3126 35.7018 79.3126 32.5057V32.2425L79.3178 32.2372ZM79.4495 44.6423C78.9229 45.3215 78.2911 45.848 77.654 46.3746C76.3482 47.4645 74.8476 48.0489 73.1679 48.2332C71.7832 48.3859 70.3984 48.4017 69.0189 48.2543C67.5709 48.1016 66.1756 47.7541 64.933 46.9537C63.5061 46.0323 62.7005 44.7002 62.3793 43.0521C62.174 42.0043 62.1634 40.946 62.3214 39.8877C62.4267 39.1874 62.5267 38.4871 62.711 37.8026C62.9901 36.7654 63.6588 35.965 64.438 35.2542C65.3911 34.3907 66.5178 33.8378 67.7131 33.4008C71.5199 32.0108 75.332 30.6365 79.1441 29.2623C79.2757 29.2149 79.3231 29.157 79.3178 29.0148C79.3126 27.7143 79.3178 26.4137 79.3126 25.1132C79.3073 24.3655 79.2652 23.6179 79.0335 22.9018C78.8282 22.2594 78.449 21.7592 77.8014 21.5012C77.4908 21.3801 77.1643 21.3643 76.8431 21.4275C75.6426 21.6592 74.4843 22.0119 73.4417 22.6754C71.999 23.5968 71.1724 24.9131 70.9986 26.6191C70.9512 27.0772 70.9723 27.5405 70.9565 28.0039C70.9512 28.0723 70.9038 28.1724 70.8512 28.1934C68.8083 29.0569 66.7653 29.9099 64.7224 30.7682C64.7171 30.7682 64.7118 30.7682 64.6645 30.7682C64.596 30.4733 64.5118 30.1679 64.4538 29.8573C64.1958 28.4198 64.2696 27.0087 64.8066 25.6397C65.1699 24.713 65.728 23.9127 66.4336 23.2124C67.8658 21.7803 69.6033 20.8746 71.5094 20.2533C73.1627 19.711 74.8476 19.3319 76.5851 19.1476C78.0489 18.9897 79.5074 18.9897 80.9553 19.274C82.735 19.6162 84.3093 20.3692 85.5572 21.7171C86.584 22.8333 87.2369 24.1444 87.5475 25.6292C87.716 26.4243 87.7739 27.2246 87.7739 28.0302C87.7792 32.3372 87.7687 36.639 87.7792 40.946C87.7792 41.5673 87.8266 42.1939 87.9108 42.8099C87.9529 43.1206 88.0898 43.4365 88.2478 43.7103C88.4321 44.0368 88.7638 44.1263 89.0902 43.9315C89.3693 43.7682 89.6168 43.5366 89.8537 43.3101C90.0327 43.1417 90.1591 42.9205 90.3329 42.7468C90.7646 42.3308 91.2069 42.4466 91.3754 43.0258C91.5544 43.6366 91.4702 44.2368 91.2543 44.8213C90.8278 45.9639 90.0222 46.7484 88.9112 47.217C88.0372 47.5856 87.1316 47.8752 86.1996 48.0647C84.4515 48.4228 82.8614 48.0489 81.4029 47.0433C80.7237 46.5746 80.1234 46.0376 79.7443 45.2952C79.639 45.0898 79.5548 44.8687 79.4495 44.6317V44.6423Z" fill="#DB3A48"/>
</g>
<defs>
<clipPath id="clip0_2795_22099">
<rect width="124.978" height="48.7835" fill="white" transform="translate(0.744141 0.30835)"/>
</clipPath>
</defs>
</svg>
