<svg width="184" height="57" viewBox="0 0 184 57" fill="none" xmlns="http://www.w3.org/2000/svg">
<path fill-rule="evenodd" clip-rule="evenodd" d="M61.8536 26.4412L60.0269 30.7013C63.459 32.1546 65.1509 32.7347 69.3321 33.0639C75.7307 33.5717 82.9605 32.3255 84.9843 27.9026C86.2578 25.1212 85.3231 22.1014 82.2213 20.7105C77.9605 18.793 66.9884 20.0946 65.1786 18.7318C64.6254 18.3129 64.4653 17.4306 64.9734 16.8239C65.8562 15.7637 68.8855 15.2374 71.4456 15.0865C76.0895 14.8185 80.1629 16.0131 82.9443 16.9848L84.5747 12.849C82.9158 11.8065 78.1999 10.8345 75.9024 10.6651C72.3641 10.4156 69.0919 10.5396 65.8731 11.5116C57.4145 14.0705 58.0932 20.7714 63.6003 22.8144C65.3107 23.4477 67.3175 23.5705 69.3587 23.6263C71.9803 23.7064 75.6533 23.7422 78.0933 24.0355C79.1804 24.168 80.0532 24.4902 80.2869 25.1396C80.5975 25.9958 80.1344 26.6387 79.6986 27.0291C78.772 27.8502 76.8652 28.3214 74.8772 28.5359C72.0962 28.8381 69.1816 28.6864 66.4641 27.9915C65.0093 27.6277 63.6376 27.1199 61.8536 26.4412ZM152.252 32.4306H157.931L160.347 28.2321H175.293L177.708 32.4306L183.379 32.4402L171.255 11.1829H164.367L152.252 32.4306ZM163.02 23.5705L172.62 23.5801L167.871 15.2466L163.02 23.5705ZM122.118 32.396L127.474 32.4329V17.6358L142.849 32.4518L148.205 32.4422L148.196 11.1659L142.847 11.194V25.9261L127.524 11.1659H122.127V32.3983H122.118L122.118 32.396ZM87.5686 32.4302H93.2473L95.6526 28.2317H110.601L113.015 32.4302L118.685 32.4399L106.562 11.1825H99.6713L87.5686 32.4302ZM98.3443 23.5701L107.946 23.5797L103.195 15.2462L98.3443 23.5701Z" fill="black"/>
<path fill-rule="evenodd" clip-rule="evenodd" d="M32.5867 21.1563L12.167 8.98006L23.854 0.609619L44.2736 12.7763L32.5867 21.1563Z" fill="#ED1C24"/>
<path fill-rule="evenodd" clip-rule="evenodd" d="M44.2755 12.7744L32.5889 21.1613V26.5013L44.2755 18.1212V12.7744Z" fill="#0095DA"/>
<path fill-rule="evenodd" clip-rule="evenodd" d="M44.2682 23.4704L32.5107 31.8039L32.5816 47.8745L44.2682 39.496V23.4704Z" fill="#0095DA"/>
<path fill-rule="evenodd" clip-rule="evenodd" d="M40.2115 21.0374L32.5918 26.5013L16.6786 17.0175L16.6689 22.3575L32.5891 31.8416L44.2757 23.4704L40.2115 21.0374Z" fill="black"/>
<path fill-rule="evenodd" clip-rule="evenodd" d="M12.1662 35.7906L32.5863 47.8772L20.8932 56.248L0.543945 44.1145L12.1662 35.7906Z" fill="#FFCB05"/>
<path fill-rule="evenodd" clip-rule="evenodd" d="M0.543945 44.113L12.1666 35.7887V30.3529L0.543945 38.686V44.113Z" fill="#00A651"/>
<path fill-rule="evenodd" clip-rule="evenodd" d="M0.543945 33.3322L12.1666 25.008V8.98004L0.543945 17.3054V33.3322Z" fill="#00A651"/>
<path fill-rule="evenodd" clip-rule="evenodd" d="M4.69741 35.699L12.1666 30.3526L28.0775 39.8456V34.4964L12.1666 25.003L0.543945 33.3299L4.69741 35.699Z" fill="black"/>
<path fill-rule="evenodd" clip-rule="evenodd" d="M28.0749 39.8475L12.1641 30.3541V35.7903L32.5841 47.8772V31.8435L16.6655 22.3598L16.6748 17.0194L32.5841 26.5036V21.1556L12.1668 8.98083V25.0076L28.0776 34.501V39.8475H28.0749Z" fill="white"/>
<path d="M63.3744 46.6353C62.9302 46.6353 62.5209 46.5529 62.1491 46.3862C61.7756 46.2195 61.4719 45.9832 61.2344 45.6767L62.0794 44.6619C62.2607 44.8995 62.4528 45.0808 62.6541 45.202C62.8555 45.3222 63.0703 45.3845 63.3009 45.3845C63.9207 45.3845 64.2314 45.0207 64.2314 44.2954V41.1675H61.9219V39.9464H65.7462V44.2115C65.7462 45.025 65.5449 45.634 65.1449 46.034C64.7395 46.4343 64.1517 46.6353 63.374 46.6353H63.3744Z" fill="black"/>
<path d="M67.7054 45.112L68.1108 43.9574H71.492L71.9066 45.112H67.7054ZM66.2402 46.5213L69.171 39.9453H70.674L73.6151 46.5213H72.0194L69.6126 40.716H70.2155L67.7994 46.5229H66.2406V46.5213H66.2402Z" fill="black"/>
<path d="M78.02 39.4382C77.8575 39.4382 77.7135 39.4086 77.588 39.3485C77.4614 39.29 77.3497 39.2207 77.2492 39.1433C77.148 39.0648 77.0545 38.9967 76.9682 38.9366C76.8812 38.8781 76.7919 38.8473 76.7057 38.8473C76.579 38.8473 76.4762 38.8943 76.3935 38.9843C76.3122 39.0767 76.2656 39.2072 76.2522 39.3739H75.5096C75.5203 38.9551 75.6254 38.6217 75.8202 38.3738C76.015 38.127 76.2776 38.0042 76.6098 38.0042C76.7711 38.0042 76.9163 38.0339 77.0418 38.0924C77.1669 38.1524 77.2816 38.2233 77.384 38.3033C77.4868 38.3857 77.5826 38.4539 77.6708 38.5139C77.7574 38.574 77.8413 38.6032 77.9241 38.6032C78.0562 38.6032 78.1616 38.5582 78.2444 38.4662C78.3268 38.3742 78.3695 38.2514 78.378 38.0954H79.1206C79.1137 38.4958 79.0124 38.8207 78.8138 39.0675C78.6178 39.3143 78.3526 39.4382 78.0204 39.4382H78.02ZM74.2988 46.5206V39.946H75.5573L79.4363 44.6796H78.8253V39.946H80.3283V46.5206H79.0786L75.1896 41.7873H75.8002V46.5206H74.2988Z" fill="black"/>
<path d="M82.491 45.112L82.8964 43.9574H86.2776L86.6922 45.112H82.491ZM81.0273 46.5213L83.9597 39.9453H85.4622L88.4038 46.5213H86.8077L84.3982 40.716H85.001L82.5849 46.5213H81.0277H81.0273Z" fill="black"/>
<path d="M92.9372 38.323H96.4131V39.1484H92.9372V38.323ZM94.6664 46.6349C93.7333 46.6349 93.0037 46.3751 92.4786 45.855C91.952 45.3364 91.6895 44.5938 91.6895 43.6283V39.9457H93.2097V43.5736C93.2097 44.2004 93.3391 44.6512 93.5947 44.9272C93.8507 45.2048 94.2118 45.3418 94.6734 45.3418C95.1376 45.3418 95.4972 45.2048 95.7536 44.9272C96.0096 44.6523 96.1374 44.2004 96.1374 43.5736V39.9457H97.64V43.6283C97.64 44.5934 97.3774 45.3337 96.8508 45.855C96.3295 46.3751 95.6 46.6349 94.6664 46.6349Z" fill="black"/>
<path d="M103.327 46.521L101.684 44.1357H103.309L104.972 46.521H103.327ZM100.67 44.1927L99.9929 43.4793H101.91C102.379 43.4793 102.73 43.3781 102.963 43.1756C103.193 42.9715 103.309 42.6897 103.309 42.3329C103.309 41.9702 103.193 41.6888 102.963 41.4875C102.73 41.2865 102.379 41.1876 101.91 41.1876H99.9929L100.67 40.465V44.1927ZM99.1475 46.521V39.946H101.994C102.582 39.946 103.09 40.0419 103.516 40.2313C103.941 40.4234 104.271 40.6956 104.501 41.0525C104.731 41.4086 104.849 41.8351 104.849 42.3309C104.849 42.8202 104.731 43.2402 104.501 43.5937C104.27 43.9471 103.941 44.2177 103.516 44.4044C103.09 44.5927 102.582 44.6858 101.994 44.6858H99.9929L100.67 44.019V46.5175H99.1475V46.5202V46.521Z" fill="black"/>
<path d="M109.866 43.1682C109.635 43.3696 109.284 43.4693 108.814 43.4693H107.574V41.188H108.814C109.284 41.188 109.635 41.288 109.866 41.4871C110.097 41.688 110.214 41.9698 110.214 42.3336C110.214 42.6882 110.097 42.9665 109.866 43.1682ZM111.407 41.0551C111.177 40.699 110.848 40.4242 110.422 40.234C109.997 40.0419 109.489 39.9487 108.899 39.9487H106.052V46.5233H107.575V44.7097H108.899C109.487 44.7097 109.995 44.6138 110.422 44.4244C110.848 44.2339 111.177 43.959 111.407 43.6033C111.638 43.246 111.755 42.8233 111.755 42.334C111.755 41.8378 111.638 41.4124 111.407 41.0555V41.0551Z" fill="black"/>
<path d="M114.268 43.9574L115.316 41.4397L116.359 43.9574H114.268ZM116.075 39.9464H114.572L111.64 46.521H113.2L113.785 45.112H116.833L117.417 46.521H119.013L116.075 39.9464Z" fill="black"/>
<path d="M124.944 48.035C124.688 48.035 124.445 48.0066 124.217 47.9507C123.988 47.8938 123.761 47.8041 123.54 47.6774C123.317 47.5519 123.084 47.3825 122.844 47.1708C122.604 46.9571 122.341 46.6946 122.06 46.3812L123.656 45.9762C123.826 46.208 123.981 46.392 124.125 46.5294C124.269 46.6665 124.409 46.7654 124.544 46.8201C124.679 46.8771 124.82 46.9055 124.972 46.9055C125.372 46.9055 125.728 46.7427 126.041 46.4162L126.718 47.2228C126.274 47.7656 125.682 48.035 124.944 48.035ZM122.792 45.3387C123.087 45.3387 123.357 45.2879 123.604 45.1882C123.851 45.0869 124.068 44.943 124.256 44.7547C124.443 44.568 124.589 44.3443 124.692 44.0825C124.795 43.8227 124.848 43.5386 124.848 43.2318C124.848 42.9184 124.795 42.6347 124.692 42.3771C124.589 42.1196 124.443 41.8986 124.256 41.7092C124.068 41.5209 123.851 41.377 123.604 41.2773C123.357 41.176 123.084 41.1252 122.792 41.1252C122.497 41.1252 122.225 41.176 121.976 41.2773C121.724 41.377 121.506 41.5209 121.324 41.7092C121.138 41.8959 120.994 42.1184 120.892 42.3771C120.788 42.6335 120.736 42.9184 120.736 43.2318C120.736 43.5386 120.788 43.8227 120.892 44.0825C120.994 44.3439 121.138 44.568 121.324 44.7547C121.509 44.943 121.726 45.0869 121.976 45.1882C122.225 45.2879 122.497 45.3387 122.792 45.3387ZM122.792 46.6345C122.277 46.6345 121.801 46.5506 121.36 46.3812C120.918 46.2118 120.538 45.9747 120.215 45.6679C119.892 45.361 119.64 44.9996 119.462 44.5876C119.284 44.1746 119.194 43.7238 119.194 43.2345C119.194 42.7452 119.284 42.294 119.462 41.8794C119.639 41.4663 119.892 41.1075 120.218 40.8007C120.544 40.4942 120.925 40.2567 121.365 40.0873C121.804 39.9179 122.28 39.8325 122.792 39.8325C123.31 39.8325 123.789 39.9179 124.224 40.0873C124.659 40.2567 125.037 40.4915 125.36 40.7953C125.682 41.0994 125.934 41.4594 126.117 41.8701C126.297 42.2847 126.389 42.7378 126.389 43.2341C126.389 43.723 126.297 44.1742 126.117 44.5922C125.936 45.0084 125.682 45.3695 125.36 45.6709C125.037 45.9751 124.659 46.2111 124.224 46.3804C123.789 46.5498 123.31 46.6338 122.792 46.6338V46.6345Z" fill="black"/>
<path d="M133.378 45.3383C133.672 45.3383 133.943 45.2875 134.19 45.1878C134.436 45.0866 134.654 44.9426 134.842 44.7559C135.029 44.5676 135.175 44.3467 135.278 44.0876C135.382 43.8316 135.434 43.5448 135.434 43.2314C135.434 42.918 135.382 42.6358 135.278 42.3768C135.175 42.1207 135.031 41.8982 134.846 41.7088C134.661 41.5206 134.443 41.3766 134.194 41.2769C133.943 41.1756 133.671 41.126 133.378 41.126C133.083 41.126 132.812 41.1756 132.566 41.2769C132.319 41.3766 132.102 41.5206 131.913 41.7088C131.727 41.8967 131.58 42.1181 131.478 42.3768C131.374 42.6328 131.322 42.918 131.322 43.2314C131.322 43.5382 131.374 43.8223 131.478 44.0822C131.58 44.3436 131.724 44.5676 131.91 44.7559C132.095 44.9426 132.312 45.0866 132.562 45.1878C132.812 45.2875 133.084 45.3383 133.378 45.3383ZM133.39 46.6357C132.87 46.6357 132.39 46.5502 131.946 46.3808C131.504 46.2115 131.123 45.9743 130.8 45.6675C130.478 45.3607 130.226 44.9992 130.048 44.5873C129.87 44.1742 129.78 43.7234 129.78 43.2337C129.78 42.7448 129.87 42.2936 130.048 41.8805C130.225 41.4659 130.477 41.1071 130.804 40.8003C131.13 40.4939 131.511 40.2563 131.951 40.0869C132.39 39.9176 132.866 39.8321 133.378 39.8321C133.896 39.8321 134.375 39.9176 134.81 40.0869C135.245 40.2563 135.623 40.4935 135.946 40.8003C136.268 41.1071 136.52 41.4659 136.703 41.8751C136.883 42.2844 136.975 42.7375 136.975 43.2333C136.975 43.7226 136.883 44.1738 136.703 44.5919C136.522 45.008 136.268 45.3691 135.946 45.6706C135.623 45.9759 135.245 46.2107 134.81 46.3801C134.378 46.5495 133.902 46.6349 133.39 46.6349V46.6357Z" fill="black"/>
<path d="M142.304 46.521L140.66 44.1357H142.286L143.948 46.521H142.304ZM139.644 44.1927L138.967 43.4793H140.884C141.352 43.4793 141.706 43.3781 141.936 43.1756C142.167 42.9715 142.284 42.6897 142.284 42.3329C142.284 41.9702 142.167 41.6888 141.936 41.4875C141.706 41.2865 141.352 41.1876 140.884 41.1876H138.967L139.644 40.465V44.1927ZM138.124 46.521V39.946H140.971C141.559 39.946 142.067 40.0419 142.492 40.2313C142.917 40.4234 143.247 40.6956 143.477 41.0525C143.708 41.4086 143.825 41.8351 143.825 42.3309C143.825 42.8202 143.708 43.2402 143.477 43.5937C143.247 43.9471 142.917 44.2177 142.492 44.4044C142.067 44.5927 141.559 44.6858 140.971 44.6858H138.97L139.647 44.019V46.5175H138.124V46.5202V46.521Z" fill="black"/>
<path d="M146.294 46.521V41.1853H144.19V39.9464H149.921V41.1853H147.817V46.521H146.294Z" fill="black"/>
<path d="M151.013 45.112L151.418 43.9574H154.799L155.214 45.112H151.013ZM149.548 46.5213L152.479 39.9453H153.981L156.923 46.5213H155.327L152.919 40.716H153.52L151.105 46.5229H149.548V46.5213Z" fill="black"/>
<path d="M157.606 46.521V39.9464H159.127V45.281H162.425V46.521H157.606Z" fill="black"/>
<path d="M164.238 46.521V43.8342L164.586 44.7559L161.692 39.9464H163.31L165.526 43.6371H164.595L166.822 39.9464H168.315L165.422 44.7559L165.761 43.8342V46.521H164.238Z" fill="black"/>
<path d="M173.116 45.6016V43.1324H174.507V45.8003L173.116 45.6016ZM171.811 39.4856C171.322 39.4856 170.916 39.3578 170.594 39.1018C170.271 38.8458 170.1 38.4993 170.082 38.0593H171.003C171.015 38.266 171.099 38.4296 171.253 38.5482C171.406 38.6668 171.594 38.7268 171.811 38.7268C172.03 38.7268 172.218 38.6668 172.374 38.5482C172.529 38.4296 172.612 38.2671 172.618 38.0593H173.539C173.522 38.4993 173.35 38.8458 173.027 39.1018C172.705 39.3582 172.301 39.4856 171.812 39.4856H171.811ZM171.847 46.6349C171.328 46.6349 170.849 46.5537 170.415 46.3858C169.98 46.2191 169.601 45.9828 169.279 45.6775C168.956 45.371 168.704 45.0095 168.527 44.5976C168.348 44.1842 168.259 43.7311 168.259 43.2352C168.259 42.7405 168.348 42.2859 168.527 41.8713C168.704 41.4578 168.956 41.099 169.283 40.7926C169.608 40.4857 169.99 40.2482 170.43 40.0831C170.869 39.9164 171.351 39.8336 171.876 39.8336C172.46 39.8336 172.984 39.9295 173.45 40.1243C173.916 40.319 174.31 40.6005 174.63 40.9708L173.653 41.8713C173.416 41.6229 173.155 41.4351 172.874 41.3138C172.592 41.1925 172.286 41.1313 171.952 41.1313C171.632 41.1313 171.341 41.1806 171.079 41.2819C170.815 41.382 170.59 41.5259 170.398 41.7138C170.204 41.9021 170.059 42.123 169.956 42.3821C169.852 42.6381 169.8 42.9234 169.8 43.2368C169.8 43.5432 169.852 43.825 169.956 44.0833C170.059 44.3397 170.204 44.5634 170.398 44.7555C170.59 44.9476 170.813 45.0931 171.073 45.1928C171.335 45.2929 171.62 45.3437 171.934 45.3437C172.234 45.3437 172.525 45.2956 172.812 45.197C173.098 45.1012 173.375 44.9372 173.645 44.7039L174.51 45.8037C174.152 46.0732 173.736 46.2796 173.264 46.4235C172.79 46.5621 172.318 46.6357 171.847 46.6357V46.6349Z" fill="black"/>
<path d="M177.551 46.521V43.8342L177.899 44.7559L175.006 39.9464H176.623L178.839 43.6371H177.909L180.135 39.9464H181.629L178.735 44.7559L179.074 43.8342V46.521H177.551Z" fill="black"/>
</svg>
