<svg width="294" height="57" viewBox="0 0 294 57" fill="none" xmlns="http://www.w3.org/2000/svg">
<g clip-path="url(#clip0_2795_22205)">
<path d="M40.75 23.0596L45.325 12.0134L56.3732 16.5908L51.7964 27.6374L40.75 23.0596Z" fill="#FECC00"/>
<path d="M40.75 23.0595L56.3732 16.5907L51.7964 27.6373L40.75 23.0595Z" fill="#F9B101"/>
<path d="M45.3252 12.0145L40.75 23.0604L48.5615 19.8241L45.3252 12.0145Z" fill="#FFE173"/>
<path d="M23.1252 15.7611L12.0771 11.1843L16.654 0.13623L27.7021 4.71311L23.1252 15.7611Z" fill="#FECC00"/>
<path d="M23.1255 15.7611L16.6543 0.13623L27.7023 4.71311L23.1255 15.7611Z" fill="#F9B101"/>
<path d="M12.0781 11.1837L23.1264 15.7606L19.8937 7.94934L12.0781 11.1837Z" fill="#FFE173"/>
<path d="M33.4499 40.6873L44.4946 45.2625L39.9194 56.3086L28.873 51.7334L33.4499 40.6873Z" fill="#FECC00"/>
<path d="M33.4499 40.6873L39.9194 56.3086L28.873 51.7334L33.4499 40.6873Z" fill="#F9B101"/>
<path d="M44.4949 45.262L33.4512 40.6873L36.6877 48.4969L44.4949 45.262Z" fill="#FFE173"/>
<path d="M15.8252 33.3847L11.2483 44.4332L0.204102 39.8561L4.77861 28.8079L15.8252 33.3847Z" fill="#FECC00"/>
<path d="M15.8252 33.3847L0.204102 39.8561L4.77861 28.8079L15.8252 33.3847Z" fill="#F9B101"/>
<path d="M11.2484 44.4323L15.8252 33.384L8.01562 36.621L11.2484 44.4323Z" fill="#FFE173"/>
<path d="M40.75 33.3847L51.7964 28.8079L56.3732 39.8561L45.325 44.4332L40.75 33.3847Z" fill="#FECC00"/>
<path d="M40.75 33.3848L56.3732 39.8562L45.325 44.4333L40.75 33.3848Z" fill="#F9B101"/>
<path d="M51.7959 28.8084L40.75 33.3853L48.5634 36.6218L51.7959 28.8084Z" fill="#FFE173"/>
<path d="M33.4499 15.7611L28.873 4.71097L39.9194 0.13623L44.4946 11.1843L33.4499 15.7611Z" fill="#FECC00"/>
<path d="M33.4502 15.7611L39.9197 0.13623L44.4949 11.1843L33.4502 15.7611Z" fill="#F9B101"/>
<path d="M28.873 4.71106L33.4499 15.7612L36.6886 7.94972L28.873 4.71106Z" fill="#FFE173"/>
<path d="M23.1252 40.6873L27.7021 51.7334L16.6552 56.3086L12.0771 45.2625L23.1252 40.6873Z" fill="#FECC00"/>
<path d="M23.1252 40.6873L16.6552 56.3086L12.0771 45.2625L23.1252 40.6873Z" fill="#F9B101"/>
<path d="M27.7032 51.7328L23.1263 40.6867L19.8936 48.4963L27.7032 51.7328Z" fill="#FFE173"/>
<path d="M15.8252 23.0596L4.77861 27.6374L0.204102 16.5908L11.2483 12.0134L15.8252 23.0596Z" fill="#FECC00"/>
<path d="M15.8252 23.0596L0.204102 16.5908L11.2483 12.0134L15.8252 23.0596Z" fill="#F9B101"/>
<path d="M4.7793 27.6366L15.8257 23.0595L8.01416 19.8246L4.7793 27.6366Z" fill="#FFE173"/>
<path d="M293.284 34.3754H282.008V22.3511H283.999V32.5817H293.285V34.3754H293.284ZM272.724 29.8934L269.662 24.0665L266.563 29.8934H272.724ZM277.261 34.3754H275.077L273.692 31.6847H265.596L264.209 34.3754H262.026L268.389 22.3511H270.895L277.261 34.3754ZM258.955 24.1465H253.209V34.3754H251.214V24.1465H245.469V22.3511H258.955V24.1465ZM240.635 34.3754H238.642V22.3511H240.635V34.3754ZM229.507 27.9989C231.045 27.9989 231.816 27.3792 231.816 26.1373C231.816 24.8107 231.002 24.1465 229.375 24.1465H222.317V27.9989H229.507ZM229.858 22.3511C231.088 22.3511 232.058 22.6915 232.778 23.3719C233.497 24.0535 233.857 24.9656 233.857 26.1043C233.857 27.3021 233.484 28.214 232.736 28.8453C231.99 29.4766 230.902 29.7923 229.472 29.7923H222.317V34.3756H220.324V22.3514H229.858V22.3511ZM211.039 29.8936L207.974 24.0668L204.873 29.8936H211.039ZM215.573 34.3756H213.392L212.007 31.6849H203.907L202.522 34.3756H200.343L206.702 22.3514H209.212L215.573 34.3756ZM196.272 25.0937L194.462 25.7388C193.242 24.4444 191.537 23.7956 189.347 23.7956C187.685 23.7956 186.333 24.2214 185.285 25.0745C184.241 25.9283 183.718 27.0094 183.718 28.3303C183.718 29.6936 184.235 30.7901 185.268 31.6266C186.308 32.4633 187.703 32.882 189.463 32.882C191.59 32.882 193.261 32.2234 194.478 30.9042L196.19 31.8496C195.326 32.8585 194.348 33.5868 193.257 34.0366C192.163 34.4838 190.866 34.7063 189.347 34.7063C187.222 34.7063 185.454 34.1758 184.049 33.1142C182.441 31.8956 181.64 30.3019 181.64 28.3303C181.64 26.393 182.455 24.811 184.082 23.5809C185.5 22.5075 187.253 21.9694 189.347 21.9694C192.359 21.9694 194.666 23.009 196.272 25.0935L196.272 25.0937ZM168.521 22.3511L161.945 29.6258V34.3754H159.952V29.6258L153.374 22.3511H155.859L160.957 27.9664L166.036 22.3511H168.52H168.521ZM147.958 34.3754H145.479L136.3 24.5142V34.3754H134.307V22.3511H136.782L145.968 32.2156V22.3511H147.958V34.3754ZM123.429 27.9989C124.965 27.9989 125.734 27.3792 125.734 26.1373C125.734 24.8107 124.905 24.1465 123.245 24.1465H116.235V27.9989H123.429ZM127.878 34.3754H125.56L122.306 29.7921H116.235V34.3754H114.241V22.3511H123.727C124.99 22.3511 125.982 22.6915 126.701 23.3719C127.419 24.0535 127.777 24.977 127.777 26.1376C127.777 27.1567 127.485 27.9756 126.898 28.5976C126.356 29.1708 125.61 29.5352 124.656 29.6936L127.879 34.3756L127.878 34.3754ZM107.914 34.3754H95.326V22.3511H107.452V24.1465H97.3176V27.2321H104.36V29.0275H97.3176V32.5817H107.914V34.3754ZM89.9103 22.3511L83.4354 34.3754H81.1416L74.6631 22.3511H76.8881L82.2865 32.3724L87.6846 22.3511H89.9101H89.9103Z" fill="#5C5C5E"/>
</g>
<defs>
<clipPath id="clip0_2795_22205">
<rect width="293.08" height="56.1723" fill="white" transform="translate(0.204102 0.136108)"/>
</clipPath>
</defs>
</svg>
