<svg width="75" height="91" viewBox="0 0 75 91" fill="none" xmlns="http://www.w3.org/2000/svg">
<path fill-rule="evenodd" clip-rule="evenodd" d="M46.0386 88.6754L32.5168 85.2095L33.2632 79.2019L42.0741 81.4745L44.8182 67.1787L62.1957 69.9384L68.5978 17.4846L14.6344 6.44169L6.40317 72.272L16.4145 74.8547L17.3775 71.5359L30.1838 74.5396L26.837 91L20.0038 85.6046L12.8143 87.266L14.7342 80.6503L0 76.8743L10.0603 0L75 12.8834L67.1061 76.042L46.0386 88.6754ZM61.2806 25.7678L60.3666 32.2095L21.0376 24.8465L21.9516 18.4059L61.2806 25.7678ZM19.2085 37.7309L20.1215 31.2892L47.5623 35.8905L46.6462 42.3322L19.2085 37.7309ZM34.0714 67.4788L32.5098 71.5559L15.8348 67.9469L16.6081 62.3234L13.7044 57.4001L17.603 54.3103L18.4711 48.1887L23.4962 48.9649L26.5377 44.8738L30.8833 48.9329L36.0352 47.8176L36.577 53.5491L40.9865 56.6629L38.404 60.782L38.9768 66.0414L34.0714 67.4788Z" fill="#E3E3E3"/>
</svg>
